<?xml version="1.0" encoding="UTF-8" standalone="no"?>
<!-- Created with Inkscape (http://www.inkscape.org/) -->

<svg
   xmlns:dc="http://purl.org/dc/elements/1.1/"
   xmlns:cc="http://creativecommons.org/ns#"
   xmlns:rdf="http://www.w3.org/1999/02/22-rdf-syntax-ns#"
   xmlns:svg="http://www.w3.org/2000/svg"
   xmlns="http://www.w3.org/2000/svg"
   xmlns:sodipodi="http://sodipodi.sourceforge.net/DTD/sodipodi-0.dtd"
   xmlns:inkscape="http://www.inkscape.org/namespaces/inkscape"
   width="34.109592"
   height="26.464952"
   id="svg3309"
   version="1.1"
   inkscape:version="0.48.4 r9939"
   sodipodi:docname="Nowy dokument 15">
  <defs
     id="defs3311" />
  <sodipodi:namedview
     id="base"
     pagecolor="#ffffff"
     bordercolor="#666666"
     borderopacity="1.0"
     inkscape:pageopacity="0.0"
     inkscape:pageshadow="2"
     inkscape:zoom="5.6"
     inkscape:cx="33.596852"
     inkscape:cy="3.6959194"
     inkscape:document-units="px"
     inkscape:current-layer="layer1"
     showgrid="false"
     fit-margin-top="0"
     fit-margin-left="0"
     fit-margin-right="0"
     fit-margin-bottom="0"
     inkscape:window-width="1280"
     inkscape:window-height="1000"
     inkscape:window-x="0"
     inkscape:window-y="24"
     inkscape:window-maximized="1" />
  <metadata
     id="metadata3314">
    <rdf:RDF>
      <cc:Work
         rdf:about="">
        <dc:format>image/svg+xml</dc:format>
        <dc:type
           rdf:resource="http://purl.org/dc/dcmitype/StillImage" />
        <dc:title></dc:title>
      </cc:Work>
    </rdf:RDF>
  </metadata>
  <g
     inkscape:label="Layer 1"
     inkscape:groupmode="layer"
     id="layer1"
     transform="translate(-426.66074,-547.08431)">
    <g
       id="g3382"
       transform="translate(1.1607143,8.4821429)">
      <path
         style="fill:#4a5751"
         d="m 440.29134,563.90262 c -2.54226,-1.95064 -14.79131,-17.8476 -14.79131,-19.19633 0,-2.42364 2.21363,-1.41797 7.25162,3.29448 3.80471,3.55886 5.15551,4.32069 5.80312,3.27284 1.08817,-1.76071 -1.39434,-4.53201 -6.30474,-7.03816 -3.57307,-1.82362 -4.66069,-2.87327 -2.9772,-2.87327 0.42505,0 3.12505,1.54913 6,3.44252 3.62951,2.39031 5.2272,3.00161 5.2272,2 0,-0.79339 -0.45,-1.44252 -1,-1.44252 -1.25796,0 -1.25251,-1.0687 0.0153,-3 0.87528,-1.33333 1.0941,-1.33333 1.96937,0 0.86069,1.31111 0.98662,1.29806 1,-0.10362 0.013,-1.36355 -1.18237,-1.55929 -7.98468,-1.30749 -6.59853,0.24427 -8,0.0316 -8,-1.21376 0,-0.95208 0.64653,-1.33462 1.75,-1.03546 5.38021,1.45863 7.49404,1.60009 9.3186,0.62362 1.46701,-0.78513 3.5605,-0.76688 7.57238,0.066 5.34797,1.11023 5.61601,1.32242 7.55047,5.97724 1.40729,3.38631 2.7221,5.00596 4.4071,5.42887 4.75341,1.19303 2.32612,9.54208 -3.66233,12.59716 -3.90195,1.99063 -10.86199,2.25955 -13.14491,0.5079 z m 1.64248,-1.64757 c -0.47089,-0.76191 0.0539,-0.87284 1.68314,-0.35576 2.11306,0.67066 2.22079,0.57474 1.00278,-0.89286 -0.75053,-0.90434 -0.972,-1.64528 -0.49216,-1.64653 0.47985,-0.001 0.91467,-1.23876 0.96628,-2.75 0.0883,-2.58562 -0.15991,-2.74772 -4.20742,-2.74772 -3.74585,0 -4.8878,-0.57566 -8.84383,-4.45821 -6.70338,-6.57887 -5.52397,-3.95148 2.50753,5.58608 6.2441,7.41498 9.38845,10.50879 7.38368,7.265 z m 8.56621,-12.70174 c 0,-1.31715 -2.93346,-4.79884 -2.9682,-3.52292 -0.0175,0.64252 -0.30495,1.88002 -0.63879,2.75 -0.43514,1.13395 -0.0104,1.58179 1.5,1.58179 1.15884,0 2.10699,-0.36399 2.10699,-0.80887 z m -5.27083,-0.7953 c -0.3323,-0.33229 -1.1948,-0.36782 -1.91667,-0.0789 -0.79773,0.31923 -0.56078,0.55619 0.60417,0.60417 1.05416,0.0434 1.64479,-0.19293 1.3125,-0.52522 z m 0.27083,-2.39583 c 0,-0.55 -0.19844,-1 -0.44098,-1 -0.24254,0 -0.7191,0.45 -1.05902,1 -0.33992,0.55 -0.14148,1 0.44098,1 0.58246,0 1.05902,-0.45 1.05902,-1 z"
         id="path3390"
         inkscape:connector-curvature="0" />
      <path
         style="fill:#232f29"
         d="m 446.1384,562.86218 c 0.31659,-0.825 0.0775,-1.5 -0.53138,-1.5 -0.60885,0 -1.10699,-0.43588 -1.10699,-0.96862 0,-0.53273 0.7875,-0.68143 1.75,-0.33043 1.56293,0.56996 1.54483,0.40456 -0.16938,-1.54729 -1.89251,-2.15487 -1.89251,-2.2058 0,-3.63776 1.75227,-1.32585 1.42942,-1.45506 -3.70818,-1.4841 -4.16204,-0.0235 -5.9724,-0.48753 -6.95177,-1.7818 -1.12655,-1.48877 -1.11497,-1.56341 0.0775,-0.5 2.11334,1.88452 3.71248,1.50884 4.2566,-1 0.26839,-1.2375 0.84732,-3.11132 1.28652,-4.16405 0.56424,-1.35245 0.45527,-1.70189 -0.3714,-1.19098 -0.76539,0.47304 -1.16465,-0.0754 -1.15463,-1.58595 0.0124,-1.87018 0.20386,-2.02394 1.00736,-0.80902 0.84559,1.27855 1.2559,1.15995 2.77924,-0.80336 2.66797,-3.43852 6.44438,-1.61752 9.61298,4.6354 1.42243,2.80703 3.36674,5.1391 4.54053,5.44605 2.10317,0.54999 2.09882,0.8718 -0.0915,6.78134 -1.12464,3.03424 -5.6436,5.94057 -9.2368,5.94057 -1.86855,0 -2.40814,-0.40699 -1.98872,-1.5 z m -1.13837,-13.5 c 0.33992,-0.55 -0.0835,-1 -0.94098,-1 -0.85746,0 -1.55902,0.45 -1.55902,1 0,0.55 0.42344,1 0.94098,1 0.51754,0 1.2191,-0.45 1.55902,-1 z m 5.5,-0.8 c 0,-2.63509 -1.76551,-3.96748 -4.55149,-3.43491 -2.65714,0.50795 -3.39008,2.23491 -0.94851,2.23491 0.825,0 1.5,0.675 1.5,1.5 0,0.83333 0.88889,1.5 2,1.5 1.25926,0 2,-0.66667 2,-1.8 z m -19.59501,3.55 -1.90499,-2.25 2.25,1.90499 c 2.11444,1.79022 2.70524,2.59501 1.90499,2.59501 -0.18976,0 -1.20226,-1.0125 -2.25,-2.25 z m 5.59501,-11.75 c 0.825,-0.53316 1.95,-0.96937 2.5,-0.96937 0.55,0 0.325,0.43621 -0.5,0.96937 -0.825,0.53316 -1.95,0.96937 -2.5,0.96937 -0.55,0 -0.325,-0.43621 0.5,-0.96937 z"
         id="path3384"
         inkscape:connector-curvature="0" />
    </g>
  </g>
</svg>
