<?xml version="1.0" encoding="UTF-8" standalone="no"?>
<!-- Created with Inkscape (http://www.inkscape.org/) -->

<svg
   xmlns:dc="http://purl.org/dc/elements/1.1/"
   xmlns:cc="http://creativecommons.org/ns#"
   xmlns:rdf="http://www.w3.org/1999/02/22-rdf-syntax-ns#"
   xmlns:svg="http://www.w3.org/2000/svg"
   xmlns="http://www.w3.org/2000/svg"
   xmlns:sodipodi="http://sodipodi.sourceforge.net/DTD/sodipodi-0.dtd"
   xmlns:inkscape="http://www.inkscape.org/namespaces/inkscape"
   width="31"
   height="28.982866"
   id="svg3187"
   version="1.1"
   inkscape:version="0.48.4 r9939"
   sodipodi:docname="Nowy dokument 9">
  <defs
     id="defs3189" />
  <sodipodi:namedview
     id="base"
     pagecolor="#ffffff"
     bordercolor="#666666"
     borderopacity="1.0"
     inkscape:pageopacity="0.0"
     inkscape:pageshadow="2"
     inkscape:zoom="1"
     inkscape:cx="19.99399"
     inkscape:cy="8.2815044"
     inkscape:document-units="px"
     inkscape:current-layer="layer1"
     showgrid="false"
     fit-margin-top="0"
     fit-margin-left="0"
     fit-margin-right="0"
     fit-margin-bottom="0"
     inkscape:window-width="1280"
     inkscape:window-height="1000"
     inkscape:window-x="0"
     inkscape:window-y="24"
     inkscape:window-maximized="1" />
  <metadata
     id="metadata3192">
    <rdf:RDF>
      <cc:Work
         rdf:about="">
        <dc:format>image/svg+xml</dc:format>
        <dc:type
           rdf:resource="http://purl.org/dc/dcmitype/StillImage" />
        <dc:title></dc:title>
      </cc:Work>
    </rdf:RDF>
  </metadata>
  <g
     inkscape:label="Layer 1"
     inkscape:groupmode="layer"
     id="layer1"
     transform="translate(-444.43733,-577.03477)">
    <g
       id="g3260"
       transform="translate(2.6516504,17.172593)">
      <path
         style="fill:#48564f"
         d="m 441.78568,587.46917 c 0,-1.67644 1.29765,-2.22916 7.37215,-3.14009 2.54532,-0.38169 4.62785,-0.86789 4.62785,-1.08044 0,-0.21256 -0.9,-1.28646 -2,-2.38646 -2.71023,-2.71023 -2.62306,-6.66747 0.16638,-7.55281 l 2.16639,-0.68758 -2.41639,-1.85757 c -1.32901,-1.02166 -3.42888,-1.86757 -4.66638,-1.8798 -1.2375,-0.0122 -2.25,-0.61068 -2.25,-1.32989 0,-1.62689 11.97891,-7.69235 15.19193,-7.69235 3.63198,0 6.64415,2.67755 7.78706,6.92199 0.6647,2.4685 1.75087,4.03561 3.02869,4.36977 1.39834,0.36567 1.99232,1.36564 1.99232,3.35411 0,3.66153 -3.09609,11.17099 -4.8911,11.8632 -1.68362,0.64925 -18.31898,2.44939 -22.8589,2.4736 -2.11958,0.0113 -3.25,-0.46719 -3.25,-1.37568 z m 19.85197,-1.27828 c 3.44637,-0.37648 4.87232,-0.88107 4.00487,-1.41719 -1.07165,-0.66231 -0.93914,-1.16403 0.64803,-2.45367 1.83044,-1.4873 1.84072,-1.57188 0.12461,-1.02462 -1.5171,0.48379 -1.76642,0.19841 -1.31955,-1.51041 0.53752,-2.05546 0.5015,-2.06214 -1.47487,-0.27355 -1.97212,1.78474 -2.07442,1.77336 -3.85815,-0.42945 -1.72043,-2.12465 -3.8674,-1.46968 -2.48968,0.75951 1.03276,1.67105 -1.44318,5.0167 -3.77241,5.09752 -1.21815,0.0423 -4.01482,0.69927 -6.21482,1.46 l -4,1.38316 6.5,-0.50334 c 3.575,-0.27683 8.90839,-0.76641 11.85197,-1.08796 z m -7.54568,-18.82871 c -0.4766,-2.93693 -0.26539,-3.51866 1.31287,-3.616 1.48017,-0.0913 1.53773,-0.20771 0.27019,-0.54649 -0.88585,-0.23677 -3.16606,0.60227 -5.06713,1.86454 l -3.45648,2.29502 3.56713,1.67052 c 1.96192,0.91878 3.65134,1.70694 3.75426,1.75146 0.10292,0.0445 -0.0685,-1.49405 -0.38084,-3.41905 z m 9.69371,1.12244 c 0,-1.30765 -0.67747,-2.9398 -1.50549,-3.62699 -1.30048,-1.07931 -1.44584,-0.7896 -1.06748,2.12755 0.24089,1.85735 0.46836,3.4895 0.50548,3.627 0.0371,0.1375 0.51749,0.25 1.06749,0.25 0.55,0 1,-1.0699 1,-2.37756 z"
         id="path3268"
         inkscape:connector-curvature="0" />
      <path
         style="fill:#232e28"
         d="m 453.59818,587.17907 c 0.72188,-0.28888 1.58438,-0.25335 1.91667,0.0789 0.33229,0.33229 -0.25834,0.56864 -1.3125,0.52522 -1.16495,-0.048 -1.4019,-0.28495 -0.60417,-0.60417 z m 13.9875,-4.51689 c 1.81087,-1.81087 1.44084,-3.01122 -0.71712,-2.3263 -1.59969,0.50772 -1.82207,0.22911 -1.34301,-1.68262 0.55464,-2.21339 0.50678,-2.23174 -1.41162,-0.54108 -2.62227,2.31098 -3.97499,2.20886 -4.64431,-0.35062 -0.76797,-2.93672 -2.68394,-1.39503 -2.68394,2.15964 0,3.5847 -1.30729,3.7246 -4.54546,0.48643 -3.0988,-3.0988 -3.11906,-5.28555 -0.0619,-6.6785 1.83884,-0.83782 2.34456,-1.78499 2.18484,-4.09197 -0.1143,-1.65099 0.38401,-3.59362 1.10735,-4.31696 0.72334,-0.72334 1.31516,-1.99575 1.31516,-2.82757 0,-2.18632 1.62767,-2.87114 5.04178,-2.12127 3.15334,0.69259 5.95822,4.67798 5.95822,8.46591 0,1.29257 0.94224,2.43265 2.5,3.02491 1.65756,0.6302 2.49874,1.71703 2.49626,3.22525 -0.005,2.80691 -3.52867,8.77475 -5.18156,8.77475 -0.94477,0 -0.94803,-0.26667 -0.0147,-1.2 z m -5.19866,-11.8 c 2.09837,0 2.37009,-0.37325 1.95164,-2.68086 -0.26737,-1.47448 -1.17617,-3.3709 -2.01956,-4.21429 -1.37789,-1.3779 -1.53342,-1.30884 -1.53342,0.68086 0,1.26129 -0.62018,2.21429 -1.44098,2.21429 -0.79254,0 -1.76291,0.52089 -2.15637,1.15752 -0.49016,0.79309 -0.0365,0.97998 1.44098,0.59362 1.186,-0.31014 2.15637,-0.15603 2.15637,0.34248 0,0.49851 -0.64844,0.90638 -1.44098,0.90638 -0.79254,0 -1.76636,0.52647 -2.16405,1.16994 -0.49297,0.79765 -0.16751,0.95675 1.02277,0.5 0.96021,-0.36847 2.84283,-0.66994 4.1836,-0.66994 z m -2.60134,-6.5 c 0,-0.825 -0.45,-1.5 -1,-1.5 -0.55,0 -1,0.675 -1,1.5 0,0.825 0.45,1.5 1,1.5 0.55,0 1,-0.675 1,-1.5 z m -15,3.55902 c 0,-0.51754 0.44485,-1.21592 0.98855,-1.55194 0.56686,-0.35034 0.7345,0.0511 0.39301,0.94098 -0.66479,1.73242 -1.38156,2.04939 -1.38156,0.61096 z m 5,-3.48865 c 0,-0.275 0.9,-0.98167 2,-1.57037 1.1,-0.5887 2,-0.84537 2,-0.57037 0,0.275 -0.9,0.98167 -2,1.57037 -1.1,0.5887 -2,0.84537 -2,0.57037 z"
         id="path3262"
         inkscape:connector-curvature="0" />
    </g>
  </g>
</svg>
