<?xml version="1.0" encoding="UTF-8" standalone="no"?>
<!-- Created with Inkscape (http://www.inkscape.org/) -->

<svg
   xmlns:dc="http://purl.org/dc/elements/1.1/"
   xmlns:cc="http://creativecommons.org/ns#"
   xmlns:rdf="http://www.w3.org/1999/02/22-rdf-syntax-ns#"
   xmlns:svg="http://www.w3.org/2000/svg"
   xmlns="http://www.w3.org/2000/svg"
   xmlns:sodipodi="http://sodipodi.sourceforge.net/DTD/sodipodi-0.dtd"
   xmlns:inkscape="http://www.inkscape.org/namespaces/inkscape"
   width="38.891636"
   height="29.998133"
   id="svg3064"
   version="1.1"
   inkscape:version="0.48.4 r9939"
   sodipodi:docname="Nowy dokument 3">
  <defs
     id="defs3066" />
  <sodipodi:namedview
     id="base"
     pagecolor="#ffffff"
     bordercolor="#666666"
     borderopacity="1.0"
     inkscape:pageopacity="0.0"
     inkscape:pageshadow="2"
     inkscape:zoom="15.839192"
     inkscape:cx="14.914506"
     inkscape:cy="11.408477"
     inkscape:document-units="px"
     inkscape:current-layer="layer1"
     showgrid="false"
     fit-margin-top="0"
     fit-margin-left="0"
     fit-margin-right="0"
     fit-margin-bottom="0"
     inkscape:window-width="1280"
     inkscape:window-height="1000"
     inkscape:window-x="0"
     inkscape:window-y="24"
     inkscape:window-maximized="1" />
  <metadata
     id="metadata3069">
    <rdf:RDF>
      <cc:Work
         rdf:about="">
        <dc:format>image/svg+xml</dc:format>
        <dc:type
           rdf:resource="http://purl.org/dc/dcmitype/StillImage" />
        <dc:title></dc:title>
      </cc:Work>
    </rdf:RDF>
  </metadata>
  <g
     inkscape:label="Layer 1"
     inkscape:groupmode="layer"
     id="layer1"
     transform="translate(-345.10567,-475.15449)">
    <g
       id="g3137"
       transform="translate(13.392857,7.7678572)">
      <path
         style="fill:#46554e"
         d="m 338.34447,496.30349 c -0.87125,-0.50954 -2.82563,-2.71797 -4.34306,-4.90763 -2.16926,-3.13024 -2.61523,-4.63568 -2.08646,-7.04316 0.52853,-2.40636 1.20052,-3.06196 3.13852,-3.06196 3.40466,0 7.37509,-4.21646 7.37509,-7.8321 0,-5.44319 4.59115,-6.85501 18.51913,-5.69481 6.80091,0.56651 8.50766,1.01471 8.08255,2.12253 -0.2964,0.77241 -0.10303,1.40438 0.4297,1.40438 2.55128,0 0.52353,3.29705 -2.99717,4.87332 -3.63208,1.62613 -13.75373,11.12668 -11.8541,11.12668 1.67687,0 0.74339,3.72105 -1.43011,5.70072 -4.5766,4.16847 -10.94025,5.58929 -14.83409,3.31203 z m 17.51921,-12.59073 c 0.86789,-0.86788 2.04044,-2.44209 2.60567,-3.49823 0.56523,-1.05614 3.14978,-3.06775 5.74345,-4.47025 4.5731,-2.47285 4.60988,-2.52879 1.21576,-1.84909 -1.925,0.3855 -5.075,0.7447 -7,0.79823 -1.925,0.0535 -3.85986,0.65982 -4.29969,1.34732 -0.43983,0.6875 -1.47889,1.25 -2.30902,1.25 -0.83013,0 -1.23121,0.45 -0.89129,1 0.34229,0.55384 -0.41216,1.01419 -1.69098,1.0318 -2.19472,0.0302 -2.21743,0.10119 -0.45888,1.43347 1.01757,0.77091 1.57727,1.84317 1.24377,2.38279 -0.60064,0.97185 0.81128,1.92071 3.08466,2.07299 0.64822,0.0434 1.88866,-0.63114 2.75655,-1.49903 z m -8.43512,-1.363 c 0,-0.51754 -0.47185,-1.23261 -1.04856,-1.58903 -0.7168,-0.44301 -0.67806,-1.09446 0.12245,-2.05902 0.8007,-0.96479 0.82719,-1.41097 0.0837,-1.41097 -0.59799,0 -1.59956,0.95723 -2.22569,2.12717 -0.88797,1.65919 -0.84071,2.31583 0.21481,2.98469 1.78176,1.12905 2.85325,1.1092 2.85325,-0.0528 z m -1,-8.55902 c 0.14057,2 0.14057,2 1,0 0.47269,-1.1 0.89106,-1.4375 0.92971,-0.75 0.10826,1.92522 2.05504,1.47999 2.18629,-0.5 0.11048,-1.66667 0.13778,-1.66667 0.57333,0 0.59451,2.27499 1.58435,2.21006 3.81067,-0.25 1.36532,-1.50866 3.18451,-2.02996 7.40499,-2.12194 l 5.59501,-0.12194 -6,-0.91769 c -7.04125,-1.07694 -15.90069,-0.26548 -17.44727,1.59803 -0.59798,0.72053 -0.77578,2.12168 -0.39512,3.11368 0.654,1.70429 0.7337,1.6975 1.44697,-0.12325 0.73273,-1.87043 0.75897,-1.86829 0.89542,0.0731 z m 17.5,-1.00141 4,-1.4713 -5.921,0.23635 c -3.66851,0.14644 -6.07785,0.71189 -6.33333,1.48636 -0.55935,1.69567 3.27863,1.57878 8.25433,-0.25141 z"
         id="path3145"
         inkscape:connector-curvature="0" />
      <path
         style="fill:#3a4942"
         d="m 339.20311,496.64881 c -0.94899,-0.27239 -3.13839,-2.58884 -4.86532,-5.14767 -2.54708,-3.77405 -2.97309,-5.12987 -2.25649,-7.1814 0.6573,-1.8818 1.70535,-2.60881 4.09532,-2.84087 2.31507,-0.22478 3.69986,-1.13782 4.95924,-3.26977 0.961,-1.62684 2.31999,-2.73813 3.01999,-2.46952 0.72342,0.27761 1.27932,-0.25334 1.28802,-1.23022 0.0131,-1.4752 0.15262,-1.50616 0.98469,-0.21862 0.80407,1.24421 0.9746,1.15895 1,-0.5 0.0255,-1.66413 0.19599,-1.7481 1.01531,-0.5 0.81935,1.24814 1.13227,1.27112 1.86364,0.13685 0.74207,-1.15087 0.9543,-1.15087 1.36282,0 0.36687,1.03354 1.07669,0.81909 2.9355,-0.88685 1.86598,-1.71252 3.75009,-2.27771 7.88718,-2.366 6.63173,-0.14153 4.98989,-0.6656 -5.56457,-1.77619 -6.13241,-0.64527 -6.83269,-0.85238 -2.99988,-0.88719 7.06908,-0.0642 15.06127,1.11713 14.66459,2.16758 -0.18448,0.4885 0.16827,1.19948 0.78387,1.57995 1.25797,0.77747 0.35841,4.03185 -1.11447,4.03185 -0.52361,0 -0.67391,-0.45 -0.33399,-1 0.34042,-0.55081 -0.41915,-1.03157 -1.69098,-1.07029 -2.18871,-0.0666 -2.20481,-0.11664 -0.30902,-0.96001 1.40136,-0.62341 0.22772,-0.82686 -3.921,-0.67971 -6.25324,0.22179 -8.87255,2.24348 -3.8897,3.00223 2.38726,0.36351 2.3254,0.4045 -0.41065,0.27203 -1.95835,-0.0948 -3.43227,0.3937 -3.75932,1.24596 -0.36076,0.94014 -1.3584,1.19601 -3.02865,0.77681 -1.36987,-0.34382 -2.49068,-0.19955 -2.49068,0.3206 0,0.52015 0.7875,1.15153 1.75,1.40305 1.31691,0.34415 1.19317,0.48603 -0.5,0.57333 -2.49537,0.12865 -3.15859,2.116 -0.70616,2.116 0.91559,0 1.42426,0.71214 1.25,1.75 -0.20998,1.25053 0.47545,1.83881 2.4015,2.06115 2.18769,0.25254 3.1837,-0.4268 5.28818,-3.60688 1.42605,-2.15491 3.72182,-4.43243 5.1017,-5.06115 3.80356,-1.73301 4.28558,-1.36177 0.90706,0.69858 -1.65424,1.00882 -4.26464,3.48214 -5.80089,5.49626 -1.53625,2.01412 -3.53128,3.66204 -4.43341,3.66204 -1.40169,0 -1.36601,0.20052 0.24534,1.37877 1.78976,1.3087 1.79947,1.51017 0.19113,3.96481 -0.93195,1.42233 -2.53809,3.03755 -3.56921,3.58939 -2.32884,1.24636 -9.03853,2.08877 -11.35069,1.4251 z m 7.83193,-16.35579 c -0.11866,-3.34074 -0.76678,-3.71899 -2.59591,-1.51502 -1.46056,1.75987 -0.65867,4.51274 1.31453,4.51274 0.89885,0 1.35034,-1.05624 1.28138,-2.99772 z m -1.87315,-11.12637 c 0.67834,-0.68342 1.48524,-0.99067 1.79313,-0.68278 0.30789,0.30789 -0.24711,0.86705 -1.23333,1.24258 -1.4252,0.54268 -1.54006,0.42782 -0.5598,-0.5598 z"
         id="path3143"
         inkscape:connector-curvature="0" />
      <path
         style="fill:#222e28"
         d="m 339.46981,496.01703 c -1.35231,-0.68432 -3.73751,-3.06368 -5.30044,-5.28747 -2.41669,-3.43852 -2.6883,-4.44674 -1.81601,-6.74103 0.78978,-2.07728 1.69496,-2.69779 3.93544,-2.69779 2.00024,0 3.42175,-0.78143 4.5478,-2.5 0.90094,-1.375 2.59744,-2.5 3.77,-2.5 2.05511,0 2.06793,0.0707 0.35567,1.96276 -2.20694,2.43863 -1.30602,5.47247 1.41386,4.7612 1.10668,-0.2894 2.14965,0.087 2.45646,0.88655 0.29326,0.76422 1.52232,1.38949 2.73125,1.38949 1.20893,0 1.90505,0.29301 1.54693,0.65112 -0.35812,0.35812 0.0739,1.18124 0.95994,1.82917 2.418,1.76808 0.12162,5.2697 -4.97283,7.58276 -4.9139,2.2311 -6.33618,2.32907 -9.62807,0.66324 z m 7.6164,-18.22629 c 0.80814,-2.43946 4.34235,-6.03876 4.34235,-4.42232 0,0.66306 0.85199,0.93278 1.999,0.63283 1.09946,-0.28751 2.29398,-0.0455 2.65451,0.53788 0.38543,0.62363 0.17983,0.76664 -0.499,0.3471 -0.63498,-0.39244 -1.15451,-0.23697 -1.15451,0.34549 0,0.58246 -1.18789,1.05902 -2.63976,1.05902 -1.45186,0 -3.25297,0.7875 -4.00245,1.75 -1.26571,1.62544 -1.31554,1.60765 -0.70014,-0.25 z"
         id="path3139"
         inkscape:connector-curvature="0" />
    </g>
  </g>
</svg>
