<?xml version="1.0" encoding="UTF-8" standalone="no"?>
<!-- Created with Inkscape (http://www.inkscape.org/) -->

<svg
   xmlns:dc="http://purl.org/dc/elements/1.1/"
   xmlns:cc="http://creativecommons.org/ns#"
   xmlns:rdf="http://www.w3.org/1999/02/22-rdf-syntax-ns#"
   xmlns:svg="http://www.w3.org/2000/svg"
   xmlns="http://www.w3.org/2000/svg"
   xmlns:sodipodi="http://sodipodi.sourceforge.net/DTD/sodipodi-0.dtd"
   xmlns:inkscape="http://www.inkscape.org/namespaces/inkscape"
   width="23.169271"
   height="16.64888"
   id="svg3189"
   version="1.1"
   inkscape:version="0.48.4 r9939"
   sodipodi:docname="Nowy dokument 15">
  <defs
     id="defs3191" />
  <sodipodi:namedview
     id="base"
     pagecolor="#ffffff"
     bordercolor="#666666"
     borderopacity="1.0"
     inkscape:pageopacity="0.0"
     inkscape:pageshadow="2"
     inkscape:zoom="3.959798"
     inkscape:cx="18.991663"
     inkscape:cy="16.59523"
     inkscape:document-units="px"
     inkscape:current-layer="layer1"
     showgrid="false"
     fit-margin-top="0"
     fit-margin-left="0"
     fit-margin-right="0"
     fit-margin-bottom="0"
     inkscape:window-width="524"
     inkscape:window-height="395"
     inkscape:window-x="526"
     inkscape:window-y="24"
     inkscape:window-maximized="0" />
  <metadata
     id="metadata3194">
    <rdf:RDF>
      <cc:Work
         rdf:about="">
        <dc:format>image/svg+xml</dc:format>
        <dc:type
           rdf:resource="http://purl.org/dc/dcmitype/StillImage" />
        <dc:title></dc:title>
      </cc:Work>
    </rdf:RDF>
  </metadata>
  <g
     inkscape:label="Layer 1"
     inkscape:groupmode="layer"
     id="layer1"
     transform="translate(-525.66406,-634.75154)">
    <path
       style="fill:#26322c"
       d="m 540.24201,650.89846 c -1.03981,-0.6771 -1.24611,-2.2189 -0.80041,-5.98209 0.58968,-4.97896 -0.4731,-7.71952 -1.72672,-4.45264 -0.45805,1.19366 -0.94284,1.3562 -1.72175,0.57729 -0.77891,-0.77891 -2.31865,-0.71266 -5.46846,0.23529 -5.03682,1.51586 -6.31464,0.65456 -3.10097,-2.09018 5.62179,-4.80146 11.11557,-5.87251 12.22311,-2.38297 0.35129,1.10681 2.74411,4.00849 5.31739,6.44818 4.15203,3.93649 4.50983,4.60307 3.17868,5.92181 -1.97749,1.95905 -6.14452,2.869 -7.90087,1.72531 z m 2.90087,-1.54867 c 0,-0.24254 -0.45,-0.7191 -1,-1.05902 -0.55,-0.33992 -1,-0.14148 -1,0.44098 0,0.58246 0.45,1.05902 1,1.05902 0.55,0 1,-0.19844 1,-0.44098 z m 4,-1.55902 c 0,-0.55 -0.45,-1 -1,-1 -0.55,0 -1,0.45 -1,1 0,0.55 0.45,1 1,1 0.55,0 1,-0.45 1,-1 z m -13.08213,-8.88863 c 1.87983,-0.34023 3.626,-1.24298 3.88038,-2.00611 0.62714,-1.88144 -4.24091,-0.67267 -8.29825,2.06052 -1.65,1.11151 -2.1,1.69316 -1,1.29256 1.1,-0.4006 3.53804,-1.00674 5.41787,-1.34697 z"
       id="path3270"
       inkscape:connector-curvature="0" />
  </g>
</svg>
