<?xml version="1.0" encoding="UTF-8" standalone="no"?>
<!-- Created with Inkscape (http://www.inkscape.org/) -->

<svg
   xmlns:dc="http://purl.org/dc/elements/1.1/"
   xmlns:cc="http://creativecommons.org/ns#"
   xmlns:rdf="http://www.w3.org/1999/02/22-rdf-syntax-ns#"
   xmlns:svg="http://www.w3.org/2000/svg"
   xmlns="http://www.w3.org/2000/svg"
   xmlns:sodipodi="http://sodipodi.sourceforge.net/DTD/sodipodi-0.dtd"
   xmlns:inkscape="http://www.inkscape.org/namespaces/inkscape"
   width="13.829126"
   height="21.951641"
   id="svg3326"
   version="1.1"
   inkscape:version="0.48.4 r9939"
   sodipodi:docname="Nowy dokument 23">
  <defs
     id="defs3328" />
  <sodipodi:namedview
     id="base"
     pagecolor="#ffffff"
     bordercolor="#666666"
     borderopacity="1.0"
     inkscape:pageopacity="0.0"
     inkscape:pageshadow="2"
     inkscape:zoom="7.9195959"
     inkscape:cx="-20.155297"
     inkscape:cy="8.6827054"
     inkscape:document-units="px"
     inkscape:current-layer="layer1"
     showgrid="false"
     fit-margin-top="0"
     fit-margin-left="0"
     fit-margin-right="0"
     fit-margin-bottom="0"
     inkscape:window-width="1280"
     inkscape:window-height="1000"
     inkscape:window-x="0"
     inkscape:window-y="24"
     inkscape:window-maximized="1" />
  <metadata
     id="metadata3331">
    <rdf:RDF>
      <cc:Work
         rdf:about="">
        <dc:format>image/svg+xml</dc:format>
        <dc:type
           rdf:resource="http://purl.org/dc/dcmitype/StillImage" />
        <dc:title></dc:title>
      </cc:Work>
    </rdf:RDF>
  </metadata>
  <g
     inkscape:label="Layer 1"
     inkscape:groupmode="layer"
     id="layer1"
     transform="translate(-430.28574,-496.63071)">
    <path
       style="fill:#222f28"
       d="m 434.14652,516.73397 -2.36078,-1.91392 3.83971,-3.83608 c 2.88427,-2.88154 3.44414,-3.91653 2.25,-4.1594 -0.87614,-0.1782 -1.58971,-1.3158 -1.58971,-2.5344 0,-1.39626 -1.10553,-2.86412 -3,-3.98321 -1.65,-0.97468 -3,-2.1967 -3,-2.71561 0,-1.91654 4.46535,-0.85334 9.21401,2.19387 3.67498,2.35823 4.81421,3.66197 4.58754,5.25 -0.16585,1.16197 -0.86405,2.11267 -1.55155,2.11267 -1.53715,0 -1.59863,0.47701 -0.72666,5.63818 0.50378,2.9818 0.32144,4.34552 -0.66454,4.97025 -2.16549,1.37207 -4.45758,1.03722 -6.99802,-1.02235 z m 6.59651,-0.017 c 0.31644,-0.512 0.11799,-1.21356 -0.44098,-1.55902 -0.55897,-0.34546 -1.01631,0.0734 -1.01631,0.9309 0,1.75653 0.60005,2.01516 1.45729,0.62812 z m -3.79062,-1.5691 c 0,-1.6636 -1.23598,-2.00588 -2.11388,-0.58541 -0.31089,0.50302 5e-5,1.1425 0.69098,1.42105 0.69093,0.27856 1.29373,0.54199 1.33956,0.58541 0.0458,0.0434 0.0833,-0.59605 0.0833,-1.42105 z m 5.33333,-11.20785 c 0,-1.36088 -7.91396,-6.29417 -10.08786,-6.28841 -0.77668,0.002 0.0504,0.89544 1.83786,1.9853 2.82221,1.72074 3.60309,2.85435 3.45175,5.01096 -0.0193,0.275 1.05242,0.5 2.38158,0.5 1.32917,0 2.41667,-0.54353 2.41667,-1.20785 z"
       id="path3399"
       inkscape:connector-curvature="0" />
  </g>
</svg>
