<?xml version="1.0" encoding="UTF-8" standalone="no"?>
<!-- Created with Inkscape (http://www.inkscape.org/) -->

<svg
   xmlns:dc="http://purl.org/dc/elements/1.1/"
   xmlns:cc="http://creativecommons.org/ns#"
   xmlns:rdf="http://www.w3.org/1999/02/22-rdf-syntax-ns#"
   xmlns:svg="http://www.w3.org/2000/svg"
   xmlns="http://www.w3.org/2000/svg"
   xmlns:sodipodi="http://sodipodi.sourceforge.net/DTD/sodipodi-0.dtd"
   xmlns:inkscape="http://www.inkscape.org/namespaces/inkscape"
   width="10.680134"
   height="11.763087"
   id="svg3326"
   version="1.1"
   inkscape:version="0.48.4 r9939"
   sodipodi:docname="Nowy dokument 21">
  <defs
     id="defs3328" />
  <sodipodi:namedview
     id="base"
     pagecolor="#ffffff"
     bordercolor="#666666"
     borderopacity="1.0"
     inkscape:pageopacity="0.0"
     inkscape:pageshadow="2"
     inkscape:zoom="3.959798"
     inkscape:cx="0.084133498"
     inkscape:cy="-3.1057697"
     inkscape:document-units="px"
     inkscape:current-layer="layer1"
     showgrid="false"
     fit-margin-top="0"
     fit-margin-left="0"
     fit-margin-right="0"
     fit-margin-bottom="0"
     inkscape:window-width="524"
     inkscape:window-height="395"
     inkscape:window-x="321"
     inkscape:window-y="265"
     inkscape:window-maximized="0" />
  <metadata
     id="metadata3331">
    <rdf:RDF>
      <cc:Work
         rdf:about="">
        <dc:format>image/svg+xml</dc:format>
        <dc:type
           rdf:resource="http://purl.org/dc/dcmitype/StillImage" />
        <dc:title></dc:title>
      </cc:Work>
    </rdf:RDF>
  </metadata>
  <g
     inkscape:label="Layer 1"
     inkscape:groupmode="layer"
     id="layer1"
     transform="translate(-474.06352,-493.95912)">
    <path
       style="fill:#212d27"
       d="m 479.22036,504.53088 c -2.29924,-0.6335 -4.53553,-1.5131 -4.96952,-1.95467 -0.43399,-0.44157 -0.0546,-0.52103 0.84299,-0.17658 2.43755,0.93538 2.71645,-2.6111 0.38841,-4.93914 -1.92204,-1.92204 -1.9202,-1.95105 0.18331,-2.88966 3.28752,-1.46693 5.40113,-0.20085 4.65142,2.78627 -0.64582,2.57315 0.84186,3.53152 2.16321,1.39354 0.47392,-0.76682 0.9988,-0.58983 1.638,0.55236 0.63242,1.13006 0.52623,2.18008 -0.32408,3.20463 -1.02844,1.2392 -0.99649,1.69357 0.17101,2.43233 1.82414,1.15427 0.52172,1.04198 -4.74475,-0.40908 z"
       id="path3396"
       inkscape:connector-curvature="0" />
  </g>
</svg>
