<?xml version="1.0" encoding="UTF-8" standalone="no"?>
<!-- Created with Inkscape (http://www.inkscape.org/) -->

<svg
   xmlns:dc="http://purl.org/dc/elements/1.1/"
   xmlns:cc="http://creativecommons.org/ns#"
   xmlns:rdf="http://www.w3.org/1999/02/22-rdf-syntax-ns#"
   xmlns:svg="http://www.w3.org/2000/svg"
   xmlns="http://www.w3.org/2000/svg"
   xmlns:sodipodi="http://sodipodi.sourceforge.net/DTD/sodipodi-0.dtd"
   xmlns:inkscape="http://www.inkscape.org/namespaces/inkscape"
   width="13.631112"
   height="12.005917"
   id="svg2"
   version="1.1"
   inkscape:version="0.48.4 r9939"
   sodipodi:docname="Nowy dokument 1">
  <defs
     id="defs4" />
  <sodipodi:namedview
     id="base"
     pagecolor="#ffffff"
     bordercolor="#666666"
     borderopacity="1.0"
     inkscape:pageopacity="0.0"
     inkscape:pageshadow="2"
     inkscape:zoom="3.959798"
     inkscape:cx="95.330264"
     inkscape:cy="41.497767"
     inkscape:document-units="px"
     inkscape:current-layer="layer1"
     showgrid="false"
     fit-margin-top="0"
     fit-margin-left="0"
     fit-margin-right="0"
     fit-margin-bottom="0"
     inkscape:window-width="1280"
     inkscape:window-height="1000"
     inkscape:window-x="0"
     inkscape:window-y="24"
     inkscape:window-maximized="1" />
  <metadata
     id="metadata7">
    <rdf:RDF>
      <cc:Work
         rdf:about="">
        <dc:format>image/svg+xml</dc:format>
        <dc:type
           rdf:resource="http://purl.org/dc/dcmitype/StillImage" />
        <dc:title></dc:title>
      </cc:Work>
    </rdf:RDF>
  </metadata>
  <g
     inkscape:label="Layer 1"
     inkscape:groupmode="layer"
     id="layer1"
     transform="translate(-583.30584,-581.98777)">
    <path
       style="fill:#232f29"
       d="m 583.48661,593.36777 c -0.86584,-1.40096 1.59037,-4.97563 2.88503,-4.19875 0.80525,0.4832 0.77278,0.19282 -0.0987,-0.88296 -0.80276,-0.99093 -0.9246,-1.83405 -0.3191,-2.20827 0.53871,-0.33294 1.26665,-0.14066 1.61766,0.42728 0.35101,0.56794 1.07895,0.76022 1.61766,0.42728 0.6243,-0.38583 0.58163,-1.08468 -0.11766,-1.92728 -0.80691,-0.97227 -0.75828,-1.53136 0.18386,-2.11363 1.74963,-1.08134 4.84367,-1.23993 4.21074,-0.21583 -0.28195,0.4562 0.0337,0.82946 0.70137,0.82946 0.73603,0 0.46398,0.83976 -0.69098,2.1329 -1.8852,2.11074 -1.88249,2.1259 0.26085,1.45932 2.37418,-0.73837 4.34284,1.16635 2.42841,2.34953 -0.6391,0.39498 -0.8736,1.46967 -0.52113,2.3882 0.71891,1.87346 0.88192,1.81893 -6.36173,2.12827 -2.90874,0.12422 -5.51705,-0.14377 -5.79625,-0.59552 z m 3.58486,-1.3627 c 0,-0.825 -0.42344,-1.5 -0.94098,-1.5 -1.26098,0 -2.1641,1.56159 -1.36517,2.36052 1.12619,1.12618 2.30615,0.68589 2.30615,-0.86052 z m 7,0.0314 c 0,-0.8946 -0.58629,-1.24364 -1.5,-0.89302 -0.825,0.31659 -1.5,0.97746 -1.5,1.46862 0,0.49116 0.675,0.89301 1.5,0.89301 0.825,0 1.5,-0.66088 1.5,-1.46861 z"
       id="path3074"
       inkscape:connector-curvature="0" />
  </g>
</svg>
