<?xml version="1.0" encoding="UTF-8" standalone="no"?>
<!-- Created with Inkscape (http://www.inkscape.org/) -->

<svg
   xmlns:dc="http://purl.org/dc/elements/1.1/"
   xmlns:cc="http://creativecommons.org/ns#"
   xmlns:rdf="http://www.w3.org/1999/02/22-rdf-syntax-ns#"
   xmlns:svg="http://www.w3.org/2000/svg"
   xmlns="http://www.w3.org/2000/svg"
   xmlns:sodipodi="http://sodipodi.sourceforge.net/DTD/sodipodi-0.dtd"
   xmlns:inkscape="http://www.inkscape.org/namespaces/inkscape"
   width="12.2805"
   height="11.416065"
   id="svg3442"
   version="1.1"
   inkscape:version="0.48.4 r9939"
   sodipodi:docname="Nowy dokument 28">
  <defs
     id="defs3444" />
  <sodipodi:namedview
     id="base"
     pagecolor="#ffffff"
     bordercolor="#666666"
     borderopacity="1.0"
     inkscape:pageopacity="0.0"
     inkscape:pageshadow="2"
     inkscape:zoom="3.959798"
     inkscape:cx="10.748933"
     inkscape:cy="-9.2108195"
     inkscape:document-units="px"
     inkscape:current-layer="layer1"
     showgrid="false"
     fit-margin-top="0"
     fit-margin-left="0"
     fit-margin-right="0"
     fit-margin-bottom="0"
     inkscape:window-width="524"
     inkscape:window-height="395"
     inkscape:window-x="754"
     inkscape:window-y="600"
     inkscape:window-maximized="0" />
  <metadata
     id="metadata3447">
    <rdf:RDF>
      <cc:Work
         rdf:about="">
        <dc:format>image/svg+xml</dc:format>
        <dc:type
           rdf:resource="http://purl.org/dc/dcmitype/StillImage" />
        <dc:title></dc:title>
      </cc:Work>
    </rdf:RDF>
  </metadata>
  <g
     inkscape:label="Layer 1"
     inkscape:groupmode="layer"
     id="layer1"
     transform="translate(-378.57577,-522.16312)">
    <path
       style="fill:#212d28"
       d="m 382.60125,531.56957 c -0.33863,-1.34921 -1.5073,-3.07761 -2.59703,-3.84089 -2.41344,-1.69044 -1.59863,-5.56556 1.17026,-5.56556 2.0623,0 3.26391,2.25188 2.40123,4.5 -0.36449,0.94984 0.0138,1.5 1.03138,1.5 0.88385,0 1.60699,-0.4875 1.60699,-1.08333 0,-2.25147 2.50286,-0.13111 2.56269,2.17104 0.0363,1.3974 0.59348,2.29669 1.32433,2.13751 0.6939,-0.15112 0.95813,0.21631 0.58717,0.81653 -0.37095,0.60022 -0.88827,0.8775 -1.1496,0.61617 -0.26132,-0.26132 -1.79062,-0.0979 -3.39843,0.36326 -2.59119,0.74314 -2.99325,0.55969 -3.53899,-1.61473 z"
       id="path3512"
       inkscape:connector-curvature="0" />
  </g>
</svg>
