<?xml version="1.0" encoding="UTF-8" standalone="no"?>
<!-- Created with Inkscape (http://www.inkscape.org/) -->

<svg
   xmlns:dc="http://purl.org/dc/elements/1.1/"
   xmlns:cc="http://creativecommons.org/ns#"
   xmlns:rdf="http://www.w3.org/1999/02/22-rdf-syntax-ns#"
   xmlns:svg="http://www.w3.org/2000/svg"
   xmlns="http://www.w3.org/2000/svg"
   xmlns:sodipodi="http://sodipodi.sourceforge.net/DTD/sodipodi-0.dtd"
   xmlns:inkscape="http://www.inkscape.org/namespaces/inkscape"
   width="10.154636"
   height="14.66695"
   id="svg3432"
   version="1.1"
   inkscape:version="0.48.4 r9939"
   sodipodi:docname="Nowy dokument 24">
  <defs
     id="defs3434" />
  <sodipodi:namedview
     id="base"
     pagecolor="#ffffff"
     bordercolor="#666666"
     borderopacity="1.0"
     inkscape:pageopacity="0.0"
     inkscape:pageshadow="2"
     inkscape:zoom="5.6"
     inkscape:cx="25.135193"
     inkscape:cy="-3.1706685"
     inkscape:document-units="px"
     inkscape:current-layer="layer1"
     showgrid="false"
     fit-margin-top="0"
     fit-margin-left="0"
     fit-margin-right="0"
     fit-margin-bottom="0"
     inkscape:window-width="1280"
     inkscape:window-height="1000"
     inkscape:window-x="0"
     inkscape:window-y="24"
     inkscape:window-maximized="1" />
  <metadata
     id="metadata3437">
    <rdf:RDF>
      <cc:Work
         rdf:about="">
        <dc:format>image/svg+xml</dc:format>
        <dc:type
           rdf:resource="http://purl.org/dc/dcmitype/StillImage" />
        <dc:title></dc:title>
      </cc:Work>
    </rdf:RDF>
  </metadata>
  <g
     inkscape:label="Layer 1"
     inkscape:groupmode="layer"
     id="layer1"
     transform="translate(-361.55281,-435.29165)">
    <path
       style="fill:#242e2b"
       d="m 364.30427,448.88457 c 0.36508,-0.59071 -0.24368,-2.05321 -1.35281,-3.25 -1.65629,-1.78719 -1.78041,-2.39135 -0.69466,-3.38142 1.04376,-0.95179 1.45296,-0.864 1.94461,0.41721 0.47459,1.23676 0.90027,1.34508 1.78989,0.45546 0.88963,-0.88963 0.88183,-1.45261 -0.0328,-2.36722 -3.22288,-3.22288 0.30246,-7.46523 3.67058,-4.41712 1.77646,1.60767 2.47372,4.61712 1.06974,4.61712 -1.12287,0 -1.94352,2.82807 -1.30415,4.49426 0.31537,0.82184 1.08875,1.19969 1.71861,0.83967 0.62987,-0.36002 0.78374,-0.25845 0.34192,0.22571 -0.44181,0.48416 -1.79181,0.8938 -3,0.91032 -1.2127,0.0166 -2.08471,0.58997 -1.9467,1.28004 0.1375,0.6875 -0.45156,1.25 -1.30902,1.25 -0.85746,0 -1.26031,-0.48331 -0.89523,-1.07403 z"
       id="path3502"
       inkscape:connector-curvature="0" />
  </g>
</svg>
