<?xml version="1.0" encoding="UTF-8" standalone="no"?>
<!-- Created with Inkscape (http://www.inkscape.org/) -->

<svg
   xmlns:dc="http://purl.org/dc/elements/1.1/"
   xmlns:cc="http://creativecommons.org/ns#"
   xmlns:rdf="http://www.w3.org/1999/02/22-rdf-syntax-ns#"
   xmlns:svg="http://www.w3.org/2000/svg"
   xmlns="http://www.w3.org/2000/svg"
   xmlns:sodipodi="http://sodipodi.sourceforge.net/DTD/sodipodi-0.dtd"
   xmlns:inkscape="http://www.inkscape.org/namespaces/inkscape"
   width="14.378604"
   height="13.574062"
   id="svg3112"
   version="1.1"
   inkscape:version="0.48.4 r9939"
   sodipodi:docname="Nowy dokument 9">
  <defs
     id="defs3114" />
  <sodipodi:namedview
     id="base"
     pagecolor="#ffffff"
     bordercolor="#666666"
     borderopacity="1.0"
     inkscape:pageopacity="0.0"
     inkscape:pageshadow="2"
     inkscape:zoom="2.8"
     inkscape:cx="14.727075"
     inkscape:cy="21.967915"
     inkscape:document-units="px"
     inkscape:current-layer="layer1"
     showgrid="false"
     fit-margin-top="0"
     fit-margin-left="0"
     fit-margin-right="0"
     fit-margin-bottom="0"
     inkscape:window-width="524"
     inkscape:window-height="395"
     inkscape:window-x="526"
     inkscape:window-y="24"
     inkscape:window-maximized="0" />
  <metadata
     id="metadata3117">
    <rdf:RDF>
      <cc:Work
         rdf:about="">
        <dc:format>image/svg+xml</dc:format>
        <dc:type
           rdf:resource="http://purl.org/dc/dcmitype/StillImage" />
        <dc:title></dc:title>
      </cc:Work>
    </rdf:RDF>
  </metadata>
  <g
     inkscape:label="Layer 1"
     inkscape:groupmode="layer"
     id="layer1"
     transform="translate(-508.19766,-561.29587)">
    <path
       style="fill:#252f29"
       d="m 515.65793,573.81123 c 0.39212,-1.02185 -0.21255,-1.48592 -2.05093,-1.57407 -3.83176,-0.18373 -4.36453,-0.2992 -5.19032,-1.125 -0.4125,-0.4125 -0.225,-0.75 0.41666,-0.75 0.64167,0 1.11338,-0.3375 1.04825,-0.75 -0.41947,-2.65663 0.15917,-3.46107 1.61842,-2.25 1.22283,1.01486 1.5,0.9605 1.5,-0.29422 0,-0.84651 -0.5625,-1.76609 -1.25,-2.0435 -0.74674,-0.30132 -0.54544,-0.53617 0.5,-0.58333 0.9625,-0.0434 1.75,0.37105 1.75,0.92105 0,2.03783 1.80452,0.91498 2.41064,-1.5 0.73232,-2.91777 4.97794,-3.53572 5.99962,-0.87325 0.71958,1.87517 -1.01276,4.37325 -3.03271,4.37325 -0.75765,0 -1.37755,0.45 -1.37755,1 0,0.55 0.9,1 2,1 1.13148,0 2,0.66667 2,1.53518 0,1.20792 -0.41235,1.31451 -1.93426,0.5 -2.77316,-1.48415 -3.3664,-1.29293 -2.79288,0.90024 0.28642,1.09526 -0.0749,2.15839 -0.83244,2.44907 -0.85792,0.32921 -1.1389,-0.007 -0.7825,-0.93542 z"
       id="path3201"
       inkscape:connector-curvature="0" />
  </g>
</svg>
