<?xml version="1.0" encoding="UTF-8" standalone="no"?>
<!-- Created with Inkscape (http://www.inkscape.org/) -->

<svg
   xmlns:dc="http://purl.org/dc/elements/1.1/"
   xmlns:cc="http://creativecommons.org/ns#"
   xmlns:rdf="http://www.w3.org/1999/02/22-rdf-syntax-ns#"
   xmlns:svg="http://www.w3.org/2000/svg"
   xmlns="http://www.w3.org/2000/svg"
   xmlns:sodipodi="http://sodipodi.sourceforge.net/DTD/sodipodi-0.dtd"
   xmlns:inkscape="http://www.inkscape.org/namespaces/inkscape"
   width="11.471425"
   height="14.784577"
   id="svg3529"
   version="1.1"
   inkscape:version="0.48.4 r9939"
   sodipodi:docname="Nowy dokument 30">
  <defs
     id="defs3531" />
  <sodipodi:namedview
     id="base"
     pagecolor="#ffffff"
     bordercolor="#666666"
     borderopacity="1.0"
     inkscape:pageopacity="0.0"
     inkscape:pageshadow="2"
     inkscape:zoom="11.2"
     inkscape:cx="20.44043"
     inkscape:cy="3.9037939"
     inkscape:document-units="px"
     inkscape:current-layer="layer1"
     showgrid="false"
     inkscape:window-width="1280"
     inkscape:window-height="1000"
     inkscape:window-x="0"
     inkscape:window-y="24"
     inkscape:window-maximized="1"
     fit-margin-top="0"
     fit-margin-left="0"
     fit-margin-right="0"
     fit-margin-bottom="0" />
  <metadata
     id="metadata3534">
    <rdf:RDF>
      <cc:Work
         rdf:about="">
        <dc:format>image/svg+xml</dc:format>
        <dc:type
           rdf:resource="http://purl.org/dc/dcmitype/StillImage" />
        <dc:title></dc:title>
      </cc:Work>
    </rdf:RDF>
  </metadata>
  <g
     inkscape:label="Layer 1"
     inkscape:groupmode="layer"
     id="layer1"
     transform="translate(-480.71603,-538.86331)">
    <path
       style="fill:#22302a"
       d="m 480.85269,552.14789 c -0.38957,-1.01522 0.0505,-1.5 1.36163,-1.5 1.31114,0 1.7512,0.48478 1.36163,1.5 -0.31659,0.825 -0.92932,1.5 -1.36163,1.5 -0.43231,0 -1.04504,-0.675 -1.36163,-1.5 z m 3.44173,-2.38752 c -1.74404,-2.44926 -1.84251,-3.06477 -0.64882,-4.05545 1.10167,-0.9143 1.61192,-0.80226 2.34962,0.51593 0.72753,1.30003 1.12268,1.39207 1.73349,0.40375 0.47964,-0.77607 0.14038,-1.75598 -0.86161,-2.48866 -0.90903,-0.66469 -1.65278,-1.89764 -1.65278,-2.73988 0,-1.60999 4.41178,-3.22974 6.04599,-2.21975 1.28133,0.79191 1.21776,5.19054 -0.0867,5.99672 -0.57237,0.35375 -0.76019,1.5269 -0.41738,2.607 0.68508,2.1585 -1.03826,4.86786 -3.09629,4.86786 -0.7202,0 -2.2347,-1.29938 -3.36555,-2.88752 z"
       id="path3599"
       inkscape:connector-curvature="0" />
  </g>
</svg>
