<?xml version="1.0" encoding="UTF-8" standalone="no"?>
<!-- Created with Inkscape (http://www.inkscape.org/) -->

<svg
   xmlns:dc="http://purl.org/dc/elements/1.1/"
   xmlns:cc="http://creativecommons.org/ns#"
   xmlns:rdf="http://www.w3.org/1999/02/22-rdf-syntax-ns#"
   xmlns:svg="http://www.w3.org/2000/svg"
   xmlns="http://www.w3.org/2000/svg"
   xmlns:sodipodi="http://sodipodi.sourceforge.net/DTD/sodipodi-0.dtd"
   xmlns:inkscape="http://www.inkscape.org/namespaces/inkscape"
   width="10.069267"
   height="11.954328"
   id="svg3209"
   version="1.1"
   inkscape:version="0.48.4 r9939"
   sodipodi:docname="Nowy dokument 14">
  <defs
     id="defs3211" />
  <sodipodi:namedview
     id="base"
     pagecolor="#ffffff"
     bordercolor="#666666"
     borderopacity="1.0"
     inkscape:pageopacity="0.0"
     inkscape:pageshadow="2"
     inkscape:zoom="5.6"
     inkscape:cx="-11.872658"
     inkscape:cy="14.136107"
     inkscape:document-units="px"
     inkscape:current-layer="layer1"
     showgrid="false"
     fit-margin-top="0"
     fit-margin-left="0"
     fit-margin-right="0"
     fit-margin-bottom="0"
     inkscape:window-width="524"
     inkscape:window-height="395"
     inkscape:window-x="0"
     inkscape:window-y="24"
     inkscape:window-maximized="0" />
  <metadata
     id="metadata3214">
    <rdf:RDF>
      <cc:Work
         rdf:about="">
        <dc:format>image/svg+xml</dc:format>
        <dc:type
           rdf:resource="http://purl.org/dc/dcmitype/StillImage" />
        <dc:title></dc:title>
      </cc:Work>
    </rdf:RDF>
  </metadata>
  <g
     inkscape:label="Layer 1"
     inkscape:groupmode="layer"
     id="layer1"
     transform="translate(-589.23931,-604.29071)">
    <path
       style="fill:#222e28"
       d="m 591.69463,614.04986 c -0.9733,-1.2179 -1.52804,-2.84398 -1.23275,-3.6135 0.2953,-0.76953 0.0404,-1.9974 -0.56644,-2.72859 -1.51956,-1.83096 -0.29978,-3.41706 2.62786,-3.41706 2.70767,0 3.36031,2.66752 1.19098,4.86788 -1.00537,1.01976 -0.76075,1.20567 1.25,0.95 1.375,-0.17483 2.57407,0.0818 2.66459,0.57032 0.0905,0.4885 0.69578,1.21649 1.34502,1.61774 0.74751,0.46199 0.22871,0.96841 -1.41459,1.38085 -1.42726,0.35822 -2.59502,1.09274 -2.59502,1.63226 0,1.62458 -1.39362,1.08757 -3.26965,-1.2599 z"
       id="path3279"
       inkscape:connector-curvature="0" />
  </g>
</svg>
