<?xml version="1.0" encoding="UTF-8" standalone="no"?>
<!-- Created with Inkscape (http://www.inkscape.org/) -->

<svg
   xmlns:dc="http://purl.org/dc/elements/1.1/"
   xmlns:cc="http://creativecommons.org/ns#"
   xmlns:rdf="http://www.w3.org/1999/02/22-rdf-syntax-ns#"
   xmlns:svg="http://www.w3.org/2000/svg"
   xmlns="http://www.w3.org/2000/svg"
   xmlns:sodipodi="http://sodipodi.sourceforge.net/DTD/sodipodi-0.dtd"
   xmlns:inkscape="http://www.inkscape.org/namespaces/inkscape"
   width="39.076324"
   height="18.451181"
   id="svg2"
   version="1.1"
   inkscape:version="0.48.4 r9939"
   sodipodi:docname="bird-right-1.svg">
  <defs
     id="defs4" />
  <sodipodi:namedview
     id="base"
     pagecolor="#ffffff"
     bordercolor="#666666"
     borderopacity="1.0"
     inkscape:pageopacity="0.0"
     inkscape:pageshadow="2"
     inkscape:zoom="1.979899"
     inkscape:cx="9.1718237"
     inkscape:cy="4.1450319"
     inkscape:document-units="px"
     inkscape:current-layer="layer1"
     showgrid="false"
     inkscape:window-width="524"
     inkscape:window-height="395"
     inkscape:window-x="0"
     inkscape:window-y="24"
     inkscape:window-maximized="0"
     fit-margin-top="0"
     fit-margin-left="0"
     fit-margin-right="0"
     fit-margin-bottom="0" />
  <metadata
     id="metadata7">
    <rdf:RDF>
      <cc:Work
         rdf:about="">
        <dc:format>image/svg+xml</dc:format>
        <dc:type
           rdf:resource="http://purl.org/dc/dcmitype/StillImage" />
        <dc:title></dc:title>
      </cc:Work>
    </rdf:RDF>
  </metadata>
  <g
     inkscape:label="Layer 1"
     inkscape:groupmode="layer"
     id="layer1"
     transform="translate(-525.65201,-630.58056)">
    <path
       style="fill:#25342c"
       d="m 548.09419,647.93988 c -1.50639,-1.82752 -4.12755,-2.24983 -4.12755,-0.66502 0,0.55 -0.45,1 -1,1 -0.55,0 -1,-0.675 -1,-1.5 0,-1.91067 -0.98989,-1.89581 -3.77749,0.0567 -2.79201,1.9556 -2.82125,1.17215 -0.0939,-2.51677 1.50889,-2.04088 1.93818,-3.63772 1.47456,-5.48494 -0.60028,-2.39169 -0.44646,-2.55377 1.8714,-1.97202 1.91654,0.48102 2.52544,0.24605 2.52544,-0.97456 0,-0.88463 0.45,-1.60841 1,-1.60841 0.55,0 1,0.675 1,1.5 0,2.07101 1.34961,1.87615 3.50555,-0.50613 2.45307,-2.71062 2.93994,-1.86785 1.39275,2.41084 -1.19169,3.29555 -1.10733,3.7488 1.1582,6.22302 2.40437,2.62585 2.40836,2.65993 0.24888,2.12853 -1.67013,-0.41099 -2.26759,-0.0485 -2.5,1.51686 -0.28069,1.89062 -0.41633,1.92231 -1.67783,0.3919 z m -0.12755,-3.97404 c 0,-0.44496 0.45341,-0.52879 1.00759,-0.18629 0.59008,0.36469 0.52949,-0.42659 -0.14623,-1.90963 -0.6346,-1.39279 -1.50692,-2.31412 -1.93849,-2.04739 -0.43157,0.26672 -1.0645,0.0322 -1.4065,-0.52119 -0.37291,-0.60338 -1.44489,-0.23934 -2.67792,0.9094 -1.64896,1.53624 -1.81114,2.17777 -0.81902,3.23983 1.34075,1.43528 5.98057,1.83504 5.98057,0.51527 z m -21.96283,0.37847 c -1.30826,-2.44451 1.23321,-5.31733 4.31065,-4.87267 1.5974,0.23081 2.13669,1.07933 2.25834,3.55322 0.14472,2.94326 -0.10898,3.25 -2.68799,3.25 -1.7902,0 -3.23151,-0.71696 -3.881,-1.93055 z m 4.96283,-1.01043 c 0,-1.06754 -0.39901,-2.18759 -0.88669,-2.48899 -1.21787,-0.75268 -3.43836,2.09501 -2.64038,3.38617 1.09459,1.77108 3.52707,1.15233 3.52707,-0.89718 z m 27.61039,-2.25708 c -0.33572,-1.67857 -0.61039,-3.44569 -0.61039,-3.92694 0,-1.37259 3.41647,-1.02446 5.55887,0.56643 2.27482,1.68922 1.21092,4.35974 -2.24639,5.63868 -1.77599,0.65698 -2.18383,0.31313 -2.70209,-2.27817 z m 4.06671,-0.40286 c 0.6095,-1.58833 -1.43481,-3.66686 -2.78547,-2.8321 -0.96545,0.59667 0.12184,4.43302 1.25639,4.43302 0.50311,0 1.1912,-0.72042 1.52908,-1.60092 z m -7.1771,-9.35046 c -1.52026,-0.61632 -1.10317,-0.79187 1.73885,-0.73184 2.2251,0.047 3.23728,0.39752 2.5,0.86578 -1.46081,0.92778 -1.63338,0.92233 -4.23885,-0.13394 z"
       id="path3066"
       inkscape:connector-curvature="0" />
  </g>
</svg>
