<?xml version="1.0" encoding="UTF-8" standalone="no"?>
<!-- Created with Inkscape (http://www.inkscape.org/) -->

<svg
   xmlns:dc="http://purl.org/dc/elements/1.1/"
   xmlns:cc="http://creativecommons.org/ns#"
   xmlns:rdf="http://www.w3.org/1999/02/22-rdf-syntax-ns#"
   xmlns:svg="http://www.w3.org/2000/svg"
   xmlns="http://www.w3.org/2000/svg"
   xmlns:sodipodi="http://sodipodi.sourceforge.net/DTD/sodipodi-0.dtd"
   xmlns:inkscape="http://www.inkscape.org/namespaces/inkscape"
   width="10.741715"
   height="14.923137"
   id="svg3645"
   version="1.1"
   inkscape:version="0.48.4 r9939"
   sodipodi:docname="Nowy dokument 37">
  <defs
     id="defs3647" />
  <sodipodi:namedview
     id="base"
     pagecolor="#ffffff"
     bordercolor="#666666"
     borderopacity="1.0"
     inkscape:pageopacity="0.0"
     inkscape:pageshadow="2"
     inkscape:zoom="11.2"
     inkscape:cx="-0.95321481"
     inkscape:cy="10.365183"
     inkscape:document-units="px"
     inkscape:current-layer="layer1"
     showgrid="false"
     fit-margin-top="0"
     fit-margin-left="0"
     fit-margin-right="0"
     fit-margin-bottom="0"
     inkscape:window-width="524"
     inkscape:window-height="395"
     inkscape:window-x="0"
     inkscape:window-y="24"
     inkscape:window-maximized="0" />
  <metadata
     id="metadata3650">
    <rdf:RDF>
      <cc:Work
         rdf:about="">
        <dc:format>image/svg+xml</dc:format>
        <dc:type
           rdf:resource="http://purl.org/dc/dcmitype/StillImage" />
        <dc:title></dc:title>
      </cc:Work>
    </rdf:RDF>
  </metadata>
  <g
     inkscape:label="Layer 1"
     inkscape:groupmode="layer"
     id="layer1"
     transform="translate(-532.88021,-600.93363)">
    <path
       style="fill:#212d29"
       d="m 535.16336,615.29007 c -0.65661,-0.26711 -0.96343,-1.08606 -0.68183,-1.8199 0.2816,-0.73383 0.0313,-1.63131 -0.55618,-1.99441 -1.31756,-0.8143 -1.42195,-4.54213 -0.12719,-4.54213 0.51754,0 1.22364,0.45734 1.5691,1.01631 0.34546,0.55897 1.05185,0.75443 1.56974,0.43436 0.54602,-0.33746 0.33862,-1.44287 -0.49366,-2.63112 -1.88274,-2.68798 -0.97509,-4.81955 2.05221,-4.81955 2.91002,0 4.13024,2.53961 2.48557,5.17314 -1.49727,2.39751 -0.49853,4.38263 1.40863,2.79983 1.06513,-0.88398 1.32288,-0.70418 1.20645,0.84157 -0.0814,1.08115 -0.68552,1.75948 -1.3424,1.50742 -0.65687,-0.25207 -1.49139,0.0224 -1.85449,0.60987 -0.36309,0.58749 -1.58175,1.06817 -2.70814,1.06817 -1.40957,0 -1.86854,0.46758 -1.47236,1.5 0.31658,0.825 0.47722,1.46447 0.35699,1.42105 -0.12024,-0.0434 -0.75584,-0.29749 -1.41244,-0.56461 z"
       id="path3715"
       inkscape:connector-curvature="0" />
  </g>
</svg>
