<?xml version="1.0" encoding="UTF-8" standalone="no"?>
<!-- Created with Inkscape (http://www.inkscape.org/) -->

<svg
   xmlns:dc="http://purl.org/dc/elements/1.1/"
   xmlns:cc="http://creativecommons.org/ns#"
   xmlns:rdf="http://www.w3.org/1999/02/22-rdf-syntax-ns#"
   xmlns:svg="http://www.w3.org/2000/svg"
   xmlns="http://www.w3.org/2000/svg"
   xmlns:sodipodi="http://sodipodi.sourceforge.net/DTD/sodipodi-0.dtd"
   xmlns:inkscape="http://www.inkscape.org/namespaces/inkscape"
   width="35.293285"
   height="35.874454"
   id="svg3562"
   version="1.1"
   inkscape:version="0.48.4 r9939"
   sodipodi:docname="Nowy dokument 28">
  <defs
     id="defs3564" />
  <sodipodi:namedview
     id="base"
     pagecolor="#ffffff"
     bordercolor="#666666"
     borderopacity="1.0"
     inkscape:pageopacity="0.0"
     inkscape:pageshadow="2"
     inkscape:zoom="15.839192"
     inkscape:cx="23.394818"
     inkscape:cy="15.01236"
     inkscape:document-units="px"
     inkscape:current-layer="g3632"
     showgrid="false"
     fit-margin-top="0"
     fit-margin-left="0"
     fit-margin-right="0"
     fit-margin-bottom="0"
     inkscape:window-width="1280"
     inkscape:window-height="1000"
     inkscape:window-x="0"
     inkscape:window-y="24"
     inkscape:window-maximized="1" />
  <metadata
     id="metadata3567">
    <rdf:RDF>
      <cc:Work
         rdf:about="">
        <dc:format>image/svg+xml</dc:format>
        <dc:type
           rdf:resource="http://purl.org/dc/dcmitype/StillImage" />
        <dc:title></dc:title>
      </cc:Work>
    </rdf:RDF>
  </metadata>
  <g
     inkscape:label="Layer 1"
     inkscape:groupmode="layer"
     id="layer1"
     transform="translate(-555.06328,-649.00466)">
    <g
       id="g3632"
       transform="translate(9.8489873,7.0710678)">
      <path
         style="fill:#b19d93"
         d="m 556.22143,676.34061 c -7.62613,-3.30712 -11.00714,-8.5926 -11.00714,-17.20732 0,-4.95949 0.47492,-6.55523 2.98028,-10.01379 3.83344,-5.2919 7.60838,-7.18591 14.32218,-7.18591 6.5173,0 10.78502,2.51067 15.04195,8.84908 9.50809,14.15721 -5.67889,32.34829 -21.33727,25.55794 z m 8.49286,-10.40702 c 0.35191,-0.5694 -0.50929,-1 -2,-1 -1.49071,0 -2.35191,0.4306 -2,1 0.33992,0.55 1.23992,1 2,1 0.76008,0 1.66008,-0.45 2,-1 z"
         id="path3640"
         inkscape:connector-curvature="0" />
      <path
         style="fill:#a38678"
         d="m 559.71429,677.2615 c -5.00834,-1.10206 -7.88616,-2.95363 -11.06849,-7.1214 -2.92949,-3.83664 -3.43151,-5.28354 -3.43151,-9.89015 0,-7.25483 2.78161,-12.51803 8.33617,-15.77322 11.24073,-6.58751 24.7136,0.63808 26.30913,14.10974 1.35398,11.43231 -9.08445,21.10891 -20.1453,18.67503 z m 7.4138,-12.94545 c 1.13242,-1.43964 1.81352,-3.01464 1.51356,-3.5 -0.29997,-0.48535 -2.96351,-0.88246 -5.91899,-0.88246 -4.63855,0 -5.46797,0.29735 -6.06353,2.1738 -1.55284,4.89255 6.94722,6.68582 10.46896,2.20866 z m 10.87396,-0.51917 c -0.24965,-0.74895 -0.70294,-0.29565 -1.05655,1.05655 -0.43497,1.66335 -0.30483,2.05378 0.43724,1.31171 0.5811,-0.5811 0.85979,-1.64682 0.61931,-2.36826 z"
         id="path3638"
         inkscape:connector-curvature="0" />
      <path
         style="fill:#8d6558"
         d="m 559.71429,676.92962 c -13.3506,-1.96347 -19.21469,-18.41777 -10.2163,-28.66637 7.19691,-8.19682 17.7591,-8.4022 25.22647,-0.49052 2.96578,3.14225 6.10784,10.16086 4.54877,10.16086 -0.46,0 -1.11704,-1.49618 -1.4601,-3.32484 -0.64811,-3.45471 -4.28888,-7.54333 -8.59884,-9.65658 -1.77654,-0.87107 -1.43609,-0.32413 1.17647,1.89001 4.46073,3.78045 6.261,8.68848 5.36894,14.63717 -0.52664,3.51187 -1.50235,5.12299 -4.8523,8.01224 -3.89204,3.35679 -4.57166,3.5862 -9.46524,3.19512 -6.30042,-0.50351 -10.69075,-4.04468 -12.26559,-9.89322 -1.1835,-4.39515 -0.29275,-11.34074 1.66251,-12.96347 0.75637,-0.62772 1.37521,-1.60596 1.37521,-2.17386 0,-2.40678 -4.10036,2.93641 -5.09877,6.64422 -3.02186,11.22233 4.44537,21.63321 15.51646,21.63321 8.14251,0 12.69057,-3.554 15.64501,-12.22551 1.27758,-3.74983 1.81732,-4.54081 1.86717,-2.73638 0.0957,3.46343 -3.86354,10.93283 -7.00726,13.21973 -3.35189,2.43833 -8.42485,3.4732 -13.42261,2.73819 z m 7.51625,-11.8081 c 1.62248,-1.31381 2.05022,-2.40314 1.55558,-3.96162 -0.59613,-1.87822 -1.40104,-2.14195 -6.37703,-2.08946 -8.07574,0.0852 -10.08011,2.02881 -6.00624,5.82419 2.72699,2.54058 7.83813,2.64768 10.82769,0.22689 z"
         id="path3636"
         inkscape:connector-curvature="0" />
      <path
         style="fill:#62362a"
         d="m 556.21429,675.93359 c -1.82797,-1.18132 -0.24909,-1.18132 2.5,0 1.31874,0.56668 1.48906,0.87815 0.5,0.9144 -0.825,0.0302 -2.175,-0.38124 -3,-0.9144 z m 12.54137,-0.87966 c 2.22275,-1.00966 5.26025,-3.2843 6.75,-5.05477 3.2788,-3.89663 3.58646,-3.17725 0.45863,1.07239 -2.43827,3.31277 -6.58452,5.87505 -9.45034,5.84008 -0.98981,-0.0121 0.019,-0.84805 2.24171,-1.8577 z m -16.66893,-1.87034 c -1.24387,-1.58606 -1.2085,-1.62143 0.37756,-0.37756 0.9625,0.75485 1.75,1.54235 1.75,1.75 0,0.82304 -0.82119,0.29331 -2.12756,-1.37244 z m 4.24905,-1.95991 c -6.45802,-3.18145 -9.00279,-11.85174 -5.75792,-19.61781 2.70489,-6.47372 10.19773,-9.03125 16.92213,-5.77602 5.53963,2.68169 7.7143,6.4516 7.7143,13.37317 0,6.30452 -1.97109,9.53991 -7.37393,12.10372 -4.3147,2.04746 -7.22244,2.02647 -11.50458,-0.0831 z m 9.41699,-4.74172 c 7.63047,-3.18821 5.90455,-11.28565 -2.29905,-10.78636 -2.05669,0.12517 -4.86443,0.3975 -6.23943,0.60516 -1.375,0.20767 -3.2875,0.43501 -4.25,0.50521 -4.93952,0.36022 2.96701,10.61321 8.53212,11.06423 0.43016,0.0349 2.34553,-0.58984 4.25636,-1.38824 z m -20.34353,-7.04837 c 0.0204,-1.65 0.2445,-2.20394 0.49804,-1.23097 0.25354,0.97297 0.23687,2.32297 -0.0371,3 -0.27393,0.67703 -0.48137,-0.11903 -0.46099,-1.76903 z m 1.59082,-8 c 0.56682,-1.1 2.30941,-3.12336 3.87241,-4.49637 l 2.84182,-2.49636 -2.99225,3.49636 c -4.74138,5.54019 -4.80681,5.60165 -3.72198,3.49637 z"
         id="path3634"
         inkscape:connector-curvature="0" />
    </g>
  </g>
</svg>
