<?xml version="1.0" encoding="UTF-8" standalone="no"?>
<!-- Created with Inkscape (http://www.inkscape.org/) -->

<svg
   xmlns:dc="http://purl.org/dc/elements/1.1/"
   xmlns:cc="http://creativecommons.org/ns#"
   xmlns:rdf="http://www.w3.org/1999/02/22-rdf-syntax-ns#"
   xmlns:svg="http://www.w3.org/2000/svg"
   xmlns="http://www.w3.org/2000/svg"
   xmlns:sodipodi="http://sodipodi.sourceforge.net/DTD/sodipodi-0.dtd"
   xmlns:inkscape="http://www.inkscape.org/namespaces/inkscape"
   width="35.584801"
   height="36.175987"
   id="svg3430"
   version="1.1"
   inkscape:version="0.48.4 r9939"
   sodipodi:docname="Nowy dokument 21">
  <defs
     id="defs3432" />
  <sodipodi:namedview
     id="base"
     pagecolor="#ffffff"
     bordercolor="#666666"
     borderopacity="1.0"
     inkscape:pageopacity="0.0"
     inkscape:pageshadow="2"
     inkscape:zoom="7.9195959"
     inkscape:cx="28.350127"
     inkscape:cy="24.882906"
     inkscape:document-units="px"
     inkscape:current-layer="layer1"
     showgrid="false"
     fit-margin-top="0"
     fit-margin-left="0"
     fit-margin-right="0"
     fit-margin-bottom="0"
     inkscape:window-width="524"
     inkscape:window-height="415"
     inkscape:window-x="0"
     inkscape:window-y="24"
     inkscape:window-maximized="0" />
  <metadata
     id="metadata3435">
    <rdf:RDF>
      <cc:Work
         rdf:about="">
        <dc:format>image/svg+xml</dc:format>
        <dc:type
           rdf:resource="http://purl.org/dc/dcmitype/StillImage" />
        <dc:title></dc:title>
      </cc:Work>
    </rdf:RDF>
  </metadata>
  <g
     inkscape:label="Layer 1"
     inkscape:groupmode="layer"
     id="layer1"
     transform="translate(-457.62283,-541.91455)">
    <g
       id="g3519"
       transform="translate(9.2857143,6.25)">
      <path
         style="fill:#b29b91"
         d="m 458.52186,570.45558 c -6.58651,-2.8689 -11.32145,-12.13686 -9.94611,-19.46807 1.02728,-5.47586 3.18545,-8.88805 7.6816,-12.14505 7.17014,-5.19402 17.34531,-3.8914 23.10904,2.9584 7.79479,9.26359 5.30225,22.51764 -5.3044,28.20605 -4.02974,2.16118 -11.13739,2.36638 -15.54013,0.44867 z m 10.04958,-10.5934 c 0.35667,-0.5771 -0.5699,-0.99352 -2.19098,-0.98469 -2.18111,0.0119 -2.47372,0.232 -1.30902,0.98469 1.92129,1.24163 2.73263,1.24163 3.5,0 z"
         id="path3527"
         inkscape:connector-curvature="0" />
      <path
         style="fill:#a38677"
         d="m 457.81899,569.84957 c -11.06218,-6.00706 -12.26483,-22.91464 -2.17723,-30.60882 4.69052,-3.57763 12.716,-4.29374 17.98473,-1.60476 4.81561,2.45773 6.89904,4.67538 8.90681,9.48067 3.13163,7.49504 0.68887,16.24056 -5.95078,21.30487 -4.96152,3.78433 -13.26113,4.41599 -18.76353,1.42804 z m 12.42371,-10.64238 c 1.00581,-0.91024 1.82874,-2.5077 1.82874,-3.5499 0,-1.67465 -0.66727,-1.86006 -5.74028,-1.59501 -4.7489,0.2481 -5.80392,0.6339 -6.10874,2.2338 -0.76825,4.03223 6.46077,6.13242 10.02028,2.91111 z m 11.51185,-1.53251 c -0.31922,-0.79773 -0.55618,-0.56078 -0.60416,0.60417 -0.0434,1.05416 0.19293,1.64479 0.52522,1.3125 0.33229,-0.3323 0.36782,-1.1948 0.079,-1.91667 z"
         id="path3525"
         inkscape:connector-curvature="0" />
      <path
         style="fill:#8e6558"
         d="m 459.57144,570.38621 c -7.20083,-3.35485 -10.5,-8.62541 -10.5,-16.7742 0,-12.48609 12.22505,-21.02525 23.41004,-16.35186 1.84019,0.76888 3.68004,1.93877 4.08856,2.59976 0.55053,0.89078 0.12923,0.87366 -1.62792,-0.0661 -2.05532,-1.09928 -1.94491,-0.78283 0.83,2.37885 6.06508,6.91046 5.69311,15.48472 -0.91725,21.14294 -3.31014,2.83336 -4.98248,3.54662 -8.31554,3.54662 -5.16998,0 -10.29414,-3.22343 -12.74898,-8.01993 -2.0836,-4.07114 -1.51431,-12.33673 1.0494,-15.2362 0.85402,-0.96587 1.30461,-2.00428 1.00132,-2.30758 -1.24307,-1.24307 -5.11555,6.1084 -5.53898,10.51513 -0.93393,9.7195 6.61296,18.04858 16.3536,18.04858 9.52628,0 15.89417,-6.84146 15.78614,-16.96012 -0.0503,-4.71473 0.0701,-5.09304 0.80834,-2.53988 3.72204,12.87185 -11.46464,25.71453 -23.67873,20.02403 z m 11.33439,-11.12059 c 1.42841,-1.0005 2.16483,-2.40052 1.97251,-3.75 -0.26816,-1.88159 -1.04343,-2.19162 -6.14127,-2.45586 -8.09527,-0.41962 -10.65736,1.81069 -6.66563,5.80242 2.43077,2.43077 7.66187,2.62556 10.83439,0.40344 z m 8.14555,-15.92761 c -0.69572,-0.83829 -1.07128,-1.71782 -0.83459,-1.95452 0.2367,-0.23669 0.97964,0.44918 1.65098,1.52417 1.45181,2.32472 0.96763,2.57996 -0.81639,0.43035 z"
         id="path3523"
         inkscape:connector-curvature="0" />
      <path
         style="fill:#63372b"
         d="m 459.32144,569.88911 c -2.3375,-1.06103 -4.25,-2.47089 -4.25,-3.13303 0,-0.8135 0.56746,-0.7071 1.75,0.32813 0.9625,0.84261 3.40851,2.11727 5.43557,2.83258 4.78008,1.6868 10.3921,0.11654 15.54568,-4.34972 l 3.69809,-3.20489 -2.20177,3.13626 c -2.35832,3.35924 -8.54462,6.37761 -12.99781,6.34178 -1.50137,-0.0121 -4.64226,-0.89008 -6.97976,-1.95111 z m -0.33755,-5.30695 c -4.34739,-2.9297 -5.87938,-6.05192 -5.89771,-12.01964 -0.0202,-6.57523 2.22501,-10.47651 7.32852,-12.73403 4.06705,-1.79905 7.63864,-1.67655 12.65674,0.4341 3.34386,1.40645 6,7.06252 6,12.77661 0,6.40392 -1.94422,9.61956 -7.37393,12.19613 -4.72505,2.24218 -8.72191,2.03684 -12.71362,-0.65317 z m 10.54786,-4.26817 c 2.87123,-1.36249 5.53969,-4.91979 5.53969,-7.38492 0,-0.46145 -1.60105,-1.59876 -3.5579,-2.52734 -2.79029,-1.32408 -3.86779,-1.43115 -4.99425,-0.49627 -0.79,0.65564 -2.65367,0.95937 -4.14149,0.67495 -1.48782,-0.28441 -3.74546,-0.12158 -5.01697,0.36184 -2.15968,0.82111 -2.22674,1.08753 -1.01883,4.04779 0.73901,1.81109 2.77235,3.96221 4.74563,5.02049 4.17954,2.24151 4.34728,2.24754 8.44412,0.30346 z m -20.30242,-6.45181 c 0,-1.375 0.22698,-1.9375 0.50439,-1.25 0.27741,0.6875 0.27741,1.8125 0,2.5 -0.27741,0.6875 -0.50439,0.125 -0.50439,-1.25 z m 0.87252,-6.76469 c -0.0167,-0.69557 1.43209,-2.74141 3.21959,-4.54629 1.7875,-1.80489 2.29773,-2.13578 1.13385,-0.73532 -1.16389,1.40047 -2.6127,3.4463 -3.21959,4.5463 -0.6069,1.1 -1.11713,1.43089 -1.13385,0.73531 z"
         id="path3521"
         inkscape:connector-curvature="0" />
    </g>
  </g>
</svg>
