<?xml version="1.0" encoding="UTF-8" standalone="no"?>
<!-- Created with Inkscape (http://www.inkscape.org/) -->

<svg
   xmlns:dc="http://purl.org/dc/elements/1.1/"
   xmlns:cc="http://creativecommons.org/ns#"
   xmlns:rdf="http://www.w3.org/1999/02/22-rdf-syntax-ns#"
   xmlns:svg="http://www.w3.org/2000/svg"
   xmlns="http://www.w3.org/2000/svg"
   xmlns:sodipodi="http://sodipodi.sourceforge.net/DTD/sodipodi-0.dtd"
   xmlns:inkscape="http://www.inkscape.org/namespaces/inkscape"
   width="34.977543"
   height="35.643261"
   id="svg3787"
   version="1.1"
   inkscape:version="0.48.4 r9939"
   sodipodi:docname="Nowy dokument 40">
  <defs
     id="defs3789" />
  <sodipodi:namedview
     id="base"
     pagecolor="#ffffff"
     bordercolor="#666666"
     borderopacity="1.0"
     inkscape:pageopacity="0.0"
     inkscape:pageshadow="2"
     inkscape:zoom="11.2"
     inkscape:cx="26.980117"
     inkscape:cy="23.462269"
     inkscape:document-units="px"
     inkscape:current-layer="layer1"
     showgrid="false"
     fit-margin-top="0"
     fit-margin-left="0"
     fit-margin-right="0"
     fit-margin-bottom="0"
     inkscape:window-width="1280"
     inkscape:window-height="1000"
     inkscape:window-x="0"
     inkscape:window-y="24"
     inkscape:window-maximized="1" />
  <metadata
     id="metadata3792">
    <rdf:RDF>
      <cc:Work
         rdf:about="">
        <dc:format>image/svg+xml</dc:format>
        <dc:type
           rdf:resource="http://purl.org/dc/dcmitype/StillImage" />
        <dc:title></dc:title>
      </cc:Work>
    </rdf:RDF>
  </metadata>
  <g
     inkscape:label="Layer 1"
     inkscape:groupmode="layer"
     id="layer1"
     transform="translate(-424.80356,-599.88006)">
    <g
       id="g3857"
       transform="translate(9.375,12.589286)">
      <path
         style="fill:#b39c91"
         d="m 426.4357,621.75188 c -7.68098,-3.44985 -11.00714,-8.66594 -11.00714,-17.26141 0,-4.95949 0.47492,-6.55523 2.98028,-10.01379 3.78955,-5.23131 7.60298,-7.18591 14.01972,-7.18591 7.69708,0 12.61906,3.25686 16.49329,10.91357 3.77165,7.45397 0.0273,18.69736 -7.52775,22.60425 -4.52081,2.3378 -10.95079,2.74328 -14.9584,0.94329 z m 8.49286,-10.46111 c 0.35191,-0.5694 -0.50929,-1 -2,-1 -1.49071,0 -2.35191,0.4306 -2,1 0.33992,0.55 1.23992,1 2,1 0.76008,0 1.66008,-0.45 2,-1 z"
         id="path3865"
         inkscape:connector-curvature="0" />
      <path
         style="fill:#a48678"
         d="m 427.08375,621.85525 c -7.67797,-2.78376 -11.66431,-8.52583 -11.63874,-16.76482 0.0545,-17.5724 21.91104,-24.41828 31.67963,-9.92268 9.51239,14.11543 -4.23264,32.41902 -20.04089,26.6875 z m 20.15168,-10.09094 c -0.30789,-0.30789 -0.86705,0.24711 -1.24258,1.23333 -0.54268,1.4252 -0.42782,1.54006 0.5598,0.5598 0.68342,-0.67834 0.99067,-1.48524 0.68278,-1.79313 z m -9.85077,-2.14486 c 2.61209,-3.32073 1.85115,-4.09746 -4.37215,-4.46286 -4.32267,-0.2538 -5.04133,-0.008 -5.95385,2.03713 -2.2561,5.05612 6.61728,7.14061 10.326,2.42573 z"
         id="path3863"
         inkscape:connector-curvature="0" />
      <path
         style="fill:#8d6356"
         d="m 423.81712,620.38599 c -9.21347,-5.61821 -11.2148,-18.66778 -4.10486,-26.76556 7.80844,-8.89332 19.5414,-8.28216 26.9663,1.40464 1.5125,1.97327 2.70514,4.52779 2.65032,5.67673 -0.0944,1.97778 -0.13429,1.96883 -0.75,-0.16817 -0.80076,-2.7793 -5.8664,-9.24286 -7.24384,-9.24286 -0.55455,0 0.25214,1.65247 1.79263,3.67216 2.34163,3.07003 2.80089,4.6465 2.80089,9.61432 0,5.75988 -0.13432,6.06137 -4.37861,9.82784 -3.80326,3.37511 -5.01413,3.88568 -9.2152,3.88568 -3.9798,0 -5.46031,-0.54763 -8.35745,-3.09135 -5.59896,-4.91595 -7.01963,-15.2897 -2.76154,-20.16478 0.84363,-0.96587 1.31716,-1.97284 1.0523,-2.2377 -0.26486,-0.26487 -1.5746,0.97539 -2.91053,2.75613 -3.49589,4.65986 -3.468,13.85226 0.0563,18.55154 7.30625,9.74215 21.06391,9.7143 27.02014,-0.0547 1.09292,-1.79253 1.98881,-4.04664 1.99086,-5.00914 0.002,-0.9625 0.48407,-1.75 1.07113,-1.75 2.87701,0 -3.05413,10.41104 -7.46261,13.09927 -4.25181,2.59269 -13.96128,2.59053 -18.21622,-0.004 z m 13.62769,-9.90729 c 1.62248,-1.31381 2.05022,-2.40314 1.55558,-3.96162 -0.59613,-1.87822 -1.40104,-2.14195 -6.37703,-2.08946 -8.07574,0.0852 -10.08011,2.02881 -6.00624,5.82419 2.72699,2.54058 7.83813,2.64768 10.82769,0.22689 z"
         id="path3861"
         inkscape:connector-curvature="0" />
      <path
         style="fill:#63372b"
         d="m 428.24106,621.60766 c 0.72188,-0.28888 1.58438,-0.25335 1.91667,0.0789 0.33229,0.33229 -0.25834,0.56864 -1.3125,0.52522 -1.16495,-0.048 -1.4019,-0.28495 -0.60417,-0.60417 z m 10.72887,-1.19655 c 2.22275,-1.00966 5.26025,-3.2843 6.75,-5.05477 3.1602,-3.75568 3.68898,-3.12735 0.63525,0.75485 -2.69193,3.42223 -6.90361,6.17042 -9.42662,6.15103 -1.2766,-0.01 -0.53823,-0.67937 2.04137,-1.85111 z m -15.96837,-0.64181 c -1.05985,-0.80183 -1.72813,-1.65674 -1.48506,-1.89981 0.24307,-0.24306 1.56022,0.41728 2.927,1.46744 1.36678,1.05015 2.03506,1.90506 1.48506,1.8998 -0.55,-0.005 -1.86715,-0.66561 -2.927,-1.46743 z m 2.33945,-3.75855 c -4.25042,-2.86436 -5.87892,-6.04249 -5.89771,-11.50982 -0.0163,-4.74183 3.02426,-11.64888 5.73853,-13.03587 6.75029,-3.44942 15.71813,-0.91535 18.65376,5.27104 2.04864,4.31717 2.06286,12.43879 0.0269,15.34555 -2.03021,2.89854 -8.55964,6.20912 -12.24619,6.20912 -1.59057,0 -4.41444,-1.02601 -6.27527,-2.28002 z m 9.96871,-3.8284 c 3.96818,-1.38331 6.85912,-6.29467 5.01391,-8.51801 -2.50733,-3.02115 -4.66874,-3.4299 -11.85836,-2.24256 -3.87019,0.63915 -7.03671,1.61617 -7.03671,2.17115 0,1.74722 5.11535,7.80177 7.35513,8.70557 2.8645,1.15588 2.87776,1.15564 6.52603,-0.11615 z m -19.72327,-6.89158 c 0,-1.375 0.22698,-1.9375 0.50439,-1.25 0.27741,0.6875 0.27741,1.8125 0,2.5 -0.27741,0.6875 -0.50439,0.125 -0.50439,-1.25 z m 4.84211,-12.37756 c 0,-0.20765 0.7875,-0.99515 1.75,-1.75 1.58606,-1.24387 1.62143,-1.2085 0.37755,0.37756 -1.30636,1.66575 -2.12755,2.19548 -2.12755,1.37244 z"
         id="path3859"
         inkscape:connector-curvature="0" />
    </g>
  </g>
</svg>
