<?xml version="1.0" encoding="UTF-8" standalone="no"?>
<!-- Created with Inkscape (http://www.inkscape.org/) -->

<svg
   xmlns:dc="http://purl.org/dc/elements/1.1/"
   xmlns:cc="http://creativecommons.org/ns#"
   xmlns:rdf="http://www.w3.org/1999/02/22-rdf-syntax-ns#"
   xmlns:svg="http://www.w3.org/2000/svg"
   xmlns="http://www.w3.org/2000/svg"
   xmlns:sodipodi="http://sodipodi.sourceforge.net/DTD/sodipodi-0.dtd"
   xmlns:inkscape="http://www.inkscape.org/namespaces/inkscape"
   width="9.8592215"
   height="6.3344131"
   id="svg3411"
   version="1.1"
   inkscape:version="0.48.4 r9939"
   sodipodi:docname="Nowy dokument 25">
  <defs
     id="defs3413" />
  <sodipodi:namedview
     id="base"
     pagecolor="#ffffff"
     bordercolor="#666666"
     borderopacity="1.0"
     inkscape:pageopacity="0.0"
     inkscape:pageshadow="2"
     inkscape:zoom="15.839192"
     inkscape:cx="7.8182373"
     inkscape:cy="3.3490841"
     inkscape:document-units="px"
     inkscape:current-layer="layer1"
     showgrid="false"
     fit-margin-top="0"
     fit-margin-left="0"
     fit-margin-right="0"
     fit-margin-bottom="0"
     inkscape:window-width="524"
     inkscape:window-height="395"
     inkscape:window-x="0"
     inkscape:window-y="24"
     inkscape:window-maximized="0" />
  <metadata
     id="metadata3416">
    <rdf:RDF>
      <cc:Work
         rdf:about="">
        <dc:format>image/svg+xml</dc:format>
        <dc:type
           rdf:resource="http://purl.org/dc/dcmitype/StillImage" />
        <dc:title></dc:title>
      </cc:Work>
    </rdf:RDF>
  </metadata>
  <g
     inkscape:label="Layer 1"
     inkscape:groupmode="layer"
     id="layer1"
     transform="translate(-507.3042,-667.44309)">
    <g
       id="g3481"
       transform="translate(-3.0304576,9.3439111)">
      <path
         style="fill:#49564e"
         d="m 510.78018,663.42464 c -2.30901,-3.73606 4.95915,-7.35726 8.00707,-3.98934 1.88865,2.08693 1.87993,2.63793 -0.0535,3.37985 -0.8971,0.34425 -1.29195,0.17485 -0.93576,-0.40147 0.65201,-1.05498 -3.48461,-3.05598 -4.76231,-2.30366 -1.43863,0.84707 -0.73358,2.39462 1.5,3.29241 2.17978,0.87616 2.16602,0.90637 -0.44098,0.96777 -1.48004,0.0349 -2.97159,-0.39064 -3.31455,-0.94556 z"
         id="path3487"
         inkscape:connector-curvature="0" />
      <path
         style="fill:#39433d"
         d="m 511.3909,663.06034 c -3.27506,-3.94621 3.89559,-6.49334 7.39481,-2.62675 2.09061,2.3101 1.10044,2.7433 -1.14286,0.5 -2.17208,-2.17208 -5.35714,-1.91841 -5.35714,0.42668 0,1.05967 0.7875,2.13247 1.75,2.38399 1.47646,0.38584 1.4956,0.47546 0.12244,0.57333 -0.89515,0.0638 -2.14041,-0.50196 -2.76725,-1.25725 z"
         id="path3485"
         inkscape:connector-curvature="0" />
      <path
         style="fill:#252f29"
         d="m 511.84335,663.52685 c -0.30822,-0.49871 0.34022,-0.67122 1.44098,-0.38337 2.33499,0.61061 2.63015,1.29011 0.5604,1.29011 -0.79254,0 -1.69316,-0.40803 -2.00138,-0.90674 z m 5.56651,-2.78664 c -0.77214,-0.83713 -2.40433,-1.29505 -3.71974,-1.0436 -1.28914,0.24644 -2.10595,0.0631 -1.81513,-0.40748 0.8689,-1.4059 5.07173,-0.96893 6.43078,0.66863 1.66882,2.01081 0.87586,2.70335 -0.89591,0.78245 z"
         id="path3483"
         inkscape:connector-curvature="0" />
    </g>
  </g>
</svg>
