<?xml version="1.0" encoding="UTF-8" standalone="no"?>
<!-- Created with Inkscape (http://www.inkscape.org/) -->

<svg
   xmlns:dc="http://purl.org/dc/elements/1.1/"
   xmlns:cc="http://creativecommons.org/ns#"
   xmlns:rdf="http://www.w3.org/1999/02/22-rdf-syntax-ns#"
   xmlns:svg="http://www.w3.org/2000/svg"
   xmlns="http://www.w3.org/2000/svg"
   xmlns:sodipodi="http://sodipodi.sourceforge.net/DTD/sodipodi-0.dtd"
   xmlns:inkscape="http://www.inkscape.org/namespaces/inkscape"
   width="6.6725755"
   height="8.9411411"
   id="svg3197"
   version="1.1"
   inkscape:version="0.48.4 r9939"
   sodipodi:docname="Nowy dokument 13">
  <defs
     id="defs3199" />
  <sodipodi:namedview
     id="base"
     pagecolor="#ffffff"
     bordercolor="#666666"
     borderopacity="1.0"
     inkscape:pageopacity="0.0"
     inkscape:pageshadow="2"
     inkscape:zoom="15.839192"
     inkscape:cx="-0.032869721"
     inkscape:cy="8.8676872"
     inkscape:document-units="px"
     inkscape:current-layer="layer1"
     showgrid="false"
     fit-margin-top="0"
     fit-margin-left="0"
     fit-margin-right="0"
     fit-margin-bottom="0"
     inkscape:window-width="524"
     inkscape:window-height="395"
     inkscape:window-x="0"
     inkscape:window-y="24"
     inkscape:window-maximized="0" />
  <metadata
     id="metadata3202">
    <rdf:RDF>
      <cc:Work
         rdf:about="">
        <dc:format>image/svg+xml</dc:format>
        <dc:type
           rdf:resource="http://purl.org/dc/dcmitype/StillImage" />
        <dc:title></dc:title>
      </cc:Work>
    </rdf:RDF>
  </metadata>
  <g
     inkscape:label="Layer 1"
     inkscape:groupmode="layer"
     id="layer1"
     transform="translate(-559.06313,-621.50097)">
    <g
       id="g3267"
       transform="translate(0.06313453,4.9244937)">
      <path
         style="fill:#4e5751"
         d="M 559.66667,624.90981 C 559.3,624.54315 559,622.51815 559,620.40981 c 0,-3.05933 0.37253,-3.83333 1.84501,-3.83333 2.67585,0 5.55893,3.53453 4.65985,5.71275 -0.63194,1.531 -0.87873,1.38579 -1.72128,-1.01275 -1.29952,-3.69941 -3.37326,-2.90439 -2.95821,1.13411 0.32714,3.18318 0.0731,3.73106 -1.1587,2.49922 z"
         id="path3273"
         inkscape:connector-curvature="0" />
      <path
         style="fill:#34453d"
         d="m 559.60699,623.99469 c -1.09762,-2.86034 -0.63457,-6.4704 0.90574,-7.06147 2.04806,-0.78591 4.4906,1.40715 4.47253,4.0157 -0.0141,2.03244 -0.07,2.0208 -1.25,-0.26024 -1.66945,-3.22711 -3.28519,-2.34946 -3.01516,1.6378 0.23975,3.54017 -0.1631,4.14391 -1.11311,1.66821 z"
         id="path3271"
         inkscape:connector-curvature="0" />
      <path
         style="fill:#29342e"
         d="m 559.66667,623.90981 c -0.36667,-0.36666 -0.62799,-1.82916 -0.58072,-3.25 0.0844,-2.5366 0.10189,-2.52997 0.96694,0.3664 0.90899,3.04352 0.77489,4.04472 -0.38622,2.8836 z m 4.41228,-2.52663 c -0.0434,-0.93131 -1.07908,-2.39381 -2.30146,-3.25 -1.78333,-1.24909 -1.88908,-1.5567 -0.53518,-1.5567 1.90465,0 4.14082,3.48785 3.40149,5.30544 -0.27219,0.66916 -0.52063,0.4498 -0.56485,-0.49874 z"
         id="path3269"
         inkscape:connector-curvature="0" />
    </g>
  </g>
</svg>
