<?xml version="1.0" encoding="UTF-8" standalone="no"?>
<!-- Created with Inkscape (http://www.inkscape.org/) -->

<svg
   xmlns:dc="http://purl.org/dc/elements/1.1/"
   xmlns:cc="http://creativecommons.org/ns#"
   xmlns:rdf="http://www.w3.org/1999/02/22-rdf-syntax-ns#"
   xmlns:svg="http://www.w3.org/2000/svg"
   xmlns="http://www.w3.org/2000/svg"
   xmlns:sodipodi="http://sodipodi.sourceforge.net/DTD/sodipodi-0.dtd"
   xmlns:inkscape="http://www.inkscape.org/namespaces/inkscape"
   width="9"
   height="7.4242926"
   id="svg2"
   version="1.1"
   inkscape:version="0.48.4 r9939"
   sodipodi:docname="Nowy dokument 1">
  <defs
     id="defs4" />
  <sodipodi:namedview
     id="base"
     pagecolor="#ffffff"
     bordercolor="#666666"
     borderopacity="1.0"
     inkscape:pageopacity="0.0"
     inkscape:pageshadow="2"
     inkscape:zoom="22.4"
     inkscape:cx="3.6480399"
     inkscape:cy="2.6880751"
     inkscape:document-units="px"
     inkscape:current-layer="layer1"
     showgrid="false"
     fit-margin-top="0"
     fit-margin-left="0"
     fit-margin-right="0"
     fit-margin-bottom="0"
     inkscape:window-width="524"
     inkscape:window-height="415"
     inkscape:window-x="0"
     inkscape:window-y="24"
     inkscape:window-maximized="0" />
  <metadata
     id="metadata7">
    <rdf:RDF>
      <cc:Work
         rdf:about="">
        <dc:format>image/svg+xml</dc:format>
        <dc:type
           rdf:resource="http://purl.org/dc/dcmitype/StillImage" />
        <dc:title></dc:title>
      </cc:Work>
    </rdf:RDF>
  </metadata>
  <g
     inkscape:label="Layer 1"
     inkscape:groupmode="layer"
     id="layer1"
     transform="translate(-616.03569,-707.35844)">
    <g
       id="g3047"
       transform="translate(-2.3214286,3.2142857)">
      <path
         style="fill:#49534d"
         d="m 621.10712,709.53286 c -4.82945,-3.60317 -2.66159,-6.79586 3.22182,-4.74489 2.18471,0.7616 3.02818,1.69493 3.02818,3.35082 0,1.26235 -0.7118,2.56833 -1.58179,2.90217 -1.94488,0.74632 -1.4187,0.9163 -4.66821,-1.5081 z m 4.25,-1.36586 c 0,-1.58506 -4.62523,-3.22715 -5.795,-2.05739 -0.83073,0.83073 2.60215,3.53834 4.48613,3.53834 0.71988,0 1.30887,-0.66643 1.30887,-1.48095 z"
         id="path3055"
         inkscape:connector-curvature="0" />
      <path
         style="fill:#3a4844"
         d="m 622.33812,710.12506 c -1.05293,-1.26871 -0.99791,-1.42083 0.32967,-0.91139 2.40693,0.92363 4.04812,-0.42848 2.61544,-2.15475 -1.4496,-1.74666 -5.58115,-1.85284 -6.26383,-0.16097 -0.30132,0.74674 -0.53617,0.54544 -0.58333,-0.5 -0.06,-1.32908 0.71478,-1.75 3.22105,-1.75 1.815,0 3.84,0.54 4.5,1.2 1.69411,1.69411 1.48967,4.47487 -0.38179,5.19301 -2.09145,0.80257 -1.98816,0.83009 -3.43721,-0.9159 z"
         id="path3053"
         inkscape:connector-curvature="0" />
      <path
         style="fill:#334338"
         d="m 622.92906,710.76434 c -0.3022,-0.48895 0.4195,-1.14239 1.60376,-1.45209 3.36121,-0.87897 0.32407,-3.96465 -3.36882,-3.42265 -1.54378,0.22658 -2.80688,0.0399 -2.80688,-0.41484 0,-1.16831 4.75544,-1.02806 7.06574,0.20837 1.06384,0.56935 1.93426,1.67852 1.93426,2.46482 0,1.7267 -3.64636,3.88121 -4.42806,2.61639 z"
         id="path3051"
         inkscape:connector-curvature="0" />
      <path
         style="fill:#2a372f"
         d="m 619.21037,705.3947 c 0.50384,-0.50384 1.98048,-0.74864 3.28141,-0.544 2.00169,0.31488 1.86084,0.45573 -0.91608,0.91609 -1.98722,0.32944 -2.92011,0.18269 -2.36533,-0.37209 z"
         id="path3049"
         inkscape:connector-curvature="0" />
    </g>
  </g>
</svg>
