<?xml version="1.0" encoding="UTF-8" standalone="no"?>
<!-- Created with Inkscape (http://www.inkscape.org/) -->

<svg
   xmlns:dc="http://purl.org/dc/elements/1.1/"
   xmlns:cc="http://creativecommons.org/ns#"
   xmlns:rdf="http://www.w3.org/1999/02/22-rdf-syntax-ns#"
   xmlns:svg="http://www.w3.org/2000/svg"
   xmlns="http://www.w3.org/2000/svg"
   xmlns:sodipodi="http://sodipodi.sourceforge.net/DTD/sodipodi-0.dtd"
   xmlns:inkscape="http://www.inkscape.org/namespaces/inkscape"
   width="9"
   height="7.6450367"
   id="svg4110"
   version="1.1"
   inkscape:version="0.48.4 r9939"
   sodipodi:docname="Nowy dokument 20">
  <defs
     id="defs4112" />
  <sodipodi:namedview
     id="base"
     pagecolor="#ffffff"
     bordercolor="#666666"
     borderopacity="1.0"
     inkscape:pageopacity="0.0"
     inkscape:pageshadow="2"
     inkscape:zoom="256"
     inkscape:cx="6.3251324"
     inkscape:cy="7.2405732"
     inkscape:document-units="px"
     inkscape:current-layer="layer1"
     showgrid="false"
     fit-margin-top="0"
     fit-margin-left="0"
     fit-margin-right="0"
     fit-margin-bottom="0"
     inkscape:window-width="1280"
     inkscape:window-height="1000"
     inkscape:window-x="0"
     inkscape:window-y="24"
     inkscape:window-maximized="1" />
  <metadata
     id="metadata4115">
    <rdf:RDF>
      <cc:Work
         rdf:about="">
        <dc:format>image/svg+xml</dc:format>
        <dc:type
           rdf:resource="http://purl.org/dc/dcmitype/StillImage" />
        <dc:title></dc:title>
      </cc:Work>
    </rdf:RDF>
  </metadata>
  <g
     inkscape:label="Layer 1"
     inkscape:groupmode="layer"
     id="layer1"
     transform="translate(-382.5625,-595.8287)">
    <g
       id="g4199">
      <path
         style="fill:#1a1a1a"
         d="m 388.46875,595.84375 c -0.0612,0.0113 -0.12023,0.0392 -0.1875,0.0625 -0.0621,-0.008 -0.12697,-0.0286 -0.1875,-0.0312 -1.08959,-0.0479 -1.87332,0.70929 -3.28125,2.78125 -0.11523,0.16958 -0.14448,0.25014 -0.25,0.40625 -1.11043,1.30363 -2,2.66825 -2,3.46875 0,0.1952 0.19402,0.31687 0.5,0.40625 0.0751,0.0219 0.12947,0.0462 0.21875,0.0625 0.26185,0.10634 0.58697,0.2138 1.03125,0.3125 3.43535,0.76317 6.44355,-1.31254 7.125,-3.5 0.0321,-0.0632 0.0414,-0.12972 0.0625,-0.1875 0.0359,-0.0984 0.0625,-0.20187 0.0625,-0.28125 0,-0.0241 -0.0202,-0.0172 -0.0312,-0.0312 -0.007,-0.009 0.012,-0.0262 0,-0.0312 0.13041,-0.97651 -0.22257,-1.91192 -1.25,-2.59375 -0.389,-0.41412 -0.88737,-0.71684 -1.5,-0.84375 -0.0912,-0.0189 -0.1976,-0.0212 -0.3125,0 z m 0.15625,2.28125 c 0.01,0.002 0.0217,-0.002 0.0312,0 0.12031,0.0279 0.23699,0.0612 0.34375,0.125 0.10676,0.0638 0.20359,0.15787 0.28125,0.25 0.043,0.051 0.0591,0.12637 0.0937,0.1875 0.13155,0.41579 0.0761,1.02355 -0.0937,1.59375 -0.003,0.01 0.003,0.0214 0,0.0312 -0.0172,0.0328 -0.0437,0.0615 -0.0625,0.0937 -0.11503,0.18674 -0.24536,0.37172 -0.40625,0.53125 -0.0207,0.0205 -0.0411,0.0426 -0.0625,0.0625 -0.0436,0.0394 -0.0779,0.0883 -0.125,0.125 -0.0466,0.0378 -0.10695,0.0595 -0.15625,0.0937 -0.0455,0.03 -0.0768,0.0664 -0.125,0.0937 -0.10708,0.0643 -0.22661,0.1113 -0.34375,0.15625 -0.35024,0.1344 -0.6537,0.25675 -0.9375,0.34375 -0.0373,0.0114 -0.0888,0.0206 -0.125,0.0312 -0.2294,0.0666 -0.4731,0.12332 -0.65625,0.15625 -0.0179,0.003 -0.0451,-0.003 -0.0625,0 -0.0994,0.0159 -0.16508,0.0261 -0.25,0.0312 -0.0217,-0.002 -0.0413,0.002 -0.0625,0 -0.1301,-0.0115 -0.26294,-0.0367 -0.375,-0.0625 -0.0704,-0.0162 -0.12435,-0.0391 -0.1875,-0.0625 -0.30084,-0.25177 -0.14359,-0.86324 0.46875,-1.84375 0.43218,-0.69203 1.03291,-1.26559 1.59375,-1.625 0.0514,-0.033 0.10571,-0.0652 0.15625,-0.0937 0.39015,-0.16099 0.7613,-0.23882 1.0625,-0.21875 z"
         id="path4211"
         inkscape:connector-curvature="0" />
    </g>
  </g>
</svg>
