<?xml version="1.0" encoding="UTF-8" standalone="no"?>
<!-- Created with Inkscape (http://www.inkscape.org/) -->

<svg
   xmlns:dc="http://purl.org/dc/elements/1.1/"
   xmlns:cc="http://creativecommons.org/ns#"
   xmlns:rdf="http://www.w3.org/1999/02/22-rdf-syntax-ns#"
   xmlns:svg="http://www.w3.org/2000/svg"
   xmlns="http://www.w3.org/2000/svg"
   xmlns:sodipodi="http://sodipodi.sourceforge.net/DTD/sodipodi-0.dtd"
   xmlns:inkscape="http://www.inkscape.org/namespaces/inkscape"
   width="8.8098822"
   height="7.7529302"
   id="svg4019"
   version="1.1"
   inkscape:version="0.48.4 r9939"
   sodipodi:docname="Nowy dokument 52">
  <defs
     id="defs4021" />
  <sodipodi:namedview
     id="base"
     pagecolor="#ffffff"
     bordercolor="#666666"
     borderopacity="1.0"
     inkscape:pageopacity="0.0"
     inkscape:pageshadow="2"
     inkscape:zoom="15.839192"
     inkscape:cx="2.2127185"
     inkscape:cy="5.1838167"
     inkscape:document-units="px"
     inkscape:current-layer="layer1"
     showgrid="false"
     fit-margin-top="0"
     fit-margin-left="0"
     fit-margin-right="0"
     fit-margin-bottom="0"
     inkscape:window-width="524"
     inkscape:window-height="415"
     inkscape:window-x="0"
     inkscape:window-y="24"
     inkscape:window-maximized="0" />
  <metadata
     id="metadata4024">
    <rdf:RDF>
      <cc:Work
         rdf:about="">
        <dc:format>image/svg+xml</dc:format>
        <dc:type
           rdf:resource="http://purl.org/dc/dcmitype/StillImage" />
        <dc:title></dc:title>
      </cc:Work>
    </rdf:RDF>
  </metadata>
  <g
     inkscape:label="Layer 1"
     inkscape:groupmode="layer"
     id="layer1"
     transform="translate(-425.58224,-647.14871)">
    <g
       id="g4089">
      <path
         style="fill:#48534e"
         d="m 427.17859,654.73352 c -2.17563,-0.46633 -2.18132,-0.3831 0.31547,-4.61485 1.72721,-2.9274 2.42324,-3.36865 4.25,-2.6943 5.5679,2.05537 1.47724,8.60436 -4.56547,7.30915 z m 3.66821,-1.83544 c 1.87768,-0.72053 2.13156,-3.39301 0.32234,-3.39301 -0.6927,0 -1.82152,0.9 -2.50848,2 -1.27793,2.04629 -0.61578,2.46821 2.18614,1.39301 z"
         id="path4097"
         inkscape:connector-curvature="0" />
      <path
         style="fill:#3c4643"
         d="m 426.08279,653.75458 c -0.90013,-1.45645 4.08244,-6.56455 5.77114,-5.91653 2.58098,0.99041 3.13163,3.78659 1.04601,5.31163 -2.001,1.46317 -6.0639,1.82367 -6.81715,0.6049 z m 6.00072,-1.79264 c 0.32569,-0.84872 0.28998,-1.8453 -0.0793,-2.21463 -0.81901,-0.81901 -3.80734,0.95308 -4.34938,2.5792 -0.59254,1.77761 3.74368,1.42066 4.42873,-0.36457 z"
         id="path4095"
         inkscape:connector-curvature="0" />
      <path
         style="fill:#39413e"
         d="m 426.14889,653.89204 c -0.8608,-0.86081 3.38637,-6.38697 4.90874,-6.38697 0.68911,0 1.57401,0.51953 1.96645,1.15451 0.45526,0.73662 0.27283,0.88214 -0.50399,0.40204 -1.21834,-0.75297 -5.0915,1.98441 -5.0915,3.59844 0,1.43944 3.24779,0.93074 5.17126,-0.80998 2.23217,-2.02008 2.44878,-1.10791 0.25731,1.08356 -1.56214,1.56214 -5.53669,2.12997 -6.70827,0.9584 z"
         id="path4093"
         inkscape:connector-curvature="0" />
      <path
         style="fill:#28322d"
         d="m 426.20408,653.95082 c -0.6141,-0.99364 2.4842,-5.44575 3.78979,-5.44575 0.40958,0 0.0587,0.7875 -0.7798,1.75 -0.83848,0.9625 -1.72584,2.40284 -1.97191,3.20075 -0.24607,0.79791 -0.71321,1.02066 -1.03808,0.495 z m 4.78181,-0.86399 c 1.06675,-0.78003 2.15223,-1.20556 2.41217,-0.94563 0.55036,0.55036 -2.02834,2.32607 -3.4106,2.34856 -0.51762,0.008 -0.0683,-0.6229 0.99843,-1.40293 z"
         id="path4091"
         inkscape:connector-curvature="0" />
    </g>
  </g>
</svg>
