<?xml version="1.0" encoding="UTF-8" standalone="no"?>
<!-- Created with Inkscape (http://www.inkscape.org/) -->

<svg
   xmlns:dc="http://purl.org/dc/elements/1.1/"
   xmlns:cc="http://creativecommons.org/ns#"
   xmlns:rdf="http://www.w3.org/1999/02/22-rdf-syntax-ns#"
   xmlns:svg="http://www.w3.org/2000/svg"
   xmlns="http://www.w3.org/2000/svg"
   xmlns:sodipodi="http://sodipodi.sourceforge.net/DTD/sodipodi-0.dtd"
   xmlns:inkscape="http://www.inkscape.org/namespaces/inkscape"
   width="6.5647268"
   height="8.8192701"
   id="svg4251"
   version="1.1"
   inkscape:version="0.48.4 r9939"
   sodipodi:docname="Nowy dokument 65">
  <defs
     id="defs4253" />
  <sodipodi:namedview
     id="base"
     pagecolor="#ffffff"
     bordercolor="#666666"
     borderopacity="1.0"
     inkscape:pageopacity="0.0"
     inkscape:pageshadow="2"
     inkscape:zoom="44.8"
     inkscape:cx="9.6842733"
     inkscape:cy="5.6558661"
     inkscape:document-units="px"
     inkscape:current-layer="layer1"
     showgrid="false"
     fit-margin-top="0"
     fit-margin-left="0"
     fit-margin-right="0"
     fit-margin-bottom="0"
     inkscape:window-width="1280"
     inkscape:window-height="1000"
     inkscape:window-x="0"
     inkscape:window-y="24"
     inkscape:window-maximized="1" />
  <metadata
     id="metadata4256">
    <rdf:RDF>
      <cc:Work
         rdf:about="">
        <dc:format>image/svg+xml</dc:format>
        <dc:type
           rdf:resource="http://purl.org/dc/dcmitype/StillImage" />
        <dc:title></dc:title>
      </cc:Work>
    </rdf:RDF>
  </metadata>
  <g
     inkscape:label="Layer 1"
     inkscape:groupmode="layer"
     id="layer1"
     transform="translate(-457.23059,-609.34926)">
    <g
       id="g4321"
       transform="translate(9.8214286,2.6785714)">
      <path
         style="fill:#56625a"
         d="m 448.14117,614.88424 c -0.39192,-0.39191 -0.71258,-2.2267 -0.71258,-4.07729 0,-6.2568 5.82656,-5.0787 6.28754,1.2713 0.17836,2.45702 -0.19478,2.97424 -2.32496,3.22266 -1.39559,0.16275 -2.85809,-0.0248 -3.25,-0.41667 z m 4.28742,-2.81581 c 0,-0.7252 -0.675,-1.87874 -1.5,-2.56343 -1.26408,-1.04909 -1.5,-0.85864 -1.5,1.21089 0,1.35068 0.28777,2.74354 0.63948,3.09526 0.90297,0.90297 2.36052,-0.17311 2.36052,-1.74272 z"
         id="path4329"
         inkscape:connector-curvature="0" />
      <path
         style="fill:#3e4f4a"
         d="m 448.60441,614.63482 c -1.92965,-1.22342 -1.12189,-7.52899 1.01634,-7.93382 2.02107,-0.38264 5.08751,4.91163 4.19377,7.24065 -0.65229,1.69985 -3.10719,2.02646 -5.21011,0.69317 z m 3.82418,-1.93869 c 0,-0.99488 -0.60631,-2.63805 -1.34736,-3.65149 -1.71719,-2.3484 -2.95819,-0.60524 -2.07483,2.91437 0.72782,2.89984 3.42219,3.48019 3.42219,0.73712 z"
         id="path4327"
         inkscape:connector-curvature="0" />
      <path
         style="fill:#334339"
         d="m 448.67859,614.84272 c -1.90179,-0.76739 -1.58215,-7.27303 0.39461,-8.03158 2.12623,-0.81592 4.35539,2.19611 4.35539,5.88499 0,2.78679 -1.4922,3.46114 -4.75,2.14659 z m 3.75,-2.71528 c 0,-2.81019 -2.44432,-5.33056 -3.50512,-3.61416 -0.37574,0.60796 -0.40723,2.20481 -0.07,3.54856 0.798,3.17948 3.57509,3.23045 3.57509,0.0656 z"
         id="path4325"
         inkscape:connector-curvature="0" />
      <path
         style="fill:#27352d"
         d="m 449.0831,614.755 c -0.25494,-0.4125 0.57553,-0.75 1.84549,-0.75 1.26996,0 2.10043,0.3375 1.84549,0.75 -0.59964,0.97023 -3.09134,0.97023 -3.69098,0 z m -1.50468,-4.44098 c -0.18589,-3.33871 1.57604,-4.5803 3.4497,-2.43092 0.77419,0.88812 0.86601,1.16636 0.20404,0.61833 -1.92295,-1.592 -2.64241,-1.18335 -3.08732,1.75357 l -0.41659,2.75 -0.14983,-2.69098 z"
         id="path4323"
         inkscape:connector-curvature="0" />
    </g>
  </g>
</svg>
