<?xml version="1.0" encoding="UTF-8" standalone="no"?>
<!-- Created with Inkscape (http://www.inkscape.org/) -->

<svg
   xmlns:dc="http://purl.org/dc/elements/1.1/"
   xmlns:cc="http://creativecommons.org/ns#"
   xmlns:rdf="http://www.w3.org/1999/02/22-rdf-syntax-ns#"
   xmlns:svg="http://www.w3.org/2000/svg"
   xmlns="http://www.w3.org/2000/svg"
   xmlns:sodipodi="http://sodipodi.sourceforge.net/DTD/sodipodi-0.dtd"
   xmlns:inkscape="http://www.inkscape.org/namespaces/inkscape"
   width="8.7787657"
   height="8.0043659"
   id="svg2"
   version="1.1"
   inkscape:version="0.48.4 r9939"
   sodipodi:docname="egg-right-up-5.svg">
  <defs
     id="defs4" />
  <sodipodi:namedview
     id="base"
     pagecolor="#ffffff"
     bordercolor="#666666"
     borderopacity="1.0"
     inkscape:pageopacity="0.0"
     inkscape:pageshadow="2"
     inkscape:zoom="15.839192"
     inkscape:cx="0.30867431"
     inkscape:cy="8.5877332"
     inkscape:document-units="px"
     inkscape:current-layer="layer1"
     showgrid="false"
     fit-margin-top="0"
     fit-margin-left="0"
     fit-margin-right="0"
     fit-margin-bottom="0"
     inkscape:window-width="524"
     inkscape:window-height="415"
     inkscape:window-x="0"
     inkscape:window-y="24"
     inkscape:window-maximized="0" />
  <metadata
     id="metadata7">
    <rdf:RDF>
      <cc:Work
         rdf:about="">
        <dc:format>image/svg+xml</dc:format>
        <dc:type
           rdf:resource="http://purl.org/dc/dcmitype/StillImage" />
        <dc:title></dc:title>
      </cc:Work>
    </rdf:RDF>
  </metadata>
  <g
     inkscape:label="Layer 1"
     inkscape:groupmode="layer"
     id="layer1"
     transform="translate(-432.28063,-602.74286)">
    <g
       id="g3047"
       transform="matrix(-1,0,0,1,873.84511,1.4520943)">
      <path
         style="fill:#3a4c44"
         d="m 432.78571,607.29077 c 0,-2.28772 3.32717,-6 5.37756,-6 0.75765,0 1.9487,0.68819 2.64677,1.52931 1.05291,1.26868 0.87364,1.9504 -1.05187,4 -2.88599,3.072 -6.97246,3.34786 -6.97246,0.47069 z m 5.41821,-0.60699 c 1.90041,-0.72925 2.12163,-3.39301 0.28179,-3.39301 -1.44095,0 -3.7,1.95378 -3.7,3.2 0,0.95394 1.25115,1.02459 3.41821,0.19301 z"
         id="path3053"
         inkscape:connector-curvature="0" />
      <path
         style="fill:#36443c"
         d="m 433.12781,607.73989 c -0.6451,-1.68112 3.20661,-6.44912 5.20977,-6.44912 0.66178,0 1.80622,0.72654 2.54319,1.61454 1.15412,1.39063 0.95534,1.94535 -1.43332,4 -3.1995,2.75209 -5.46882,3.05178 -6.31964,0.83458 z m 4.72364,-0.4843 c 2.12738,-1.13854 2.55528,-3.46297 0.83339,-4.52716 -1.43443,-0.88653 -5.348,3.02704 -4.46147,4.46147 0.83977,1.35877 1.19975,1.36529 3.62808,0.0657 z"
         id="path3051"
         inkscape:connector-curvature="0" />
      <path
         style="fill:#2d3730"
         d="m 436.86904,608.0078 c 0.22917,-0.15563 1.31667,-0.94313 2.41667,-1.75 1.85001,-1.35701 1.89707,-1.33579 0.62755,0.28297 -0.75484,0.9625 -1.84234,1.75 -2.41666,1.75 -0.57432,0 -0.85672,-0.12734 -0.62756,-0.28297 z m -3.08333,-3.09459 c 0,-0.20765 0.7875,-0.99515 1.75,-1.75 1.58606,-1.24387 1.62143,-1.2085 0.37755,0.37756 -1.30636,1.66575 -2.12755,2.19548 -2.12755,1.37244 z m 5.02006,-2.09827 c -0.78875,-0.95039 -0.86462,-1.52417 -0.20152,-1.52417 1.20855,0 2.61759,1.8972 1.9241,2.5907 -0.2517,0.2517 -1.02686,-0.22824 -1.72258,-1.06653 z"
         id="path3049"
         inkscape:connector-curvature="0" />
    </g>
  </g>
</svg>
