<?xml version="1.0" encoding="UTF-8" standalone="no"?>
<!-- Created with Inkscape (http://www.inkscape.org/) -->

<svg
   xmlns:dc="http://purl.org/dc/elements/1.1/"
   xmlns:cc="http://creativecommons.org/ns#"
   xmlns:rdf="http://www.w3.org/1999/02/22-rdf-syntax-ns#"
   xmlns:svg="http://www.w3.org/2000/svg"
   xmlns="http://www.w3.org/2000/svg"
   xmlns:sodipodi="http://sodipodi.sourceforge.net/DTD/sodipodi-0.dtd"
   xmlns:inkscape="http://www.inkscape.org/namespaces/inkscape"
   width="40.132557"
   height="42.833733"
   id="svg3095"
   version="1.1"
   inkscape:version="0.48.4 r9939"
   sodipodi:docname="Nowy dokument 9">
  <defs
     id="defs3097" />
  <sodipodi:namedview
     id="base"
     pagecolor="#ffffff"
     bordercolor="#666666"
     borderopacity="1.0"
     inkscape:pageopacity="0.0"
     inkscape:pageshadow="2"
     inkscape:zoom="2.8"
     inkscape:cx="-34.800631"
     inkscape:cy="24.578068"
     inkscape:document-units="px"
     inkscape:current-layer="layer1"
     showgrid="false"
     fit-margin-top="0"
     fit-margin-left="0"
     fit-margin-right="0"
     fit-margin-bottom="0"
     inkscape:window-width="524"
     inkscape:window-height="395"
     inkscape:window-x="0"
     inkscape:window-y="24"
     inkscape:window-maximized="0" />
  <metadata
     id="metadata3100">
    <rdf:RDF>
      <cc:Work
         rdf:about="">
        <dc:format>image/svg+xml</dc:format>
        <dc:type
           rdf:resource="http://purl.org/dc/dcmitype/StillImage" />
        <dc:title></dc:title>
      </cc:Work>
    </rdf:RDF>
  </metadata>
  <g
     inkscape:label="Layer 1"
     inkscape:groupmode="layer"
     id="layer1"
     transform="translate(-357.57145,-528.26494)">
    <path
       style="fill:#232f28"
       d="m 370.70273,570.07218 c -1.19659,-0.44265 -2.45269,-1.52688 -2.79135,-2.4094 -0.39257,-1.02302 -1.34454,-1.41401 -2.62652,-1.07877 -3.51864,0.92015 -7.71341,-0.43382 -7.71341,-2.48969 0,-1.03125 0.45,-1.875 1,-1.875 0.55,0 1,0.45 1,1 0,0.55 0.675,1 1.5,1 1.77062,0 2.11745,-6.97778 0.4973,-10.00505 -0.67028,-1.25242 -0.67028,-2.07903 0,-2.49328 1.58449,-0.97927 1.1664,-2.77847 -0.4973,-2.14004 -1.03097,0.39562 -1.5,-0.0617 -1.5,-1.46257 0,-1.54167 0.5481,-1.96032 2.25,-1.71861 1.85618,0.26362 2.22285,0.90075 2.09488,3.64013 -0.1087,2.32675 0.22715,3.17389 1.12215,2.83045 0.7025,-0.26958 3.31235,-0.79532 5.79967,-1.16832 4.05809,-0.60854 4.58638,-0.99809 5.14561,-3.79426 0.34277,-1.71386 1.82805,-4.37367 3.30062,-5.91071 l 2.67741,-2.7946 -2.25182,-4.63492 c -2.70954,-5.57706 -1.79433,-7.41169 2.82714,-5.66728 1.97987,0.74732 3.04942,0.77381 3.28027,0.0813 0.54454,-1.63361 4.31995,0.0536 5.60408,2.50436 0.64363,1.22839 1.24991,3.58343 1.3473,5.23343 0.0974,1.65 0.99282,4.19447 1.98987,5.65437 0.99705,1.4599 1.81282,3.1474 1.81282,3.75 0,0.6026 0.44109,1.09563 0.98019,1.09563 1.0112,0 -3.26077,8.48114 -5.44632,10.81257 -0.67674,0.72191 -2.73318,1.35529 -4.56986,1.40752 -1.83668,0.0522 -4.89275,1.14906 -6.79126,2.43743 -1.89852,1.28836 -4.06405,2.34248 -4.8123,2.34248 -0.74825,0 -1.36045,0.45 -1.36045,1 0,1.44822 4.19442,1.16818 6.28796,-0.4198 3.20081,-2.42787 8.47889,1.25783 7.06769,4.93538 -0.45523,1.18631 -2.15315,1.47501 -7.81518,1.32884 -3.97847,-0.10271 -8.21261,-0.54892 -9.40919,-0.99156 z m 14.86872,-1.75325 c 0,-2.01451 -2.51888,-2.21649 -8.18165,-0.65606 -2.07321,0.57129 -3.08793,0.26447 -4.47224,-1.3523 -2.0647,-2.41139 -4.34611,-2.75274 -4.34611,-0.65027 0,2.11962 1.85421,2.96594 8,3.65148 9.11851,1.01713 9,1.0302 9,-0.99285 z m -5,-10.17349 c 0,-2.39419 1.00721,-2.93856 3.06233,-1.65512 2.46953,1.54224 3.78982,0.0726 1.46318,-1.62869 -1.26841,-0.92748 -1.47578,-1.55501 -0.677,-2.04868 0.63332,-0.39142 1.15149,-0.17886 1.15149,0.47235 0,0.79118 1.03035,0.97795 3.10549,0.56292 2.66704,-0.53341 3.01164,-0.37457 2.44076,1.125 -0.50684,1.33134 -0.38632,1.46988 0.50737,0.58323 1.62745,-1.61461 0.29844,-3.34386 -2.39839,-3.12067 -1.23511,0.10222 -3.36693,-0.65993 -4.73739,-1.69367 l -2.49174,-1.87952 2.15162,-2.32163 c 1.20224,-1.29724 3.31444,-2.32164 4.78695,-2.32164 2.82336,0 3.32428,0.91105 1.50255,2.73278 -0.62303,0.62303 -0.84187,1.89089 -0.48632,2.81746 0.55585,1.44851 0.9429,1.30783 2.76105,-1.00357 1.76276,-2.24099 1.9287,-3.0962 0.99737,-5.14025 -0.69175,-1.51822 -2.26201,-2.68096 -4.12335,-3.05323 -1.93147,-0.38629 -3.72289,-1.76094 -5.01106,-3.84524 -2.46867,-3.99439 -2.55542,-5.16548 -0.25491,-3.44111 0.9625,0.72145 0.52614,0.0129 -0.9697,-1.57452 -3.79008,-4.0222 -4.50856,-2.48423 -1.51448,3.24186 l 2.51792,4.81541 -2.92228,2.92229 c -3.45678,3.45677 -4.59695,7.12076 -3.00775,9.66548 1.58317,2.53506 1.43426,5.00649 -0.46505,7.71814 -1.56587,2.23558 -1.55175,2.2633 0.5,0.98196 1.16123,-0.7252 2.11134,-2.03531 2.11134,-2.91134 z m 7,-11.04415 c 0,-0.55 -0.45,-0.72189 -1,-0.38197 -0.55,0.33992 -1,1.06803 -1,1.61803 0,0.55 0.45,0.72189 1,0.38197 0.55,-0.33992 1,-1.06803 1,-1.61803 z m 2.53472,-13.81484 c -0.87235,-1.68692 -2.05485,-3.06713 -2.62779,-3.06713 -1.27775,0 -0.30533,3.55882 1.91271,7 1.31489,2.03999 1.67485,2.19035 1.95627,0.81713 0.18968,-0.92557 -0.36885,-3.06307 -1.24119,-4.75 z"
       id="path3168"
       inkscape:connector-curvature="0" />
  </g>
</svg>
