<?xml version="1.0" encoding="UTF-8" standalone="no"?>
<!-- Created with Inkscape (http://www.inkscape.org/) -->

<svg
   xmlns:dc="http://purl.org/dc/elements/1.1/"
   xmlns:cc="http://creativecommons.org/ns#"
   xmlns:rdf="http://www.w3.org/1999/02/22-rdf-syntax-ns#"
   xmlns:svg="http://www.w3.org/2000/svg"
   xmlns="http://www.w3.org/2000/svg"
   xmlns:sodipodi="http://sodipodi.sourceforge.net/DTD/sodipodi-0.dtd"
   xmlns:inkscape="http://www.inkscape.org/namespaces/inkscape"
   width="120.44922"
   height="45.585938"
   id="svg2"
   version="1.1"
   inkscape:version="0.48.4 r9939"
   sodipodi:docname="start.svg">
  <defs
     id="defs4" />
  <sodipodi:namedview
     id="base"
     pagecolor="#ffffff"
     bordercolor="#666666"
     borderopacity="1.0"
     inkscape:pageopacity="0.0"
     inkscape:pageshadow="2"
     inkscape:zoom="2"
     inkscape:cx="205.49843"
     inkscape:cy="-112.85222"
     inkscape:document-units="px"
     inkscape:current-layer="layer1"
     showgrid="false"
     fit-margin-top="10"
     fit-margin-right="10"
     fit-margin-bottom="10"
     fit-margin-left="10"
     inkscape:window-width="1280"
     inkscape:window-height="1000"
     inkscape:window-x="0"
     inkscape:window-y="24"
     inkscape:window-maximized="1" />
  <metadata
     id="metadata7">
    <rdf:RDF>
      <cc:Work
         rdf:about="">
        <dc:format>image/svg+xml</dc:format>
        <dc:type
           rdf:resource="http://purl.org/dc/dcmitype/StillImage" />
      </cc:Work>
    </rdf:RDF>
  </metadata>
  <g
     inkscape:label="Layer 1"
     inkscape:groupmode="layer"
     id="layer1"
     transform="translate(-80.847656,-374.65156)">
    <g
       style="font-size:40px;font-style:normal;font-weight:normal;line-height:125%;letter-spacing:0px;word-spacing:0px;fill:#000000;fill-opacity:1;stroke:none;font-family:Sans"
       id="flowRoot2985">
      <path
         d="m 90.847656,408.20624 2.050781,-1.89453 9.746093,0 1.73828,1.89453 -2.07031,1.89454 -9.746094,0 -1.71875,-1.89454 m 1.132813,-12.96875 0.507812,-6.07421 2.070313,-1.89454 1.71875,1.89454 -0.449219,5.11718 -2.578125,2.40235 -1.269531,-1.44532 m 1.972656,2.12891 2.03125,-1.875 8.066405,0 1.75781,1.875 -2.08984,1.89453 -8.066406,0 -1.699219,-1.89453 m 1.40625,-10.82031 2.03125,-1.89453 9.726565,0 1.73828,1.89453 -2.07031,1.91406 -9.707035,0 -1.71875,-1.91406 m 8.046875,19.04297 0.42969,-5.11719 2.57812,-2.36328 1.26953,1.40625 -0.50781,6.07422 -2.07031,1.89453 -1.69922,-1.89453"
         style="font-style:italic;font-variant:normal;font-weight:bold;font-stretch:normal;font-family:Lets go Digital;-inkscape-font-specification:Lets go Digital Bold Italic"
         id="path3032" />
      <path
         d="m 112.29297,386.54609 2.05078,-1.89453 13.98437,0 1.79688,1.89453 -2.10938,1.91406 -14.0039,0 -1.71875,-1.91406 m 5.09766,21.8164 0.68359,-7.89062 2.59766,-2.36328 1.26953,1.40625 -0.76172,8.84765 -2.05078,1.875 -1.73828,-1.875 m 1.23046,-14.08203 0.25391,-2.91015 2.07031,-1.89453 1.71875,1.89453 -0.33203,3.86718 -1.5625,1.44532 -2.14844,-2.40235"
         style="font-style:italic;font-variant:normal;font-weight:bold;font-stretch:normal;font-family:Lets go Digital;-inkscape-font-specification:Lets go Digital Bold Italic"
         id="path3034" />
      <path
         d="m 131.45312,410.10078 0.91797,-10.58594 1.5625,-1.40625 2.12891,2.36328 -0.50781,5.83984 -4.10157,3.78907 m 1.3086,-14.86329 0.83984,-9.86328 3.45703,3.78907 -0.44922,5.11718 -2.57812,2.40235 -1.26953,-1.44532 m 1.64062,-10.58593 14.6875,0 -4.10156,3.80859 -7.12891,0 -3.45703,-3.80859 m 0.33203,12.71484 2.03125,-1.875 8.06641,0 1.75781,1.875 -2.08984,1.89453 -8.06641,0 -1.69922,-1.89453 m 9.375,8.94531 0.50782,-5.83984 2.57812,-2.36328 1.26953,1.40625 -0.89843,10.58594 -3.45704,-3.78907 m 1.05469,-12.03125 0.42969,-5.11718 4.12109,-3.78907 -0.83984,9.86328 -1.5625,1.44532 -2.14844,-2.40235"
         style="font-style:italic;font-variant:normal;font-weight:bold;font-stretch:normal;font-family:Lets go Digital;-inkscape-font-specification:Lets go Digital Bold Italic"
         id="path3036" />
      <path
         d="m 151.84375,410.10078 0.91797,-10.58594 1.5625,-1.40625 2.1289,2.36328 -0.50781,5.83984 -4.10156,3.78907 m 1.30859,-14.86329 0.83985,-9.86328 3.45703,3.78907 -0.44922,5.11718 -2.57813,2.40235 -1.26953,-1.44532 m 1.64063,-10.58593 10.89844,0 1.75781,1.89453 -2.07031,1.91406 -7.12891,0 -3.45703,-3.80859 m 0.33203,12.71484 2.03125,-1.875 8.06641,0 1.75781,1.875 -2.08985,1.89453 -8.0664,0 -1.69922,-1.89453 m 2.83203,5.46875 0.25391,-2.69531 2.71484,0 6.66016,7.22656 -0.25391,2.73438 -2.73437,0 -6.64063,-7.26563 m 7.59766,-8.55469 0.42968,-5.11718 2.07032,-1.89454 1.71875,1.89454 -0.50782,6.07421 -1.5625,1.44532 -2.14843,-2.40235"
         style="font-style:italic;font-variant:normal;font-weight:bold;font-stretch:normal;font-family:Lets go Digital;-inkscape-font-specification:Lets go Digital Bold Italic"
         id="path3038" />
      <path
         d="m 173.46484,386.54609 2.05078,-1.89453 13.98438,0 1.79687,1.89453 -2.10937,1.91406 -14.00391,0 -1.71875,-1.91406 m 5.09766,21.8164 0.68359,-7.89062 2.59766,-2.36328 1.26953,1.40625 -0.76172,8.84765 -2.05078,1.875 -1.73828,-1.875 m 1.23047,-14.08203 0.2539,-2.91015 2.07032,-1.89453 1.71875,1.89453 -0.33203,3.86718 -1.5625,1.44532 -2.14844,-2.40235"
         style="font-style:italic;font-variant:normal;font-weight:bold;font-stretch:normal;font-family:Lets go Digital;-inkscape-font-specification:Lets go Digital Bold Italic"
         id="path3040" />
    </g>
  </g>
</svg>
