<?xml version="1.0" encoding="UTF-8" standalone="no"?>
<!-- Created with Inkscape (http://www.inkscape.org/) -->

<svg
   xmlns:dc="http://purl.org/dc/elements/1.1/"
   xmlns:cc="http://creativecommons.org/ns#"
   xmlns:rdf="http://www.w3.org/1999/02/22-rdf-syntax-ns#"
   xmlns:svg="http://www.w3.org/2000/svg"
   xmlns="http://www.w3.org/2000/svg"
   xmlns:sodipodi="http://sodipodi.sourceforge.net/DTD/sodipodi-0.dtd"
   xmlns:inkscape="http://www.inkscape.org/namespaces/inkscape"
   width="51.795109"
   height="79.956512"
   id="svg2994"
   version="1.1"
   inkscape:version="0.48.4 r9939"
   sodipodi:docname="Nowy dokument 1">
  <defs
     id="defs2996" />
  <sodipodi:namedview
     id="base"
     pagecolor="#ffffff"
     bordercolor="#666666"
     borderopacity="1.0"
     inkscape:pageopacity="0.0"
     inkscape:pageshadow="2"
     inkscape:zoom="1.979899"
     inkscape:cx="106.60103"
     inkscape:cy="89.226173"
     inkscape:document-units="px"
     inkscape:current-layer="layer1"
     showgrid="false"
     fit-margin-top="0"
     fit-margin-left="0"
     fit-margin-right="0"
     fit-margin-bottom="0"
     inkscape:window-width="1280"
     inkscape:window-height="1000"
     inkscape:window-x="0"
     inkscape:window-y="24"
     inkscape:window-maximized="1" />
  <metadata
     id="metadata2999">
    <rdf:RDF>
      <cc:Work
         rdf:about="">
        <dc:format>image/svg+xml</dc:format>
        <dc:type
           rdf:resource="http://purl.org/dc/dcmitype/StillImage" />
        <dc:title></dc:title>
      </cc:Work>
    </rdf:RDF>
  </metadata>
  <g
     inkscape:label="Layer 1"
     inkscape:groupmode="layer"
     id="layer1"
     transform="translate(-460.09128,-391.16833)">
    <g
       id="g3119"
       transform="translate(110.6117,-5.555839)">
      <path
         style="fill:#3b4942"
         d="m 356.51888,476.00148 c -1.52177,-0.23002 -3.87295,-0.99207 -5.22484,-1.69344 -2.01278,-1.04424 -2.23614,-1.53839 -1.23315,-2.72817 2.12668,-2.52272 7.93763,-3.94667 11.70113,-2.86731 1.86519,0.53493 3.55257,0.81129 3.74972,0.61413 0.72911,-0.72911 -5.94173,-5.60733 -7.66787,-5.60733 -2.6508,0 -7.42229,-4.03584 -6.20759,-5.25054 0.54624,-0.54624 0.77315,-1.56653 0.50424,-2.2673 -0.304,-0.79221 1.61673,-2.23813 5.07814,-3.82282 3.4789,-1.59269 5.56708,-3.16796 5.56708,-4.19965 0,-0.90802 0.84124,-2.84542 1.86941,-4.30532 2.98384,-4.23673 6.13059,-10.90838 6.13059,-12.9979 0,-1.14215 0.89603,-2.15753 2.20633,-2.50018 1.21348,-0.31733 1.90715,-0.87614 1.54149,-1.24181 -0.36567,-0.36566 -2.49854,0.0688 -4.73971,0.9656 -3.93587,1.57482 -4.17658,1.55524 -7.05659,-0.57404 -3.34644,-2.47414 -5.23539,-7.88237 -4.75793,-13.62239 0.41073,-4.93781 3.40322,-5.433 7.58163,-1.25458 l 3.03423,3.03422 0.34527,-4.98226 c 0.35686,-5.14933 -0.33939,-6.26036 -2.03003,-3.23936 -0.53608,0.95792 -1.29439,1.42196 -1.68515,1.03121 -0.39075,-0.39076 0.0575,-1.88244 0.99601,-3.31486 1.66136,-2.53556 1.65346,-2.57603 -0.2988,-1.53121 -3.50906,1.878 -3.62099,1.16801 -0.34819,-2.20866 2.60567,-2.68836 4.02726,-3.31869 7.86112,-3.48555 2.57413,-0.11203 5.24468,0.26476 5.93455,0.83731 0.9078,0.75341 1.55268,0.54222 2.33431,-0.76446 1.03979,-1.73825 1.13276,-1.73743 2.49763,0.022 1.34637,1.7356 1.5491,1.74136 4.03195,0.11454 1.43786,-0.94213 2.88954,-1.43771 3.22594,-1.10131 0.33641,0.33641 0.61165,3.09737 0.61165,6.13546 0,3.0381 0.38572,5.52381 0.85715,5.52381 0.47143,0 0.85714,1.485 0.85714,3.3 0,1.815 0.54,3.84 1.2,4.5 0.93333,0.93333 0.83326,1.2 -0.45031,1.2 -0.90767,0 -2.10899,-0.7875 -2.66959,-1.75 -0.56061,-0.9625 -1.03297,-1.21406 -1.04969,-0.55902 -0.0167,0.65504 0.41959,1.4691 0.96959,1.80902 1.30413,0.806 1.30413,8.5 0,8.5 -0.55,0 -1.06742,-1.4625 -1.14983,-3.25 l -0.14983,-3.25 -0.41239,3 c -0.22681,1.65 -1.08631,3.5193 -1.91001,4.154 -0.97904,0.7544 -1.13063,1.38081 -0.43778,1.80902 1.82553,1.12824 1.13023,3.93772 -1.6178,6.53698 -3.04344,2.87868 -6.31316,7.92405 -6.31862,9.75 -0.006,1.94771 2.37758,1.47466 5.03838,-1 1.33059,-1.2375 2.76544,-2.1375 3.18857,-2 0.42312,0.1375 0.80484,-0.5375 0.84826,-1.5 0.0481,-1.06675 0.48392,-0.63781 1.1162,1.09861 1.21457,3.33556 -0.39142,7.26152 -3.35526,8.20221 -2.81345,0.89295 -2.22498,2.16955 2.15241,4.66932 4.33501,2.47557 4.92691,4.54789 2.5077,8.77986 -1.92062,3.35977 -1.8492,4.25635 0.25,3.13834 0.9625,-0.51262 3.54501,-1.09095 5.73891,-1.28519 3.13768,-0.27779 3.99129,-0.0108 4,1.25105 0.0163,2.36533 -5.36363,6.4763 -11.55511,8.82953 -6.50386,2.47197 -6.39228,2.46493 -8.33173,0.52549 -1.38771,-1.38771 -1.2863,-2.10798 1.02074,-7.25 4.06513,-9.06053 3.98701,-8.60195 1.3479,-7.91181 -1.30165,0.34039 -2.98026,0.10963 -3.73024,-0.5128 -1.38496,-1.14942 -15.63984,-1.27385 -17.45445,-0.15236 -0.5237,0.32366 0.32998,1.36822 1.89709,2.32123 4.37864,2.66281 9.31689,7.9907 9.31689,10.05201 0,4.4739 -6.04931,5.97219 -17.26686,4.27663 z m 3.76686,-1.94967 c -1.1,-0.23955 -3.01182,-0.93803 -4.24849,-1.55217 -2.40902,-1.19635 -3.87148,-0.59243 -2.79263,1.15319 0.36254,0.58659 2.5451,1.01433 4.85014,0.95053 2.30504,-0.0638 3.29098,-0.312 2.19098,-0.55155 z m 26.5,-0.33245 c 1.29269,-0.8354 1.26629,-0.97149 -0.19098,-0.98469 -0.93004,-0.008 -1.9691,0.43469 -2.30902,0.98469 -0.78218,1.2656 0.54163,1.2656 2.5,0 z m 6.7058,-6.62753 c -0.86215,-0.86216 -11.7058,3.79033 -11.7058,5.0224 0,0.81892 2.09857,0.24396 6.0743,-1.66421 3.34087,-1.60346 5.87505,-3.11465 5.6315,-3.35819 z m -29.14693,4.09573 c -2.07038,-1.56596 -7.55887,-2.02694 -7.55887,-0.63487 0,1.62211 1.38073,2.1663 5.41667,2.13487 3.80748,-0.0297 3.95219,-0.13099 2.1422,-1.5 z m 7.44113,-0.42006 c 0,-1.8158 -7.24082,-7.97251 -10.73105,-9.12439 -2.08819,-0.68917 -3.04355,-1.44502 -2.36022,-1.86734 0.73145,-0.45206 0.20338,-1.13993 -1.45529,-1.89567 -2.61998,-1.19374 -4.45344,-0.83086 -4.45344,0.88143 0,0.50828 2.3625,2.10636 5.25,3.55129 5.94837,2.97663 9.75,6.12744 9.75,8.08085 0,0.72913 0.9,1.32569 2,1.32569 1.1,0 2,-0.42834 2,-0.95186 z m 23.5573,-0.46638 c 1.06675,-0.78003 1.62646,-1.73133 1.24379,-2.114 -0.38267,-0.38267 -1.90515,0.25553 -3.38329,1.41824 -3.00563,2.36423 -1.0237,3.00875 2.1395,0.69576 z m -5.62859,-7.37192 2.25541,-4.64233 -2.20284,-1.78375 c -2.70679,-2.19183 -4.34509,-2.25524 -6.02329,-0.23315 -1.08696,1.30972 -0.95063,1.63855 0.87756,2.11664 2.48874,0.65082 2.70954,2.75523 0.66445,6.33275 -1.90357,3.32994 -1.84566,3.90315 0.33664,3.33247 1.01016,-0.26416 2.85159,-2.56934 4.09207,-5.12263 z m -28.32133,-6.40968 c -2.07754,-1.16266 -1.13274,-2.90173 1.17464,-2.16215 1.45892,0.46762 1.49179,0.38794 0.21798,-0.52837 -1.01998,-0.73372 -1.09999,-1.08391 -0.25,-1.09433 0.6875,-0.008 1.25,-0.45946 1.25,-1.00231 0,-0.54286 -2.03624,0.002 -4.52498,1.2114 l -4.52498,2.1984 3.27458,1.69336 c 3.29416,1.70347 6.46249,1.4075 3.38276,-0.316 z m 12.36366,0.2389 c 0.80907,-0.51167 1.15048,-1.25088 0.75868,-1.64268 -0.3918,-0.3918 -0.15377,-1.40052 0.52896,-2.2416 1.0466,-1.28936 0.95398,-1.42144 -0.59047,-0.84201 -1.00748,0.37798 -3.17154,0.68723 -4.80901,0.68723 -1.63748,0 -2.71834,0.41891 -2.40191,0.9309 0.31644,0.512 0.11065,1.21809 -0.45729,1.5691 -0.56794,0.35101 -0.77373,1.0571 -0.4573,1.5691 0.73977,1.19697 5.51872,1.17764 7.42834,-0.03 z m 10.02896,-4.06368 c 0,-1.18303 -5.87759,-2.98246 -6.49242,-1.98765 -0.29514,0.47755 0.36991,1.156 1.4779,1.50766 1.10799,0.35166 2.01452,1.33916 2.01452,2.19444 0,1.26889 0.27603,1.32597 1.5,0.31017 0.825,-0.68469 1.5,-1.59577 1.5,-2.02462 z m 2.69424,-5.5317 2.80576,-2.55633 -2.5,0.68986 c -4.8414,1.33594 -7,2.3838 -7,3.39804 0,1.91974 3.88063,1.03189 6.69424,-1.53157 z M 379.234,434.50878 c 1.98225,-2.31583 3.40248,-4.73599 3.15606,-5.37815 -0.24641,-0.64216 0.0493,-1.6649 0.65716,-2.27275 1.61315,-1.61315 0.0591,-2.64949 -1.73731,-1.15858 -1.2315,1.02206 -1.52417,1.01742 -1.52417,-0.0242 0,-0.70901 -0.28964,-0.99948 -0.64364,-0.64547 -0.75869,0.75869 -5.34499,11.84768 -5.35173,12.93969 -0.0111,1.78983 2.09602,0.45034 5.44363,-3.46058 z m -8.84781,-8.22212 c 1.12501,-0.78798 3.82312,-1.59838 5.9958,-1.80087 4.32405,-0.403 6.40375,-1.33977 6.40375,-2.88446 0,-0.55 -0.40521,-0.74957 -0.90047,-0.44348 -0.5051,0.31216 -0.71599,-1.41821 -0.48032,-3.94099 0.41958,-4.49144 -1.19466,-6.50738 -1.79966,-2.2475 -0.26999,1.90106 -0.93989,2.25303 -4.31955,2.26952 -2.2,0.0107 -4.53527,0.35797 -5.18949,0.77162 -0.70878,0.44816 -2.2425,-0.36798 -3.79515,-2.01952 -2.34784,-2.49738 -2.70276,-2.60258 -3.58696,-1.06315 -0.59085,1.02869 -1.62189,1.46264 -2.5913,1.09065 -1.09886,-0.42168 -1.46085,-0.17038 -1.14022,0.79153 0.25838,0.77514 0.88229,1.44706 1.38645,1.49314 0.50417,0.0461 2.25632,0.63629 3.89367,1.31156 2.21733,0.91446 4.0528,0.95687 7.19282,0.1662 5.56052,-1.40015 5.51874,-1.40979 5.14973,1.18845 -0.21743,1.53094 -1.1185,2.35696 -2.81955,2.58468 -1.375,0.18407 -2.9275,0.74657 -3.45,1.25 -0.5225,0.50342 -1.73344,0.91532 -2.69098,0.91532 -0.95754,0 -2.0191,0.45 -2.35902,1 -0.93454,1.51211 2.77288,1.19759 5.10045,-0.4327 z m -6.87128,-1.17147 c -0.3323,-0.33229 -1.1948,-0.36782 -1.91667,-0.0789 -0.79773,0.31923 -0.56078,0.55619 0.60417,0.60417 1.05416,0.0434 1.64479,-0.19293 1.3125,-0.52522 z m 0.95394,-3.58333 c -0.31922,-0.79773 -0.55618,-0.56078 -0.60416,0.60417 -0.0434,1.05416 0.19292,1.64479 0.52522,1.3125 0.33229,-0.33229 0.36781,-1.1948 0.079,-1.91667 z m -2.68311,0.1875 c 0,-0.55 -0.45,-1 -1,-1 -0.55,0 -1,0.45 -1,1 0,0.55 0.45,1 1,1 0.55,0 1,-0.45 1,-1 z m 11.65492,-8.45687 c -0.32568,-0.84872 -1.06009,-1.54313 -1.63201,-1.54313 -0.65816,0 -0.5918,0.71745 0.18076,1.95452 1.37978,2.20938 2.35126,1.93398 1.45125,-0.41139 z m 5.34508,-0.0188 c 0,-0.74671 0.5625,-1.59916 1.25,-1.89432 0.6875,-0.29517 -0.0427,-0.35246 -1.6227,-0.12731 -2.91329,0.41515 -4.93259,1.49731 -2.79397,1.49731 0.64167,0 1.16667,0.70156 1.16667,1.55902 0,0.85746 0.45,1.2809 1,0.94098 0.55,-0.33992 1,-1.22898 1,-1.97568 z m -2,-3.52432 c 1.18736,-0.76733 0.97894,-0.96937 -1,-0.96937 -1.375,0 -3.175,0.43621 -4,0.96937 -1.18736,0.76733 -0.97894,0.96937 1,0.96937 1.375,0 3.175,-0.43621 4,-0.96937 z m 13.05273,-2.63869 c 0.55177,-1.45128 0.77651,-2.8654 0.49941,-3.1425 -0.91275,-0.91276 -3.55214,1.9878 -3.55214,3.90364 0,2.75843 1.89415,2.28616 3.05273,-0.76114 z m -0.92773,-4.59941 c 0.75625,-0.26845 1.03573,-0.85147 0.62106,-1.29561 -0.77769,-0.83294 -5.74606,3.23789 -5.74606,4.70802 0,0.45413 0.84375,-0.0181 1.875,-1.04931 1.03125,-1.03125 2.49375,-2.09464 3.25,-2.3631 z m -17.39583,-0.36607 c -0.3323,-0.33229 -1.1948,-0.36782 -1.91667,-0.0789 -0.79773,0.31923 -0.56078,0.55619 0.60417,0.60417 1.05416,0.0434 1.64479,-0.19293 1.3125,-0.52522 z m 11.52083,-1.05811 c -0.6875,-0.27741 -1.8125,-0.27741 -2.5,0 -0.6875,0.27741 -0.125,0.50438 1.25,0.50438 1.375,0 1.9375,-0.22697 1.25,-0.50438 z"
         id="path3125"
         inkscape:connector-curvature="0" />
      <path
         style="fill:#35433c"
         d="m 382.03574,476.05708 c -1.93196,-0.77956 -1.40869,-4.39161 1.35274,-9.33772 2.24276,-4.0171 2.54164,-3.828 0.79027,0.5 -0.64758,1.60031 0.38591,1.94063 2.23115,0.73469 0.61828,-0.40408 2.0791,-2.30969 3.24626,-4.23469 1.16716,-1.925 2.12379,-3.03763 2.12584,-2.47251 0.002,0.56513 -0.67065,1.99033 -1.49491,3.16712 -1.06142,1.51539 -1.16074,2.25226 -0.34041,2.5257 0.63703,0.21234 -0.93858,1.18686 -3.50135,2.16559 -2.56278,0.97874 -4.65959,2.39637 -4.65959,3.1503 0,1.14197 0.45903,1.12884 2.75,-0.0787 1.5125,-0.7972 4.4375,-2.10331 6.5,-2.90247 2.09696,-0.81251 3.75,-2.13673 3.75,-3.00404 0,-0.88436 0.85965,-1.55103 2,-1.55103 1.1,0 2.3375,0 2.75,0 1.31261,0 0.93169,2.43376 -0.68659,4.38679 -0.85988,1.03773 -4.41786,3.17523 -7.90663,4.75 -6.58039,2.97026 -6.84073,3.0346 -8.90678,2.20093 z m 5.16821,-1.94471 c 1.63389,-0.62698 2.2043,-2.39301 0.77292,-2.39301 -0.44488,0 -1.68238,0.66069 -2.75,1.4682 -1.9817,1.49888 -0.87182,2.01804 1.97708,0.92481 z m 7.64753,-3.42819 c 1.88625,-1.0095 2.68211,-2.98699 1.18426,-2.94258 -0.4125,0.0122 -1.875,0.90222 -3.25,1.97776 -2.63714,2.0628 -1.22139,2.72404 2.06574,0.96482 z m -42.56574,3.66046 c -1.1,-0.64824 -2.10719,-1.71321 -2.23821,-2.36658 -0.33299,-1.66065 7.42598,-3.56392 12.01798,-2.948 3.38483,0.454 3.67068,0.33357 2.51915,-1.06136 -0.71441,-0.8654 -2.64892,-2.39885 -4.29892,-3.40766 -1.65,-1.00881 -2.50502,-1.83589 -1.90004,-1.83794 2.28799,-0.008 9.40004,6.04692 9.40004,8.00253 0,2.13934 0.42474,2.27398 3.44487,1.092 1.75519,-0.68692 1.48513,-1.22091 -2.76908,-5.47511 -2.59267,-2.59267 -3.86708,-4.26072 -2.83201,-3.70677 2.97708,1.59329 8.29612,8.1268 7.96086,9.77853 -0.21164,1.04269 -1.83101,1.59136 -5.30464,1.79731 -3.04199,0.18036 -4.03224,0.0291 -2.52872,-0.38619 l 2.47128,-0.68265 -2.44379,-1.7117 c -3.33002,-2.33244 -8.99355,-2.30837 -9.01408,0.0383 -0.0104,1.18485 -0.2611,1.36337 -0.7764,0.55279 -0.4919,-0.77379 -1.27929,-0.87693 -2.22632,-0.29163 -1.83612,1.13478 -0.43878,2.64785 3.01803,3.26799 l 2.5,0.4485 -2.5,0.0381 c -1.375,0.021 -3.4,-0.49225 -4.5,-1.1405 z m 6.3125,-1.30839 c 0.72187,-0.28887 1.58437,-0.25335 1.91667,0.079 0.33229,0.33229 -0.25834,0.56864 -1.3125,0.52522 -1.16495,-0.048 -1.4019,-0.28494 -0.60417,-0.60417 z m -5.25897,-11.65409 c -2.78872,-2.03916 -0.91487,-6.487 3.4795,-8.25908 3.05074,-1.23025 3.22686,-1.22387 1.46697,0.0531 -5.88304,4.26881 -6.79789,6.61157 -3.25,8.32265 1.2375,0.59683 1.77351,1.1156 1.19113,1.15282 -0.58238,0.0372 -1.8818,-0.53406 -2.8876,-1.26952 z m 6.44647,-0.6628 c -0.825,-0.53316 -1.05,-0.99058 -0.5,-1.01649 0.55,-0.0259 0.12649,-0.70781 -0.94113,-1.51531 -1.06762,-0.80751 -1.49512,-1.4682 -0.95,-1.4682 0.54512,0 1.53113,0.54 2.19113,1.2 0.86412,0.86412 1.50429,0.89571 2.28713,0.11287 0.78284,-0.78284 0.78284,-1.2752 0,-1.75902 -0.59792,-0.36954 -1.07216,-1.20783 -1.05386,-1.86287 0.0183,-0.65504 0.96903,-0.066 2.11273,1.30902 1.1437,1.375 2.25373,2.3875 2.46673,2.25 0.213,-0.1375 1.84977,-0.1793 3.63727,-0.0929 2.33635,0.11294 1.84439,0.32378 -1.75,0.75 -3.23191,0.38324 -4.9116,1.03492 -4.75,1.8429 0.29776,1.48882 -0.6936,1.57895 -2.75,0.25 z m 26,0 c 0,-0.55 -0.8632,-1 -1.91821,-1 -4.54633,0 -5.13625,-1.0833 -2.0185,-3.70671 2.24613,-1.89 2.72682,-2.84126 1.92435,-3.80818 -1.52039,-1.83197 -5.95393,-2.75798 -7.41178,-1.54807 -1.22668,1.01805 -4.48856,1.84694 -7.82586,1.98865 -0.9625,0.0409 -1.75,0.74931 -1.75,1.57431 0,0.825 -0.46583,1.5 -1.03518,1.5 -0.71332,0 -0.71356,-0.60097 -7.6e-4,-1.93285 0.83979,-1.56916 0.65993,-2.05171 -0.95587,-2.56455 -1.09466,-0.34743 -2.44649,-0.34975 -3.00407,-0.005 -0.98142,0.60655 0.77619,-2.91729 6.32942,-12.6899 1.46655,-2.58089 2.66646,-5.62953 2.66646,-6.7748 0,-1.35147 0.96518,-2.44927 2.75,-3.12787 2.44543,-0.92977 2.55557,-1.15438 0.99443,-2.02805 -1.25661,-0.70326 -2.38565,-0.54116 -3.9725,0.57032 -1.21932,0.85404 -2.67932,1.55112 -3.24444,1.54906 -2.15603,-0.008 5.19943,-3.72918 8.25836,-4.17814 1.76778,-0.25945 3.21415,-0.3692 3.21415,-0.24389 0,0.12532 -1.31411,3.30827 -2.92025,7.07323 -1.60613,3.76496 -2.76504,7.00058 -2.57536,7.19027 1.55509,1.55508 8.94189,-6.03541 9.02204,-9.27084 0.0145,-0.58679 0.3971,-1.65933 0.85014,-2.38342 1.18266,-1.89026 -0.0556,-2.69476 -1.8524,-1.20353 -0.83948,0.69671 -1.52417,0.81573 -1.52417,0.26495 0,-0.55 0.675,-1.5602 1.5,-2.24489 1.83441,-1.52243 2.05175,-4.44951 0.25,-3.36706 -0.92505,0.55575 -0.98594,0.37613 -0.23421,-0.69098 1.16171,-1.6491 1.19109,-3.47651 0.1076,-6.69196 -0.9849,-2.92287 -2.56382,-2.92287 -2.00925,0 0.39175,2.06468 0.35425,2.08527 -0.45523,0.25 -0.48518,-1.1 -0.68873,-2.51698 -0.45235,-3.14885 0.75238,-2.01117 -1.35631,-2.37015 -5.34107,-0.90925 -3.59424,1.31773 -3.08971,1.98929 1.37375,1.82854 0.68158,-0.0245 0.99252,0.35456 0.69098,0.84246 -0.30154,0.48791 -0.0717,0.8871 0.51076,0.8871 0.58246,0 1.05902,0.9 1.05902,2 0,2.74665 -2.78432,2.53673 -3.18045,-0.23978 -0.32199,-2.25688 -3.81955,-3.88181 -3.81955,-1.77453 0,0.62279 0.40285,0.88337 0.89521,0.57907 0.49237,-0.3043 1.16737,0.15595 1.5,1.02277 0.85527,2.22879 0.78711,2.41247 -0.89521,2.41247 -0.825,0 -1.51422,0.5625 -1.5316,1.25 -0.0174,0.6875 -1.1208,0.0125 -2.45204,-1.5 -2.84171,-3.22864 -3.3563,-3.32906 -5.12431,-1 -0.8113,1.06875 -1.34082,1.26339 -1.36025,0.5 -0.0478,-1.87775 -1.81639,-1.50314 -2.36055,0.5 -0.26148,0.9625 -0.39802,-0.0456 -0.30343,-2.24014 0.1307,-3.03245 0.62389,-4.07716 2.05483,-4.35274 1.03557,-0.19943 2.28647,0.35863 2.77979,1.24014 0.49332,0.88151 1.51925,1.60274 2.27986,1.60274 0.76061,0 1.74662,1.0125 2.19114,2.25 0.63781,1.77563 0.91654,1.09043 1.32206,-3.25 0.60233,-6.44699 0.53301,-6.68351 -1.47133,-5.02006 -0.8383,0.69572 -1.52417,0.82959 -1.52417,0.29749 0,-1.15182 2.89007,-3.79219 5,-4.568 1.33333,-0.49025 1.33333,-0.55962 0,-0.62432 -0.825,-0.04 -2.85,0.63031 -4.5,1.48966 l -3,1.56245 2.81546,-2.94166 c 3.21239,-3.35637 10.90835,-5.08463 13.40716,-3.0108 1.11867,0.92841 1.6275,0.87421 2.33828,-0.24906 0.77928,-1.23153 0.91283,-1.22239 0.9391,0.0643 0.0272,1.33333 0.14849,1.33333 1.09144,0 0.90832,-1.28436 1.00328,-1.28833 0.66055,-0.0276 -0.22015,0.80983 -1.49191,1.77747 -2.82613,2.15032 -2.01068,0.56188 -2.08356,0.69383 -0.42586,0.77099 1.1,0.0512 3.35,-0.80098 5,-1.89373 4.75929,-3.15195 5.39301,-2.67811 5.18147,3.87425 -0.15118,4.68278 0.0951,5.76499 1.21412,5.33558 1.08143,-0.41499 1.24903,0.0778 0.72988,2.14627 -0.37501,1.49417 -0.15511,3.67371 0.49584,4.91442 1.16277,2.21625 1.15697,2.21817 -0.9758,0.32449 -1.18003,-1.04774 -2.14551,-1.4118 -2.14551,-0.80902 0,0.60279 0.45,1.37409 1,1.71401 0.55,0.33992 0.9797,2.05398 0.9549,3.80902 l -0.0451,3.19098 -1.37368,-3 c -1.43433,-3.13247 -1.61781,-2.93707 -1.87801,2 -0.0951,1.80547 -0.65583,2.90046 -1.40811,2.75 -1.57083,-0.31417 -1.63197,1.96802 -0.0939,3.50606 0.87475,0.87475 0.24276,2.16698 -2.59717,5.31044 -3.20215,3.5444 -6.55889,9.41393 -6.55889,11.46877 0,0.32973 1.0125,0.32269 2.25,-0.0156 1.94205,-0.53095 2.01049,-0.46494 0.5,0.4823 -2.12214,1.33081 -2.28982,2.99806 -0.30152,2.99806 0.79666,0 2.6828,1.14393 4.19141,2.54207 1.50862,1.39813 2.04837,2.27553 1.19944,1.94977 -0.97752,-0.37511 -2.15621,0.34283 -3.21446,1.95793 -1.63893,2.50131 -1.62258,2.55023 0.85208,2.55023 1.57604,0 2.52305,0.56301 2.52305,1.5 0,0.825 -0.225,1.5 -0.5,1.5 -0.275,0 -0.5,-0.45 -0.5,-1 z m 4.98469,-55.86078 c -0.008,-0.90157 -0.42002,-2.27864 -0.91466,-3.06015 -0.76561,-1.20963 -1.28379,-1.16903 -3.48469,0.27305 -1.42194,0.93169 -2.58534,2.60871 -2.58534,3.7267 0,1.84176 0.23984,1.76914 2.55316,-0.77306 l 2.55316,-2.80576 -1.59402,3.27937 c -2.03407,4.18464 -0.90622,6.42532 1.64704,3.27218 1.01236,-1.25022 1.83377,-3.01077 1.82535,-3.91233 z m -13.98469,-5.13922 c 0,-0.55 -0.47656,-1 -1.05902,-1 -0.58246,0 -0.7809,0.45 -0.44098,1 0.33992,0.55 0.81648,1 1.05902,1 0.24254,0 0.44098,-0.45 0.44098,-1 z m 14.71025,58 c -0.28766,-1.1 -0.11514,-2 0.38337,-2 0.49851,0 0.90638,0.9 0.90638,2 0,1.1 -0.17252,2 -0.38337,2 -0.21085,0 -0.61872,-0.9 -0.90638,-2 z m -17.27663,-0.89303 c 1.35004,-0.532 1.57147,-0.98579 0.73369,-1.50357 -1.97813,-1.22255 -0.2664,-2.7268 1.82764,-1.6061 2.46619,1.31986 3.28713,1.26814 2.40956,-0.15181 -0.44208,-0.7153 -0.27432,-0.88306 0.44098,-0.44098 1.30488,0.80646 1.57987,3.59549 0.35451,3.59549 -0.44,0 -1.40623,-0.5625 -2.14718,-1.25 -1.09219,-1.01341 -1.2458,-0.95831 -0.81154,0.29112 0.38775,1.11563 -0.19283,1.5807 -2.10282,1.68447 -2.17484,0.11815 -2.29869,0.01 -0.70484,-0.61862 z m 12.31638,-8.70006 c 1.2375,-0.90797 2.25,-2.36097 2.25,-3.22888 0,-1.22736 -0.26667,-1.31136 -1.2,-0.37803 -0.66,0.66 -1.8975,1.18569 -2.75,1.1682 -1.214,-0.0249 -1.11645,-0.36537 0.45,-1.57059 1.1,-0.84632 1.87635,-1.99046 1.72522,-2.54252 -0.15112,-0.55206 0.18638,-0.71874 0.75,-0.3704 0.56363,0.34834 1.03846,0.0443 1.05519,-0.67567 0.0197,-0.84631 0.37503,-0.71843 1.00536,0.36177 1.34603,2.30671 -0.36905,6.43683 -3.2379,7.79729 l -2.29787,1.08969 2.25,-1.65086 z M 364.139,426.96936 c 0.26843,-0.9625 0.76402,-2.71505 1.10131,-3.89455 0.41596,-1.45458 1.648,-2.30581 3.82935,-2.64574 1.76884,-0.27565 4.22858,-0.82558 5.46608,-1.22207 1.85172,-0.59329 2.25,-0.34623 2.25,1.39573 0,1.16415 -0.45,2.11663 -1,2.11663 -0.55,0 -1,-0.45 -1,-1 0,-0.55 -0.43588,-1 -0.96862,-1 -0.53273,0 -0.7468,0.57802 -0.47571,1.28449 0.30836,0.80356 -1.10743,1.8835 -3.78138,2.88436 -2.35086,0.87993 -4.16179,2.10191 -4.02429,2.71551 0.1375,0.6136 -0.23032,1.11564 -0.81739,1.11564 -0.58706,0 -0.84777,-0.7875 -0.57935,-1.75 z m -4.78868,-2.9423 c -0.95223,-2.48146 -0.63462,-4.06685 0.93542,-4.66933 2.54665,-0.97724 4.23584,0.29265 3.75251,2.82105 -0.52225,2.73195 -3.84598,4.04237 -4.68793,1.84828 z m 2.43542,-2.5077 c 0,-1.61542 -0.29571,-1.90429 -1.11287,-1.08713 -0.61208,0.61207 -0.81052,1.60208 -0.44098,2.2 1.03439,1.67368 1.55385,1.30164 1.55385,-1.11287 z"
         id="path3123"
         inkscape:connector-curvature="0" />
      <path
         style="fill:#243029"
         d="m 381.88266,475.33614 c -0.88524,-1.06665 -0.79883,-1.51719 0.37756,-1.96861 0.83903,-0.32197 1.52552,-0.14952 1.52552,0.38321 0,0.53274 0.70156,0.96862 1.55902,0.96862 0.85746,0 1.2809,0.45 0.94098,1 -0.88094,1.42539 -3.05942,1.23579 -4.40308,-0.38322 z m -29.36429,-1.02153 c -1.85203,-1.40538 -1.50825,-4.13172 0.5604,-4.44429 0.66383,-0.1003 3.23197,-0.38005 5.70697,-0.62167 l 4.5,-0.4393 -4.26536,0.90548 c -6.77509,1.43827 -8.23773,3.26383 -3.98464,4.97337 1.2375,0.49741 1.575,0.9186 0.75,0.93597 -0.825,0.0174 -2.29532,-0.57193 -3.26737,-1.30956 z m 12.07987,-0.27836 c 0.72187,-0.28888 1.58437,-0.25335 1.91667,0.079 0.33229,0.33229 -0.25834,0.56864 -1.3125,0.52522 -1.16495,-0.048 -1.4019,-0.28494 -0.60417,-0.60417 z m 23.80078,-0.7515 c 0.36225,-0.94401 0.062,-1.57147 -0.75629,-1.5807 -1.04708,-0.0118 -1.01442,-0.2367 0.14301,-0.98469 1.97012,-1.27319 4.28687,-1.27319 3.5,0 -0.80344,1.29999 1.10615,1.28115 3.56574,-0.0352 2.27826,-1.21929 2.63116,-3.44622 0.41112,-2.59431 -1.24266,0.47685 -1.32825,0.22033 -0.46482,-1.39301 0.58208,-1.08763 1.71749,-1.9775 2.52314,-1.9775 0.80565,0 1.80232,0 2.21482,0 2.21788,0 0.21946,3.76551 -3.25,6.12379 -5.18278,3.52287 -8.72211,4.61859 -7.88672,2.4416 z m -29.80078,-0.2485 c 0.72187,-0.28888 1.58437,-0.25335 1.91667,0.079 0.33229,0.33229 -0.25834,0.56864 -1.3125,0.52522 -1.16495,-0.048 -1.4019,-0.28494 -0.60417,-0.60417 z m 7.32672,-1.38753 c -1.29844,-1.06115 -1.83438,-1.92936 -1.19099,-1.92936 0.64339,0 0.89487,-0.44485 0.55885,-0.98855 -0.35503,-0.57445 0.0632,-0.72984 0.99845,-0.37095 0.88518,0.33967 1.36614,1.25155 1.0688,2.0264 -0.73888,1.92547 1.81164,2.73209 4.34753,1.37492 1.60318,-0.858 2.07769,-0.81846 2.07615,0.173 -0.003,2.0305 -5.25854,1.83961 -7.85879,-0.28546 z m 15.51649,-1.47454 c 0.30462,-0.79384 0.95671,-1.19436 1.44907,-0.89006 1.24011,0.76643 1.12596,1.13272 -0.55385,1.77732 -0.96661,0.37092 -1.26467,0.0755 -0.89522,-0.88726 z m -13.25072,-4.70482 -1.90499,-2.25 2.25,1.90499 c 1.2375,1.04774 2.25,2.06024 2.25,2.25 0,0.80025 -0.80479,0.20945 -2.59501,-1.90499 z m 15.1593,0.95687 c 0.37553,-0.98622 0.93469,-1.54122 1.24258,-1.23333 0.30789,0.30789 6.4e-4,1.11479 -0.68278,1.79313 -0.98762,0.98026 -1.10248,0.8654 -0.5598,-0.5598 z m 5.24821,0.61002 c 0.72187,-0.28887 1.58437,-0.25335 1.91667,0.079 0.33229,0.33229 -0.25834,0.56864 -1.3125,0.52522 -1.16495,-0.048 -1.4019,-0.28494 -0.60417,-0.60417 z m -28.8125,-2.81689 c -1.375,-0.78602 -2.02351,-1.44508 -1.44113,-1.46457 0.58238,-0.0195 1.93238,0.62526 3,1.43277 2.46898,1.86744 1.68038,1.88352 -1.55887,0.0318 z m 30.56429,-1.79313 c 0.37553,-0.98622 0.93469,-1.54122 1.24258,-1.23333 0.30789,0.30789 6.4e-4,1.11479 -0.68278,1.79313 -0.98762,0.98026 -1.10248,0.8654 -0.5598,-0.5598 z m -38.10541,-1.7734 c -0.36253,-0.58659 -0.44468,-1.281 -0.18255,-1.54313 0.26212,-0.26213 0.74306,0.21781 1.06875,1.06653 0.67618,1.76211 0.0998,2.07206 -0.8862,0.4766 z m 8.54112,-0.46569 c 0,-1.68864 3.92249,-3.57708 5.48992,-2.64307 0.54445,0.32443 -0.13055,0.87393 -1.5,1.22111 -1.36946,0.34718 -2.37742,1.1539 -2.23992,1.7927 0.1375,0.63882 -0.2,1.16148 -0.75,1.16148 -0.55,0 -1,-0.6895 -1,-1.53222 z m 25.07895,0.78222 c -0.0434,-0.6875 -1.17739,-1.25 -2.51993,-1.25 -1.34254,0 -2.71491,-0.44322 -3.04971,-0.98494 -0.38035,-0.61542 0.62923,-0.74912 2.69098,-0.35636 3.99588,0.7612 4.14642,0.8705 3.48282,2.5288 -0.3932,0.9826 -0.54506,0.99831 -0.60416,0.0625 z m 5.65226,-3.16984 c -0.43497,-1.66335 -0.30483,-2.05378 0.43724,-1.31171 0.5811,0.5811 0.85979,1.64682 0.61931,2.36826 -0.24965,0.74895 -0.70294,0.29565 -1.05655,-1.05655 z m -38.65226,-1.66349 c 0.048,-1.16495 0.28494,-1.4019 0.60416,-0.60417 0.28887,0.72187 0.25335,1.58437 -0.0789,1.91667 -0.33229,0.33229 -0.56864,-0.25834 -0.52522,-1.3125 z m 25.44804,-0.373 c -0.32507,-0.52598 -1.20611,-0.7203 -1.95786,-0.43182 -1.64369,0.63074 -3.031,-1.20837 -1.58544,-2.10177 0.55897,-0.34546 1.01631,-0.125 1.01631,0.48992 0,0.61492 0.41891,0.85914 0.9309,0.5427 0.512,-0.31643 1.21809,-0.11064 1.5691,0.4573 0.35101,0.56794 1.0571,0.77373 1.5691,0.45729 0.51199,-0.31643 0.9309,-0.0988 0.9309,0.48369 0,1.31984 -1.67772,1.3895 -2.47301,0.10269 z m 5.2119,-1.0419 c 1.86733,-2.02172 2.44817,-2.19866 3.5,-1.06618 1.01878,1.09691 1.00881,1.21473 -0.0519,0.61315 -0.753,-0.42705 -2.24579,0.0277 -3.5,1.06618 -2.13838,1.7706 -2.13723,1.75697 0.0519,-0.61315 z m -28.73889,-0.39478 c 0,-0.21616 0.69837,-0.661 1.55194,-0.98855 0.88992,-0.34149 1.29132,-0.17385 0.94098,0.39301 -0.58726,0.95021 -2.49292,1.40545 -2.49292,0.59554 z m 11.35464,-0.8058 c 0.58069,-1.81571 -2.50035,-3.44721 -4.35052,-2.30373 -1.01676,0.62839 1.66257,-4.67358 5.97261,-11.81886 1.26779,-2.10177 2.59583,-5.25177 2.9512,-7 0.46043,-2.26507 1.28213,-3.27044 2.8591,-3.49815 2.82577,-0.40804 2.827,-1.60084 0.003,-2.86097 -2.02231,-0.90238 -1.93736,-0.98615 1,-0.98615 3.85316,0 3.91086,0.61926 0.70027,7.51597 -2.98366,6.40929 -2.95941,6.1507 -0.57671,6.1507 2.2078,0 8.37305,-7.81092 7.65081,-9.69303 -0.26232,-0.68361 -0.0466,-1.50889 0.47937,-1.83396 1.90456,-1.17708 0.9381,-2.60211 -1.29367,-1.9075 -2.17131,0.6758 -2.18879,0.63168 -0.5,-1.26135 2.02678,-2.27189 2.3704,-4.79492 0.5,-3.67122 -0.96138,0.57758 -0.98674,0.41804 -0.10983,-0.69098 1.70659,-2.15831 1.14742,-5.31108 -1.57031,-8.85386 -2.09403,-2.72974 -2.85472,-3.07694 -5.5,-2.51039 -4.8212,1.03258 -5.05512,1.57593 -1.42351,3.30665 3.34495,1.5941 4.46445,4.07871 2.18075,4.83994 -0.64509,0.21503 -1.32009,-0.64747 -1.5,-1.91667 -0.23532,-1.66012 -0.95843,-2.28535 -2.5771,-2.22823 -1.78299,0.0629 -2.25,-0.46635 -2.25,-2.55 0,-1.44617 0.5625,-3.19606 1.25,-3.88865 1.00289,-1.01031 0.85463,-1.11368 -0.75,-0.52294 -1.1,0.40497 -2.33061,1.21913 -2.73469,1.80925 -0.51894,0.75786 -0.73918,0.75138 -0.75,-0.0221 -0.0175,-1.25513 2.77042,-3.88138 4.98469,-4.69556 1.06363,-0.39108 0.91017,-0.5745 -0.52749,-0.63048 -1.11513,-0.0434 -3.14013,0.65952 -4.5,1.56208 -2.06931,1.37343 -1.98329,1.14617 0.52749,-1.39355 2.15451,-2.17935 4.33869,-3.22277 7.75,-3.70231 3.10227,-0.43609 4.75,-0.29957 4.75,0.39356 0,0.5837 0.7875,1.0968 1.75,1.14022 1.05575,0.0476 1.25163,0.27987 0.49377,0.58541 -1.61935,0.65286 -0.59466,2.33564 1.42224,2.33564 0.88337,0 1.32709,-0.5756 1.0335,-1.34068 -0.28296,-0.73738 -0.0636,-1.97488 0.48734,-2.75 0.7933,-1.116 0.88465,-1.04509 0.43887,0.34068 -0.69982,2.17547 -0.22389,2.18804 2.99481,0.0791 3.43026,-2.2476 4.64523,-0.44347 3.97635,5.90458 -0.35438,3.36328 -0.15111,4.66601 0.70217,4.5 0.71126,-0.13838 1.07609,0.66779 0.89475,1.97707 -0.16842,1.2159 0.19449,3.2409 0.80646,4.5 l 1.11266,2.28928 -2.05646,-2.36078 c -1.51089,-1.73448 -2.05646,-1.94911 -2.05646,-0.80902 0,0.85347 0.45,1.82988 1,2.1698 0.55,0.33992 0.96447,2.05398 0.92105,3.80902 l -0.079,3.19098 -1.00438,-2.75 c -1.24455,-3.40755 -3.28865,-3.68277 -2.44702,-0.32946 0.73042,2.91022 -0.20858,5.81005 -1.60242,4.94861 -0.64042,-0.3958 -0.75265,0.51659 -0.31093,2.52773 0.57727,2.6283 0.18585,3.72268 -2.37437,6.63861 -4.24248,4.83192 -6.24774,9.03609 -5.58334,11.70588 0.61449,2.46921 -1.71927,3.92106 -8.51964,5.30012 -1.925,0.39038 -3.87995,1.21574 -4.34433,1.83414 -0.52736,0.70226 -0.64037,0.48661 -0.30103,-0.57444 z m 23.48484,-45.34824 c 1.42967,-3.13777 1.50448,-7.12234 0.14945,-7.95979 -1.11536,-0.68933 -6.98893,4.71444 -6.98893,6.42992 0,1.7476 1.41996,1.23536 2.82874,-1.02046 1.66701,-2.66931 2.70952,-1.7769 1.20604,1.0324 -1.10547,2.06558 -0.68064,4.06498 0.86372,4.06498 0.42926,0 1.3027,-1.14617 1.94098,-2.54705 z m -12.83948,-8.45295 c 0,-0.55 -0.47656,-1 -1.05902,-1 -0.58246,0 -0.7809,0.45 -0.44098,1 0.33992,0.55 0.81648,1 1.05902,1 0.24254,0 0.44098,-0.45 0.44098,-1 z m 11.70226,46.03057 c 0.54151,-2.07074 0.40568,-2.1587 -1.6416,-1.06304 -3.1332,1.67684 -3.08168,0.97573 0.15828,-2.15376 1.52958,-1.47742 2.83288,-2.15242 2.89621,-1.5 0.22931,2.36214 -0.30642,5.20536 -1.14566,6.08028 -0.4814,0.50187 -0.59862,-0.0962 -0.26723,-1.36348 z m -24.33253,-18.37347 c 0.35134,-1.0136 0.89941,-2.88125 1.21793,-4.15033 0.43404,-1.72936 1.43507,-2.40736 3.99573,-2.7063 4.61838,-0.53917 4.73562,2.43915 0.16661,4.23258 -1.7875,0.70163 -3.87304,1.99373 -4.63453,2.87132 -1.24787,1.43813 -1.32148,1.41372 -0.74574,-0.24727 z m -2.86973,-3.6571 c 0.33992,-0.55 1.04148,-1 1.55902,-1 0.51754,0 0.94098,0.45 0.94098,1 0,0.55 -0.70156,1 -1.55902,1 -0.85746,0 -1.2809,-0.45 -0.94098,-1 z m -2.42105,-2.58333 c 0.048,-1.16495 0.28494,-1.4019 0.60416,-0.60417 0.28887,0.72187 0.25335,1.58438 -0.0789,1.91667 -0.33229,0.33229 -0.56864,-0.25834 -0.52522,-1.3125 z m 15.92105,0.0833 c 0,-0.825 0.45,-1.5 1,-1.5 0.55,0 1,0.675 1,1.5 0,0.825 -0.45,1.5 -1,1.5 -0.55,0 -1,-0.675 -1,-1.5 z m -13.5,-1.5 c -0.33992,-0.55 -0.16803,-1 0.38197,-1 0.55,0 1.27811,0.45 1.61803,1 0.33992,0.55 0.16803,1 -0.38197,1 -0.55,0 -1.27811,-0.45 -1.61803,-1 z m -2.87092,-5.375 c 0.20401,-1.58125 0.37092,-3.26875 0.37092,-3.75 0,-0.48125 0.9,-0.875 2,-0.875 1.56532,0 2,0.66667 2,3.06739 0,2.56897 -0.31176,2.96844 -1.91867,2.45842 -1.13974,-0.36174 -2.10227,-0.0846 -2.37092,0.68262 -0.24873,0.71036 -0.28533,-0.002 -0.0813,-1.58343 z m 11.37092,0.93402 c 0,-2.11561 1.69272,-2.80217 2.39521,-0.97149 0.85527,2.22879 0.78711,2.41247 -0.89521,2.41247 -0.825,0 -1.5,-0.64844 -1.5,-1.44098 z m 9.07895,-2.14235 c 0.048,-1.16495 0.28494,-1.4019 0.60416,-0.60417 0.28887,0.72187 0.25335,1.58438 -0.0789,1.91667 -0.33229,0.33229 -0.56864,-0.25834 -0.52522,-1.3125 z"
         id="path3121"
         inkscape:connector-curvature="0" />
    </g>
  </g>
</svg>
