<?xml version="1.0" encoding="UTF-8" standalone="no"?>
<!-- Created with Inkscape (http://www.inkscape.org/) -->

<svg
   xmlns:dc="http://purl.org/dc/elements/1.1/"
   xmlns:cc="http://creativecommons.org/ns#"
   xmlns:rdf="http://www.w3.org/1999/02/22-rdf-syntax-ns#"
   xmlns:svg="http://www.w3.org/2000/svg"
   xmlns="http://www.w3.org/2000/svg"
   xmlns:sodipodi="http://sodipodi.sourceforge.net/DTD/sodipodi-0.dtd"
   xmlns:inkscape="http://www.inkscape.org/namespaces/inkscape"
   width="72.701698"
   height="62.064747"
   id="svg3119"
   version="1.1"
   inkscape:version="0.48.4 r9939"
   sodipodi:docname="basket-left-up.svg">
  <defs
     id="defs3121" />
  <sodipodi:namedview
     id="base"
     pagecolor="#ffffff"
     bordercolor="#666666"
     borderopacity="1.0"
     inkscape:pageopacity="0.0"
     inkscape:pageshadow="2"
     inkscape:zoom="1"
     inkscape:cx="-222.74535"
     inkscape:cy="20.737397"
     inkscape:document-units="px"
     inkscape:current-layer="layer1"
     showgrid="false"
     inkscape:window-width="1280"
     inkscape:window-height="1000"
     inkscape:window-x="0"
     inkscape:window-y="24"
     inkscape:window-maximized="1"
     fit-margin-top="0"
     fit-margin-left="0"
     fit-margin-right="0"
     fit-margin-bottom="0" />
  <metadata
     id="metadata3124">
    <rdf:RDF>
      <cc:Work
         rdf:about="">
        <dc:format>image/svg+xml</dc:format>
        <dc:type
           rdf:resource="http://purl.org/dc/dcmitype/StillImage" />
        <dc:title />
      </cc:Work>
    </rdf:RDF>
  </metadata>
  <g
     inkscape:label="Layer 1"
     inkscape:groupmode="layer"
     id="layer1"
     transform="translate(-364.83085,-465.71368)">
    <g
       id="g3173"
       transform="matrix(2,0,0,2,-401.18169,-496.74605)">
      <path
         style="fill:#606d67"
         d="m 411.32963,510.47116 c -1.92645,-1.36206 -4.5321,-1.74855 -11.79806,-1.75 l -9.32556,-0.002 -3.42444,-3.73532 c -4.07882,-4.44908 -4.26097,-5.97903 -0.92445,-7.76468 1.98725,-1.06354 2.5,-2.11035 2.5,-5.10388 0,-4.2666 1.5468,-8.98769 3.31256,-10.11046 2.04476,-1.30017 6.44723,-0.85403 7.04907,0.71434 0.32216,0.83954 1.80945,1.5 3.37787,1.5 2.9936,0 5.19569,3.24788 8.74537,12.89863 1.79482,4.8797 0.82812,7.43595 -1.94249,5.13654 -1.28205,-1.06401 -1.54238,-1.00622 -1.54238,0.34238 0,0.89235 0.3375,1.51921 0.75,1.39302 1.00455,-0.30729 11.25,6.48968 11.25,7.4634 0,1.44548 -5.55528,0.76583 -8.02749,-0.98211 z m 3.47634,-1.33462 c -0.36805,-0.59552 -2.66297,-1.9374 -5.09983,-2.98196 -3.44354,-1.47607 -4.84091,-2.81555 -6.27211,-6.01223 -1.67881,-3.74976 -3.89422,-4.21649 -2.4764,-0.52172 0.90085,2.34758 -2.20534,3.08761 -5.07305,1.20862 -3.61861,-2.371 -4.20239,-1.96315 -1.45177,1.01426 l 2.42431,2.62421 -2.5,-0.75711 -2.5,-0.75711 2,2.30246 c 1.73952,2.0026 1.77208,2.21935 0.25,1.66429 -0.9625,-0.351 -1.75,-0.2023 -1.75,0.33043 0,1.23113 2.58529,1.23474 6.85712,0.01 2.56919,-0.73683 4.53698,-0.53598 8.4934,0.86692 6.19436,2.19644 7.98978,2.45174 7.09833,1.00935 z m -6.06321,-13.98816 c -2.01149,-6.10998 -5.38325,-10.25096 -7.64126,-9.38449 -2.64641,1.01553 -2.08602,2.45541 0.95562,2.45541 1.98626,0 2.40514,0.29486 1.58458,1.11542 -0.82056,0.82055 -0.1797,2.41786 2.42427,6.0424 1.94682,2.70984 3.68093,4.78573 3.85357,4.6131 0.17263,-0.17264 -0.35691,-2.35147 -1.17678,-4.84184 z m -12.38564,-2.36398 c 0,-0.2392 -0.52217,-1.7017 -1.16037,-3.25 -0.6382,-1.54831 -1.06847,-3.3776 -0.95616,-4.0651 0.34925,-2.13787 -0.88684,-1.37134 -1.84267,1.14268 -1.25302,3.2957 -0.2126,6.60732 2.07583,6.60732 1.03585,0 1.88337,-0.19571 1.88337,-0.4349 z m 5,-0.5651 c 0,-0.55 -0.675,-1 -1.5,-1 -0.825,0 -1.5,0.45 -1.5,1 0,0.55 0.675,1 1.5,1 0.825,0 1.5,-0.45 1.5,-1 z m -1,-2.39301 c 0,-0.21616 -0.675,-0.65203 -1.5,-0.96862 -0.825,-0.31658 -1.5,-0.13972 -1.5,0.39301 0,0.53274 0.675,0.96862 1.5,0.96862 0.825,0 1.5,-0.17686 1.5,-0.39301 z m -2.47354,-4.41386 c -0.30789,-0.30789 -1.11479,-6.4e-4 -1.79313,0.68278 -0.98026,0.98762 -0.8654,1.10248 0.5598,0.5598 0.98622,-0.37553 1.54122,-0.9347 1.23333,-1.24258 z"
         id="path3195"
         inkscape:connector-curvature="0" />
      <path
         style="fill:#55645d"
         d="m 411.32963,510.4693 c -1.91749,-1.35717 -4.5142,-1.75 -11.5679,-1.75 -9.74593,0 -10.78117,-0.41135 -14.62671,-5.81192 l -2.12875,-2.98954 2.67543,-2.30131 c 1.95286,-1.67978 2.67542,-3.2468 2.67542,-5.80221 0,-3.66485 1.73853,-8.57605 3.47965,-9.82971 1.93521,-1.39341 6.04158,-0.7616 7.21001,1.10936 0.77011,1.23314 1.96461,1.72465 3.49054,1.43628 2.56564,-0.48484 4.00353,1.64342 7.83238,11.59297 2.18818,5.68612 1.53411,8.62461 -1.38117,6.20514 -0.94919,-0.78776 -1.67053,-0.85479 -2.0794,-0.19322 -0.34432,0.55712 1.52812,2.14313 4.16098,3.52446 5.23886,2.74857 8.28701,4.92606 8.28701,5.91994 0,1.34432 -5.66689,0.56056 -8.02749,-1.11024 z m 3.95614,-0.83597 c -0.72393,-0.87229 -3.23677,-2.48873 -5.58409,-3.5921 -3.07234,-1.44417 -4.7688,-3.09357 -6.0562,-5.88823 -1.8772,-4.07496 -3.89731,-5.37032 -2.99519,-1.92061 0.76718,2.93369 -2.35163,4.33469 -5.20323,2.33735 -3.10533,-2.17505 -3.8841,-0.84426 -0.9816,1.67741 l 2.39166,2.07786 -2.5,-0.68575 -2.5,-0.68576 2,2.2658 2,2.2658 -2.5,-0.74529 c -1.98763,-0.59255 -2.25536,-0.48787 -1.30635,0.51075 0.90542,0.95274 2.41535,1.01448 6.25299,0.25569 4.34881,-0.85987 5.93666,-0.68301 11.30635,1.25932 3.43586,1.24283 6.41461,2.30334 6.61945,2.35671 0.20485,0.0534 -0.21986,-0.61667 -0.94379,-1.48895 z m -6.40531,-13.99704 c -1.80004,-5.30189 -4.5779,-10.41699 -5.65716,-10.41699 -1.54363,0 -3.86618,1.26574 -3.86618,2.10699 0,0.49115 0.91973,0.89301 2.04384,0.89301 1.1695,0 1.91813,0.56144 1.75,1.31242 -0.28137,1.25673 6.36336,11.83671 7.02801,11.19025 0.17701,-0.17217 -0.40732,-2.46072 -1.29851,-5.08568 z m -13.02219,-4.66699 c -0.40266,-1.2375 -0.79264,-3.2625 -0.86663,-4.5 -0.18087,-3.0252 -1.45842,-2.84339 -2.68474,0.38208 -1.32291,3.47952 -0.30949,6.36792 2.23424,6.36792 1.6754,0 1.91568,-0.41047 1.31713,-2.25 z m 5.49885,1.25 c 0,-0.55 -0.675,-1 -1.5,-1 -0.825,0 -1.5,0.45 -1.5,1 0,0.55 0.675,1 1.5,1 0.825,0 1.5,-0.45 1.5,-1 z m -1,-2.39301 c 0,-0.21616 -0.675,-0.65203 -1.5,-0.96862 -0.825,-0.31658 -1.5,-0.13972 -1.5,0.39301 0,0.53274 0.675,0.96862 1.5,0.96862 0.825,0 1.5,-0.17686 1.5,-0.39301 z m -2.5,-3.60699 c 0.33992,-0.55 0.16803,-1 -0.38197,-1 -0.55,0 -1.27811,0.45 -1.61803,1 -0.33992,0.55 -0.16803,1 0.38197,1 0.55,0 1.27811,-0.45 1.61803,-1 z"
         id="path3191"
         inkscape:connector-curvature="0" />
      <path
         style="fill:#2c3b33"
         d="m 388.651,506.35098 c -1.12411,-0.89742 -2.82268,-2.8628 -3.77459,-4.36751 -1.72051,-2.71966 -1.71242,-2.74626 1.36866,-4.5 2.84659,-1.62027 3.09992,-2.1924 3.10573,-7.01417 0.009,-7.58679 4.4678,-11.64567 8.43489,-7.67857 1.99196,1.99196 2.03165,3.5424 0.0714,2.7902 -0.825,-0.31659 -1.5,-0.97746 -1.5,-1.46862 0,-0.49116 -0.65917,-0.89301 -1.46482,-0.89301 -2.08266,0 -3.70826,3.54284 -3.34509,7.29031 0.29095,3.0023 0.55457,3.20108 4.30991,3.24995 2.2,0.0286 4.741,-0.29717 5.64666,-0.72398 1.2007,-0.56587 2.30319,0.0987 4.07085,2.45384 3.39649,4.52531 4.32485,6.18311 3.0061,5.36808 -1.73434,-1.07188 -2.52543,1.28386 -1.0597,3.1556 1.22743,1.56743 1.18116,1.5842 -0.56881,0.2062 -1.0477,-0.825 -2.51624,-2.9625 -3.26342,-4.75 -1.61515,-3.86395 -3.33168,-4.25036 -3.33168,-0.75 0,2.8825 -2.94829,3.47215 -5,1 -1.76073,-2.12155 -3.32777,-1.86138 -2.72279,0.45205 0.28076,1.07363 -0.004,2.12545 -0.63337,2.33738 -0.85701,0.2887 -0.85554,0.73955 0.006,1.79795 1.94772,2.39311 -0.81261,4.07464 -3.35583,2.0443 z m 11.70612,-17.13168 c 0,-0.55 0.675,-1 1.5,-1 0.825,0 1.5,0.45 1.5,1 0,0.55 -0.675,1 -1.5,1 -0.825,0 -1.5,-0.45 -1.5,-1 z"
         id="path3181"
         inkscape:connector-curvature="0" />
    </g>
  </g>
</svg>
