<?xml version="1.0" encoding="UTF-8" standalone="no"?>
<!-- Created with Inkscape (http://www.inkscape.org/) -->

<svg
   xmlns:dc="http://purl.org/dc/elements/1.1/"
   xmlns:cc="http://creativecommons.org/ns#"
   xmlns:rdf="http://www.w3.org/1999/02/22-rdf-syntax-ns#"
   xmlns:svg="http://www.w3.org/2000/svg"
   xmlns="http://www.w3.org/2000/svg"
   xmlns:sodipodi="http://sodipodi.sourceforge.net/DTD/sodipodi-0.dtd"
   xmlns:inkscape="http://www.inkscape.org/namespaces/inkscape"
   width="46.338543"
   height="33.29776"
   id="svg3189"
   version="1.1"
   inkscape:version="0.48.4 r9939"
   sodipodi:docname="bell-0.svg">
  <defs
     id="defs3191" />
  <sodipodi:namedview
     id="base"
     pagecolor="#ffffff"
     bordercolor="#666666"
     borderopacity="1.0"
     inkscape:pageopacity="0.0"
     inkscape:pageshadow="2"
     inkscape:zoom="3.959798"
     inkscape:cx="30.5763"
     inkscape:cy="24.919675"
     inkscape:document-units="px"
     inkscape:current-layer="layer1"
     showgrid="false"
     fit-margin-top="0"
     fit-margin-left="0"
     fit-margin-right="0"
     fit-margin-bottom="0"
     inkscape:window-width="788"
     inkscape:window-height="395"
     inkscape:window-x="490"
     inkscape:window-y="24"
     inkscape:window-maximized="0" />
  <metadata
     id="metadata3194">
    <rdf:RDF>
      <cc:Work
         rdf:about="">
        <dc:format>image/svg+xml</dc:format>
        <dc:type
           rdf:resource="http://purl.org/dc/dcmitype/StillImage" />
        <dc:title />
      </cc:Work>
    </rdf:RDF>
  </metadata>
  <g
     inkscape:label="Layer 1"
     inkscape:groupmode="layer"
     id="layer1"
     transform="translate(-514.07942,-626.42711)">
    <path
       style="fill:#26322c"
       d="m 543.23532,658.72094 c -2.07962,-1.3542 -2.49222,-4.4378 -1.60082,-11.96418 1.17936,-9.95792 -0.9462,-15.43904 -3.45344,-8.90528 -0.9161,2.38732 -1.88568,2.7124 -3.4435,1.15458 -1.55782,-1.55782 -4.6373,-1.42532 -10.93692,0.47058 -10.07364,3.03172 -12.62928,1.30912 -6.20194,-4.18036 11.24358,-9.60292 22.23114,-11.74502 24.44622,-4.76594 0.70258,2.21362 5.48822,8.01698 10.63478,12.89636 8.30406,7.87298 9.01966,9.20614 6.35736,11.84362 -3.95498,3.9181 -12.28904,5.738 -15.80174,3.45062 z m 5.80174,-3.09734 c 0,-0.48508 -0.9,-1.4382 -2,-2.11804 -1.1,-0.67984 -2,-0.28296 -2,0.88196 0,1.16492 0.9,2.11804 2,2.11804 1.1,0 2,-0.39688 2,-0.88196 z m 8,-3.11804 c 0,-1.1 -0.9,-2 -2,-2 -1.1,0 -2,0.9 -2,2 0,1.1 0.9,2 2,2 1.1,0 2,-0.9 2,-2 z M 530.8728,634.7283 c 3.75966,-0.68046 7.252,-2.48596 7.76076,-4.01222 1.25428,-3.76288 -8.48182,-1.34534 -16.5965,4.12104 -3.3,2.22302 -4.2,3.38632 -2,2.58512 2.2,-0.8012 7.07608,-2.01348 10.83574,-2.69394 z"
       id="path3270"
       inkscape:connector-curvature="0" />
  </g>
</svg>
