<?xml version="1.0" encoding="UTF-8" standalone="no"?>
<!-- Created with Inkscape (http://www.inkscape.org/) -->

<svg
   xmlns:dc="http://purl.org/dc/elements/1.1/"
   xmlns:cc="http://creativecommons.org/ns#"
   xmlns:rdf="http://www.w3.org/1999/02/22-rdf-syntax-ns#"
   xmlns:svg="http://www.w3.org/2000/svg"
   xmlns="http://www.w3.org/2000/svg"
   xmlns:sodipodi="http://sodipodi.sourceforge.net/DTD/sodipodi-0.dtd"
   xmlns:inkscape="http://www.inkscape.org/namespaces/inkscape"
   width="20.309273"
   height="29.3339"
   id="svg3432"
   version="1.1"
   inkscape:version="0.48.4 r9939"
   sodipodi:docname="bird-right-3.svg">
  <defs
     id="defs3434" />
  <sodipodi:namedview
     id="base"
     pagecolor="#ffffff"
     bordercolor="#666666"
     borderopacity="1.0"
     inkscape:pageopacity="0.0"
     inkscape:pageshadow="2"
     inkscape:zoom="5.6"
     inkscape:cx="-9.3410548"
     inkscape:cy="4.1628113"
     inkscape:document-units="px"
     inkscape:current-layer="layer1"
     showgrid="false"
     fit-margin-top="0"
     fit-margin-left="0"
     fit-margin-right="0"
     fit-margin-bottom="0"
     inkscape:window-width="1280"
     inkscape:window-height="1000"
     inkscape:window-x="0"
     inkscape:window-y="24"
     inkscape:window-maximized="1" />
  <metadata
     id="metadata3437">
    <rdf:RDF>
      <cc:Work
         rdf:about="">
        <dc:format>image/svg+xml</dc:format>
        <dc:type
           rdf:resource="http://purl.org/dc/dcmitype/StillImage" />
        <dc:title />
      </cc:Work>
    </rdf:RDF>
  </metadata>
  <g
     inkscape:label="Layer 1"
     inkscape:groupmode="layer"
     id="layer1"
     transform="translate(-356.47549,-427.95818)">
    <path
       style="fill:#242e2b"
       d="m 361.97841,455.14402 c 0.73016,-1.18142 -0.48736,-4.10642 -2.70562,-6.5 -3.31258,-3.57438 -3.56082,-4.7827 -1.38932,-6.76284 2.08752,-1.90358 2.90592,-1.728 3.88922,0.83442 0.94918,2.47352 1.80054,2.69016 3.57978,0.91092 1.77926,-1.77926 1.76366,-2.90522 -0.0656,-4.73444 -6.44576,-6.44576 0.60492,-14.93046 7.34116,-8.83424 3.55292,3.21534 4.94744,9.23424 2.13948,9.23424 -2.24574,0 -3.88704,5.65614 -2.6083,8.98852 0.63074,1.64368 2.1775,2.39938 3.43722,1.67934 1.25974,-0.72004 1.56748,-0.5169 0.68384,0.45142 -0.88362,0.96832 -3.58362,1.7876 -6,1.82064 -2.4254,0.0332 -4.16942,1.17994 -3.8934,2.56008 0.275,1.375 -0.90312,2.5 -2.61804,2.5 -1.71492,0 -2.52062,-0.96662 -1.79046,-2.14806 z"
       id="path3502"
       inkscape:connector-curvature="0" />
  </g>
</svg>
