<?xml version="1.0" encoding="UTF-8" standalone="no"?>
<!-- Created with Inkscape (http://www.inkscape.org/) -->

<svg
   xmlns:dc="http://purl.org/dc/elements/1.1/"
   xmlns:cc="http://creativecommons.org/ns#"
   xmlns:rdf="http://www.w3.org/1999/02/22-rdf-syntax-ns#"
   xmlns:svg="http://www.w3.org/2000/svg"
   xmlns="http://www.w3.org/2000/svg"
   xmlns:sodipodi="http://sodipodi.sourceforge.net/DTD/sodipodi-0.dtd"
   xmlns:inkscape="http://www.inkscape.org/namespaces/inkscape"
   width="21.483431"
   height="29.846273"
   id="svg3645"
   version="1.1"
   inkscape:version="0.48.4 r9939"
   sodipodi:docname="bird-right-5.svg">
  <defs
     id="defs3647" />
  <sodipodi:namedview
     id="base"
     pagecolor="#ffffff"
     bordercolor="#666666"
     borderopacity="1.0"
     inkscape:pageopacity="0.0"
     inkscape:pageshadow="2"
     inkscape:zoom="11.2"
     inkscape:cx="4.4176404"
     inkscape:cy="17.82675"
     inkscape:document-units="px"
     inkscape:current-layer="layer1"
     showgrid="false"
     fit-margin-top="0"
     fit-margin-left="0"
     fit-margin-right="0"
     fit-margin-bottom="0"
     inkscape:window-width="788"
     inkscape:window-height="395"
     inkscape:window-x="0"
     inkscape:window-y="24"
     inkscape:window-maximized="0" />
  <metadata
     id="metadata3650">
    <rdf:RDF>
      <cc:Work
         rdf:about="">
        <dc:format>image/svg+xml</dc:format>
        <dc:type
           rdf:resource="http://purl.org/dc/dcmitype/StillImage" />
        <dc:title />
      </cc:Work>
    </rdf:RDF>
  </metadata>
  <g
     inkscape:label="Layer 1"
     inkscape:groupmode="layer"
     id="layer1"
     transform="translate(-527.50935,-593.47206)">
    <path
       style="fill:#212d29"
       d="m 532.07565,622.18494 c -1.31322,-0.53422 -1.92686,-2.17212 -1.36366,-3.6398 0.5632,-1.46766 0.0626,-3.26262 -1.11236,-3.98882 -2.63512,-1.6286 -2.8439,-9.08426 -0.25438,-9.08426 1.03508,0 2.44728,0.91468 3.1382,2.03262 0.69092,1.11794 2.1037,1.50886 3.13948,0.86872 1.09204,-0.67492 0.67724,-2.88574 -0.98732,-5.26224 -3.76548,-5.37596 -1.95018,-9.6391 4.10442,-9.6391 5.82004,0 8.26048,5.07922 4.97114,10.34628 -2.99454,4.79502 -0.99706,8.76526 2.81726,5.59966 2.13026,-1.76796 2.64576,-1.40836 2.4129,1.68314 -0.1628,2.1623 -1.37104,3.51896 -2.6848,3.01484 -1.31374,-0.50414 -2.98278,0.0448 -3.70898,1.21974 -0.72618,1.17498 -3.1635,2.13634 -5.41628,2.13634 -2.81914,0 -3.73708,0.93516 -2.94472,3 0.63316,1.65 0.95444,2.92894 0.71398,2.8421 -0.24048,-0.0868 -1.51168,-0.59498 -2.82488,-1.12922 z"
       id="path3715"
       inkscape:connector-curvature="0" />
  </g>
</svg>
