<?xml version="1.0" encoding="UTF-8" standalone="no"?>
<!-- Created with Inkscape (http://www.inkscape.org/) -->

<svg
   xmlns:dc="http://purl.org/dc/elements/1.1/"
   xmlns:cc="http://creativecommons.org/ns#"
   xmlns:rdf="http://www.w3.org/1999/02/22-rdf-syntax-ns#"
   xmlns:svg="http://www.w3.org/2000/svg"
   xmlns="http://www.w3.org/2000/svg"
   xmlns:sodipodi="http://sodipodi.sourceforge.net/DTD/sodipodi-0.dtd"
   xmlns:inkscape="http://www.inkscape.org/namespaces/inkscape"
   width="69.034492"
   height="26.316723"
   id="svg2987"
   version="1.1"
   inkscape:version="0.48.4 r9939"
   sodipodi:docname="bird-left-1.svg">
  <defs
     id="defs2989" />
  <sodipodi:namedview
     id="base"
     pagecolor="#ffffff"
     bordercolor="#666666"
     borderopacity="1.0"
     inkscape:pageopacity="0.0"
     inkscape:pageshadow="2"
     inkscape:zoom="1"
     inkscape:cx="-174.65352"
     inkscape:cy="21.634939"
     inkscape:document-units="px"
     inkscape:current-layer="layer1"
     showgrid="false"
     fit-margin-top="0"
     fit-margin-left="0"
     fit-margin-right="0"
     fit-margin-bottom="0"
     inkscape:window-width="1280"
     inkscape:window-height="1000"
     inkscape:window-x="0"
     inkscape:window-y="24"
     inkscape:window-maximized="1" />
  <metadata
     id="metadata2992">
    <rdf:RDF>
      <cc:Work
         rdf:about="">
        <dc:format>image/svg+xml</dc:format>
        <dc:type
           rdf:resource="http://purl.org/dc/dcmitype/StillImage" />
        <dc:title />
      </cc:Work>
    </rdf:RDF>
  </metadata>
  <g
     inkscape:label="Layer 1"
     inkscape:groupmode="layer"
     id="layer1"
     transform="translate(-457.15272,-510.63171)">
    <g
       id="g3060"
       transform="matrix(2,0,0,2,-491.66997,-523.79007)">
      <path
         style="fill:#283730"
         d="m 486.92859,528.29373 c 0,-1.73648 -0.71621,-2.83235 -2.21295,-3.38603 l -2.21295,-0.81863 2.32031,-1.24179 c 1.69684,-0.90812 2.02276,-1.53934 1.21295,-2.34915 -0.60905,-0.60905 -1.10736,-1.70819 -1.10736,-2.44254 0,-1.03909 0.4577,-1.09023 2.06392,-0.23061 1.51043,0.80836 2.42517,0.80477 3.41097,-0.0134 0.94435,-0.78375 1.5438,-0.79961 2.00518,-0.0531 0.36197,0.58568 1.07703,0.80598 1.58903,0.48954 0.51199,-0.31643 0.9309,0.35123 0.9309,1.48369 0,1.45475 0.64565,2.05902 2.2,2.05902 1.417,0 1.85575,0.34425 1.23275,0.96725 -1.40328,1.40327 -5.27101,0.1177 -5.93442,-1.9725 -0.76301,-2.40404 -4.13953,-1.47161 -4.88036,1.3477 -0.31181,1.18665 -0.12842,2.30755 0.40755,2.49088 0.53596,0.18334 0.97448,0.89563 0.97448,1.58288 0,0.7031 0.98396,1.14042 2.25,1 1.2375,-0.13725 2.63564,-0.28704 3.10699,-0.33288 0.47134,-0.0458 0.59797,-0.75833 0.28138,-1.58333 -0.98739,-2.57312 0.97753,-1.63841 2.20111,1.04705 1.49403,3.27902 1.46542,3.50718 -0.35222,2.80969 -0.832,-0.31927 -2.13824,-0.0614 -2.90275,0.57312 -1.05292,0.87385 -1.48582,0.8662 -1.78506,-0.0315 -0.30376,-0.91127 -0.90394,-0.91278 -2.59725,-0.007 -2.0038,1.07245 -2.2022,0.94733 -2.2022,-1.38878 z m 16.93999,-2.07526 c -2.17851,-2.62495 -2.1242,-5.23446 0.12379,-5.94794 2.17624,-0.69071 4.93622,0.97979 4.93622,2.9877 0,0.67241 -0.83548,1.97866 -1.85662,2.90278 -1.71045,1.54794 -1.96264,1.55247 -3.20339,0.0575 z m 3.45627,-2.01794 c 0.6801,-1.77234 -0.0187,-3.40976 -1.45528,-3.40976 -0.51754,0 -0.94098,1.125 -0.94098,2.5 0,2.79733 1.45932,3.35138 2.39626,0.90976 z m -31.46317,-0.47667 c -1.64304,-1.64304 -1.82301,-2.36081 -0.87756,-3.5 1.81284,-2.18434 5.94447,-1.84716 5.94447,0.48512 0,2.61266 -1.02374,5.08179 -2.10699,5.08179 -0.49116,0 -1.82312,-0.93011 -2.95992,-2.06691 z m 2.79196,-1.93309 c 0.15842,-2.10306 -1.1734,-2.70161 -2.22505,-1 -0.6746,1.09152 0.18181,3 1.34621,3 0.4005,0 0.79598,-0.9 0.87884,-2 z"
         id="path3062"
         inkscape:connector-curvature="0" />
    </g>
  </g>
</svg>
