<?xml version="1.0" encoding="UTF-8" standalone="no"?>
<!-- Created with Inkscape (http://www.inkscape.org/) -->

<svg
   xmlns:dc="http://purl.org/dc/elements/1.1/"
   xmlns:cc="http://creativecommons.org/ns#"
   xmlns:rdf="http://www.w3.org/1999/02/22-rdf-syntax-ns#"
   xmlns:svg="http://www.w3.org/2000/svg"
   xmlns="http://www.w3.org/2000/svg"
   xmlns:sodipodi="http://sodipodi.sourceforge.net/DTD/sodipodi-0.dtd"
   xmlns:inkscape="http://www.inkscape.org/namespaces/inkscape"
   width="24.561001"
   height="22.83213"
   id="svg3442"
   version="1.1"
   inkscape:version="0.48.4 r9939"
   sodipodi:docname="bird-left-5.svg">
  <defs
     id="defs3444" />
  <sodipodi:namedview
     id="base"
     pagecolor="#ffffff"
     bordercolor="#666666"
     borderopacity="1.0"
     inkscape:pageopacity="0.0"
     inkscape:pageshadow="2"
     inkscape:zoom="3.959798"
     inkscape:cx="16.889178"
     inkscape:cy="-3.5027846"
     inkscape:document-units="px"
     inkscape:current-layer="layer1"
     showgrid="false"
     fit-margin-top="0"
     fit-margin-left="0"
     fit-margin-right="0"
     fit-margin-bottom="0"
     inkscape:window-width="788"
     inkscape:window-height="395"
     inkscape:window-x="397"
     inkscape:window-y="373"
     inkscape:window-maximized="0" />
  <metadata
     id="metadata3447">
    <rdf:RDF>
      <cc:Work
         rdf:about="">
        <dc:format>image/svg+xml</dc:format>
        <dc:type
           rdf:resource="http://purl.org/dc/dcmitype/StillImage" />
        <dc:title />
      </cc:Work>
    </rdf:RDF>
  </metadata>
  <g
     inkscape:label="Layer 1"
     inkscape:groupmode="layer"
     id="layer1"
     transform="translate(-372.43552,-516.45509)">
    <path
       style="fill:#212d28"
       d="m 380.48648,535.26799 c -0.67726,-2.69842 -3.0146,-6.15522 -5.19406,-7.68178 -4.82688,-3.38088 -3.19726,-11.13112 2.34052,-11.13112 4.1246,0 6.52782,4.50376 4.80246,9 -0.72898,1.89968 0.0276,3 2.06276,3 1.7677,0 3.21398,-0.975 3.21398,-2.16666 0,-4.50294 5.00572,-0.26222 5.12538,4.34208 0.0726,2.7948 1.18696,4.59338 2.64866,4.27502 1.3878,-0.30224 1.91626,0.43262 1.17434,1.63306 -0.7419,1.20044 -1.77654,1.755 -2.2992,1.23234 -0.52264,-0.52264 -3.58124,-0.1958 -6.79686,0.72652 -5.18238,1.48628 -5.9865,1.11938 -7.07798,-3.22946 z"
       id="path3512"
       inkscape:connector-curvature="0" />
  </g>
</svg>
