<?xml version="1.0" encoding="UTF-8" standalone="no"?>
<!-- Created with Inkscape (http://www.inkscape.org/) -->

<svg
   xmlns:dc="http://purl.org/dc/elements/1.1/"
   xmlns:cc="http://creativecommons.org/ns#"
   xmlns:rdf="http://www.w3.org/1999/02/22-rdf-syntax-ns#"
   xmlns:svg="http://www.w3.org/2000/svg"
   xmlns="http://www.w3.org/2000/svg"
   xmlns:sodipodi="http://sodipodi.sourceforge.net/DTD/sodipodi-0.dtd"
   xmlns:inkscape="http://www.inkscape.org/namespaces/inkscape"
   width="78.152649"
   height="36.902363"
   id="svg2"
   version="1.1"
   inkscape:version="0.48.4 r9939"
   sodipodi:docname="bird-right-1.svg">
  <defs
     id="defs4" />
  <sodipodi:namedview
     id="base"
     pagecolor="#ffffff"
     bordercolor="#666666"
     borderopacity="1.0"
     inkscape:pageopacity="0.0"
     inkscape:pageshadow="2"
     inkscape:zoom="1.979899"
     inkscape:cx="28.709977"
     inkscape:cy="13.370625"
     inkscape:document-units="px"
     inkscape:current-layer="layer1"
     showgrid="false"
     inkscape:window-width="788"
     inkscape:window-height="395"
     inkscape:window-x="0"
     inkscape:window-y="24"
     inkscape:window-maximized="0"
     fit-margin-top="0"
     fit-margin-left="0"
     fit-margin-right="0"
     fit-margin-bottom="0" />
  <metadata
     id="metadata7">
    <rdf:RDF>
      <cc:Work
         rdf:about="">
        <dc:format>image/svg+xml</dc:format>
        <dc:type
           rdf:resource="http://purl.org/dc/dcmitype/StillImage" />
        <dc:title />
      </cc:Work>
    </rdf:RDF>
  </metadata>
  <g
     inkscape:label="Layer 1"
     inkscape:groupmode="layer"
     id="layer1"
     transform="translate(-506.11386,-621.35497)">
    <path
       style="fill:#25342c"
       d="m 550.99821,656.07361 c -3.01278,-3.65504 -8.2551,-4.49966 -8.2551,-1.33004 0,1.1 -0.9,2 -2,2 -1.1,0 -2,-1.35 -2,-3 0,-3.82134 -1.97978,-3.79162 -7.55498,0.1134 -5.58402,3.9112 -5.6425,2.3443 -0.1878,-5.03354 3.01778,-4.08176 3.87636,-7.27544 2.94912,-10.96988 -1.20056,-4.78338 -0.89292,-5.10754 3.7428,-3.94404 3.83308,0.96204 5.05088,0.4921 5.05088,-1.94912 0,-1.76926 0.9,-3.21682 2,-3.21682 1.1,0 2,1.35 2,3 0,4.14202 2.69922,3.7523 7.0111,-1.01226 4.90614,-5.42124 5.87988,-3.7357 2.7855,4.82168 -2.38338,6.5911 -2.21466,7.4976 2.3164,12.44604 4.80874,5.2517 4.81672,5.31986 0.49776,4.25706 -3.34026,-0.82198 -4.53518,-0.097 -5,3.03372 -0.56138,3.78124 -0.83266,3.84462 -3.35566,0.7838 z m -0.2551,-7.94808 c 0,-0.88992 0.90682,-1.05758 2.01518,-0.37258 1.18016,0.72938 1.05898,-0.85318 -0.29246,-3.81926 -1.2692,-2.78558 -3.01384,-4.62824 -3.87698,-4.09478 -0.86314,0.53344 -2.129,0.0644 -2.813,-1.04238 -0.74582,-1.20676 -2.88978,-0.47868 -5.35584,1.8188 -3.29792,3.07248 -3.62228,4.35554 -1.63804,6.47966 2.6815,2.87056 11.96114,3.67008 11.96114,1.03054 z m -43.92566,0.75694 c -2.61652,-4.88902 2.46642,-10.63466 8.6213,-9.74534 3.1948,0.46162 4.27338,2.15866 4.51668,7.10644 0.28944,5.88652 -0.21796,6.5 -5.37598,6.5 -3.5804,0 -6.46302,-1.43392 -7.762,-3.8611 z m 9.92566,-2.02086 c 0,-2.13508 -0.79802,-4.37518 -1.77338,-4.97798 -2.43574,-1.50536 -6.87672,4.19002 -5.28076,6.77234 2.18918,3.54216 7.05414,2.30466 7.05414,-1.79436 z m 55.22078,-4.51416 c -0.67144,-3.35714 -1.22078,-6.89138 -1.22078,-7.85388 0,-2.74518 6.83294,-2.04892 11.11774,1.13286 4.54964,3.37844 2.42184,8.71948 -4.49278,11.27736 -3.55198,1.31396 -4.36766,0.62626 -5.40418,-4.55634 z m 8.13342,-0.80572 c 1.219,-3.17666 -2.86962,-7.33372 -5.57094,-5.6642 -1.9309,1.19334 0.24368,8.86604 2.51278,8.86604 1.00622,0 2.3824,-1.44084 3.05816,-3.20184 z m -14.3542,-18.70092 c -3.04052,-1.23264 -2.20634,-1.58374 3.4777,-1.46368 4.4502,0.094 6.47456,0.79504 5,1.73156 -2.92162,1.85556 -3.26676,1.84466 -8.4777,-0.26788 z"
       id="path3066"
       inkscape:connector-curvature="0" />
  </g>
</svg>
