<?xml version="1.0" encoding="UTF-8" standalone="no"?>
<!-- Created with Inkscape (http://www.inkscape.org/) -->

<svg
   xmlns:dc="http://purl.org/dc/elements/1.1/"
   xmlns:cc="http://creativecommons.org/ns#"
   xmlns:rdf="http://www.w3.org/1999/02/22-rdf-syntax-ns#"
   xmlns:svg="http://www.w3.org/2000/svg"
   xmlns="http://www.w3.org/2000/svg"
   xmlns:sodipodi="http://sodipodi.sourceforge.net/DTD/sodipodi-0.dtd"
   xmlns:inkscape="http://www.inkscape.org/namespaces/inkscape"
   width="102.58657"
   height="103.74891"
   id="svg3562"
   version="1.1"
   inkscape:version="0.48.4 r9939"
   sodipodi:docname="button-left-up.svg">
  <defs
     id="defs3564" />
  <sodipodi:namedview
     id="base"
     pagecolor="#ffffff"
     bordercolor="#666666"
     borderopacity="1.0"
     inkscape:pageopacity="0.0"
     inkscape:pageshadow="2"
     inkscape:zoom="8"
     inkscape:cx="49.130049"
     inkscape:cy="46.926629"
     inkscape:document-units="px"
     inkscape:current-layer="g3632"
     showgrid="false"
     fit-margin-top="16"
     fit-margin-left="16"
     fit-margin-right="16"
     fit-margin-bottom="16"
     inkscape:window-width="1280"
     inkscape:window-height="1000"
     inkscape:window-x="0"
     inkscape:window-y="24"
     inkscape:window-maximized="1" />
  <metadata
     id="metadata3567">
    <rdf:RDF>
      <cc:Work
         rdf:about="">
        <dc:format>image/svg+xml</dc:format>
        <dc:type
           rdf:resource="http://purl.org/dc/dcmitype/StillImage" />
        <dc:title />
      </cc:Work>
    </rdf:RDF>
  </metadata>
  <g
     inkscape:label="Layer 1"
     inkscape:groupmode="layer"
     id="layer1"
     transform="translate(-521.41664,-615.06743)">
    <g
       id="g3632"
       transform="translate(9.8489873,7.0710678)">
      <path
         style="fill:#b19d93"
         d="m 549.58193,692.8104 c -15.25226,-6.61424 -22.01428,-17.1852 -22.01428,-34.41464 0,-9.91898 0.94984,-13.11046 5.96056,-20.02758 7.66688,-10.5838 15.21676,-14.37182 28.64436,-14.37182 13.0346,0 21.57004,5.02134 30.0839,17.69816 19.01618,28.31442 -11.35778,64.69658 -42.67454,51.11588 z m 16.98572,-20.81404 c 0.70382,-1.1388 -1.01858,-2 -4,-2 -2.98142,0 -4.70382,0.8612 -4,2 0.67984,1.1 2.47984,2 4,2 1.52016,0 3.32016,-0.9 4,-2 z"
         id="path3640"
         inkscape:connector-curvature="0" />
      <path
         style="fill:#a38678"
         d="m 556.83224,694.70003 c -10.01668,-2.20412 -15.77232,-5.90726 -22.13698,-14.2428 -5.85898,-7.67328 -6.86302,-10.56708 -6.86302,-19.7803 0,-14.50966 5.56322,-25.03606 16.67234,-31.54644 22.48146,-13.17502 49.4272,1.27616 52.61826,28.21948 2.70796,22.86462 -18.1689,42.21782 -40.2906,37.35006 z m 14.8276,-25.8909 c 2.26484,-2.87928 3.62704,-6.02928 3.02712,-7 -0.59994,-0.9707 -5.92702,-1.76492 -11.83798,-1.76492 -9.2771,0 -10.93594,0.5947 -12.12706,4.3476 -3.10568,9.7851 13.89444,13.37164 20.93792,4.41732 z m 21.74792,-1.03834 c -0.4993,-1.4979 -1.40588,-0.5913 -2.1131,2.1131 -0.86994,3.3267 -0.60966,4.10756 0.87448,2.62342 1.1622,-1.1622 1.71958,-3.29364 1.23862,-4.73652 z"
         id="path3638"
         inkscape:connector-curvature="0" />
      <path
         style="fill:#8d6558"
         d="m 556.76561,694.29103 c -26.7012,-3.92694 -38.42938,-36.83554 -20.4326,-57.33274 14.39382,-16.39364 35.5182,-16.8044 50.45294,-0.98104 5.93156,6.2845 12.21568,20.32172 9.09754,20.32172 -0.92,0 -2.23408,-2.99236 -2.9202,-6.64968 -1.29622,-6.90942 -8.57776,-15.08666 -17.19768,-19.31316 -3.55308,-1.74214 -2.87218,-0.64826 2.35294,3.78002 8.92146,7.5609 12.522,17.37696 10.73788,29.27434 -1.05328,7.02374 -3.0047,10.24598 -9.7046,16.02448 -7.78408,6.71358 -9.14332,7.1724 -18.93048,6.39024 -12.60084,-1.00702 -21.3815,-8.08936 -24.53118,-19.78644 -2.367,-8.7903 -0.5855,-22.68148 3.32502,-25.92694 1.51274,-1.25544 2.75042,-3.21192 2.75042,-4.34772 0,-4.81356 -8.20072,5.87282 -10.19754,13.28844 -6.04372,22.44466 8.89074,43.26642 31.03292,43.26642 16.28502,0 25.38114,-7.108 31.29002,-24.45102 2.55516,-7.49966 3.63464,-9.08162 3.73434,-5.47276 0.1914,6.92686 -7.72708,21.86566 -14.01452,26.43946 -6.70378,4.87666 -16.8497,6.9464 -26.84522,5.47638 z m 15.0325,-23.6162 c 3.24496,-2.62762 4.10044,-4.80628 3.11116,-7.92324 -1.19226,-3.75644 -2.80208,-4.2839 -12.75406,-4.17892 -16.15148,0.1704 -20.16022,4.05762 -12.01248,11.64838 5.45398,5.08116 15.67626,5.29536 21.65538,0.45378 z"
         id="path3636"
         inkscape:connector-curvature="0" />
      <path
         style="fill:#62362a"
         d="m 550.65166,691.20227 c -3.65594,-2.36264 -0.49818,-2.36264 5,0 2.63748,1.13336 2.97812,1.7563 1,1.8288 -1.65,0.0604 -4.35,-0.76248 -6,-1.8288 z m 25.08274,-1.75932 c 4.4455,-2.01932 10.5205,-6.5686 13.5,-10.10954 6.5576,-7.79326 7.17292,-6.3545 0.91726,2.14478 -4.87654,6.62554 -13.16904,11.7501 -18.90068,11.68016 -1.97962,-0.0242 0.038,-1.6961 4.48342,-3.7154 z m -33.33786,-3.74068 c -2.48774,-3.17212 -2.417,-3.24286 0.75512,-0.75512 1.925,1.5097 3.5,3.0847 3.5,3.5 0,1.64608 -1.64238,0.58662 -4.25512,-2.74488 z m 8.4981,-3.91982 c -12.91604,-6.3629 -18.00558,-23.70348 -11.51584,-39.23562 5.40978,-12.94744 20.39546,-18.0625 33.84426,-11.55204 11.07926,5.36338 15.4286,12.9032 15.4286,26.74634 0,12.60904 -3.94218,19.07982 -14.74786,24.20744 -8.6294,4.09492 -14.44488,4.05294 -23.00916,-0.1662 z m 18.83398,-9.48344 c 15.26094,-6.37642 11.8091,-22.5713 -4.5981,-21.57272 -4.11338,0.25034 -9.72886,0.795 -12.47886,1.21032 -2.75,0.41534 -6.575,0.87002 -8.5,1.01042 -9.87904,0.72044 5.93402,21.22642 17.06424,22.12846 0.86032,0.0698 4.69106,-1.17968 8.51272,-2.77648 z m -40.68706,-14.09674 c 0.0408,-3.3 0.489,-4.40788 0.99608,-2.46194 0.50708,1.94594 0.47374,4.64594 -0.0742,6 -0.54786,1.35406 -0.96274,-0.23806 -0.92198,-3.53806 z m 3.18164,-16 c 1.13364,-2.2 4.61882,-6.24672 7.74482,-8.99274 l 5.68364,-4.99272 -5.9845,6.99272 c -9.48276,11.08038 -9.61362,11.2033 -7.44396,6.99274 z"
         id="path3634"
         inkscape:connector-curvature="0" />
    </g>
  </g>
</svg>
