<?xml version="1.0" encoding="UTF-8" standalone="no"?>
<!-- Created with Inkscape (http://www.inkscape.org/) -->

<svg
   xmlns:dc="http://purl.org/dc/elements/1.1/"
   xmlns:cc="http://creativecommons.org/ns#"
   xmlns:rdf="http://www.w3.org/1999/02/22-rdf-syntax-ns#"
   xmlns:svg="http://www.w3.org/2000/svg"
   xmlns="http://www.w3.org/2000/svg"
   xmlns:sodipodi="http://sodipodi.sourceforge.net/DTD/sodipodi-0.dtd"
   xmlns:inkscape="http://www.inkscape.org/namespaces/inkscape"
   width="103.87591"
   height="103.92868"
   id="svg3674"
   version="1.1"
   inkscape:version="0.48.4 r9939"
   sodipodi:docname="button-right-down.svg">
  <defs
     id="defs3676" />
  <sodipodi:namedview
     id="base"
     pagecolor="#ffffff"
     bordercolor="#666666"
     borderopacity="1.0"
     inkscape:pageopacity="0.0"
     inkscape:pageshadow="2"
     inkscape:zoom="5.6"
     inkscape:cx="67.785946"
     inkscape:cy="52.033821"
     inkscape:document-units="px"
     inkscape:current-layer="layer1"
     showgrid="false"
     fit-margin-top="16"
     fit-margin-left="16"
     fit-margin-right="16"
     fit-margin-bottom="16"
     inkscape:window-width="1280"
     inkscape:window-height="1000"
     inkscape:window-x="0"
     inkscape:window-y="24"
     inkscape:window-maximized="1" />
  <metadata
     id="metadata3679">
    <rdf:RDF>
      <cc:Work
         rdf:about="">
        <dc:format>image/svg+xml</dc:format>
        <dc:type
           rdf:resource="http://purl.org/dc/dcmitype/StillImage" />
        <dc:title />
      </cc:Work>
    </rdf:RDF>
  </metadata>
  <g
     inkscape:label="Layer 1"
     inkscape:groupmode="layer"
     id="layer1"
     transform="translate(-414.08926,-511.77481)">
    <g
       id="g3744"
       transform="matrix(2,0,0,2,-440.84865,-558.02486)">
      <path
         style="fill:#b39e94"
         d="m 445.42856,577.14267 c -1.925,-1.05215 -5.00794,-3.87416 -6.85097,-6.27114 -3.17359,-4.12743 -3.33076,-4.71586 -2.96912,-11.11604 0.42282,-7.48282 2.16207,-10.72795 7.80992,-14.57184 3.93802,-2.68019 12.50869,-3.0778 16.94071,-0.78592 5.52235,2.85572 11.09572,11.63793 11.0475,17.40804 -0.036,4.30389 -3.50737,10.6671 -7.46696,13.68723 -4.89768,3.73564 -13.32118,4.48632 -18.51108,1.64967 z m 9.5,-10.20902 c 0.33992,-0.55 -0.057,-1 -0.88197,-1 -0.825,0 -1.77811,0.45 -2.11803,1 -0.33992,0.55 0.057,1 0.88197,1 0.825,0 1.77811,-0.45 2.11803,-1 z"
         id="path3752"
         inkscape:connector-curvature="0" />
      <path
         style="fill:#a38677"
         d="m 445.23223,576.8931 c -11.78212,-6.22255 -13.20813,-23.41046 -2.59514,-31.27972 3.80018,-2.81774 12.44062,-3.41825 16.8779,-1.17302 5.36237,2.71331 7.73588,5.40243 9.9194,11.23841 1.7597,4.70323 1.86873,5.96424 0.82876,9.58529 -1.73213,6.03109 -4.56923,9.64492 -9.23566,11.76416 -5.25411,2.38612 -11.11634,2.33598 -15.79526,-0.13512 z m 22.0032,-9.48591 c -0.30789,-0.30789 -0.86705,0.24711 -1.24258,1.23333 -0.54268,1.4252 -0.42782,1.54006 0.5598,0.5598 0.68342,-0.67834 0.99067,-1.48524 0.68278,-1.79313 z m -10.34058,-1.4363 c 2.67317,-2.95381 1.31981,-4.77333 -3.85662,-5.18503 -3.93119,-0.31266 -4.70252,-0.0472 -5.795,1.99408 -1.0897,2.03612 -1.00125,2.54411 0.65368,3.75423 2.7255,1.99293 6.92237,1.7302 8.99794,-0.56328 z"
         id="path3750"
         inkscape:connector-curvature="0" />
      <path
         style="fill:#8e6659"
         d="m 445.7447,576.99019 c -5.17554,-2.34977 -9.37426,-8.39257 -10.06026,-14.47873 -0.67858,-6.02034 0.18242,-8.86848 3.99295,-13.20843 7.31637,-8.33289 17.57749,-8.4646 25.50117,-0.32732 1.7875,1.83569 3.25,3.73671 3.25,4.2245 0,0.48779 -1.17354,-0.50778 -2.60786,-2.21238 -1.43433,-1.70459 -3.57183,-3.6148 -4.75,-4.2449 -1.62979,-0.87163 -1.37661,-0.27341 1.05854,2.50116 6.09226,6.94143 5.69508,15.4763 -0.98725,21.21434 -3.99123,3.42722 -4.50348,3.59031 -9.71343,3.09252 -7.38435,-0.70555 -7.982,-0.83741 -7.47959,-1.65032 0.23783,-0.38483 -0.45886,-1.50629 -1.54821,-2.49214 -4.35341,-3.93978 -4.76714,-13.92323 -0.7867,-18.98354 1.07781,-1.37022 1.56163,-2.4913 1.07514,-2.4913 -1.94048,0 -5.39388,6.32935 -5.93187,10.87188 -0.7363,6.21685 1.6191,11.35341 6.99036,15.24433 7.39543,5.35723 18.00586,3.31942 22.68627,-4.35707 1.09292,-1.79253 1.98881,-4.04664 1.99086,-5.00914 0.002,-0.9625 0.45374,-1.75 1.00374,-1.75 1.55091,0 1.14893,2.09862 -1.33069,6.94714 -4.12793,8.07156 -13.59913,11.08387 -22.35317,7.1094 z m 11.46135,-10.61324 c 2.915,-2.04175 2.9,-5.25825 -0.0275,-5.89323 -4.677,-1.01447 -11.00699,-0.0956 -12.14241,1.76258 -2.57638,4.21643 7.27407,7.55982 12.16991,4.13065 z m 11.30146,-10.02663 c 0.048,-1.16495 0.28494,-1.4019 0.60416,-0.60417 0.28888,0.72187 0.25335,1.58437 -0.079,1.91667 -0.33229,0.33229 -0.56864,-0.25834 -0.52522,-1.3125 z"
         id="path3748"
         inkscape:connector-curvature="0" />
      <path
         style="fill:#63372a"
         d="m 443.73432,575.30887 c -1.54317,-1.44362 -1.95275,-2.00612 -0.91017,-1.25 1.04257,0.75613 3.06757,1.90073 4.5,2.54356 1.76126,0.7904 2.05592,1.19508 0.91017,1.25 -0.93183,0.0447 -2.95683,-1.09993 -4.5,-2.54356 z m 14.46358,1.37248 c 1.79814,-0.57646 4.83564,-2.78182 6.75,-4.90079 3.9597,-4.38291 4.56537,-4.23967 1.23066,0.29105 -2.47898,3.36808 -6.66276,5.91808 -9.45034,5.75995 -0.98981,-0.0562 -0.32846,-0.57374 1.46968,-1.15021 z m -12.85689,-5.02772 c -4.34739,-2.9297 -5.87938,-6.05192 -5.89771,-12.01964 -0.0344,-11.20838 8.8564,-17.36159 18.40615,-12.73864 5.26866,2.55052 7.57911,6.73204 7.57911,13.71692 0,5.83226 -1.73882,8.63732 -7.02624,11.33477 -5.08912,2.59627 -8.90036,2.51066 -13.06131,-0.29341 z m 10.62603,-4.17161 c 3.38373,-1.41382 6.11958,-5.67459 4.90526,-7.6394 -0.31381,-0.50776 -1.92435,-1.62327 -3.57899,-2.47891 -2.33119,-1.20551 -3.32705,-1.29128 -4.42385,-0.38101 -0.77849,0.64608 -2.15657,0.8903 -3.06241,0.5427 -2.45085,-0.94049 -8.37849,0.43402 -8.37849,1.94282 0,1.84657 4.92573,7.48817 7.41844,8.49658 2.89866,1.17263 3.20834,1.15163 7.12004,-0.48278 z m -19.50807,-13.31306 c -0.0167,-0.69557 1.43209,-2.74141 3.21959,-4.54629 1.7875,-1.80489 2.29773,-2.13578 1.13385,-0.73532 -1.16389,1.40047 -2.6127,3.4463 -3.21959,4.5463 -0.6069,1.1 -1.11713,1.43089 -1.13385,0.73531 z"
         id="path3746"
         inkscape:connector-curvature="0" />
    </g>
  </g>
</svg>
