<?xml version="1.0" encoding="UTF-8" standalone="no"?>
<!-- Created with Inkscape (http://www.inkscape.org/) -->

<svg
   xmlns:dc="http://purl.org/dc/elements/1.1/"
   xmlns:cc="http://creativecommons.org/ns#"
   xmlns:rdf="http://www.w3.org/1999/02/22-rdf-syntax-ns#"
   xmlns:svg="http://www.w3.org/2000/svg"
   xmlns="http://www.w3.org/2000/svg"
   xmlns:sodipodi="http://sodipodi.sourceforge.net/DTD/sodipodi-0.dtd"
   xmlns:inkscape="http://www.inkscape.org/namespaces/inkscape"
   width="15.599673"
   height="16.022219"
   id="svg3305"
   version="1.1"
   inkscape:version="0.48.4 r9939"
   sodipodi:docname="egg-right-2.svg">
  <defs
     id="defs3307" />
  <sodipodi:namedview
     id="base"
     pagecolor="#ffffff"
     bordercolor="#666666"
     borderopacity="1.0"
     inkscape:pageopacity="0.0"
     inkscape:pageshadow="2"
     inkscape:zoom="3.959798"
     inkscape:cx="-9.9460377"
     inkscape:cy="11.295236"
     inkscape:document-units="px"
     inkscape:current-layer="layer1"
     showgrid="false"
     fit-margin-top="0"
     fit-margin-left="0"
     fit-margin-right="0"
     fit-margin-bottom="0"
     inkscape:window-width="788"
     inkscape:window-height="395"
     inkscape:window-x="0"
     inkscape:window-y="24"
     inkscape:window-maximized="0" />
  <metadata
     id="metadata3310">
    <rdf:RDF>
      <cc:Work
         rdf:about="">
        <dc:format>image/svg+xml</dc:format>
        <dc:type
           rdf:resource="http://purl.org/dc/dcmitype/StillImage" />
        <dc:title />
      </cc:Work>
    </rdf:RDF>
  </metadata>
  <g
     inkscape:label="Layer 1"
     inkscape:groupmode="layer"
     id="layer1"
     transform="translate(-480.42228,-573.4056)">
    <g
       id="g3375"
       transform="matrix(2,0,0,2,-457.50783,-561.77385)">
      <path
         style="fill:#374d42"
         d="m 469.3472,574.65366 c -0.99024,-2.58053 -0.0189,-5.03954 2.48348,-6.28711 5.65068,-2.81717 6.90648,2.6928 1.3511,5.92806 -2.83724,1.6523 -3.32093,1.69759 -3.83458,0.35905 z m 4.93881,-2.85063 c 0.58949,-0.93612 0.75299,-2.02086 0.36331,-2.41053 -0.79146,-0.79146 -4.72076,2.40547 -4.72076,3.84088 0,1.47527 3.18636,0.42933 4.35745,-1.43035 z"
         id="path3379"
         inkscape:connector-curvature="0" />
      <path
         style="fill:#2a352f"
         d="m 469.27589,573.46783 c -0.79476,-2.07113 2.45686,-5.49564 5.05766,-5.32658 1.95777,0.12726 1.94748,0.16459 -0.15718,0.56984 -2.4316,0.4682 -4.71886,3.72279 -3.73504,5.31465 0.3329,0.53863 0.33958,0.97933 0.0149,0.97933 -0.32472,0 -0.85585,-0.69176 -1.1803,-1.53724 z"
         id="path3377"
         inkscape:connector-curvature="0" />
    </g>
  </g>
</svg>
