<?xml version="1.0" encoding="UTF-8" standalone="no"?>
<!-- Created with Inkscape (http://www.inkscape.org/) -->

<svg
   xmlns:dc="http://purl.org/dc/elements/1.1/"
   xmlns:cc="http://creativecommons.org/ns#"
   xmlns:rdf="http://www.w3.org/1999/02/22-rdf-syntax-ns#"
   xmlns:svg="http://www.w3.org/2000/svg"
   xmlns="http://www.w3.org/2000/svg"
   xmlns:sodipodi="http://sodipodi.sourceforge.net/DTD/sodipodi-0.dtd"
   xmlns:inkscape="http://www.inkscape.org/namespaces/inkscape"
   id="svg3090"
   version="1.1"
   inkscape:version="0.48.4 r9939"
   width="80.557167"
   height="86.135796"
   sodipodi:docname="hare.svg"
   inkscape:export-filename="/home/pawel/Obrazy/NuPagadi/after/hare.png"
   inkscape:export-xdpi="89.377525"
   inkscape:export-ydpi="89.377525">
  <metadata
     id="metadata3096">
    <rdf:RDF>
      <cc:Work
         rdf:about="">
        <dc:format>image/svg+xml</dc:format>
        <dc:type
           rdf:resource="http://purl.org/dc/dcmitype/StillImage" />
        <dc:title />
      </cc:Work>
    </rdf:RDF>
  </metadata>
  <defs
     id="defs3094" />
  <sodipodi:namedview
     pagecolor="#ffffff"
     bordercolor="#666666"
     borderopacity="1"
     objecttolerance="10"
     gridtolerance="10"
     guidetolerance="10"
     inkscape:pageopacity="0"
     inkscape:pageshadow="2"
     inkscape:window-width="1280"
     inkscape:window-height="1000"
     id="namedview3092"
     showgrid="false"
     inkscape:zoom="2"
     inkscape:cx="188.27809"
     inkscape:cy="68.224942"
     inkscape:window-x="0"
     inkscape:window-y="24"
     inkscape:window-maximized="1"
     inkscape:current-layer="svg3090"
     fit-margin-top="0"
     fit-margin-left="0"
     fit-margin-right="0"
     fit-margin-bottom="0" />
  <g
     id="g3100"
     transform="matrix(2,0,0,2,-2,-1.9097042)">
    <path
       style="fill:#3c4942"
       d="m 13.644709,42.5 c -1.092724,-0.55 -2.187211,-1.60721 -2.432192,-2.349355 -0.353352,-1.070444 0.04372,-1.043294 1.921031,0.131349 2.576846,1.612349 15.508331,3.106475 16.266657,1.879477 0.257306,-0.416329 0.09126,-1.366256 -0.36898,-2.110948 C 28.365397,38.973191 27.136521,38.90571 23.016904,39.72026 18.3431,40.644386 17.653814,40.544786 15.93187,38.696496 14.322265,36.968788 13.67104,36.832227 11.762173,37.82212 9.3928007,39.050821 7.0173654,39.42374 3.25,39.158444 1.6494527,39.045734 1,38.36754 1,36.80887 c 0,-2.083153 0.066442,-2.100264 1.3482961,-0.347224 0.7415629,1.014147 1.8665629,1.523598 2.5,1.132112 1.4611008,-0.90301 1.5122173,-9.833245 0.064572,-11.28089 -0.782843,-0.782843 -0.782843,-1.275194 0,-1.759017 C 6.5981804,23.51227 6.1942214,21.711493 4.4273512,22.389504 3.3111868,22.817817 2.9523311,22.486041 3.1910462,21.246493 3.3764886,20.283568 4.4185503,19.5 5.513695,19.5 c 1.6415144,0 1.9395552,0.584006 1.7169841,3.364403 -0.2120965,2.649546 0.050912,3.241518 1.2378207,2.786058 0.8289279,-0.318089 3.6501222,-0.863553 6.2693212,-1.212142 4.429546,-0.589528 4.769786,-0.839872 4.871089,-3.584074 0.06529,-1.768697 1.244825,-4.135914 2.945169,-5.910692 l 2.83626,-2.960416 -2.251818,-4.63492 C 20.419756,1.7521809 21.343989,-0.0635496 26.013966,1.6991698 27.659073,2.3201284 29,2.4162133 29,1.9131359 29,0.23121541 31.90059,0.97692249 33.961045,3.1885614 35.146942,4.4614729 36,6.7386474 36,8.6314013 36,11.614701 39.440635,19.07002 41.161096,19.814691 41.839586,20.108364 37.949091,27.961594 35.743737,30.75 35.199993,31.4375 32.833356,32 30.484544,32 c -2.7548,0 -4.462836,0.501047 -4.812273,1.411666 -0.297939,0.776416 -2.146084,1.991816 -4.106989,2.700888 C 19.604377,36.821627 18,37.761377 18,38.200888 c 0,1.285672 4.339398,0.857325 6.287961,-0.620692 3.212563,-2.43678 8.478012,1.260134 7.059556,4.956572 -0.472793,1.23208 -2.089229,1.479913 -8.152875,1.25 C 19.034904,43.629046 14.737434,43.05 13.644709,42.5 z M 24,30.92612 c 0,-2.164824 1.085495,-3.089679 2.407991,-2.051639 C 27.794109,29.962459 33,30.929066 33,30.098457 c 0,-0.34331 -1.0125,-1.07322 -2.25,-1.622022 -1.245943,-0.552547 -2.183918,-1.798604 -2.101916,-2.792302 0.08145,-0.986964 -0.628901,-2.279716 -1.57855,-2.872781 C 25.465281,21.80948 25.498353,21.565312 27.53612,19.366525 28.773549,18.031317 30.877801,17 32.364671,17 c 2.823364,0 3.324279,0.91105 1.502546,2.732783 -0.62303,0.62303 -0.84187,1.890886 -0.486312,2.817457 0.558105,1.454398 0.92798,1.326794 2.705961,-0.933542 2.849869,-3.623023 2.115761,-5.78996 -2.723947,-8.040535 C 29.532434,11.7949 25.095531,6.5711359 26.34868,5.3179869 c 0.29895,-0.2989504 1.466113,0.9697046 2.593695,2.8192334 1.127582,1.8495288 2.051831,2.7936717 2.053887,2.0980947 0.0052,-1.7709631 -6.6815,-8.88341 -7.542362,-8.0225482 -0.388295,0.3882944 0.427071,2.8729285 1.811924,5.5214091 l 2.517914,4.8154191 -2.92228,2.922281 c -3.456777,3.456777 -4.596952,7.120764 -3.007747,9.665486 1.581995,2.533176 1.437189,4.489035 -0.557775,7.533735 -1.693676,2.584876 -1.690627,2.59234 0.5,1.22427 C 23.008171,33.138314 24,31.802152 24,30.92612 z M 35.595492,26.154509 C 34.816884,24.894695 29,24.955758 29,26.223745 c 0,0.505663 1.2375,0.779605 2.75,0.608762 2.011415,-0.227198 2.663672,0.0893 2.428571,1.178434 -0.245224,1.136035 -0.04066,1.213368 0.862868,0.326191 0.651363,-0.639577 0.900687,-1.621757 0.554053,-2.182623 z m 2.21138,-3.68097 c -0.307887,-0.307888 -0.867048,0.247112 -1.242579,1.233333 -0.542685,1.425198 -0.427821,1.540062 0.559795,0.559795 0.683418,-0.678334 0.990671,-1.485241 0.682784,-1.793128 z M 31,19.881966 c 0,-0.55 -0.45,-0.721885 -1,-0.381966 -0.55,0.339919 -1,1.068034 -1,1.618034 0,0.55 0.45,0.721885 1,0.381966 0.55,-0.339919 1,-1.068034 1,-1.618034 z M 33.446791,5.5591375 C 32.524545,4.1516119 31.34141,3 30.817602,3 c -1.197557,0 -0.123473,3.7134264 2.024703,7 1.616112,2.472548 1.637609,2.475943 1.957677,0.309137 0.177991,-1.2049739 -0.430944,-3.3424739 -1.353191,-4.7499995 z"
       id="path3112"
       inkscape:connector-curvature="0" />
    <path
       style="fill:#35433c"
       d="M 17.768866,43.265731 C 14.460135,43.004332 12.616128,42.290033 11.635409,40.88986 10.797912,39.694167 9.279889,38.973008 7.8665422,39.099406 2.4760899,39.581482 0.99656836,39.066561 1.1160014,36.75 1.2077886,34.969665 1.3297592,34.877211 1.7003193,36.307086 1.9676831,37.338759 2.8833735,37.974823 3.8343179,37.789423 5.2127568,37.520676 5.5077621,36.126364 5.5450115,29.704009 5.5807764,23.537604 5.3090671,22.051158 4.2223627,22.468166 3.3274472,22.811577 2.9709628,22.389294 3.1910462,21.246493 3.3764886,20.283568 4.4185503,19.5 5.513695,19.5 c 1.6413625,0 1.9395626,0.584058 1.7171449,3.363217 -0.243776,3.046037 -0.055159,3.309895 2,2.797817 C 10.478878,25.350063 13.4125,24.791602 15.75,24.420008 19.679493,23.795335 20,23.513055 20,20.676911 c 0,-1.968689 0.965423,-4.075158 2.695169,-5.880624 l 2.69517,-2.81315 -2.213868,-4.5568062 C 21.958844,4.9200876 21.222576,2.4488819 21.540319,1.9347625 22.362826,0.60391762 25.378485,0.77848546 26.841641,2.2416408 27.830495,3.2304952 28.252977,3.2087085 28.916795,2.1346286 30.993047,-1.2248173 36,3.9744484 36,9.4898928 c 0,2.3176112 3.682719,9.6849092 5.161096,10.3247982 0.649856,0.281279 -3.156641,8.061828 -5.253052,10.737331 -0.453376,0.578612 -2.66253,1.160485 -4.909232,1.29305 -2.442878,0.144141 -4.861333,1.017449 -6.016426,2.172542 -1.062333,1.062333 -3.06796,2.216744 -4.45695,2.565358 C 19.136446,36.931586 18,37.618032 18,38.108408 c 0,1.36456 4.387629,1.059854 6.449611,-0.447904 3.245931,-2.373483 8.094963,1.253507 6.804299,5.089496 -0.415827,1.235883 -3.079863,1.337769 -13.485044,0.515731 z M 29.375,42.202254 c 0.271169,-0.43876 0.185226,-1.259084 -0.190983,-1.822941 -1.041966,-1.561686 -4.045092,-2.413115 -4.711009,-1.335639 -1.107978,1.792746 -6.785334,1.011539 -9.211227,-1.267469 -2.003472,-1.882165 -2.507099,-1.997383 -3.278287,-0.75 -1.495085,2.418272 1.550668,4.398752 7.792407,5.06696 8.903583,0.953172 9.076215,0.955133 9.599099,0.109089 z M 24,31.131483 c 0,-2.580837 1.086494,-3.304648 2.811219,-1.872807 C 28.307126,30.500556 33,31.088167 33,30.033594 33,29.725959 31.9875,29.025237 30.75,28.476435 29.504057,27.923888 28.566082,26.677831 28.648084,25.684133 28.729531,24.697169 28.019183,23.404417 27.069534,22.811352 25.465281,21.80948 25.498353,21.565312 27.53612,19.366525 28.773549,18.031317 30.877801,17 32.364671,17 c 2.823364,0 3.324279,0.91105 1.502546,2.732783 -0.62303,0.62303 -0.863909,1.833454 -0.535286,2.689832 0.496681,1.29433 1.026465,1.12808 3.139855,-0.98531 1.965227,-1.965227 2.322965,-2.952299 1.575894,-4.348215 C 36.902653,14.949588 32.641515,12 30.695698,12 29.939631,12 28.791505,10.7625 28.144308,9.25 L 26.967586,6.5 28.983793,8.860784 C 31.695121,12.035488 31.546421,10.424259 28.75,6.3275386 26.558837,3.1175127 24.207287,1.4593797 23.230827,2.4358397 22.965223,2.701444 23.870836,5.0745363 25.243301,7.7093783 L 27.738692,12.5 24.8737,15.308561 c -3.546235,3.476387 -4.536782,7.083941 -2.823882,10.284525 1.1062,2.066954 1.049295,2.975861 -0.373059,5.958568 -1.64662,3.452997 -1.64052,3.499319 0.322436,2.448777 C 23.099638,33.411492 24,32.120465 24,31.131483 z M 35.553851,26.087132 C 34.684286,24.680148 29,24.666646 29,26.071566 c 0,0.589361 1.2375,0.931784 2.75,0.760941 2.011415,-0.227198 2.663672,0.0893 2.428571,1.178434 -0.245224,1.136035 -0.04066,1.213368 0.862868,0.326191 0.651363,-0.639577 0.881948,-1.652077 0.512412,-2.25 z M 38,23.5 C 38,22.675 37.823145,22 37.606989,22 37.390833,22 36.954956,22.675 36.638374,23.5 36.321791,24.325 36.498646,25 37.031385,25 37.564123,25 38,24.325 38,23.5 z M 31,19.940983 C 31,19.423442 30.55,19 30,19 c -0.55,0 -1,0.701558 -1,1.559017 0,0.857459 0.45,1.280902 1,0.940983 0.55,-0.339919 1,-1.041476 1,-1.559017 z M 35,9.9648167 C 35,7.6195191 32.225962,3 30.817602,3 29.907586,3 30.246564,4.7721084 32.10878,9.75 33.158277,12.555414 35,12.692253 35,9.9648167 z"
       id="path3110"
       inkscape:connector-curvature="0" />
    <path
       style="fill:#2b3932"
       d="m 20,43 c -2.430833,-0.778489 -2.417,-0.80064 0.5,-0.80064 1.65,0 4.125,0.360288 5.5,0.80064 2.430833,0.778489 2.417,0.80064 -0.5,0.80064 -1.65,0 -4.125,-0.360288 -5.5,-0.80064 z m 9.333333,-2 c 0,-1.65 0.322516,-3 0.716702,-3 0.940152,0 1.740102,3.156277 1.203875,4.75 -0.77883,2.314767 -1.920577,1.274425 -1.920577,-1.75 z M 11.673246,40.943881 C 10.802356,39.700511 9.2976299,38.971421 7.8665422,39.099406 3.950935,39.449585 1,39.050425 1,38.170599 1,37.714428 2.0125,37.376928 3.25,37.420599 5.3972527,37.496374 5.5063199,37.12326 5.6383955,29.25 5.7655972,21.667282 5.0215584,19.110984 3.6009674,22.25 3.2898329,22.9375 3.1450005,22.605168 3.2791176,21.511484 3.5822582,19.039466 6.5281522,18.328001 7.3705867,20.52335 7.7128193,21.415194 7.4929984,23.078824 6.8820959,24.220306 5.8352688,26.17632 5.9649263,26.256923 9.135682,25.621273 10.986057,25.250323 14.1875,24.676271 16.25,24.345601 19.674517,23.796567 20,23.467345 20,20.552527 c 0,-2.158321 0.80951,-3.895716 2.5,-5.365578 2.822437,-2.454078 3.118334,-4.785343 0.968197,-7.6280786 C 21.368563,4.7829069 21.559935,1 23.8,1 c 0.99,0 2.39625,0.5625 3.125,1.25 1.06,1 1.416667,1 1.783333,0 0.629706,-1.71737929 2.831354,-1.56745626 4.720238,0.3214286 2.310711,2.3107102 1.917209,4.0514728 -0.434702,1.9230231 -2.802268,-2.536018 -3.509763,-1.2515875 -1.746162,3.1700904 1.858471,4.6595349 3.708056,5.4542369 3.883934,1.6687912 L 35.263282,6.5 l 0.639831,3 c 0.793989,3.72281 4.190516,10.5 5.262289,10.5 0.888289,0 -3.681952,8.734885 -5.685624,10.866665 -1.076907,1.14576 -1.469428,1.021191 -2.428401,-0.770667 -1.213729,-2.267873 -0.554946,-4.525255 1.034033,-3.543212 0.520968,0.321976 0.688316,1.004316 0.371885,1.516312 C 34.140864,28.581094 34.39152,29 35.014307,29 c 0.622788,0 0.98316,-0.7875 0.800828,-1.75 C 35.448575,25.314999 29,24.072281 29,25.936642 29,26.521489 29.45,27 30,27 c 0.55,0 1,0.5051 1,1.122445 0,0.760817 -0.49793,0.709199 -1.545509,-0.160214 C 28.604461,27.256769 28.141888,26.07263 28.42655,25.330811 28.711213,24.588992 28.110714,23.46158 27.092109,22.82545 25.346196,21.73511 25.399033,21.535116 28.014405,19.334425 29.540274,18.050491 31.736252,17 32.894356,17 35.090976,17 35.725099,18.43383 34,19.5 32.911742,20.17258 32.601576,24 33.635329,24 33.98476,24 35.336931,22.849473 36.640154,21.443273 38.44749,19.493124 38.78089,18.459106 38.045431,17.08489 36.902292,14.948913 32.639913,12 30.695698,12 29.939631,12 28.791505,10.7625 28.144308,9.25 L 26.967586,6.5 28.983793,8.860784 c 2.590947,3.033749 2.588873,1.801877 -0.004,-2.3935265 -1.943166,-3.1441085 -4.71347,-5.0668845 -5.7733,-4.007055 -0.279004,0.2790039 0.610317,2.6613983 1.976268,5.2942099 l 2.483548,4.7869306 -2.828786,2.78789 c -3.513457,3.462662 -4.49448,7.07466 -2.787676,10.263853 1.1062,2.066954 1.049295,2.975861 -0.373059,5.958568 -1.64662,3.452997 -1.64052,3.499319 0.322436,2.448777 C 23.099638,33.411492 24,32.072023 24,31.023833 c 0,-2.589946 1.501776,-3.329082 3.027876,-1.490245 0.722045,0.870011 2.04343,1.261168 3.113307,0.921602 C 31.163532,30.130709 32,30.345549 32,30.932612 32,31.519676 30.82746,32 29.394356,32 27.961252,32 25.451725,33.125 23.817631,34.5 22.183536,35.875 20.206076,37 19.423275,37 18.640474,37 18,37.45 18,38 c 0,1.564152 5.61273,1.171559 6.990862,-0.48899 C 26.27376,35.965214 28,36.340962 28,38.166006 28,38.74239 27.339411,38.960486 26.532025,38.650663 25.724639,38.34084 24.798081,38.517695 24.473008,39.043674 23.343083,40.871931 17.09355,40.122659 15.767927,38 c -1.360458,-2.17844 -3.276041,-2.604906 -4.295,-0.956195 -0.800645,1.295472 1.281831,3.905989 3.992355,5.004671 1.980283,0.802687 1.97604,0.826447 -0.158578,0.888138 -1.206313,0.03486 -2.841369,-0.861868 -3.633458,-1.992733 z M 38,23.440983 C 38,22.583524 37.55,22.160081 37,22.5 36.45,22.839919 36,23.541476 36,24.059017 36,24.576558 36.45,25 37,25 c 0.55,0 1,-0.701558 1,-1.559017 z m -7,-3.5 C 31,19.423442 30.55,19 30,19 c -0.55,0 -1,0.701558 -1,1.559017 0,0.857459 0.45,1.280902 1,0.940983 0.55,-0.339919 1,-1.041476 1,-1.559017 z"
       id="path3108"
       inkscape:connector-curvature="0" />
    <path
       style="fill:#24322b"
       d="m 29.393519,41.00228 c 0.05856,-1.648745 0.391497,-2.998745 0.73985,-3 0.872648,-0.0031 1.633857,3.222092 1.120541,4.74772 -0.792324,2.354872 -1.966922,1.251411 -1.860391,-1.74772 z M 11.767927,41 C 10.803119,39.455097 9.4358995,39 5.7594532,39 3.1417539,39 1,38.62677 1,38.170599 1,37.714428 2.0125,37.376928 3.25,37.420599 5.3972527,37.496374 5.5063199,37.12326 5.6383955,29.25 5.7655972,21.667282 5.0215584,19.110984 3.6009674,22.25 3.2898329,22.9375 3.1450005,22.605168 3.2791176,21.511484 3.5822582,19.039466 6.5281522,18.328001 7.3705867,20.52335 7.7128193,21.415194 7.51847,23.03123 6.9386995,24.114541 5.8178491,26.208869 5.4564037,26.19578 17.977836,24.514303 c 0.81281,-0.109151 1.755148,-1.554356 2.094084,-3.211568 0.647425,-3.165555 3.851384,-8.217714 5.245468,-8.27131 0.449563,-0.01728 0.515521,-1.043925 0.146572,-2.281425 -0.645344,-2.1645682 -0.615015,-2.1768252 0.798761,-0.322811 1.338451,1.755235 1.220401,2.136855 -1.323055,4.277032 -3.384796,2.848118 -4.643302,7.612505 -2.880763,10.905839 1.038735,1.940895 1.018272,2.875025 -0.112408,5.131397 -0.760276,1.517199 -1.561325,3.13974 -1.780109,3.605649 -0.218785,0.465908 0.548963,0.340418 1.706105,-0.278865 1.157142,-0.619284 2.386026,-2.250075 2.730855,-3.623981 0.507254,-2.021062 0.897732,-2.273292 2.045119,-1.321045 1.201588,0.997229 1.069469,1.549762 -0.865154,3.618137 -1.255821,1.342645 -3.943416,3.246031 -5.972433,4.229747 -3.033824,1.470872 -3.783175,1.543476 -4.218615,0.408739 -0.645123,-1.681163 -3.206445,-1.813122 -4.19349,-0.216049 -0.414578,0.6708 0.431256,2.153421 1.996747,3.5 C 15.261224,42.2686 15.627116,43 14.564238,43 c -0.85101,0 -2.10935,-0.9 -2.796311,-2 z M 19.75,42.337719 c 0.6875,-0.277412 1.8125,-0.277412 2.5,0 0.6875,0.277413 0.125,0.504386 -1.25,0.504386 -1.375,0 -1.9375,-0.226973 -1.25,-0.504386 z m 0.75,-3.071215 c 1.65,-0.238607 3.7319,-1.09061 4.626445,-1.893339 1.426918,-1.280461 1.696692,-1.276445 2.199072,0.03274 0.37395,0.974499 0.104956,1.312782 -0.775294,0.974998 -0.741357,-0.284486 -1.644997,-0.03657 -2.008089,0.550927 -0.363093,0.587496 -2.09611,1.00075 -3.851151,0.918342 L 17.5,39.700336 l 3,-0.433832 z M 29.5,31 c 0.339919,-0.55 1.041476,-1 1.559017,-1 C 31.576558,30 32,30.45 32,31 32,31.55 31.298442,32 30.440983,32 29.583524,32 29.160081,31.55 29.5,31 z m 3.210251,-2 c -0.347296,-1.32806 -0.03068,-2 0.942386,-2 0.805968,0 1.187282,0.45 0.847363,1 -0.339919,0.55 -0.10848,1 0.514307,1 2.612661,0 0.268407,-3.462449 -2.764181,-4.08268 -1.78079,-0.36421 -3.930563,-1.237143 -4.777274,-1.939851 -1.367851,-1.135216 -1.293365,-1.539622 0.668151,-3.62756 C 29.355197,18.057459 31.485187,17 32.874314,17 c 1.964422,0 2.259019,0.266667 1.325686,1.2 -1.339456,1.339456 -1.647079,5.8 -0.4,5.8 0.44,0 1.366661,-0.5625 2.059246,-1.25 1.009661,-1.002248 1.127197,-0.903147 0.593011,0.5 -0.370169,0.972323 -0.203821,1.75 0.374332,1.75 0.572311,0 1.182956,-1.13899 1.356989,-2.531089 0.174032,-1.392099 0.766422,-2.404599 1.316422,-2.25 1.499504,0.421494 0.799837,3.346738 -1.737248,7.263282 C 35.208335,31.425491 33.480284,31.94461 32.710251,29 z m -1.939418,-8.8125 c 0.599954,-1.799861 -1.467002,-1.421654 -2.164524,0.39606 -0.373726,0.973914 -0.150239,1.431083 0.580511,1.1875 0.653499,-0.217833 1.366305,-0.930435 1.584013,-1.58356 z m -1.790889,7.288334 c -0.69572,-0.838291 -1.071285,-1.717826 -0.83459,-1.954522 0.236696,-0.236695 0.979634,0.44918 1.650975,1.524166 1.451813,2.324723 0.967628,2.57996 -0.816385,0.430356 z M 36.361086,15.37494 c -1.741118,-1.812141 -1.992631,-2.844438 -1.352362,-5.5505527 0.75286,-3.181983 0.790938,-3.2050805 0.888915,-0.539204 0.0563,1.5318507 0.838317,3.9083947 1.737819,5.2812087 2.115572,3.22877 1.454178,3.648402 -1.274372,0.808548 z M 28.133107,9.25 26.945185,6.5 29.035275,9 31.125366,11.5 30.460358,9.1399219 C 28.884583,3.5475802 22.061542,-0.87525093 23.431674,4.5837888 23.85218,6.2592201 23.714512,6.9415927 23.040082,6.5247718 22.468037,6.1712286 22,4.7835237 22,3.440983 22,0.72841282 24.636336,0.09088348 26.925,2.25 c 1.06,1 1.416667,1 1.783333,0 0.658788,-1.79669343 2.719744,-1.53944917 4.636679,0.5787407 2.332783,2.5776961 2.064236,3.8515988 -0.351143,1.665711 C 30.133029,1.9054273 29.491354,3.2715027 31.366723,7.9585129 32.902965,11.797958 32.892251,12 31.152418,12 30.109188,12 28.809794,10.816507 28.133107,9.25 z"
       id="path3106"
       inkscape:connector-curvature="0" />
    <path
       style="fill:#212c26"
       d="M 12.44113,41.444834 C 10.610824,39.978456 10.642732,39.957643 13,41.080288 16.061032,42.5381 16.628339,43 15.357796,43 14.821251,43 13.508751,42.300175 12.44113,41.444834 z m 7.37137,0.872052 c 0.721875,-0.288871 1.584375,-0.253344 1.916667,0.07895 0.332291,0.332292 -0.258334,0.568641 -1.3125,0.52522 -1.164943,-0.04798 -1.4019,-0.284941 -0.604167,-0.604167 z M 19.75,39.337719 c 0.6875,-0.277412 1.8125,-0.277412 2.5,0 0.6875,0.277413 0.125,0.504386 -1.25,0.504386 -1.375,0 -1.9375,-0.226973 -1.25,-0.504386 z M 1,38.163401 c 0,-0.452212 1.0125,-0.786473 2.25,-0.742802 2.1081124,0.07439 2.2583688,-0.349375 2.3827086,-6.719974 0.07299,-3.739657 0.482188,-7.114657 0.9093294,-7.5 0.4271415,-0.385344 0.5119372,0.04025 0.1884349,0.945766 -0.6031803,1.688361 -0.8379246,1.670276 12.0195271,0.92597 0.6875,-0.0398 1.293199,-1.309861 1.345997,-2.822361 0.06908,-1.978811 0.444591,-1.347838 1.339057,2.25 1.026138,4.127465 1.002133,5.39757 -0.137557,7.278246 -0.75934,1.253035 -1.108005,2.719341 -0.774813,3.258458 0.942594,1.525149 -3.730606,2.850394 -5.704469,1.617696 -1.282341,-0.800835 -2.155081,-0.675937 -3.512276,0.502644 C 9.4310125,38.785221 1,39.608494 1,38.163401 z m 9.604167,-5.892568 c -1.0165159,-1.016515 -1.8552484,0.513892 -1.0212178,1.863382 0.6300348,1.019417 0.8655768,1.020206 1.2043018,0.004 0.231595,-0.694785 0.149207,-1.535121 -0.183084,-1.867413 z m 12.129166,1.605079 c 0.678334,-0.683418 1.485241,-0.990671 1.793128,-0.682784 0.307888,0.307887 -0.247112,0.867048 -1.233333,1.242579 -1.425198,0.542685 -1.540062,0.427821 -0.559795,-0.559795 z M 35.680738,28.112859 C 36.214468,26.071872 35.216452,25.119432 31.868453,24.474666 28.965487,23.915606 28.41131,23.18869 29.816667,21.783333 30.4675,21.1325 31,19.9599 31,19.177555 c 0,-1.190014 -0.285953,-1.207134 -1.75,-0.104768 -1.613307,1.214752 -1.627175,1.182391 -0.177541,-0.4143 2.326921,-2.562975 4.663324,-1.218339 4.135218,2.379881 -0.43408,2.95757 0.156468,3.381538 4.507548,3.236073 0.886597,-0.02964 0.812046,0.739035 -0.27568,2.842466 -1.710541,3.307822 -2.476851,3.741757 -1.758807,0.995952 z M 3.1160014,21.718615 c -0.1459844,-2.241821 2.799547,-3.473295 3.9305504,-1.643293 1.1582457,1.874081 0.3141937,2.46896 -1.4388349,1.014075 -1.1554134,-0.958908 -1.5331767,-0.83864 -1.9081646,0.607499 -0.4423499,1.705921 -0.4738018,1.707092 -0.5835509,0.02172 z M 23.564293,14.706872 c 0.375531,-0.986221 0.934692,-1.541221 1.242579,-1.233333 0.307887,0.307887 6.34e-4,1.114794 -0.682784,1.793128 -0.987616,0.980267 -1.10248,0.865403 -0.559795,-0.559795 z M 35,10.5 c 0,-4.5045256 0.663915,-4.5045256 1.189793,0 0.224733,1.925 0.04897,3.5 -0.390594,3.5 C 35.35964,14 35,12.425 35,10.5 z M 26.694236,3.4289667 C 25.151066,2.093035 24.273566,1 24.744236,1 c 0.47067,0 1.414502,0.5587384 2.097405,1.2416408 0.988854,0.9888544 1.416206,0.9591877 2.099075,-0.1457173 0.564423,-0.9132551 1.489952,-1.11381093 2.708359,-0.5868825 1.66482,0.71999 1.68115,0.8413706 0.162409,1.2072008 -0.928685,0.2236989 -1.828685,1.0220927 -2,1.7742084 -0.226403,0.9939583 -1.077872,0.7040166 -3.117248,-1.0614835 z"
       id="path3104"
       inkscape:connector-curvature="0" />
    <path
       style="fill:#1d2b24"
       d="m 19.8125,42.316886 c 0.721875,-0.288871 1.584375,-0.253344 1.916667,0.07895 0.332291,0.332292 -0.258334,0.568641 -1.3125,0.52522 -1.164943,-0.04798 -1.4019,-0.284941 -0.604167,-0.604167 z M 5.5642929,37.706872 c 0.3755314,-0.986221 0.9346919,-1.541221 1.242579,-1.233333 0.3078871,0.307887 6.342e-4,1.114794 -0.6827842,1.793128 C 5.1364719,39.246934 5.0216083,39.13207 5.5642929,37.706872 z M 20.078947,22.416667 c 0.04798,-1.164943 0.284941,-1.4019 0.604167,-0.604167 0.288871,0.721875 0.253344,1.584375 -0.07895,1.916667 -0.332292,0.332291 -0.568641,-0.258334 -0.52522,-1.3125 z M 5,20 c 0,-0.55 0.45,-1 1,-1 0.55,0 1,0.45 1,1 0,0.55 -0.45,1 -1,1 C 5.45,21 5,20.55 5,20 z M 27.168703,3.7032752 C 26.373123,2.74466 26.592997,2.4285714 28.055397,2.4285714 c 2.02721,0 2.585939,1.0570274 1.05791,2.0014011 -0.487681,0.3014036 -1.362753,-0.02561 -1.944604,-0.7266973 z"
       id="path3102"
       inkscape:connector-curvature="0" />
  </g>
</svg>
