<?xml version="1.0" encoding="UTF-8" standalone="no"?>
<!-- Created with Inkscape (http://www.inkscape.org/) -->

<svg
   xmlns:dc="http://purl.org/dc/elements/1.1/"
   xmlns:cc="http://creativecommons.org/ns#"
   xmlns:rdf="http://www.w3.org/1999/02/22-rdf-syntax-ns#"
   xmlns:svg="http://www.w3.org/2000/svg"
   xmlns="http://www.w3.org/2000/svg"
   xmlns:sodipodi="http://sodipodi.sourceforge.net/DTD/sodipodi-0.dtd"
   xmlns:inkscape="http://www.inkscape.org/namespaces/inkscape"
   width="149.99968"
   height="28.245724"
   id="svg2"
   version="1.1"
   inkscape:version="0.48.4 r9939"
   sodipodi:docname="logo-nerd.svg">
  <defs
     id="defs4" />
  <sodipodi:namedview
     id="base"
     pagecolor="#ffffff"
     bordercolor="#666666"
     borderopacity="1.0"
     inkscape:pageopacity="0.0"
     inkscape:pageshadow="2"
     inkscape:zoom="1"
     inkscape:cx="227.19377"
     inkscape:cy="-66.656805"
     inkscape:document-units="px"
     inkscape:current-layer="layer1"
     showgrid="false"
     showguides="true"
     inkscape:guide-bbox="true"
     fit-margin-top="0"
     fit-margin-left="0"
     fit-margin-right="0"
     fit-margin-bottom="0"
     inkscape:window-width="1280"
     inkscape:window-height="1000"
     inkscape:window-x="0"
     inkscape:window-y="24"
     inkscape:window-maximized="1">
    <sodipodi:guide
       orientation="0,1"
       position="235.61641,-0.08001192"
       id="guide3784" />
  </sodipodi:namedview>
  <metadata
     id="metadata7">
    <rdf:RDF>
      <cc:Work
         rdf:about="">
        <dc:format>image/svg+xml</dc:format>
        <dc:type
           rdf:resource="http://purl.org/dc/dcmitype/StillImage" />
        <dc:title />
      </cc:Work>
    </rdf:RDF>
  </metadata>
  <g
     inkscape:label="Layer 1"
     inkscape:groupmode="layer"
     id="layer1"
     transform="translate(-143.82951,-751.79127)">
    <path
       sodipodi:type="arc"
       style="fill:none;stroke:#000000;stroke-width:40.5;stroke-miterlimit:4;stroke-opacity:1;stroke-dasharray:none"
       id="path3797"
       sodipodi:cx="434.90869"
       sodipodi:cy="330.80914"
       sodipodi:rx="207.57005"
       sodipodi:ry="207.57005"
       d="m 642.47874,330.80914 c 0,114.63778 -92.93227,207.57006 -207.57005,207.57006 -114.63777,0 -207.57005,-92.93228 -207.57005,-207.57006 0,-114.63777 92.93228,-207.57005 207.57005,-207.57005 114.63778,0 207.57005,92.93228 207.57005,207.57005 z"
       transform="matrix(0.06199336,0,0,0.06199336,130.99107,745.40595)"
       inkscape:export-filename="/home/pawel/Obrazy/blog/logo.png"
       inkscape:export-xdpi="4.9382715"
       inkscape:export-ydpi="4.9382715" />
    <path
       style="font-size:medium;font-style:normal;font-variant:normal;font-weight:normal;font-stretch:normal;text-indent:0;text-align:start;text-decoration:none;line-height:normal;letter-spacing:normal;word-spacing:normal;text-transform:none;direction:ltr;block-progression:tb;writing-mode:lr-tb;text-anchor:start;baseline-shift:baseline;color:#000000;fill:#000000;fill-opacity:1;stroke:none;stroke-width:43.90000153;marker:none;visibility:visible;display:inline;overflow:visible;enable-background:accumulate;font-family:Sans;-inkscape-font-specification:Sans"
       d="m 157.16943,756.08456 c -0.7324,0 -1.32172,0.58932 -1.32172,1.32172 l 0,6.77784 -1.61627,2.80732 -2.79447,4.85203 a 0.75240696,0.75240696 0 0 0 0.65337,1.12786 l 5.59857,-0.007 5.59857,-0.007 a 0.75240696,0.75240696 0 0 0 0.65123,-1.12893 l -2.80518,-4.84452 -1.61414,-2.79019 0,-6.78748 c 0,-0.7324 -0.58931,-1.32172 -1.32171,-1.32172 l -1.02825,0 z"
       id="path3777"
       inkscape:connector-curvature="0" />
    <flowRoot
       xml:space="preserve"
       id="flowRoot3752"
       style="font-size:40px;font-style:normal;font-weight:normal;line-height:125%;letter-spacing:0px;word-spacing:0px;fill:#000000;fill-opacity:1;stroke:none;font-family:Sans"
       transform="translate(143.82919,324.39714)"><flowRegion
         id="flowRegion3754"><rect
           id="rect3756"
           width="17617.756"
           height="466.53842"
           x="474.44583"
           y="4.9165554" /></flowRegion><flowPara
         id="flowPara3758"></flowPara></flowRoot>    <flowRoot
       xml:space="preserve"
       id="flowRoot3760"
       style="font-size:500px;font-style:normal;font-weight:normal;line-height:125%;letter-spacing:0px;word-spacing:0px;fill:#000000;fill-opacity:1;stroke:none;font-family:Sans"
       transform="translate(143.82919,324.39714)"><flowRegion
         id="flowRegion3762"><rect
           id="rect3764"
           width="4159.3086"
           height="498.16812"
           x="498.16812"
           y="-10.898305"
           style="font-size:500px" /></flowRegion><flowPara
         id="flowPara3766"
         style="font-size:500px;font-style:normal;font-variant:normal;font-weight:normal;font-stretch:normal;font-family:Arial;-inkscape-font-specification:Arial">NerdLab.pl</flowPara></flowRoot>    <flowRoot
       xml:space="preserve"
       id="flowRoot3768"
       style="font-size:40px;font-style:normal;font-weight:normal;line-height:125%;letter-spacing:0px;word-spacing:0px;fill:#000000;fill-opacity:1;stroke:none;font-family:Sans"
       transform="translate(143.82919,324.39714)"><flowRegion
         id="flowRegion3770"><rect
           id="rect3772"
           width="2949.4717"
           height="1367.9855"
           x="719.57617"
           y="-18.805737" /></flowRegion><flowPara
         id="flowPara3774"></flowPara></flowRoot>    <g
       transform="matrix(0.06199336,0,0,0.06199336,138.86952,755.29333)"
       style="font-size:40px;font-style:normal;font-weight:normal;line-height:125%;letter-spacing:0px;word-spacing:0px;fill:#000000;fill-opacity:1;stroke:none;font-family:Sans"
       id="flowRoot3776">
      <path
         d="m 599.8125,303.66182 0,-286.328122 38.86719,0 150.39062,224.804692 0,-224.804692 36.32813,0 0,286.328122 -38.86719,0 -150.39063,-224.999997 0,224.999997 -36.32812,0"
         style="font-size:400px;font-variant:normal;font-stretch:normal;font-family:Arial;-inkscape-font-specification:Arial"
         id="path3787"
         inkscape:connector-curvature="0" />
      <path
         d="m 1026.7656,236.86495 36.3282,4.49219 c -5.7294,21.224 -16.3414,37.69533 -31.836,49.41406 -15.4949,11.71875 -35.28658,17.57812 -59.37499,17.57812 -30.33862,0 -54.42714,-9.30989 -72.26562,-27.92968 -17.70836,-18.74996 -26.56252,-44.98692 -26.5625,-78.71094 -2e-5,-34.8957 8.98435,-61.979 26.95312,-81.25 17.96869,-19.27063 41.27596,-28.90604 69.92188,-28.906252 27.73423,2.12e-4 50.39051,9.440312 67.96871,28.320312 17.578,18.88037 26.367,45.44285 26.3672,79.6875 -2e-4,2.08344 -0.065,5.20843 -0.1953,9.375 l -154.68749,0 c 1.30203,22.78653 7.74734,40.23443 19.33594,52.34375 11.58846,12.10941 26.04157,18.16409 43.35937,18.16406 12.8905,3e-5 23.8931,-3.38539 33.00778,-10.15625 9.1145,-6.77079 16.341,-17.57807 21.6797,-32.42187 m -115.42966,-56.83594 115.82036,0 c -1.5627,-17.44777 -5.9898,-30.5337 -13.2813,-39.25781 -11.1981,-13.54149 -25.71628,-20.31232 -43.55469,-20.3125 -16.14593,1.8e-4 -29.75268,5.40382 -40.82031,16.21094 -10.93756,10.80744 -16.99224,25.26055 -18.16406,43.35937"
         style="font-size:400px;font-variant:normal;font-stretch:normal;font-family:Arial;-inkscape-font-specification:Arial"
         id="path3789"
         inkscape:connector-curvature="0" />
      <path
         d="m 1107.0391,303.66182 0,-207.421872 31.6406,0 0,31.445312 c 8.0728,-14.71335 15.4947,-24.41386 22.2656,-29.101562 6.901,-4.68729 14.453,-7.031038 22.6563,-7.03125 11.8488,2.12e-4 23.8931,3.77625 36.1328,11.328122 l -12.1094,32.61719 c -8.5939,-5.07795 -17.1876,-7.61701 -25.7812,-7.61719 -7.6824,1.8e-4 -14.5835,2.34393 -20.7032,7.03125 -6.1198,4.55746 -10.4818,10.93766 -13.0859,19.14063 -3.9063,12.50014 -5.8594,26.172 -5.8594,41.01562 l 0,108.59375 -35.1562,0"
         style="font-size:400px;font-variant:normal;font-stretch:normal;font-family:Arial;-inkscape-font-specification:Arial"
         id="path3791"
         inkscape:connector-curvature="0" />
      <path
         d="m 1375.5938,303.66182 0,-26.17187 c -13.1512,20.57292 -32.4872,30.85937 -58.0079,30.85937 -16.5365,0 -31.7709,-4.55729 -45.7031,-13.67187 -13.8021,-9.11457 -24.5443,-21.80987 -32.2265,-38.08594 -7.5522,-16.40619 -11.3282,-35.22127 -11.3282,-56.44531 0,-20.703 3.4505,-39.45298 10.3516,-56.25 6.901,-16.92691 17.2526,-29.88262 31.0547,-38.86719 13.802,-8.984167 29.2317,-13.47635 46.289,-13.476562 12.4999,2.12e-4 23.6327,2.669481 33.3985,8.007813 9.7655,5.208529 17.7082,12.044459 23.8281,20.507809 l 0,-102.734372 34.9609,0 0,286.328122 -32.6171,0 M 1264.4609,200.1462 c 0,26.56258 5.5989,46.41933 16.7969,59.57031 11.1979,13.15107 24.414,19.72659 39.6485,19.72656 15.3644,3e-5 28.3852,-6.24997 39.0625,-18.75 10.8071,-12.63015 16.2107,-31.83586 16.2109,-57.61718 -2e-4,-28.38529 -5.4689,-49.2186 -16.4063,-62.5 -10.9376,-13.28108 -24.4141,-19.9217 -40.4296,-19.92188 -15.6251,1.8e-4 -28.7111,6.38039 -39.2579,19.14063 -10.4167,12.76056 -15.625,32.87773 -15.625,60.35156"
         style="font-size:400px;font-variant:normal;font-stretch:normal;font-family:Arial;-inkscape-font-specification:Arial"
         id="path3793"
         inkscape:connector-curvature="0" />
      <path
         d="m 1466.6094,303.66182 0,-286.328122 37.8906,0 0,252.539062 141.0156,0 0,33.78906 -178.9062,0"
         style="font-size:400px;font-variant:normal;font-stretch:normal;font-family:Arial;-inkscape-font-specification:Arial"
         id="path3795"
         inkscape:connector-curvature="0" />
      <path
         d="m 1821.6875,278.07589 c -13.021,11.06772 -25.5861,18.88021 -37.6953,23.4375 -11.9793,4.55729 -24.8699,6.83593 -38.6719,6.83593 -22.7865,0 -40.2995,-5.53385 -52.539,-16.60156 -12.2397,-11.19789 -18.3594,-25.45569 -18.3594,-42.77344 0,-10.15618 2.2786,-19.40096 6.8359,-27.73437 4.6875,-8.46345 10.7422,-15.23428 18.1641,-20.3125 7.552,-5.07802 16.0155,-8.91916 25.3906,-11.52344 6.901,-1.8228 17.3176,-3.58061 31.25,-5.27344 28.3853,-3.38529 49.2837,-7.42174 62.6953,-12.10937 0.1301,-4.81757 0.1952,-7.87747 0.1953,-9.17969 -10e-5,-14.32276 -3.3204,-24.4139 -9.9609,-30.27344 -8.9845,-7.94253 -22.3309,-11.91388 -40.0391,-11.91406 -16.5365,1.8e-4 -28.7761,2.92987 -36.7187,8.78906 -7.8126,5.72934 -13.6069,15.95068 -17.3828,30.66407 l -34.375,-4.6875 c 3.1249,-14.71338 8.2682,-26.56233 15.4297,-35.54688 7.1614,-9.11439 17.5129,-16.08053 31.0546,-20.898437 13.5416,-4.947707 29.2317,-7.421663 47.0704,-7.421875 17.7082,2.12e-4 32.0962,2.083544 43.164,6.25 11.0676,4.166872 19.2056,9.440302 24.4141,15.820312 5.2081,6.25018 8.854,14.19288 10.9375,23.82813 1.1717,5.98974 1.7576,16.79702 1.7578,32.42187 l 0,46.875 c -2e-4,32.68235 0.7159,53.38545 2.1484,62.10938 1.5623,8.59376 4.5571,16.86198 8.9844,24.80468 l -36.7187,0 c -3.646,-7.29166 -5.9898,-15.82029 -7.0313,-25.58593 m -2.9297,-78.51563 c -12.7606,5.20843 -31.9012,9.63551 -57.4219,13.28125 -14.4532,2.08342 -24.6745,4.42717 -30.664,7.03125 -5.9897,2.60425 -10.6121,6.44539 -13.8672,11.52344 -3.2553,4.94798 -4.8829,10.48183 -4.8828,16.60156 -10e-5,9.37505 3.5155,17.18754 10.5469,23.4375 7.1613,6.25003 17.578,9.37502 31.25,9.375 13.5415,2e-5 25.5858,-2.92966 36.1328,-8.78906 10.5467,-5.98955 18.2941,-14.12756 23.2422,-24.41406 3.7758,-7.94265 5.6639,-19.66139 5.664,-35.15625 l 0,-12.89063"
         style="font-size:400px;font-variant:normal;font-stretch:normal;font-family:Arial;-inkscape-font-specification:Arial"
         id="path3798"
         inkscape:connector-curvature="0" />
      <path
         d="m 1941.4141,303.66182 -32.6172,0 0,-286.328122 35.1562,0 0,102.148442 c 14.8437,-18.61959 33.789,-27.92948 56.836,-27.929692 12.7602,2.12e-4 24.8045,2.604376 36.1328,7.8125 11.4581,5.078322 20.8331,12.304882 28.125,21.679692 7.4217,9.24496 13.2159,20.44287 17.3828,33.59375 4.1665,13.15117 6.2498,27.21366 6.25,42.1875 -2e-4,35.54694 -8.7893,63.02087 -26.3672,82.42187 -17.5783,19.40105 -38.672,29.10156 -63.2812,29.10156 -24.4793,0 -43.685,-10.22135 -57.6172,-30.66406 l 0,25.97656 m -0.3907,-105.27343 c 0,24.86987 3.3854,42.8386 10.1563,53.90625 11.0676,18.09899 26.0416,27.14846 44.9219,27.14843 15.3644,3e-5 28.6457,-6.64059 39.8437,-19.92187 11.1978,-13.4114 16.7967,-33.33326 16.7969,-59.76563 -2e-4,-27.0832 -5.4038,-47.07016 -16.2109,-59.96093 -10.6773,-12.89045 -23.633,-19.33576 -38.8672,-19.33594 -15.3647,1.8e-4 -28.646,6.7059 -39.8438,20.11719 -11.198,13.2814 -16.7969,32.55221 -16.7969,57.8125"
         style="font-size:400px;font-variant:normal;font-stretch:normal;font-family:Arial;-inkscape-font-specification:Arial"
         id="path3800"
         inkscape:connector-curvature="0" />
      <path
         d="m 2141.6094,303.66182 0,-40.03906 40.039,0 0,40.03906 -40.039,0"
         style="font-size:400px;font-variant:normal;font-stretch:normal;font-family:Arial;-inkscape-font-specification:Arial"
         id="path3802"
         inkscape:connector-curvature="0" />
      <path
         d="m 2242.5859,383.15401 0,-286.914062 32.0313,0 0,26.953122 c 7.552,-10.54668 16.0806,-18.42428 25.5859,-23.632809 9.5051,-5.338332 21.0286,-8.007601 34.5703,-8.007813 17.7082,2.12e-4 33.3332,4.557499 46.875,13.671872 13.5415,9.11478 23.7629,22.00539 30.6641,38.67188 6.9008,16.5366 10.3514,34.70064 10.3516,54.49219 -2e-4,21.22404 -3.8414,40.36464 -11.5235,57.42187 -7.5522,16.92712 -18.6199,29.94794 -33.2031,39.0625 -14.4533,8.98438 -29.6876,13.47656 -45.7031,13.47656 -11.7189,0 -22.2657,-2.47396 -31.6406,-7.42187 -9.2449,-4.94791 -16.8621,-11.1979 -22.8516,-18.75 l 0,100.97656 -35.1563,0 m 31.836,-182.03125 c -10e-5,26.69278 5.4036,46.41933 16.2109,59.17969 10.8072,12.76045 23.8931,19.14065 39.2578,19.14062 15.6249,3e-5 28.9712,-6.57549 40.0391,-19.72656 11.1977,-13.28119 16.7967,-33.78898 16.7969,-61.52344 -2e-4,-26.43216 -5.469,-46.2238 -16.4063,-59.375 -10.8074,-13.15086 -23.7631,-19.72637 -38.8672,-19.72656 -14.974,1.9e-4 -28.2553,7.03143 -39.8437,21.09375 -11.4584,13.93244 -17.1876,34.24492 -17.1875,60.9375"
         style="font-size:400px;font-variant:normal;font-stretch:normal;font-family:Arial;-inkscape-font-specification:Arial"
         id="path3804"
         inkscape:connector-curvature="0" />
      <path
         d="m 2464.4609,303.66182 0,-286.328122 35.1563,0 0,286.328122 -35.1563,0"
         style="font-size:400px;font-variant:normal;font-stretch:normal;font-family:Arial;-inkscape-font-specification:Arial"
         id="path3806"
         inkscape:connector-curvature="0" />
    </g>
  </g>
</svg>
