<?xml version="1.0" encoding="UTF-8" standalone="no"?>
<!-- Created with Inkscape (http://www.inkscape.org/) -->

<svg
   xmlns:dc="http://purl.org/dc/elements/1.1/"
   xmlns:cc="http://creativecommons.org/ns#"
   xmlns:rdf="http://www.w3.org/1999/02/22-rdf-syntax-ns#"
   xmlns:svg="http://www.w3.org/2000/svg"
   xmlns="http://www.w3.org/2000/svg"
   xmlns:sodipodi="http://sodipodi.sourceforge.net/DTD/sodipodi-0.dtd"
   xmlns:inkscape="http://www.inkscape.org/namespaces/inkscape"
   width="89.454933"
   height="158.14268"
   id="svg2"
   version="1.1"
   inkscape:version="0.48.4 r9939"
   sodipodi:docname="wolf-right.svg">
  <defs
     id="defs4" />
  <sodipodi:namedview
     id="base"
     pagecolor="#ffffff"
     bordercolor="#666666"
     borderopacity="1.0"
     inkscape:pageopacity="0.0"
     inkscape:pageshadow="2"
     inkscape:zoom="7.9999996"
     inkscape:cx="-34.265276"
     inkscape:cy="63.45066"
     inkscape:document-units="px"
     inkscape:current-layer="layer1"
     showgrid="false"
     inkscape:window-width="1280"
     inkscape:window-height="1000"
     inkscape:window-x="0"
     inkscape:window-y="24"
     inkscape:window-maximized="1"
     fit-margin-top="0"
     fit-margin-left="0"
     fit-margin-right="0"
     fit-margin-bottom="0" />
  <metadata
     id="metadata7">
    <rdf:RDF>
      <cc:Work
         rdf:about="">
        <dc:format>image/svg+xml</dc:format>
        <dc:type
           rdf:resource="http://purl.org/dc/dcmitype/StillImage" />
        <dc:title />
      </cc:Work>
    </rdf:RDF>
  </metadata>
  <g
     inkscape:label="Layer 1"
     inkscape:groupmode="layer"
     id="layer1"
     transform="translate(-363.10628,-555.17993)">
    <g
       id="g3047"
       transform="matrix(2,0,0,2,-407.83374,-634.25127)">
      <path
         style="fill:#414d46"
         d="m 406.8437,672.86146 c -1.85382,-0.43781 -4.28071,-1.70614 -5.3931,-2.81852 l -2.02251,-2.02252 5.64566,-3.61149 c 3.10512,-1.98632 6.31951,-3.87007 7.1431,-4.18611 2.36211,-0.90642 1.80341,-1.65645 -3.62074,-4.86064 -5.168,-3.05288 -9.66866,-9.41785 -8.26513,-11.68881 0.44634,-0.72219 0.23603,-0.8382 -0.59191,-0.3265 -0.85608,0.52908 -1.12986,0.33054 -0.82118,-0.59549 0.25469,-0.76406 1.55057,-1.3892 2.87973,-1.3892 1.74483,0 2.50551,0.62551 2.73622,2.25 0.17575,1.2375 -0.16175,2.25 -0.75,2.25 -1.89451,0 -1.14019,3.02027 1.38499,5.54546 2.47099,2.47098 5.25459,3.41095 3.97636,1.34274 -1.01,-1.63422 1.67107,-2.90399 3.76522,-1.78324 2.18257,1.16808 2.39533,3.89504 0.30388,3.89504 -0.825,0 -1.5,0.45 -1.5,1 0,0.55 0.58529,1 1.30063,1 1.58087,0 6.69322,-2.30294 6.65976,-3 -0.0751,-1.56415 -3.09456,-4.06988 -6.58939,-5.46823 -2.24519,-0.89835 -5.6483,-3.5665 -7.73896,-6.0676 -2.05237,-2.4553 -4.08695,-4.46417 -4.5213,-4.46417 -1.51282,0 -3.11074,5.12752 -3.11074,9.98195 0,5.82621 -1.41052,10.01805 -3.371,10.01805 -2.14514,0 -7.51266,-9.0539 -8.49969,-14.33723 -0.94902,-5.07984 -0.1825,-5.77995 3.37069,-3.0787 1.90445,1.44783 2.02389,1.33882 2.5,-2.2818 0.4831,-3.67372 0.62831,-3.79828 4.29511,-3.68421 2.37113,0.0738 4.6466,0.918 6.06445,2.25 4.1901,3.9364 4.47056,2.44534 1.47993,-7.86806 -1.54234,-5.3189 -2.88047,-6.57672 -4.57916,-4.30434 -1.80515,2.41481 -2.42373,1.18315 -2.95795,-5.88965 -0.4253,-5.63071 -0.19927,-6.67485 2.11066,-9.75029 1.42283,-1.89435 2.60015,-4.36935 2.61627,-5.5 0.0247,-1.73285 5.08715,-8.55572 6.34819,-8.55572 0.22312,0 0.68804,1.125 1.03314,2.5 0.74868,2.98295 2.58936,3.33839 2.58936,0.5 0,-1.14933 0.66667,-2 1.56739,-2 1.10374,0 1.38264,0.58207 0.94286,1.96771 -0.58795,1.85244 -0.22578,1.94215 6.18261,1.53137 3.74393,-0.23998 5.95432,-0.17988 4.91199,0.13357 -1.45385,0.4372 -1.58666,0.76056 -0.57035,1.38867 0.72864,0.45032 1.3938,1.64225 1.47813,2.64872 0.0843,1.00648 0.48382,2.84246 0.88774,4.07996 0.45263,1.38672 0.32487,2.25 -0.33298,2.25 -0.58707,0 -1.06739,-0.375 -1.06739,-0.83333 0,-0.45834 -0.675,-0.83334 -1.5,-0.83334 -0.85136,0 -1.50266,0.90089 -1.50616,2.08334 -0.003,1.14583 -0.6517,3.32083 -1.4407,4.83333 -0.79107,1.51648 -0.99031,2.75 -0.44418,2.75 1.72038,0 6.69337,-2.90698 7.10971,-4.15601 0.6559,-1.9677 2.47863,-0.10751 3.1413,3.20587 0.67996,3.39978 -1.58274,8.9605 -3.63565,8.93483 -0.79765,-0.01 -0.70158,-0.38501 0.27568,-1.07613 1.33333,-0.94295 1.33333,-1.01502 0,-0.6486 -0.825,0.22672 -1.50341,1.19454 -1.50758,2.15071 -0.01,2.27422 -3.0338,3.91015 -6.13265,3.31777 -2.19695,-0.41997 -2.40835,-0.18841 -1.96323,2.15046 0.27436,1.4416 0.80047,6.40429 1.16913,11.0282 0.54514,6.83721 1.08234,8.7979 2.87683,10.5 2.63581,2.50008 3.62669,4.86292 2.68099,6.39308 -0.3803,0.61535 -3.37617,2.34003 -6.65747,3.83263 l -5.96602,2.71382 4.62832,0.72639 c 2.54558,0.3995 5.6686,1.28311 6.94005,1.96357 l 2.31173,1.2372 -2.30083,1.86311 c -2.46226,1.99381 -9.53876,2.37643 -15.94986,0.86238 z m 13.99815,-1.663 c 1.2554,-1.52184 1.15924,-1.55293 -1.12756,-0.36455 -3.35245,1.74217 -3.60481,2.02827 -1.78911,2.02827 0.84932,0 2.16182,-0.74867 2.91667,-1.66372 z m -14.12756,-0.70133 c -3.75133,-1.34208 -5.38155,-1.12034 -2.97104,0.40411 0.80907,0.51167 2.59604,0.91181 3.97104,0.88918 2.16604,-0.0356 2.03245,-0.2084 -1,-1.29329 z m 6.5,-2.06521 c -5.88467,-1.15126 -5.95195,-1.20144 -3.5,-2.61052 1.375,-0.79018 4.74911,-2.36914 7.49802,-3.5088 4.87639,-2.02168 6.74523,-4.60717 4.76298,-6.58942 -0.50961,-0.50961 -1.6883,-0.63426 -2.61931,-0.277 -1.31476,0.50452 -1.4364,0.95843 -0.54477,2.03278 0.91118,1.09791 0.74216,1.38322 -0.81944,1.38322 -1.08207,0 -4.77834,1.81679 -8.21392,4.03731 -5.20414,3.3636 -6.04394,4.2814 -5.03259,5.5 0.86463,1.04183 3.12089,1.4258 7.84147,1.33447 l 6.62756,-0.12821 -6,-1.17383 z m -19.5,-13.49831 c 0,-0.51072 -0.5815,-1.52322 -1.29223,-2.25 -0.71073,-0.72679 -1.92241,-2.86139 -2.69262,-4.74357 -0.77022,-1.88217 -1.57812,-2.88895 -1.79534,-2.23728 -0.21722,0.65166 0.78842,3.20413 2.23477,5.67213 2.5925,4.42377 3.54542,5.38026 3.54542,3.55872 z m 0.34401,-4.85347 c -1.0142,-1.49488 -2.36996,-3.84296 -3.01279,-5.21796 -0.75892,-1.62332 -1.19726,-1.93526 -1.25,-0.88955 -0.0447,0.88575 1.04378,3.26824 2.41878,5.29441 1.375,2.02618 2.53553,4.22647 2.57895,4.88955 0.0564,0.86127 0.22605,0.83944 0.59401,-0.0765 0.28329,-0.70513 -0.31474,-2.50513 -1.32895,-4 z m 1.8636,-8.63402 c -0.44833,-3.40585 -0.29054,-3.82974 1.2111,-3.25351 1.27941,0.49096 1.64005,0.2132 1.39246,-1.07245 -0.41734,-2.16707 -3.77023,-2.91618 -4.95196,-1.10637 -0.83244,1.27488 -0.40108,6.95508 0.86181,11.34839 0.57491,2 0.57491,2 1.28849,0 0.39248,-1.1 0.48162,-3.76223 0.1981,-5.91606 z m 17.79239,-9.1336 c 0,-2.50231 -0.69786,-5.89917 -1.5508,-7.54857 -1.47486,-2.85208 -1.43814,-3.09083 0.75,-4.87605 2.15686,-1.7597 2.18501,-1.92218 0.44987,-2.59715 -1.0867,-0.42273 -2.1541,-0.22944 -2.58523,0.46813 -0.40387,0.65347 -2.04595,1.58037 -3.64907,2.05976 -2.41521,0.72225 -2.53452,0.88637 -0.69616,0.95759 1.40139,0.0543 2.03286,0.57003 1.71432,1.40014 -0.49092,1.27931 1.85272,11.72095 3.07449,13.69782 1.39811,2.26219 2.49258,0.69829 2.49258,-3.56167 z m 3.51792,-7.43198 c -3.93198,-4.02672 -5.2996,-4.49778 -4.11792,-1.41836 0.35589,0.92744 0.92123,1.41211 1.25629,1.07704 0.33507,-0.33507 1.48214,0.50052 2.54904,1.85687 1.06691,1.35635 2.4485,2.46609 3.0702,2.46609 0.6217,0 -0.61922,-1.79174 -2.75761,-3.98164 z m 11.71677,-3.4537 c 1.30556,-1.89193 0.81351,-2.71473 -1.23469,-2.06466 -1.45643,0.46225 -2,0.1797 -2,-1.0396 0,-1.23381 -0.46047,-1.46314 -1.75,-0.87157 -0.9625,0.44154 -3.21715,0.79323 -5.01034,0.78153 l -3.26034,-0.0213 2.21156,2.35409 c 1.71075,1.82102 3.1284,2.30564 6.26034,2.14012 2.22683,-0.11768 4.37939,-0.69307 4.78347,-1.27863 z m -12.23469,-5.56466 c 0,-0.55 0.675,-1 1.5,-1 0.825,0 1.5,-0.45 1.5,-1 0,-1.78233 -2.89879,-1.05763 -4,1 -0.72571,1.35599 -0.73703,2 -0.0352,2 0.56935,0 1.03518,-0.45 1.03518,-1 z m -6,-1.46482 c 0,-1.84249 3.0808,-3.53518 6.43426,-3.53518 1.61399,0 2.56574,-0.55642 2.56574,-1.5 0,-2.10074 -3.97235,-1.86109 -6.93832,0.41859 -1.34107,1.03076 -3.02748,1.64803 -3.74758,1.3717 -0.90095,-0.34573 -1.24199,0.31031 -1.09357,2.10365 0.22293,2.69365 2.77947,3.74335 2.77947,1.14124 z m 4.5303,-2.33822 c -0.67194,-0.67193 -3.5303,1.82222 -3.5303,3.08047 0,0.5679 0.90276,0.21556 2.00613,-0.78298 1.10337,-0.99854 1.78925,-2.03241 1.52417,-2.29749 z m -11.5303,-6.50583 c 0,-1.26988 0.71174,-3.18238 1.58163,-4.25 1.55931,-1.91373 1.57183,-1.9129 0.88655,0.0589 -0.3823,1.1 -0.90243,2.9 -1.15585,4 -0.4546,1.9732 -0.43967,1.97399 1.11345,0.0589 1.69249,-2.08697 2.1115,-6.10878 0.72566,-6.96527 -1.61103,-0.99568 -5.15144,3.43399 -5.15144,6.44535 0,1.62858 0.45,2.96105 1,2.96105 0.55,0 1,-1.03899 1,-2.30887 z"
         id="path3063"
         inkscape:connector-curvature="0" />
      <path
         style="fill:#3c4942"
         d="m 407.38691,672.89202 c -2.10506,-0.40709 -4.73307,-1.64585 -5.84003,-2.7528 l -2.01264,-2.01265 2.84432,-1.88219 c 4.60832,-3.04952 6.69939,-4.32683 9.08573,-5.54997 1.2375,-0.6343 2.24107,-1.41853 2.23016,-1.74275 -0.0109,-0.32421 -2.30517,-1.93948 -5.09834,-3.58948 -5.52853,-3.26585 -9.15827,-8.72685 -8.21018,-12.35234 0.51943,-1.98631 3.23126,-3.09948 3.40487,-1.39766 0.0421,0.4125 0.22726,1.5375 0.41152,2.5 0.18425,0.9625 -0.0752,1.75 -0.57651,1.75 -1.75544,0 -0.88917,3.11326 1.54302,5.54546 2.47099,2.47098 5.25459,3.41095 3.97636,1.34274 -1.01,-1.63422 1.67107,-2.90399 3.76522,-1.78324 2.18257,1.16808 2.39533,3.89504 0.30388,3.89504 -0.825,0 -1.5,0.45 -1.5,1 0,1.376 2.57308,1.25379 5.26357,-0.25 1.23004,-0.6875 2.38539,-1.32396 2.56745,-1.41435 1.2759,-0.6335 -2.45434,-4.38626 -5.29025,-5.32219 -1.91102,-0.6307 -5.60216,-3.36674 -8.20254,-6.08009 -2.60039,-2.71335 -5.01805,-4.93337 -5.37259,-4.93337 -1.38234,0 -2.96564,5.32915 -2.96564,9.98195 0,5.82621 -1.41052,10.01805 -3.371,10.01805 -2.29671,0 -7.8282,-9.58772 -8.38585,-14.53515 -0.56798,-5.0391 -0.1984,-5.28124 3.75932,-2.46309 2.79612,1.99101 2.80842,1.9911 2.29193,0.016 -0.2856,-1.09214 -0.22124,-3.17317 0.14303,-4.62451 0.60046,-2.39243 0.99728,-2.58444 4.25039,-2.05653 1.97345,0.32025 4.44354,1.50049 5.48909,2.62275 1.04555,1.12227 2.33347,2.04049 2.86204,2.04049 1.45738,0 1.14968,-4.40971 -0.53279,-7.63569 -0.82161,-1.57537 -1.49661,-3.85025 -1.5,-5.05529 -0.009,-3.01227 -2.02756,-4.00024 -3.64753,-1.7848 -1.90225,2.60148 -2.51435,1.45624 -3.05625,-5.71821 -0.42529,-5.63071 -0.19927,-6.67485 2.11066,-9.75029 1.42283,-1.89435 2.58696,-4.39358 2.58696,-5.55383 0,-1.16026 1.51794,-3.5808 3.3732,-5.37899 l 3.3732,-3.26944 0.64585,2.57327 c 0.76308,3.04034 2.60775,3.44586 2.60775,0.57327 0,-1.14933 0.66667,-2 1.56739,-2 1.10374,0 1.38264,0.58207 0.94286,1.96771 -0.58894,1.85557 -0.23658,1.94004 6.18261,1.48213 4.12717,-0.29441 6.04853,-0.15369 4.88026,0.35742 -1.77738,0.7776 -1.79186,0.89482 -0.18662,1.51081 0.95714,0.36729 1.49978,1.05691 1.20586,1.53249 -0.29393,0.47558 -0.12886,2.27876 0.36681,4.00707 0.54977,1.91694 0.53847,3.14237 -0.029,3.14237 -0.5116,0 -0.93019,-0.35424 -0.93019,-0.7872 0,-0.43295 -0.84956,-0.85119 -1.88792,-0.9294 -1.38094,-0.10403 -1.75644,0.36058 -1.39829,1.73013 0.2693,1.02979 -0.19665,3.24802 -1.03544,4.92941 -0.83878,1.68138 -1.0872,3.05706 -0.55205,3.05706 1.71208,0 6.67503,-2.91323 7.20441,-4.22896 0.28364,-0.70496 0.55338,-0.38031 0.60566,0.72896 0.07,1.48442 0.31172,1.65697 0.93781,0.66934 0.59494,-0.93848 1.02931,-0.40187 1.47382,1.82067 0.69177,3.45885 -1.5489,9.02063 -3.62368,8.99468 -0.79765,-0.01 -0.70158,-0.38501 0.27568,-1.07613 1.33333,-0.94295 1.33333,-1.01502 0,-0.6486 -0.825,0.22672 -1.50341,1.19454 -1.50758,2.15071 -0.01,2.27849 -3.03561,3.90981 -6.14813,3.31481 -2.33797,-0.44693 -2.44794,-0.26946 -1.95216,3.15046 0.28895,1.99323 0.82167,6.95692 1.18382,11.03042 0.51531,5.79644 1.13824,7.86146 2.86576,9.5 2.63654,2.50076 3.62756,4.86352 2.68178,6.39382 -0.86517,1.39988 -12.18714,6.4695 -12.88648,5.77016 -0.28291,-0.28291 0.56052,-0.92349 1.8743,-1.42351 8.25605,-3.14223 9.88869,-4.13891 9.88869,-6.03679 0,-2.41268 -1.26259,-3.33024 -3.43528,-2.4965 -1.25107,0.48008 -1.35665,0.93224 -0.4678,2.00324 0.91118,1.09791 0.74216,1.38322 -0.81944,1.38322 -1.08207,0 -4.80171,1.8319 -8.26585,4.07088 -5.34186,3.45261 -6.08682,4.27629 -4.90504,5.42337 1.48142,1.43792 5.17645,1.96601 10.89341,1.55687 3.27071,-0.23407 3.33622,-0.30293 1,-1.05112 -1.375,-0.44035 -4.0525,-0.8455 -5.95,-0.90032 -2.1019,-0.0607 -3.07878,-0.45483 -2.5,-1.00856 1.11277,-1.06461 11.67272,0.42252 14.7697,2.07998 2.05646,1.10058 2.056,1.10626 -0.24043,2.9658 -2.43367,1.97066 -8.12732,2.30066 -15.40665,0.89294 z m 13.45494,-1.7218 c 1.17028,-1.44273 1.16434,-1.56652 -0.0403,-0.84042 -0.77699,0.46834 -2.80199,1.18366 -4.5,1.5896 l -3.08729,0.73806 3.12756,0.10236 c 1.8327,0.06 3.69576,-0.59814 4.5,-1.5896 z M 408.127,670.9194 c -1.69801,-0.40594 -3.61051,-1.06143 -4.25,-1.45666 -0.63949,-0.39523 -1.16271,-0.27954 -1.16271,0.25709 0,1.31639 1.8871,1.98924 5.5,1.96104 l 3,-0.0234 -3.08729,-0.73806 z m -15.68493,-18.86508 c -0.8126,-0.93068 -2.19077,-3.04214 -3.06258,-4.69214 -0.87182,-1.65 -1.60314,-2.36454 -1.62516,-1.58786 -0.0611,2.15423 5.24891,10.72102 5.73722,9.25607 0.23539,-0.70617 -0.23687,-2.0454 -1.04948,-2.97607 z m 3.33319,0.0579 c 0.0161,-1.5125 0.0557,-5.30541 0.0882,-8.42868 0.048,-4.61793 0.33868,-5.57135 1.55634,-5.10409 1.06487,0.40863 1.3919,0.027 1.13223,-1.32132 -0.24167,-1.25495 -1.20567,-1.89591 -2.85141,-1.89591 -2.10434,0 -2.48047,0.46089 -2.44832,3 0.0209,1.65 0.36901,4.94562 0.77359,7.32359 0.8482,4.98549 -0.54197,4.90983 -2.75837,-0.15014 -0.76454,-1.7454 -1.42677,-2.56477 -1.47164,-1.82083 -0.072,1.19386 5.00215,11.14376 5.68431,11.14636 0.14624,5.6e-4 0.27903,-1.23648 0.29509,-2.74898 z m 17.93903,-19.79966 c 0,-2.50231 -0.69786,-5.89917 -1.5508,-7.54857 -1.47486,-2.85208 -1.43814,-3.09083 0.75,-4.87605 2.15686,-1.7597 2.18501,-1.92218 0.44987,-2.59715 -1.0867,-0.42273 -2.1541,-0.22944 -2.58523,0.46813 -0.40387,0.65347 -2.04595,1.58037 -3.64907,2.05976 -2.41521,0.72225 -2.53452,0.88637 -0.69616,0.95759 1.40139,0.0543 2.03286,0.57003 1.71432,1.40014 -0.49092,1.27931 1.85272,11.72095 3.07449,13.69782 1.39811,2.26219 2.49258,0.69829 2.49258,-3.56167 z m 3.51792,-7.43198 c -3.93198,-4.02672 -5.2996,-4.49778 -4.11792,-1.41836 0.35589,0.92744 0.92123,1.41211 1.25629,1.07704 0.33507,-0.33507 1.48214,0.50052 2.54904,1.85687 1.06691,1.35635 2.4485,2.46609 3.0702,2.46609 0.6217,0 -0.61922,-1.79174 -2.75761,-3.98164 z m 9.96784,-2.38545 c 1.62781,0.62465 2.89507,-2.65208 1.54702,-4.00013 -0.71037,-0.71037 -1.03278,-0.65817 -1.03278,0.16722 0,0.66 -0.45,1.2 -1,1.2 -0.55,0 -1,-0.72315 -1,-1.60699 0,-1.16963 -0.47628,-1.3885 -1.75,-0.80418 -0.9625,0.44154 -3.18559,0.79455 -4.94021,0.78445 -2.77136,-0.0159 -3.06298,0.21938 -2.22113,1.79238 0.53299,0.9959 2.07797,2.08904 3.43329,2.42921 1.3965,0.35049 2.17871,1.08045 1.80528,1.68468 -0.36242,0.58641 0.36735,0.34736 1.62171,-0.53123 1.25437,-0.8786 2.84593,-1.38053 3.53682,-1.11541 z m -10.48576,-6.63291 c 0,-0.55 0.675,-1 1.5,-1 0.825,0 1.5,-0.45 1.5,-1 0,-1.78233 -2.89879,-1.05763 -4,1 -0.72571,1.35599 -0.73703,2 -0.0352,2 0.56935,0 1.03518,-0.45 1.03518,-1 z m -5.5,-2 c 0.34913,-1.1 1.14445,-2 1.76739,-2 0.80604,0 0.78661,0.346 -0.0674,1.2 -2.02882,2.02882 -1.32635,3.22432 0.77642,1.32134 1.08703,-0.98375 1.73547,-2.17849 1.44098,-2.65499 -0.29449,-0.47649 0.827,-0.86635 2.4922,-0.86635 2.28038,0 2.88557,-0.37021 2.45203,-1.5 -0.63798,-1.66253 -6.36163,-2.11239 -6.36163,-0.5 0,0.55 -0.675,1 -1.5,1 -0.825,0 -1.5,0.43588 -1.5,0.96861 0,0.53274 -0.675,0.7096 -1.5,0.39302 -1.09694,-0.42094 -1.5,0.1249 -1.5,2.03138 0,3.11572 2.5627,3.56016 3.5,0.60699 z m -7.5,-8.30887 c 0,-1.26988 0.67762,-3.18238 1.50583,-4.25 1.40456,-1.81059 1.43819,-1.75182 0.5,0.87397 -1.24035,3.47147 -1.26994,4.6849 -0.11424,4.6849 0.49038,0 1.17395,-1.125 1.51905,-2.5 0.4206,-1.6758 1.36296,-2.53824 2.85841,-2.616 2.01051,-0.10454 2.03579,-0.16548 0.25588,-0.61667 -1.08628,-0.27537 -2.54908,-1.23567 -3.25066,-2.134 -1.15856,-1.48347 -1.45905,-1.41672 -3.27494,0.72745 -2.06585,2.43934 -2.76568,8.13922 -0.99933,8.13922 0.55,0 1,-1.03899 1,-2.30887 z"
         id="path3061"
         inkscape:connector-curvature="0" />
      <path
         style="fill:#212c26;fill-opacity:1"
         d="m 415.21429,673.3707 c 0.55,-0.18347 2.2375,-0.60651 3.75,-0.9401 1.5125,-0.33359 2.75,-1.05652 2.75,-1.60652 0,-0.56969 -1.18338,-0.74184 -2.75,-0.40007 -2.02527,0.44183 -2.36844,0.33319 -1.30215,-0.41224 1.17503,-0.82145 0.9866,-1.11558 -1,-1.56094 -1.34632,-0.30182 -4.02285,-0.67287 -5.94785,-0.82456 l -3.5,-0.2758 4.21016,-2.24415 c 2.31559,-1.23428 4.56559,-2.22528 5,-2.20222 0.43441,0.0231 -0.73879,0.8563 -2.60712,1.85167 l -3.39696,1.80976 5.31994,0.70571 c 2.92596,0.38815 6.22761,1.19149 7.337,1.78522 1.99436,1.06735 1.99117,1.1005 -0.28375,2.94262 -1.26546,1.0247 -3.71348,1.82757 -5.44005,1.78415 -1.72657,-0.0434 -2.68922,-0.22906 -2.13922,-0.41253 z m -9.23097,-1.20151 c 0.97297,-0.25354 2.32297,-0.23687 3,0.0371 0.67703,0.27393 -0.11903,0.48137 -1.76903,0.46099 -1.65,-0.0204 -2.20394,-0.2445 -1.23097,-0.49804 z m -4.06903,-1.50701 c -1.92861,-1.92861 -1.41498,-3.24427 2.05,-5.25111 l 3.25,-1.88233 -1.77523,2.02334 c -1.85073,2.10939 -1.26898,3.28475 2.27523,4.59688 1.22629,0.45399 1.1937,0.56973 -0.17857,0.63427 -0.92322,0.0434 -2.40714,-0.64962 -3.29762,-1.5401 -1.9772,-1.9772 -3.30939,-1.03244 -1.54387,1.09488 1.50018,1.8076 0.9374,2.04151 -0.77994,0.32417 z m 7.56338,-8.71942 c 1.24486,-1.05756 2.81986,-2.18333 3.5,-2.50171 0.94006,-0.44005 0.9516,-0.71385 0.0481,-1.1417 -4.13427,-1.95786 -10.68956,-8.23929 -12.77168,-12.23811 -2.31407,-4.44429 -2.44924,-4.54093 -2.49328,-1.78239 -0.0641,4.01682 -0.65336,2.96539 -1.35434,-2.41667 -0.32235,-2.475 -0.34747,-3.9375 -0.0558,-3.25 0.89811,2.11711 2.52142,1.38114 2.18316,-0.98978 -0.33579,-2.3536 -3.38134,-3.59844 -4.95463,-2.02515 -1.27891,1.27891 0.12251,12.10951 1.78158,13.76858 0.74442,0.74442 1.34198,1.94814 1.3279,2.67492 -0.0141,0.72679 -1.56067,-1.08766 -3.43687,-4.0321 -4.38779,-6.88607 -4.32542,-6.83977 -5.09326,-3.78046 -0.47154,1.87876 0.11939,3.92009 2.12598,7.34407 1.52847,2.60814 2.95548,4.21273 3.17113,3.56577 0.21566,-0.64696 -0.49996,-2.43619 -1.59026,-3.97607 -1.09029,-1.53988 -2.27541,-3.92478 -2.63358,-5.29978 -0.35818,-1.375 0.86584,0.10051 2.72003,3.27892 1.8542,3.1784 3.73308,5.4284 4.17529,5 0.44222,-0.42841 0.63757,0.11591 0.4341,1.2096 -0.20346,1.09368 -1.11572,2.13214 -2.02724,2.30768 -2.1959,0.42289 -8.81972,-11.32485 -8.81972,-15.6423 0,-3.72055 0.28725,-3.79761 4.08236,-1.09526 l 2.8911,2.05865 -0.61123,-3.05617 c -1.2887,-6.44347 4.53091,-7.85671 10.28767,-2.49827 l 2.8501,2.6529 0.32445,-2.69109 c 0.17845,-1.4801 -0.38405,-4.18415 -1.25,-6.00901 -0.86595,-1.82485 -1.57445,-4.23584 -1.57445,-5.35776 0,-2.81563 -2.04191,-3.82106 -3.5557,-1.75082 -1.56933,2.14618 -2.84739,0.43832 -1.90171,-2.54125 0.44011,-1.38666 0.30231,-1.88799 -0.3997,-1.45413 -2.22834,1.37719 -0.99952,-8.21745 1.48347,-11.58296 1.3055,-1.76951 2.37364,-3.99534 2.37364,-4.94628 0,-1.83912 4.60927,-7.88245 6.01197,-7.88245 0.4588,0 -0.4812,1.31538 -2.08889,2.92308 -2.88235,2.88234 -4.19476,9.07692 -1.92308,9.07692 0.55,0 1,-1.03899 1,-2.30887 0,-1.26988 0.69982,-3.18238 1.55517,-4.25 1.48671,-1.85569 1.50596,-1.83983 0.4372,0.36045 -0.61487,1.26588 -0.96788,3.29088 -0.78445,4.5 0.30863,2.03447 0.44439,1.9756 1.8204,-0.78935 0.8178,-1.64328 2.38348,-3.15783 3.47929,-3.36568 1.09582,-0.20785 2.26678,-0.81281 2.60215,-1.34434 0.33537,-0.53154 3.48538,-1.13893 7,-1.34976 3.51463,-0.21082 5.60274,-0.14088 4.64024,0.15544 -0.9625,0.29632 -1.75,0.95576 -1.75,1.46543 0,0.50968 0.7875,0.93357 1.75,0.94199 1.43718,0.0126 1.49336,0.17771 0.3143,0.92379 -1.02462,0.64835 -1.14065,1.2882 -0.40523,2.23468 1.63009,2.09794 2.37038,4.82622 1.30954,4.82622 -0.53273,0 -1.00414,-0.7875 -1.04756,-1.75 -0.0434,-0.9625 -0.28097,-1.26236 -0.52788,-0.66635 -0.26361,0.63631 -2.27112,0.92069 -4.86299,0.6889 -2.99686,-0.268 -5.23536,0.1434 -6.97212,1.28136 -1.40693,0.92186 -2.55806,1.34425 -2.55806,0.93865 0,-0.4056 -0.62854,-0.2158 -1.39677,0.42176 -1.67564,1.39066 -0.93935,5.08568 1.0134,5.08568 0.76085,0 1.39026,-0.5625 1.39868,-1.25 0.0115,-0.93562 0.22804,-0.91442 0.86112,0.0843 0.65852,1.03885 1.26404,0.81332 2.73468,-1.01854 1.03889,-1.29405 2.56389,-2.31688 3.38889,-2.27294 0.825,0.0439 2.0908,-0.3638 2.81288,-0.90609 1.04148,-0.78216 1.16802,-0.38139 0.61211,1.93865 -0.38542,1.60855 -1.14382,3.48713 -1.68532,4.17463 -0.67952,0.86273 -0.58517,1.25 0.30455,1.25 0.70901,0 1.08941,0.1997 0.84533,0.44378 -0.24408,0.24408 -2.40381,0.003 -4.7994,-0.53486 -3.42092,-0.76863 -4.70269,-0.67142 -5.97289,0.45298 -0.88949,0.78739 -2.51726,1.65088 -3.61726,1.91886 -1.23125,0.29995 -1.40663,0.53183 -0.45628,0.60324 1.05432,0.0792 1.97168,2.09745 2.8936,6.366 1.51006,6.9917 2.66936,9.75 4.09786,9.75 1.50379,0 1.13363,-8.35172 -0.5486,-12.37788 -0.83238,-1.99216 -1.27124,-3.62212 -0.97525,-3.62212 0.29599,0 1.00287,1.22225 1.57084,2.71612 0.61825,1.62612 1.3106,2.27154 1.72525,1.60831 0.44572,-0.71296 1.33297,-0.25535 2.48927,1.28388 1.02126,1.35948 1.31389,2.39169 0.67804,2.39169 -0.75859,0 -0.93455,1.77026 -0.54669,5.5 0.31458,3.025 0.83104,7.98859 1.14769,11.03019 0.40816,3.92058 1.28133,6.29155 3,8.14602 3.18999,3.44206 3.14135,6.67604 -0.12278,8.16327 -3.62703,1.65259 -4.47374,1.36298 -1.20295,-0.41145 2.96835,-1.61036 3.71542,-5.12034 1.28807,-6.0518 -0.80407,-0.30854 -1.74504,-1.45298 -2.09106,-2.54318 -0.34601,-1.0902 -2.50064,-2.80097 -4.78806,-3.8017 -2.28742,-1.00073 -6.16514,-3.89218 -8.61716,-6.42543 -2.45201,-2.53326 -4.76637,-4.60592 -5.14301,-4.60592 -1.14045,0 -1.8777,2.89136 -1.19253,4.67688 0.57577,1.50045 0.72291,1.47414 1.39833,-0.25 0.63346,-1.61702 0.76615,-1.65346 0.82513,-0.22657 0.0387,0.93517 0.85779,2.20363 1.82029,2.8188 1.56378,0.99947 1.52177,1.07086 -0.39481,0.67082 l -2.14481,-0.44767 2.00883,3.40471 c 2.50708,4.24918 7.4951,7.37808 6.14242,3.85303 -0.36971,-0.96343 0.0204,-1.5 1.0904,-1.5 0.92565,0 1.37299,0.47411 1.00663,1.06688 -0.39102,0.63269 0.0515,0.93792 1.08724,0.75 0.96064,-0.17428 1.9433,0.24562 2.18369,0.93312 0.24039,0.6875 -0.27542,1.25 -1.14626,1.25 -2.04368,0 -2.04975,1.60704 -0.009,2.39014 0.86587,0.33226 2.24801,-0.0696 3.07143,-0.89301 1.89301,-1.89301 2.98744,-1.96498 1.43498,-0.0944 -0.6403,0.77151 -0.80283,1.55901 -0.36118,1.75 0.44165,0.19098 -1.67707,1.58551 -4.70826,3.09895 -3.92001,1.95721 -4.85777,2.19653 -3.24789,0.82887 z m 8.48662,-46.47263 c 2.13416,-1.62006 2.24219,-2.60795 0.28518,-2.60795 -0.80565,0 -1.94648,0.9 -2.53518,2 -1.22559,2.29003 -0.29655,2.54106 2.25,0.60795 z m 2.10586,13.70286 c 0.37906,-0.37906 -1.19907,-2.6132 -3.50696,-4.96476 -3.57021,-3.63779 -3.93698,-4.37502 -2.45875,-4.94227 1.15911,-0.44479 2.23431,0.0428 3.23032,1.46476 0.82112,1.1723 2.14242,2.13146 2.93623,2.13146 0.79382,0 1.4433,0.47552 1.4433,1.0567 0,0.60844 0.89713,0.42833 2.1148,-0.42456 1.16314,-0.81469 2.73814,-1.24207 3.5,-0.94971 0.76186,0.29235 1.3852,-0.0416 1.3852,-0.74211 0,-0.70051 0.26146,-1.01219 0.58102,-0.69263 0.87463,0.87463 -1.47298,4.75456 -2.8662,4.737 -0.77923,-0.01 -0.67697,-0.39569 0.28518,-1.07613 1.33333,-0.94295 1.33333,-1.01502 0,-0.6486 -0.825,0.22672 -1.50393,1.17982 -1.50874,2.11801 -0.005,0.93818 -0.67981,2.13005 -1.5,2.64859 -1.71666,1.08532 -4.66716,1.31601 -3.6354,0.28425 z m 5.64414,-11.48398 c 0,-0.52889 -1.0125,-0.67222 -2.25,-0.31852 -1.73053,0.49461 -1.55738,0.19888 0.75,-1.2809 1.75718,-1.12692 3.26056,-1.52568 3.62895,-0.96254 0.35751,0.54651 0.82556,0.37314 1.08452,-0.40172 0.25633,-0.76697 0.66509,-0.26969 0.93462,1.13703 0.39437,2.05821 0.0701,2.52563 -1.83452,2.64421 -1.27246,0.0792 -2.31357,-0.28868 -2.31357,-0.81756 z m -18,-17.79545 c 0,-0.53273 0.63919,-0.72333 1.42043,-0.42354 0.92523,0.35504 1.56115,-0.266 1.82406,-1.78139 0.36603,-2.10973 0.48017,-2.15403 1.22529,-0.47553 0.5479,1.23424 0.35663,2.14538 -0.57406,2.73469 -1.85858,1.17685 -3.89572,1.14849 -3.89572,-0.0542 z"
         id="path3057"
         inkscape:connector-curvature="0" />
    </g>
  </g>
</svg>
