<?xml version="1.0" encoding="UTF-8" standalone="no"?>
<!-- Created with Inkscape (http://www.inkscape.org/) -->

<svg
   xmlns:dc="http://purl.org/dc/elements/1.1/"
   xmlns:cc="http://creativecommons.org/ns#"
   xmlns:rdf="http://www.w3.org/1999/02/22-rdf-syntax-ns#"
   xmlns:svg="http://www.w3.org/2000/svg"
   xmlns="http://www.w3.org/2000/svg"
   xmlns:sodipodi="http://sodipodi.sourceforge.net/DTD/sodipodi-0.dtd"
   xmlns:inkscape="http://www.inkscape.org/namespaces/inkscape"
   width="960.07526"
   height="640.00208"
   id="svg3287"
   version="1.1"
   inkscape:version="0.48.4 r9939"
   sodipodi:docname="background.svg">
  <defs
     id="defs3289" />
  <sodipodi:namedview
     id="base"
     pagecolor="#ffffff"
     bordercolor="#666666"
     borderopacity="1.0"
     inkscape:pageopacity="0.0"
     inkscape:pageshadow="2"
     inkscape:zoom="0.1369912"
     inkscape:cx="2143.8557"
     inkscape:cy="666.93488"
     inkscape:document-units="px"
     inkscape:current-layer="layer1"
     showgrid="false"
     fit-margin-top="0"
     fit-margin-left="0"
     fit-margin-right="0"
     fit-margin-bottom="0"
     inkscape:window-width="1280"
     inkscape:window-height="1000"
     inkscape:window-x="0"
     inkscape:window-y="24"
     inkscape:window-maximized="1"
     showguides="true"
     inkscape:guide-bbox="true">
    <sodipodi:guide
       orientation="1,0"
       position="362.41871,393.44252"
       id="guide3026" />
    <sodipodi:guide
       orientation="0,1"
       position="367.63362,394.98931"
       id="guide3028" />
    <sodipodi:guide
       orientation="0,1"
       position="362.41871,404.84461"
       id="guide2993" />
  </sodipodi:namedview>
  <metadata
     id="metadata3292">
    <rdf:RDF>
      <cc:Work
         rdf:about="">
        <dc:format>image/svg+xml</dc:format>
        <dc:type
           rdf:resource="http://purl.org/dc/dcmitype/StillImage" />
        <dc:title />
      </cc:Work>
    </rdf:RDF>
  </metadata>
  <g
     inkscape:label="Layer 1"
     inkscape:groupmode="layer"
     id="layer1"
     transform="translate(40.04502,-133.79757)">
    <g
       id="g3394"
       transform="matrix(2,0,0,2,-440.01386,-472.63787)">
      <path
         style="fill:#dfdecd"
         d="m 200.00002,463.79074 0,-150 240,0 240,0 0,150 0,150 -240,0 -240,0 0,-150 z"
         id="path3404"
         inkscape:connector-curvature="0" />
      <path
         style="fill:#90716c"
         d="m 200.00002,463.79074 0,-150 240,0 240,0 0,150 0,150 -240,0 -240,0 z m 5.08868,136.57798 c -3.38537,8.95162 -1.69269,4.47581 0,0 z m 409.79504,-3.33465 c 0.8645,-1.54477 3.74121,-1.73922 29.23542,-1.97618 15.55212,-0.14455 28.68987,-0.67612 29.19502,-1.18127 1.06592,-1.06592 1.56118,-261.53627 0.49932,-262.60273 -0.37759,-0.37922 -7.35259,-0.90795 -15.5,-1.17495 -25.8099,-0.84588 -447.75651,-0.84507 -449.06348,8.2e-4 -0.98926,0.64026 -1.25,27.47035 -1.25,128.625 0,70.29879 0.27099,129.17095 0.60221,130.82704 0.34556,1.72777 1.51758,3.4172 2.75,3.96403 1.26878,0.56296 13.25516,0.78034 29.2876,0.53115 16.58818,-0.25783 27.36859,-0.0517 27.72825,0.53028 0.36164,0.58514 12.72909,0.78576 32.08769,0.52052 21.70538,-0.29741 32.05037,-0.0926 33.27175,0.65877 1.56326,0.96165 1.47738,1.07398 -0.7275,0.95159 -1.375,-0.0763 -7,0.0105 -12.5,0.19298 -22.95941,0.76171 42.03139,1.40205 164.21244,1.61795 121.10661,0.214 129.27259,0.12084 130.17128,-1.48504 z M 227.06602,581.29074 c 4.0429,-4.125 7.69938,-7.5 8.12552,-7.5 0.42613,0 1.87648,2.17409 3.223,4.83131 l 2.44821,4.83131 -6.18137,1.71846 c -9.45216,2.62776 -13.33848,3.61892 -14.18974,3.61892 -0.42698,0 2.53149,-3.375 6.57438,-7.5 z m 424.25518,5.6329 c -5.04834,-0.8981 -9.44024,-1.8998 -9.75978,-2.22601 -0.31953,-0.32622 0.37618,-2.89626 1.54602,-5.71121 l 2.12699,-5.1181 8.38279,7.13794 c 4.61054,3.92586 8.3828,7.2834 8.3828,7.46121 0,0.38219 0.78836,0.49616 -10.67882,-1.54383 z m -418.79263,-82.3829 c -1.54113,-1.7875 -4.87124,-5.39779 -7.40024,-8.02288 l -4.59819,-4.77287 4.98494,1.53383 c 2.74172,0.84361 6.10994,1.79432 7.48494,2.11269 1.375,0.31837 3.96785,1.0251 5.76189,1.57052 l 3.26188,0.99166 -2.76188,4.91751 c -1.51904,2.70463 -3.02501,4.91796 -3.34659,4.91852 -0.32159,5.6e-4 -1.84563,-1.46148 -3.38675,-3.24898 z m 411.03122,-1.81751 c -1.51694,-2.78713 -2.60096,-5.1599 -2.40893,-5.27283 0.19204,-0.11292 4.98342,-1.39237 10.64752,-2.84322 8.71415,-2.23211 10.09863,-2.38276 9,-0.97927 -2.47946,3.16747 -13.23761,14.16283 -13.8573,14.16283 -0.34276,0 -1.86434,-2.28038 -3.38129,-5.06751 z m -37.44377,-58.68249 c -0.10504,-3.84831 0.11017,-4.25 2.27701,-4.25 1.31616,0 2.67392,0.73204 3.01725,1.62675 0.76255,1.98717 -1.25141,4.64818 -3.00782,3.97418 -0.70243,-0.26954 -1.47813,0.27248 -1.72379,1.2045 -0.24566,0.93201 -0.49885,-0.21793 -0.56265,-2.55543 z m 4.18682,-1.7363 c 0.10845,-0.54247 -0.59032,-1.13797 -1.55282,-1.32333 -1.0946,-0.2108 -1.75,0.27967 -1.75,1.30963 0,1.73979 2.9553,1.75204 3.30282,0.0137 z m -11.60158,2.8542 c -0.38568,-0.38568 -0.70124,-1.75123 -0.70124,-3.03457 0,-1.80694 0.55047,-2.33333 2.44009,-2.33333 2.04438,0 2.40593,0.44438 2.22946,2.74026 -0.20175,2.62478 -2.46955,4.12641 -3.96831,2.62764 z m 15.40395,-0.74115 c -1.64181,-1.97826 -0.24859,-4.79145 2.19376,-4.42962 2.93987,0.43553 3.37175,2.78134 0.53438,2.90255 -2.31201,0.0988 -2.31049,0.10604 0.16667,0.79604 2.19758,0.61212 2.27841,0.78152 0.66821,1.40032 -2.36207,0.90775 -2.23426,0.93176 -3.56302,-0.66929 z m 6.92544,0.37325 c 0,-0.825 0.4431,-2.175 0.98468,-3 0.86466,-1.31715 1.10003,-1.32057 1.9309,-0.028 0.80549,1.25309 1.04925,1.20344 1.63916,-0.33384 0.54503,-1.42033 0.87345,-1.52109 1.53848,-0.47198 0.46504,0.73362 0.84552,2.00885 0.84552,2.83385 0,1.22226 -0.15918,1.24878 -0.85968,0.14324 -0.60911,-0.9613 -1.062,-1.02942 -1.55379,-0.23369 -0.38175,0.61769 -1.16331,0.83308 -1.7368,0.47865 -0.57349,-0.35444 -1.4355,-0.0243 -1.91559,0.73368 -0.72173,1.13947 -0.87288,1.11836 -0.87288,-0.12188 z m 10.49221,-1.80108 c -0.74295,-1.93609 0.25825,-3.19892 2.53618,-3.19892 1.39052,0 1.94098,0.69137 1.94098,2.43785 0,1.81067 -0.50783,2.3996 -1.97392,2.28916 -1.08565,-0.0818 -2.21211,-0.76942 -2.50324,-1.52809 z m -23.59976,-10.122 c -3.30744,-3.30743 -3.81562,-7.45026 -1.47024,-11.98573 2.06519,-3.99362 6.23058,-5.39128 14.64972,-4.91555 6.30417,0.35621 7.41668,0.7267 9.518,3.16962 1.71827,1.99762 2.37944,3.97647 2.37944,7.12161 0,3.63578 -0.50832,4.78307 -3.07673,6.94424 -2.74892,2.31306 -3.92908,2.58889 -11.07692,2.58889 -7.50899,0 -8.17967,-0.17948 -10.92327,-2.92308 z m 19.67263,-3.15635 c 1.71721,-1.42516 1.84957,-7.07529 0.20429,-8.72057 -1.88408,-1.88408 -13.76048,-1.54574 -15.97126,0.45499 -2.32615,2.10513 -2.37106,7.21254 -0.0787,8.95395 2.10389,1.59828 13.69732,1.09463 15.84571,-0.68837 z m -15.47971,-18.95777 c -0.0975,-3.81244 0.19282,-4.56045 1.8173,-4.68282 2.40031,-0.18081 4.48613,2.18462 3.70996,4.20728 -0.31927,0.83201 -1.46162,1.51274 -2.53855,1.51274 -1.07693,0 -2.16386,0.7875 -2.41538,1.75 -0.25153,0.9625 -0.50953,-0.29174 -0.57333,-2.7872 z m 3.884,-1.4628 c 0,-0.825 -0.675,-1.5 -1.5,-1.5 -0.825,0 -1.5,0.675 -1.5,1.5 0,0.825 0.675,1.5 1.5,1.5 0.825,0 1.5,-0.675 1.5,-1.5 z m 4.3472,1.98989 c -1.47003,-1.09246 -1.62091,-1.74203 -0.73893,-3.18132 0.60955,-0.99471 2.07205,-1.85963 3.25,-1.92203 1.69843,-0.09 2.14173,0.45708 2.14173,2.64301 0,3.27159 -2.08067,4.37182 -4.6528,2.46034 z m 3.42363,-2.30239 c 0.21771,-0.65312 -0.31666,-1.1875 -1.1875,-1.1875 -0.87083,0 -1.58333,0.7125 -1.58333,1.58333 0,1.76593 2.15276,1.45839 2.77083,-0.39583 z m 7.82731,3.07731 c -0.32898,-0.32898 -0.59814,-2.32314 -0.59814,-4.43148 0,-3.68605 0.12487,-3.8281 3.25,-3.69715 2.35026,0.0985 2.6271,0.25616 1,0.56955 -2.81091,0.54141 -2.90769,1.95075 -0.19313,2.81232 1.14383,0.36304 1.92065,1.34162 1.75,2.20453 -0.32673,1.65213 -4.20564,3.54531 -5.20873,2.54223 z m 3.40186,-2.26481 c 0,-0.55 -0.45,-1 -1,-1 -0.55,0 -1,0.45 -1,1 0,0.55 0.45,1 1,1 0.55,0 1,-0.45 1,-1 z m 19.81806,0.37483 c -0.45675,-3.81855 -4.16664,-4.99042 -6.81142,-2.15159 -2.37248,2.54657 -2.67932,1.18216 -0.44994,-2.00073 2.92142,-4.17091 9.4433,-1.89879 9.4433,3.2899 0,3.35351 -1.79893,4.06454 -2.18194,0.86242 z m -55.74777,-1.42483 c 0.0537,-2.63845 0.2484,-2.99515 0.82749,-1.51638 0.52054,1.32926 0.98586,1.56368 1.48873,0.75 1.23918,-2.00502 2.61349,-1.3128 2.61349,1.31638 0,1.375 -0.47656,2.5 -1.05902,2.5 -0.58246,0 -0.7809,-0.45 -0.44098,-1 0.86536,-1.40018 -0.84888,-1.25112 -2.3,0.2 -0.93333,0.93333 -1.18438,0.43333 -1.12971,-2.25 z m 6.92971,0.65699 c 0,-2.46417 2.47609,-4.26372 3.52699,-2.56332 0.32508,0.52598 -0.0684,0.95633 -0.87435,0.95633 -0.97307,0 -1.28968,0.67194 -0.94239,2 0.29241,1.11819 0.0307,2 -0.59362,2 -0.61415,0 -1.11663,-1.07686 -1.11663,-2.39301 z m 3.88805,-8.10663 c -5.57482,-3.02986 -6.27303,-12.47917 -1.21601,-16.45703 3.78059,-2.97381 16.89111,-2.9614 20.68081,0.0196 5.11709,4.0251 5.0739,11.88305 -0.0876,15.94311 -2.00751,1.5791 -4.01535,1.98565 -9.65008,1.95394 -4.17832,-0.0235 -8.19324,-0.62597 -9.72709,-1.4596 z m 17.36195,-6.25374 c 2.04881,-1.82238 2.27098,-5.16925 0.5,-7.53217 -0.8962,-1.19574 -2.96167,-1.71505 -7.29741,-1.83473 -7.0598,-0.19487 -10.17182,1.15342 -11.08804,4.80392 -0.79679,3.17469 0.55415,5.58768 3.52355,6.29362 3.87764,0.92186 12.55545,-0.12383 14.3619,-1.73064 z m 22.56217,6.23222 c -0.58748,-0.58749 0.87139,-9.49573 1.68898,-10.31332 0.52473,-0.52473 0.85385,3.10868 0.55115,6.08448 -0.11634,1.14367 0.51626,1.75 1.82582,1.75 1.90398,0 4.13291,1.90923 2.4309,2.08223 -0.44496,0.0452 -1.9668,0.27495 -3.38187,0.51049 -1.41506,0.23554 -2.8168,0.18429 -3.11498,-0.11388 z m -6.81217,-5.47884 c 0,-0.55 0.47656,-1 1.05902,-1 0.58246,0 0.7809,0.45 0.44098,1 -0.33992,0.55 -0.81648,1 -1.05902,1 -0.24254,0 -0.44098,-0.45 -0.44098,-1 z m 15,0 c 0,-0.55 0.45,-1 1,-1 0.55,0 1,0.45 1,1 0,0.55 -0.45,1 -1,1 -0.55,0 -1,-0.45 -1,-1 z m -3,-3 c 0,-0.55 0.47656,-1 1.05902,-1 0.58246,0 0.7809,0.45 0.44098,1 -0.33992,0.55 -0.81648,1 -1.05902,1 -0.24254,0 -0.44098,-0.45 -0.44098,-1 z m -42.76032,-15 c 0.23509,-4.06391 0.50259,-4.5 2.76032,-4.5 3.1373,0 4.18399,4.11697 1.32014,5.1925 -1.00108,0.37596 -2.38728,1.38644 -3.08046,2.24553 -1.05196,1.30374 -1.21728,0.81801 -1,-2.93803 z m 4.53115,-1.8125 c 0.21771,-0.65312 -0.31666,-1.1875 -1.1875,-1.1875 -0.87083,0 -1.58333,0.7125 -1.58333,1.58333 0,1.76593 2.15276,1.45839 2.77083,-0.39583 z m 31.32474,3.42765 c -0.91968,-1.10814 -0.59448,-1.5403 1.62755,-2.16289 1.52729,-0.42793 3.38454,-0.67465 4.12723,-0.54828 0.7427,0.12638 1.05364,-0.25031 0.69099,-0.8371 -0.91742,-1.4844 -6.27694,-1.34052 -6.8211,0.18312 -0.75559,2.11566 -1.94533,0.0346 -1.24382,-2.1757 1.58726,-5.00103 8.44298,-5.09731 10.49331,-0.14738 1.24558,3.00709 0.65207,5.57541 -1.04589,4.52601 -0.51588,-0.31883 -1.20793,0.12383 -1.53789,0.98369 -0.7427,1.93543 -4.73817,2.04883 -6.29038,0.17853 z m 7.10443,-6.81515 c -0.64167,-0.64167 -1.49863,-0.8347 -1.90437,-0.42896 -0.40574,0.40574 -0.0888,1.13877 0.70437,1.62896 1.86759,1.15423 2.71091,0.31091 1.2,-1.2 z m -56.2,3.75902 c 0,-1.34254 0.45,-2.7191 1,-3.05902 0.55,-0.33992 1,0.15327 1,1.09597 0,1.58668 0.14857,1.57955 2,-0.096 1.9512,-1.76581 2,-1.74663 2,0.786 0,1.42778 -0.45,2.87408 -1,3.214 -0.55,0.33992 -1,0.0515 -1,-0.64098 0,-0.97924 -0.26667,-0.99235 -1.2,-0.059 -1.85336,1.85336 -2.8,1.4338 -2.8,-1.24097 z m 7.797,1.86452 c -1.0465,-1.60809 0.23361,-5.42354 1.81963,-5.42354 0.76085,0 1.38337,0.45 1.38337,1 0,0.55 -0.4187,1 -0.93045,1 -0.51175,0 -1.0748,1.0125 -1.25123,2.25 -0.18344,1.28661 -0.62074,1.78909 -1.02132,1.17354 z m 13.56463,-0.92354 c -0.95734,-2.49478 0.42715,-4.5 3.10699,-4.5 2.14598,0 2.53138,0.45675 2.53138,3 0,2.54325 -0.3854,3 -2.53138,3 -1.39227,0 -2.79041,-0.675 -3.10699,-1.5 z m 4.19222,-0.58713 c 1.03052,-1.66742 -1.28721,-3.57951 -2.66672,-2.2 -1.15392,1.15392 -0.43172,3.28713 1.11287,3.28713 0.48508,0 1.18431,-0.48921 1.55385,-1.08713 z m 5.44615,1.62106 c 0,-1.0843 3.42431,-7.53393 4,-7.53393 0.6365,0 4,6.50327 4,7.73393 0,0.36634 -0.54,0.12607 -1.2,-0.53393 -1.45314,-1.45314 -4.8,-1.59259 -4.8,-0.2 0,0.55 -0.45,1 -1,1 -0.55,0 -1,-0.20973 -1,-0.46607 z m 5,-3.53393 c 0,-0.55 -0.45,-1 -1,-1 -0.55,0 -1,0.45 -1,1 0,0.55 0.45,1 1,1 0.55,0 1,-0.45 1,-1 z m -172,-2.94098 c 0,-1.06754 0.45,-2.2191 1,-2.55902 0.55,-0.33992 1,-2.39148 1,-4.55902 0,-3.80629 0.11487,-3.94098 3.36111,-3.94098 l 3.36111,0 0.5658,6.23975 c 0.52779,5.82058 0.0152,8.876 -1.00826,6.01025 -0.52765,-1.47743 -6.27976,-1.70642 -6.27976,-0.25 0,0.55 -0.45,1 -1,1 -0.55,0 -1,-0.87344 -1,-1.94098 z m 6.81037,-5.38632 c 0.22693,-2.68539 -0.0797,-3.6727 -1.1406,-3.6727 -1.3911,0 -2.91017,6.42627 -1.78504,7.5514 1.26946,1.26946 2.64466,-0.55373 2.92564,-3.8787 z m -61.81037,5.50876 c 0,-1.20855 1.8972,-2.61759 2.5907,-1.9241 0.2517,0.2517 -0.22824,1.02686 -1.06653,1.72258 -0.95039,0.78875 -1.52417,0.86462 -1.52417,0.20152 z m 67.72824,0.0685 c -0.75263,-1.44812 0.4838,-10.25 1.43984,-10.25 0.53168,0 0.69307,0.86213 0.35863,1.91584 -1.02867,3.24105 1.29334,3.33283 2.95638,0.11686 2.33668,-4.51864 3.51691,-3.69064 3.51691,2.4673 0,3.025 -0.45,5.5 -1,5.5 -0.55,0 -1,-1.45446 -1,-3.23213 l 0,-3.23214 -2.53605,3.73214 c -2.63532,3.87822 -3.08389,4.2363 -3.73571,2.98213 z m -88.59197,-5.75 c 0.12315,-5.34169 1.86373,-8.07851 1.86373,-2.93045 0,2.09274 0.41752,2.51026 2.25,2.25 1.44596,-0.20536 2.36419,-1.12359 2.56955,-2.56955 0.63134,-4.44531 2.18045,-2.13633 2.18045,3.25 0,4.22222 -0.34848,5.5 -1.5,5.5 -0.94473,0 -1.5,-0.95259 -1.5,-2.57332 0,-3.28234 -3.34535,-2.99021 -3.81955,0.33354 -0.64348,4.51027 -2.16729,2.07998 -2.04418,-3.26022 z m 12.92505,3.77341 c 0.94355,-1.51085 0.85433,-2.53585 -0.43831,-5.03554 -2.3074,-4.46201 -1.94822,-5.22372 0.84935,-1.80122 l 2.40043,2.93665 1.22412,-2.68665 c 1.27191,-2.79154 2.91523,-3.60941 2.88664,-1.43665 -0.0315,2.39183 -4.54933,9.23528 -6.32229,9.57672 -1.51933,0.2926 -1.60852,0.0617 -0.59994,-1.55331 z m 17.93868,-3.27341 0,-5 4.33503,0 4.33504,0 0.065,5 c 0.0474,3.65006 -0.313,5 -1.33504,5 -0.99263,0 -1.40003,-1.30947 -1.40003,-4.5 0,-3.83333 -0.2963,-4.5 -2,-4.5 -1.7037,0 -2,0.66667 -2,4.5 0,2.475 -0.45,4.5 -1,4.5 -0.55,0 -1,-2.25 -1,-5 z m 12.05421,3.56532 c -0.65487,-0.78907 -1.04747,-2.91844 -0.87244,-4.73194 0.65437,-6.78008 9.81823,-5.73322 9.81823,1.12161 0,1.45475 -0.54,3.18501 -1.2,3.84501 -1.64986,1.64986 -6.29865,1.50902 -7.74579,-0.23468 z m 6.1984,-2.42329 c 0.61233,-2.34156 -0.90349,-5.14203 -2.78325,-5.14203 -1.58599,0 -3.03054,4.28298 -2.00449,5.94317 1.07105,1.73298 4.2648,1.19856 4.78774,-0.80114 z m 4.96103,-1.64203 0.0494,-5.5 3.30945,0 c 1.82019,0 3.58756,0.45 3.92748,1 0.34784,0.56282 -0.45395,1 -1.83399,1 -2.78712,0 -3.4287,1.12665 -3.27444,5.75007 0.0625,1.87346 -0.38625,3.25005 -1.05946,3.25 -0.75494,-4e-5 -1.15041,-1.9448 -1.11847,-5.50007 z m 10.48364,4.75 c -0.23142,-0.4125 -0.71483,-1.98065 -1.07425,-3.48477 -1.29973,-5.43922 5.4826,-8.58065 8.98807,-4.16308 1.27617,1.60822 0.62312,6.54266 -1.01013,7.63254 -1.44461,0.964 -6.36535,0.97491 -6.90369,0.0153 z m 5.25704,-1.69496 c 1.66272,-2.00345 0.91174,-5.96484 -1.20734,-6.36873 -2.14048,-0.40797 -3.17911,1.95582 -2.33577,5.31593 0.71084,2.83222 1.79818,3.15532 3.54311,1.0528 z m 34.04568,1.44496 c 0,-0.55 0.45,-1 1,-1 0.55,0 1,0.45 1,1 0,0.55 -0.45,1 -1,1 -0.55,0 -1,-0.45 -1,-1 z m 117.76578,-3.91797 c -2.80468,-2.50598 -3.26578,-3.57714 -3.26578,-7.58658 0,-3.83934 0.48268,-5.0838 2.71737,-7.006 5.3919,-4.63791 20.02722,-4.13375 23.21758,0.79981 2.48994,3.85044 2.83709,7.28399 1.08001,10.68181 -2.10669,4.07389 -6.79803,6.02893 -14.46706,6.02893 -5.23445,0 -6.44077,-0.37923 -9.28212,-2.91797 z m 18.01171,-4.63873 c 2.76656,-1.93778 2.94159,-6.48257 0.34032,-8.83669 -1.46984,-1.33018 -3.38473,-1.63799 -8.74051,-1.40499 -6.40013,0.27845 -6.9478,0.48566 -8.19791,3.10166 -1.14845,2.40328 -1.11629,3.14408 0.2254,5.19176 1.52663,2.32992 1.98953,2.45709 12.1227,3.33025 1.11513,0.0961 3.02763,-0.52581 4.25,-1.38199 z m -135.13683,4.34636 c -1.00731,-3.76034 -0.72814,-5.78966 0.79647,-5.78966 1.09689,0 1.30013,0.88781 0.85846,3.75 -0.72164,4.67648 -0.89226,4.88676 -1.65493,2.03966 z m 156.53289,1.51181 c -1.49404,-0.2958 -2.13308,-0.96456 -1.78599,-1.86904 0.29725,-0.77464 0.21916,-1.36055 -0.17355,-1.30201 -1.78323,0.26579 -2.6405,-0.21012 -1.6135,-0.89573 0.60528,-0.40408 2.29843,-2.64719 3.76254,-4.98469 1.46412,-2.3375 2.99389,-4.24311 3.39949,-4.23469 2.54139,0.0528 3.3289,2.01439 3.04206,7.57745 -0.32582,6.31886 -0.92855,6.83775 -6.63105,5.70871 z m 3.79749,-2.34053 c -1.90158,-1.2026 -3.97104,-1.21849 -3.97104,-0.0305 0,0.91483 4.04996,1.97802 4.97104,1.30499 0.25907,-0.1893 -0.19093,-0.76283 -1,-1.2745 z m 1.83646,-5.13322 c -0.16913,-2.29475 -0.7575,-4.31372 -1.3075,-4.48659 -0.84383,-0.26522 -5.5,5.72456 -5.5,7.0753 0,0.41936 2.91683,1.14631 5.8075,1.44739 0.93241,0.0971 1.21928,-1.06073 1,-4.0361 z m -337.28829,-9.40213 c -1.41975,-0.73658 -5.82987,-1.47116 -9.80028,-1.63241 -11.21553,-0.45549 -7.9098,-2.32028 3.78107,-2.13293 5.5,0.0881 14.275,0.19237 19.5,0.23161 5.225,0.0393 12.2,0.16 15.5,0.26834 7.00258,0.22988 20.00054,0.21251 52.5,-0.0702 12.925,-0.11242 56.575,-0.14196 97,-0.0656 64.33706,0.12146 73.0964,0.31531 70.26255,1.55493 -2.69734,1.17991 -20.46491,1.50367 -106.5,1.94062 -131.57313,0.66823 -122.58759,0.6691 -127.36245,-0.0123 -2.25494,-0.32181 -5.94481,-0.17059 -8.19972,0.33605 -3.0004,0.67415 -4.79204,0.56204 -6.68117,-0.41805 z"
         id="path3400"
         inkscape:connector-curvature="0"
         sodipodi:nodetypes="cccccccccccccssssssssscsccsscsssscsssscscssssscssscsssscssssssssssssssssssssscssssssssssscsscssscssssssssccssccsssssssssssssscssssssssssssssssssssssscscssssssssssccsssscssssssscssscssssssssssssssssssssssssssssccssssscsscssssssssssssssssssssssssssssssssssssssssscsssssssssssssssssssscsssssssssssssscscsssccccsssssssssssssscccssssccssssssssssssssssssssssssssssssssssccsscsccssccssscccsscsssssssc" />
      <path
         style="fill:#55271e;fill-opacity:1"
         d="m 200.01562,303.21772 -0.0312,320.00103 480.02461,-0.0197 c -0.005,-99.46263 -0.009,-198.92771 -0.009,-298.16779 l -2.25,-0.625 c -2.49226,-0.67878 -41.37064,-0.19195 -67.0625,0.53125 -0.23124,-0.011 -0.45149,-0.0312 -0.6875,-0.0312 -0.52751,0 -1.02575,0.0413 -1.5,0.0937 -11.26036,0.33359 -19.82454,0.7266 -20.25,1.0625 -3.27143,2.58277 -3.75299,2.54666 49,2.78125 19.65984,0.0874 35.49782,0.5172 35.21875,0.96875 -0.27907,0.45155 0.18709,0.97712 1.03125,1.15625 1.36967,0.29063 1.54293,12.47439 1.4375,113.3125 -0.10852,103.78337 -0.25952,132.76132 -0.75,145.75 -0.14177,3.75434 -0.55432,4.78135 -1.9375,4.84375 -1.37894,0.0622 -1.44913,0.19784 -0.28125,0.65625 0.81518,0.31997 2.15958,1.25333 2.96875,2.0625 1.29496,1.29495 1.22977,1.39276 -0.5,0.84375 -3.35208,-1.06391 -7.8937,-1.37318 -9.9375,-0.65625 -1.07507,0.37711 -3.39934,0.365 -5.15625,-0.0312 -1.75691,-0.39624 -3.57578,-0.33047 -4.03125,0.125 -0.45548,0.4555 -2.50048,0.43381 -4.5625,-0.0312 -2.06201,-0.46506 -3.75,-0.51453 -3.75,-0.125 0,0.38954 -4.81629,0.79916 -10.71875,0.9375 -16.78174,0.39331 -13.51597,0.89537 3.125,1.0625 3.60467,0.0362 7.61976,0.0625 12.4375,0.0625 16.26018,0 25.77816,0.344 27,0.90625 -0.49592,0.1059 -1.77004,0.19302 -3.65625,0.28125 -19.18375,0.45428 -112.7558,0.76048 -210.53125,0.84375 -2.38291,0.002 -4.58193,-0.002 -6.96875,0 -4.89005,2.3e-4 -7.49737,1.6e-4 -12.59375,0 -87.34767,-0.003 -162.22572,-0.14345 -203.875,-0.34375 -12.32599,-0.0901 -21.14207,-0.21734 -24.0625,-0.34375 C 208.46167,600.74867 202,600.05731 202,599.5 c 0,-0.56062 1.79793,-0.74696 4.25,-0.4375 2.3375,0.29502 3.4625,0.32754 2.5,0.0625 -0.9625,-0.26503 -1.75,-0.93149 -1.75,-1.5 0,-0.56852 0.675,-0.78534 1.5,-0.46875 3.69925,-0.24287 -1.53042,-1.64412 -2.6875,-1.5 -0.37306,0.052 -0.072,-1.06506 0.65625,-2.46875 1.07807,-2.07798 1.3356,-26.58775 1.375,-131.96875 0.004,-10.45033 0.0164,-19.79517 0.0312,-29.5625 0.0824,-0.31306 0.125,-0.721 0.125,-1.25 0,-0.39157 -0.0601,-0.78452 -0.125,-1.15625 0.0901,-55.57976 0.34051,-98.00843 0.625,-98.46875 0.33818,-0.54718 2.50746,-0.992 4.8125,-1 2.70022,-0.01 3.71034,-0.32578 2.84375,-0.875 -0.9857,-0.6247 -0.60921,-1.02541 1.40625,-1.53125 1.51259,-0.37964 3.01658,-0.28876 3.34375,0.21875 0.4947,0.76738 3.74075,0.81003 14.59375,0.125 0.55,-0.0347 4.8646,-0.0225 9.59375,0.0625 4.72915,0.085 10.38141,-0.31894 12.5625,-0.90625 2.68105,-0.72193 46.70765,-1.20336 135.90625,-1.46875 72.56476,-0.21591 132.1625,-0.55305 132.4375,-0.75 0.275,-0.19696 -28.975,-0.58804 -65,-0.875 -11.14017,-1.24866 140.9518,-0.86283 219,-1 l 0,-0.5 0,-4 0,-0.25 0.0221,-14.79031 z m 137.70313,19.71978 c 31.64757,-0.008 56.51317,0.0913 55.78125,0.34375 -0.55,0.18973 -43.3,0.50997 -95,0.71875 -51.7,0.20879 -91.525,0.0684 -88.5,-0.3125 3.38016,-0.42566 74.9728,-0.73621 127.71875,-0.75 z m 243.09375,1.8437 c -1.61512,0 -2.67866,0.41492 -2.375,0.90625 0.79972,1.29397 -3.69424,2.17413 -7.59375,1.5 -2.53841,-0.43882 -2.98114,-0.31048 -1.84375,0.5 1.62076,1.15494 15.23066,1.51934 16.3125,0.4375 1.24749,-1.24749 -1.57048,-3.34375 -4.5,-3.34375 z m -331,25.375 c -1.88516,-0.006 -3.78532,0.29459 -5.65625,0.875 -0.11309,0.0351 -0.23074,0.0565 -0.34375,0.0937 -3.61801,0.95261 -8.56505,4.33596 -10.53125,7.375 -0.0124,0.0191 -0.0191,0.0434 -0.0312,0.0625 -1.83659,2.22497 -3.24658,4.51773 -3.1875,5.625 0.0323,0.60617 0.59484,0.23488 1.25,-0.8125 1.94379,-3.10749 5.79788,-7.39477 8.15625,-9.1875 0.15909,-0.12093 0.2932,-0.18432 0.4375,-0.28125 1.11202,-0.63719 2.31482,-1.14192 3.84375,-1.6875 0.19489,-0.0695 0.32711,-0.12056 0.5,-0.1875 11.22498,-3.16023 23.62968,4.68047 26.09375,17.59375 2.05929,10.792 -8.22504,23.0863 -19.34375,23.125 -5.02205,0.0175 -13.06135,-4.06946 -16.25,-8.25 -1.5058,-1.97421 -2.75,-4.06955 -2.75,-4.65625 0,-0.58669 -0.47008,-1.0625 -1.03125,-1.0625 -0.18121,0 -0.23477,0.20991 -0.21875,0.53125 -0.2117,-0.24819 -0.35022,-0.37153 -0.375,-0.3125 -0.0455,0.10846 0.23565,0.75623 0.78125,2.03125 0.0287,0.067 0.0657,0.0917 0.0937,0.15625 0.40409,0.92981 0.72921,1.64455 1,2.0625 0.0287,0.0443 0.0667,0.0553 0.0937,0.0937 2.13445,3.77964 5.58405,6.65295 10.84375,8.9375 7.83762,3.40428 17.96297,0.7681 23.65625,-6.125 7.01828,-8.49735 6.3221,-20.44658 -0.84375,-28.34375 -0.017,-0.0322 -0.0136,-0.0608 -0.0312,-0.0937 -0.53717,-1.00371 -1.20272,-1.65367 -1.5625,-1.59375 -0.0154,0.003 -0.0182,0.027 -0.0312,0.0312 -0.72147,-0.64781 -1.52139,-1.24335 -2.34375,-1.8125 -0.017,-0.0118 -0.0142,-0.0508 -0.0312,-0.0625 -0.68469,-0.825 -1.72473,-1.5 -2.3125,-1.5 -0.0616,0 -0.1159,0.0173 -0.15625,0.0312 -1.3466,-0.73069 -2.67661,-1.32241 -4.03125,-1.75 -0.12426,-0.0624 -0.26921,-0.10323 -0.4375,-0.125 -0.0548,-0.007 -0.0984,-0.0289 -0.15625,-0.0312 -1.69767,-0.48063 -3.39531,-0.74498 -5.09375,-0.75 z m -3.8125,8.5 c -1.0169,-0.0313 -2.30924,3.15216 -3.90625,9.65625 l -1.53125,6.25 c -0.16727,0.42574 -0.29763,0.80923 -0.4375,1.0625 l -0.21875,-4.34375 c -0.1236,-2.75 -0.30971,-5.45 -0.4375,-6 -0.12778,-0.55 -0.28035,-2.2375 -0.34375,-3.75 -0.0233,-0.5547 -0.14639,-1.0355 -0.28125,-1.46875 -0.004,-0.0338 -0.0266,-0.061 -0.0312,-0.0937 -0.11647,-0.81798 -0.40774,-1.31529 -0.84375,-1.25 -0.16743,0.0251 -0.36814,0.14939 -0.5625,0.34375 -0.18009,0.18009 -0.22329,0.67187 -0.15625,1.28125 0.001,0.01 -10e-4,0.0216 0,0.0312 -0.20002,1.80047 -0.16978,5.21114 0.0937,10.65625 0.32609,6.7375 0.6077,12.5875 0.625,13 0.0108,0.25665 0.26546,0.45839 0.625,0.59375 0.0124,0.005 0.0186,0.0268 0.0312,0.0312 0.0734,0.0743 0.16133,0.125 0.25,0.125 0.0361,0 0.0865,-0.0161 0.125,-0.0312 0.1106,0.0165 0.22491,0.0312 0.34375,0.0312 0.85968,0 2.07466,-3.13609 3.40625,-8.75 1.75252,-7.3885 2.08485,-8.09585 2.15625,-4.625 0.10618,5.15798 0.80963,10.22236 1.59375,12.34375 -0.005,0.007 0.005,0.0239 0,0.0312 -0.33992,0.55 -0.14496,1 0.4375,1 0.0663,0 0.12444,-0.0201 0.1875,-0.0312 0.0425,0.0214 0.0828,0.0312 0.125,0.0312 0.0336,0 0.0645,-0.0335 0.0937,-0.0937 0.38074,-0.15234 0.65625,-0.49375 0.65625,-0.90625 0,-0.55 -0.19496,-1 -0.4375,-1 0.32733,-5.90172 -0.34384,-23.09383 -1.15625,-23.90625 -0.13482,-0.13482 -0.26098,-0.21427 -0.40625,-0.21875 z m 4.34375,0.125 c -1.38978,0 -1.52013,0.99904 -1,7.25 0.33179,3.9875 0.6098,9.8375 0.625,13 0.0136,2.81391 0.29951,4.57777 0.65625,5.28125 0.008,0.015 0.0236,0.0172 0.0312,0.0312 0.0966,0.25524 0.19256,0.4375 0.3125,0.4375 0.31596,0 0.558,-0.49736 0.71875,-1.375 0.009,-0.0479 0.023,-0.10614 0.0312,-0.15625 0.0363,-0.16901 0.0615,-0.36304 0.0937,-0.5625 0.007,-0.0663 0.0249,-0.1498 0.0312,-0.21875 0.12701,-0.87935 0.22793,-2.03055 0.25,-3.4375 0.093,-5.92992 0.38808,-5.55011 2.34375,3.0625 0.36068,1.58843 0.91926,2.38596 1.75,2.5 0.88694,0.54644 1.84909,-0.0701 2.3125,-2.0625 0.006,-0.0249 0.0252,-0.0989 0.0312,-0.125 0.37455,-0.99519 0.72056,-2.34224 1.0625,-4.125 l 0.8125,-4.15625 0.34375,-1.59375 0.125,6 c 0.0328,1.59896 0.11523,2.9011 0.25,3.875 -0.009,0.60551 -0.0347,1.11513 -0.0625,1.375 -0.12155,1.13826 -0.0419,1.24279 0.53125,0.4375 0.18314,0.36719 0.39987,0.5622 0.65625,0.5625 0.95141,10e-4 1.17015,-3.10159 0.9375,-13 -0.2378,-10.11715 -0.60261,-13 -1.65625,-13 -0.90475,0 -1.73571,2.40573 -2.53125,7.25 -2.53081,15.41069 -2.39552,15.21952 -4.34375,5.75 -0.96183,-4.675 -1.95902,-9.5125 -2.21875,-10.75 -0.11026,-0.52532 -0.35739,-0.99101 -0.65625,-1.375 0.001,-0.0122 -8.7e-4,-0.0192 0,-0.0312 0.0358,-0.49602 -0.15853,-0.84375 -0.5625,-0.84375 -0.0709,0 -0.15245,0.0549 -0.21875,0.1875 -0.21665,-0.11426 -0.43462,-0.1875 -0.65625,-0.1875 z m 379.4375,1.03125 c -0.26345,0.12505 -0.77637,1.05561 -1.6875,2.96875 -1.12265,2.35727 -1.12262,2.39281 0.34375,0.5625 0.85535,-1.06762 1.5625,-2.3697 1.5625,-2.90625 0,-0.47645 -0.0607,-0.70003 -0.21875,-0.625 z m -23.46875,2.96875 c -0.49007,0 0.46957,1.81156 1.96875,3.75 1.72185,2.22635 1.81084,1.32291 0.125,-1.25 -0.90093,-1.375 -1.84954,-2.5 -2.09375,-2.5 z m 40.625,0.46875 c -0.82215,-0.0391 -1.38784,0.33615 -1.5625,0.875 -0.0389,0.0103 -0.061,0.0297 -0.0937,0.0625 -0.26213,0.26213 -0.17503,0.94466 0.1875,1.53125 0.65329,1.05699 1.11104,1.26273 1.15625,0.78125 1.00035,0.71165 2.24702,1.28902 2.8125,1.28125 0.58238,-0.008 0.40282,-0.42583 -0.40625,-0.9375 -2.75628,-1.74313 0.0837,-2.53541 3.03125,-0.84375 1.61449,0.92655 2.9375,1.33269 2.9375,0.875 0,-0.75045 -2.40967,-1.89773 -7.21875,-3.4375 -0.31138,-0.0997 -0.58445,-0.17517 -0.84375,-0.1875 z M 375.5,364.78125 c -1.925,0 -3.5,0.45 -3.5,1 0,0.55 1.575,1 3.5,1 1.925,0 3.5,-0.45 3.5,-1 0,-0.55 -1.575,-1 -3.5,-1 z m 130.5,0 c -1.65,0 -3,0.389 -3,0.84375 0,0.047 0.0348,0.0843 0.0625,0.125 -0.0171,0.0173 -0.0625,0.0135 -0.0625,0.0312 0,0.55 0.3375,0.97135 0.75,0.90625 0.23472,-0.037 5.52293,-0.0676 12.71875,-0.0625 0.18147,0.0845 0.37212,0.15625 0.53125,0.15625 0.15913,0 0.34978,-0.0718 0.53125,-0.15625 5.29262,0.005 11.09914,0.036 18.0625,0.0625 l 31.125,0.0937 2.78125,2.59375 1.84375,1.71875 c 0.039,0.35018 0.26713,0.96043 0.65625,1.6875 0.0952,0.17794 0.21377,0.33549 0.3125,0.5 l -0.1875,27.03125 c -0.0503,4.14043 -0.0874,8.83893 -0.0937,14.03125 l -0.3125,46 c -0.36416,53.50275 -0.97938,89.06669 -1.5625,90.15625 -2.82623,5.28088 -3.52915,5.45015 -25.5625,5.34375 C 530.4097,555.77526 524,556.06604 524,556.8125 c 0,0.75423 6.57151,0.99361 21.59375,0.78125 l 21.5625,-0.3125 L 570.125,554 l 2.9375,-3.3125 0.0312,-22.1875 c 0.0193,-12.20944 0.29027,-52.60165 0.59375,-89.75 L 574.25,371.21875 570.59375,368 l -3.65625,-3.21875 -31.96875,0 c -6.85417,0 -12.27432,0.0492 -17,0.125 -0.25966,-0.0866 -0.58159,-0.125 -0.96875,-0.125 -0.47325,0 -0.84866,0.0624 -1.125,0.1875 -2.57027,0.0513 -5.11808,0.11157 -6.90625,0.1875 -0.12126,-0.20024 -1.39808,-0.375 -2.96875,-0.375 z m -163.34375,0.0625 c -13.19514,0.0225 -26.5073,0.38238 -28,1.0625 -1.28681,0.58631 -3.06259,2.30975 -3.96875,3.84375 -0.43263,0.73239 -0.7621,1.97485 -1,5.125 -0.39543,0.14579 -0.6875,0.48371 -0.6875,0.90625 0,0.55 0.19496,1 0.4375,1 0.0355,0 0.0804,-0.0443 0.125,-0.0625 -0.15396,2.83947 -0.26144,7.2516 -0.34375,13.0625 -0.004,0.27884 0.003,0.57893 0,0.875 -0.13141,9.9025 -0.1649,26.83513 -0.1875,49.3125 -0.004,0.14988 -0.0312,0.28045 -0.0312,0.4375 0,0.16319 0.0274,0.28366 0.0312,0.4375 -0.004,4.06342 -0.0288,6.67994 -0.0312,11.25 -2.9e-4,0.0665 0,0.12047 0,0.1875 0,0.0559 -2e-4,0.10078 0,0.15625 -6.4e-4,1.2102 5.6e-4,1.72186 0,2.96875 -0.004,8.11903 0.003,8.27967 0,15.875 -0.0131,35.04617 -0.0402,70.42479 -0.0312,73.25 0.0109,3.4375 0.36078,6.25 0.78125,6.25 0.42047,0 0.758,-40.1625 0.75,-89.25 l 0,-3.59375 c 0.30444,-1.09725 0.5,-3.17222 0.5,-5.65625 0,-2.48403 -0.19556,-4.559 -0.5,-5.65625 l 0,-70.84375 c 0.22879,-0.37019 0.2109,-0.70214 0,-0.875 l 0,-2.625 2.84375,-2.75 2.875,-2.75 27.625,0 c 5.0797,-0.003 9.2708,-0.0397 12.90625,-0.0937 0.0241,-3.6e-4 0.0385,3.6e-4 0.0625,0 0.44807,0.0627 1.02733,0.0937 1.6875,0.0937 0.50912,0 0.9476,-0.0683 1.34375,-0.15625 7.00101,-0.15661 10.76864,-0.42081 10.15625,-0.8125 -1.05655,-0.67578 -14.14861,-0.99126 -27.34375,-0.96875 z m -113.8125,2.03125 c -0.57503,0.0527 -1.13589,0.23679 -1.65625,0.5625 -1.25178,0.78352 -2.00131,2.81531 -2.03125,4.71875 C 225.04291,372.28214 225,372.5686 225,373 c 0,0.80068 0.28958,1.75834 0.65625,2.125 0.22326,0.22327 0.42595,0.36705 0.625,0.46875 1.5778,1.51104 4.97209,1.55916 6.53125,0 0.18026,-0.18026 0.3462,-0.45816 0.5,-0.78125 0.38227,-0.50285 0.59691,-1.2126 0.53125,-1.8125 0.0882,-0.4805 0.15625,-0.96509 0.15625,-1.4375 0,-0.35812 -0.0419,-0.69811 -0.125,-1.03125 0.0694,-0.0595 0.125,-0.11593 0.125,-0.1875 0,-0.14859 -0.1802,-0.38497 -0.4375,-0.625 -0.85023,-1.80067 -2.82427,-3.01736 -4.71875,-2.84375 z m 398.875,0.5 c -0.21077,0.0165 -0.44356,0.053 -0.71875,0.125 -1.10076,0.28786 -2,0.6954 -2,0.90625 0,0.78908 2.89925,0.33966 3.4375,-0.53125 0.23116,-0.37403 -0.0864,-0.54954 -0.71875,-0.5 z M 634,371.78125 c -0.34627,0 -1.35563,1.53072 -2.25,3.40625 l -1.625,3.4375 2.625,-1.375 c 2.29396,-1.19012 2.76009,-1.1442 3.9375,0.34375 0.78169,0.98786 0.6489,0.11866 -0.34375,-2.0625 -0.93866,-2.0625 -1.99748,-3.75 -2.34375,-3.75 z m -18.9375,1.03125 c -0.0634,0.0159 0.26893,0.43687 0.90625,1.28125 0.96128,1.2736 1.0419,2.0831 0.28125,2.84375 -1.38869,1.38869 -3.54058,0.0659 -2.84375,-1.75 0.29524,-0.76937 0.0952,-1.40625 -0.4375,-1.40625 -0.53274,0 -0.9184,1.6875 -0.875,3.75 0.0434,2.0625 0.28509,3.1875 0.5625,2.5 0.27741,-0.6875 1.39732,-1.25 2.46875,-1.25 2.74826,0 3.50952,-2.80679 1.3125,-4.8125 -0.86303,-0.78789 -1.31165,-1.17211 -1.375,-1.15625 z m 8.5625,0.25 c -0.992,0.0417 -1.85422,0.48779 -2.4375,1.125 -0.0243,0.0265 -0.0704,0.0352 -0.0937,0.0625 -0.0308,0.0232 -0.0583,0.0406 -0.0937,0.0625 -0.5437,0.33603 -1,1.01371 -1,1.53125 0,0.73622 0.19797,1.03975 0.46875,0.90625 0.0302,0.13113 0.0746,0.27498 0.125,0.40625 0.2347,0.61162 0.8233,1.06477 1.59375,1.28125 -0.011,0.008 -0.0851,0.0566 -0.0937,0.0625 -0.22916,0.15563 0.0507,0.28125 0.625,0.28125 0.17948,0 0.40376,-0.0836 0.65625,-0.21875 0.0721,-0.002 0.14559,0.006 0.21875,0 1.8595,-0.15389 2.40625,-0.79114 2.40625,-2.78125 0,-1.82266 -0.56591,-2.61543 -1.9375,-2.71875 -0.1528,-0.0115 -0.28988,-0.006 -0.4375,0 z M 634,373.78125 c 0.55,0 1,0.45 1,1 0,0.55 -0.45,1 -1,1 -0.55,0 -1,-0.45 -1,-1 0,-0.55 0.45,-1 1,-1 z m -10.96875,0.25 c 1.17809,0.0337 2.27586,1.41188 1.53125,2.65625 -0.005,0.008 0.005,0.0234 0,0.0312 -0.0239,0.0175 -0.0379,0.0132 -0.0625,0.0312 -0.63792,0.46792 -0.94465,0.66456 -1.40625,1 -0.0301,0.003 -0.065,0.0312 -0.0937,0.0312 -1.54459,0 -2.27892,-2.12733 -1.125,-3.28125 0.34488,-0.34488 0.76107,-0.48007 1.15625,-0.46875 z m -19.4375,0.0937 c -0.24324,0.042 -0.56844,0.22496 -0.9375,0.53125 -0.7381,0.61257 -1.6381,0.83064 -2,0.46875 -0.36189,-0.3619 -0.65625,0.0787 -0.65625,1 0,1.42481 0.29887,1.49987 2,0.4375 1.1,-0.68696 2,-1.63996 2,-2.125 0,-0.24252 -0.16301,-0.35453 -0.40625,-0.3125 z m -281.5625,0.46875 -2.3125,2.34375 c -0.0218,0.015 -0.0381,0.0138 -0.0625,0.0312 -0.20692,0.14746 -0.50974,0.37653 -0.90625,0.6875 -0.9625,0.75485 -1.75,1.54235 -1.75,1.75 0,0.0902 0.012,0.16081 0.0312,0.21875 l -1.03125,1 0,73.09375 0,7.53125 0,80.625 2.5,2.3125 c 0.59533,0.55174 1.11765,0.98616 1.75,1.3125 0.28645,0.22402 0.50573,0.33386 0.625,0.25 1.73141,0.65759 4.36657,0.80637 10.3125,0.90625 5.61197,0.0943 10.44012,0.40887 10.71875,0.6875 0.69078,0.69078 7.90524,-0.0302 8.75,-0.875 0.37354,-0.37356 42.32916,-0.56592 93.25,-0.4375 l 116.8437,-0.0937 0.0937,-0.0312 0.0312,-0.0312 c 1.30133,-1.30133 2.3383,-1.64272 3.03125,-2.9375 0.74814,-1.3976 1.09395,-26.4202 1.09395,-81.3438 0,-70.44722 -0.16993,-79.60558 -1.5625,-81.59375 -0.86263,-1.23158 -1.95598,-2.02828 -2.40625,-1.75 -0.45027,0.27828 -0.73165,-0.26217 -0.65625,-1.21875 0.0791,-1.00306 -1.39675,-1.44918 -15.6875,-1.625 -9.0031,-0.11076 -23.02402,-0.10048 -45.1875,-0.0937 -33.55,0.0102 -69.325,0.13294 -79.5,0.28125 -10.175,0.14832 -36.36754,-0.0254 -58.21875,-0.375 z m 222.65625,0.8125 3.3125,0.0312 z m 62.75,-0.8125 c -0.12935,0.0698 -0.23725,0.65625 -0.25,1.6875 -0.0204,1.65 0.19487,2.45828 0.46875,1.78125 0.27397,-0.67703 0.28479,-2.02703 0.0312,-3 -0.0951,-0.36486 -0.17239,-0.51061 -0.25,-0.46875 z M 611,386.78125 c -0.0897,-0.018 -0.48965,0.27869 -1.25,0.875 -0.9625,0.75485 -1.69965,2.10485 -1.65625,3 0.066,1.36145 0.16047,1.37975 0.625,0.125 0.30543,-0.825 1.0426,-2.175 1.65625,-3 0.48477,-0.65173 0.71467,-0.98197 0.625,-1 z m 18.6875,2.40625 c -0.10558,0.0707 -0.27004,0.98722 -0.625,2.8125 -0.39549,2.03367 -1.15249,4.289 -1.65625,5.03125 -0.50377,0.74224 -0.11875,0.48685 0.84375,-0.5625 0.96877,-1.05619 1.6887,-3.29344 1.625,-5.03125 -0.0568,-1.54964 -0.0819,-2.32069 -0.1875,-2.25 z m 21.78125,2.96875 c -0.37638,-0.0192 -0.85078,1.44912 -0.9375,4.0625 -0.0624,1.88203 0.25651,3.20386 0.6875,2.9375 C 651.64973,398.88988 652,397.0467 652,395.0625 c 0,-1.97908 -0.23851,-2.89133 -0.53125,-2.90625 z m -45.25,4.1875 c -0.0507,-0.006 -0.0968,0.004 -0.125,0.0312 -0.22579,0.21776 0.40771,1.30288 1.40625,2.40625 2.49906,2.76143 2.96364,2.51147 0.78125,-0.40625 -0.86465,-1.15599 -1.70761,-1.98628 -2.0625,-2.03125 z m 25.0625,0.59375 C 631.10547,396.9662 631,397.20369 631,397.59375 c 0,0.6241 -1.2375,1.80445 -2.75,2.625 -1.6881,0.91581 -2.13536,1.50665 -1.15625,1.53125 1.86972,0.0469 5.52748,-3.66001 4.5625,-4.625 -0.13624,-0.13623 -0.26953,-0.20471 -0.375,-0.1875 z M 620,398.90625 c -0.81562,0 -1.63125,0.0683 -2.25,0.1875 -1.2375,0.23835 -0.225,0.4375 2.25,0.4375 2.475,0 3.4875,-0.19915 2.25,-0.4375 -0.61875,-0.11918 -1.43438,-0.1875 -2.25,-0.1875 z m 34.6875,0.625 c -1.53107,0.0768 -3.6875,0.89169 -3.6875,1.625 0,0.16039 1.38803,0.0941 3.09375,-0.15625 2.0786,-0.30507 2.68208,-0.74382 1.8125,-1.28125 -0.26931,-0.16644 -0.70839,-0.21308 -1.21875,-0.1875 z m -34.8125,2.375 c -1.0875,-0.002 -2.19507,0.045 -3.09375,0.15625 -1.79735,0.22256 -0.58125,0.40025 2.71875,0.40625 3.30001,0.006 4.7839,-0.17808 3.28125,-0.40625 -0.75133,-0.11409 -1.81875,-0.1544 -2.90625,-0.15625 z m 13.71875,2 c -1.37701,0.0697 -1.59375,0.79863 -1.59375,3.875 0,3.29279 0.33969,4 1.9375,4 2.47585,0 3.64572,-1.80378 2.125,-3.3125 -0.89371,-0.88666 -1.00798,-0.77183 -0.5,0.5625 0.44544,1.17003 0.16017,1.75 -0.8125,1.75 -2.15236,0 -2.09519,-5.74259 0.0625,-6.3125 1.1825,-0.31234 1.01988,-0.4809 -0.5625,-0.5625 -0.24721,-0.0127 -0.45953,-0.01 -0.65625,0 z m -11.625,2.21875 c -0.4926,0.0456 -0.95642,0.26535 -1.375,0.6875 -0.78047,0.78713 -0.59908,0.9154 0.65625,0.4375 1.12085,-0.4267 1.92602,-0.10285 2.34375,0.9375 0.006,0.0143 0.0257,0.0167 0.0312,0.0312 0.0211,0.15132 0.0198,0.3056 0.0625,0.46875 0.20949,0.80108 0.12075,1.41723 -0.28125,1.84375 -0.01,0.0105 -0.021,0.021 -0.0312,0.0312 -0.54167,0.24795 -1.44851,0.0333 -2.65625,-0.71875 -2.01304,-1.25356 -2.09698,-1.23517 -0.84375,0.28125 0.48071,0.58166 1.0035,1.00208 1.53125,1.28125 -0.19842,0.10715 -0.0465,0.16681 0.46875,0.21875 0.69566,0.25422 1.36492,0.24512 1.90625,0 0.0169,-0.008 0.0459,0.008 0.0625,0 0.73409,-0.17043 1.04136,-0.67695 1.125,-1.6875 7.9e-4,-0.01 -7.5e-4,-0.0215 0,-0.0312 0.004,-0.0298 -0.003,-0.0633 0,-0.0937 0.008,-0.1302 0.0294,-0.25955 0.0312,-0.40625 0,-0.0415 10e-4,-0.084 0,-0.125 0,-0.13323 -0.0239,-0.24726 -0.0312,-0.375 -0.0687,-1.1906 -0.42479,-2.125 -0.875,-2.125 -0.076,0 -0.1267,0.0251 -0.1875,0.0625 -0.55251,-0.50282 -1.25334,-0.78204 -1.9375,-0.71875 z m -7.6875,0.0625 c -0.45923,-0.003 -0.85581,0.21244 -1.1875,0.59375 -0.005,0.006 -0.0263,-0.006 -0.0312,0 -0.58246,0 -1.0625,0.45 -1.0625,1 0,0.4125 0.1241,0.75391 0.28125,0.90625 -0.1353,0.69069 -0.18284,1.519 -0.15625,2.46875 0.0638,2.27866 0.31097,3.3375 0.5625,2.375 0.25152,-0.9625 1.28042,-1.75 2.28125,-1.75 2.44702,0 3.30837,-2.56663 1.46875,-4.40625 -0.78562,-0.78563 -1.53003,-1.18398 -2.15625,-1.1875 z m -6.375,0.71875 c -0.3474,-0.0143 -0.73282,0.0431 -1.09375,0.1875 -0.79773,0.31923 -0.5712,0.577 0.59375,0.625 1.05416,0.0434 1.64479,-0.19896 1.3125,-0.53125 -0.16614,-0.16618 -0.4651,-0.26693 -0.8125,-0.28125 z M 603.75,407 c -0.17571,0.009 -0.64202,0.25897 -1.40625,0.65625 -1.65685,0.86132 -2.30431,0.8236 -2.6875,-0.125 -0.27595,-0.68311 -0.5191,-0.0125 -0.5625,1.5 -0.0434,1.5125 0.0396,2.75 0.21875,2.75 0.17912,0 1.41662,-1.17535 2.75,-2.625 1.42342,-1.54754 1.98035,-2.17051 1.6875,-2.15625 z m 10.59375,0.25 c 1.15429,0.0442 2.76004,2.08371 1.96875,2.875 -0.3619,0.36189 -1.23541,0.65625 -1.96875,0.65625 -1.11728,0 -1.60492,-1.44674 -1.1875,-2.53125 0.015,-0.0174 0.0163,-0.0445 0.0312,-0.0625 0.006,-0.0132 0.0254,-0.0182 0.0312,-0.0312 0.0966,-0.11953 0.19627,-0.2375 0.28125,-0.375 0.0352,-0.0569 0.0386,-0.10183 0.0625,-0.15625 0.0962,-0.10053 0.1894,-0.17392 0.3125,-0.25 0.13764,-0.0851 0.30385,-0.13131 0.46875,-0.125 z m -7.96875,1.875 c -0.15157,-0.0229 -0.25125,0.36566 -0.28125,1.09375 -0.0434,1.05416 0.16771,1.64479 0.5,1.3125 0.33225,-0.33229 0.38262,-1.21562 0.0937,-1.9375 -0.11971,-0.29915 -0.22156,-0.45498 -0.3125,-0.46875 z m 15.53125,6.78125 c -0.3474,-0.0143 -0.73282,0.0431 -1.09375,0.1875 -0.79773,0.31922 -0.5712,0.577 0.59375,0.625 1.05416,0.0434 1.64479,-0.19895 1.3125,-0.53125 -0.16614,-0.16612 -0.4651,-0.26695 -0.8125,-0.28125 z M 612,419.78125 c -0.0516,-0.0516 -0.45697,0.25306 -1.25,0.875 -0.9625,0.75485 -1.75,1.54235 -1.75,1.75 0,0.82304 0.81863,0.29075 2.125,-1.375 0.62194,-0.79303 0.92662,-1.19838 0.875,-1.25 z m -5.5625,10 c -0.275,0 -0.0262,0.9 0.5625,2 0.5887,1.1 1.2875,2 1.5625,2 0.275,0 0.0262,-0.9 -0.5625,-2 -0.5887,-1.1 -1.2875,-2 -1.5625,-2 z m 24,2.40625 c -0.068,0.0289 -0.19043,0.14787 -0.40625,0.3125 -0.86327,0.65854 -2.69881,1.64341 -4.0625,2.1875 -1.64878,0.65784 -1.90788,0.98905 -0.78125,1.03125 0.93183,0.0349 2.76737,-0.95 4.0625,-2.1875 0.97134,-0.92812 1.3916,-1.43034 1.1875,-1.34375 z M 616,434.90625 c -0.81562,0 -1.63125,0.0683 -2.25,0.1875 -1.2375,0.23835 -0.225,0.4375 2.25,0.4375 2.475,0 3.4875,-0.19915 2.25,-0.4375 -0.61875,-0.11918 -1.43438,-0.1875 -2.25,-0.1875 z m 17.59375,4.8125 c -1.16017,0.0584 -2.30313,1.48232 -1.90625,3 0.65141,2.49097 0.70975,2.50498 2.4375,0.375 0.78185,-0.96389 0.86024,-1.37224 0.1875,-0.96875 -0.6495,0.38955 -1.46704,0.24647 -1.8125,-0.3125 -0.34546,-0.55897 0.14462,-1.03125 1.09375,-1.03125 0.94913,0 1.46795,-0.28205 1.125,-0.625 -0.33427,-0.33427 -0.73828,-0.45696 -1.125,-0.4375 z m -27.21875,0.0625 c -0.21088,0 -0.3512,1.9125 -0.3125,4.25 0.0114,0.68814 0.061,1.23988 0.0937,1.6875 -0.0207,0.15439 -0.0536,0.28394 -0.0625,0.5 -0.0434,1.05416 0.16771,1.64479 0.5,1.3125 0.20293,-0.20296 0.3017,-0.61076 0.28125,-1.0625 0.0142,-0.0344 0.0166,-0.0563 0.0312,-0.0937 0.70764,-1.8068 0.31764,-6.59375 -0.53125,-6.59375 z m 2.3125,0.0312 c -0.71561,0.009 -0.58879,0.38629 0.3125,0.96875 1.92112,1.24153 2.2673,1.24153 1.5,0 -0.33992,-0.55 -1.15746,-0.97675 -1.8125,-0.96875 z m -7.78125,0.0937 c -0.3474,-0.0143 -0.73282,0.0431 -1.09375,0.1875 -0.79773,0.31922 -0.5712,0.577 0.59375,0.625 1.05416,0.0434 1.64479,-0.19895 1.3125,-0.53125 -0.16614,-0.16612 -0.4651,-0.26695 -0.8125,-0.28125 z m 14.8125,0.0312 c -0.11096,-0.002 -0.29426,0.0842 -0.5625,0.25 -0.63498,0.39244 -1.1059,1.70121 -1.0625,2.90625 0.0434,1.20504 0.28509,1.625 0.5625,0.9375 0.27741,-0.6875 1.12829,-1.25 1.875,-1.25 1.87736,0 2.7663,-1.68332 1.34375,-2.5625 -0.73122,-0.45192 -0.91438,-0.31479 -0.46875,0.40625 0.42705,0.69098 0.0622,1.15625 -0.90625,1.15625 -0.96841,0 -1.3333,-0.46527 -0.90625,-1.15625 0.2763,-0.44706 0.30993,-0.68341 0.125,-0.6875 z m 10.5,0.28125 c -0.15804,0.0797 -0.3031,0.39315 -0.5,0.90625 -0.37375,0.97398 -1.27618,1.38096 -2.1875,1.03125 C 622.68543,441.83168 622,442.1087 622,442.75 c 0,0.64127 0.45,0.87117 1,0.53125 0.55,-0.33992 1,-0.0873 1,0.5625 0,0.88045 0.3822,0.86519 1.5,-0.0625 1.2014,-0.9971 1.5,-0.96999 1.5,0.0625 0,0.70903 0.24444,1.03682 0.53125,0.75 0.28682,-0.28682 0.12535,-1.5444 -0.34375,-2.8125 -0.44377,-1.19964 -0.70534,-1.69536 -0.96875,-1.5625 z m -26.03125,1.6875 c -1.52452,0.10458 -1.51521,0.1502 0.0625,0.5625 0.9625,0.25152 1.75,0.96116 1.75,1.5625 0,0.60134 0.26365,0.83007 0.59375,0.5 0.99873,-0.99873 -0.6021,-2.74876 -2.40625,-2.625 z m 60.625,50.9375 c -0.56647,-0.0262 -2.79205,0.58472 -11.53125,2.96875 l -8.21875,2.25 2.21875,3.125 c 1.22125,1.71509 2.15905,3.31875 2.09375,3.59375 -0.0653,0.275 0.10931,1.08887 0.375,1.78125 0.29613,0.7717 3.34514,-1.52941 7.875,-5.9375 4.06429,-3.95502 7.375,-7.38183 7.375,-7.59375 0,-0.10664 10e-4,-0.17878 -0.1875,-0.1875 z m -438.03125,0.1875 c -0.51656,0.0274 -0.13257,0.50549 0.90625,1.71875 1.26656,1.47923 1.92264,1.69011 2.5,0.78125 0.52752,-0.83041 0.8021,-0.60724 0.8125,0.71875 0.008,1.07918 1.90423,3.89168 4.21875,6.25 1.92876,1.96527 3.77591,3.62376 4.59375,4.125 0.0288,0.024 0.0631,0.0445 0.0937,0.0625 0.0104,0.006 0.0213,0.0259 0.0312,0.0312 0.0198,0.01 0.042,0.024 0.0625,0.0312 0.0683,0.0314 0.1485,0.0312 0.1875,0.0312 0.07,-0.003 0.1225,-0.0411 0.1875,-0.0625 0.28597,-0.0942 0.52242,-0.32975 0.59375,-0.65625 0.58914,-0.73897 1.35415,-1.95651 2.09375,-3.40625 2.1902,-4.29314 1.66892,-5.8007 -2.0625,-5.875 -0.825,-0.0164 -3.3,-0.63067 -5.5,-1.375 -2.2,-0.74432 -5.23293,-1.64071 -6.75,-2 -1.004,-0.23778 -1.65882,-0.39144 -1.96875,-0.375 z M 495.375,551.71875 c -0.0844,-0.004 -0.19096,0.0175 -0.28125,0.0625 -0.0326,-0.006 -0.0603,0 -0.0937,0 -0.53916,0 -0.98274,0.86719 -1,1.9375 -0.002,0.0107 0.002,0.0204 0,0.0312 -9e-5,0.0108 0,0.0204 0,0.0312 -0.0633,0.30968 -0.10998,0.63957 -0.125,1 -0.0688,1.65 -0.20807,3.5625 -0.3125,4.25 -0.10442,0.6875 -0.0181,1.5875 0.1875,2 0.75743,1.51938 2.25,0.68908 2.25,-1.25 0,-1.1 0.379,-2 0.84375,-2 0.46476,0 1.66076,0.9 2.65625,2 0.99549,1.1 2.72609,2 3.84375,2 1.87603,0 1.82025,-0.22486 -0.71875,-2.875 l -2.75,-2.84375 2.8125,-2.125 c 2.4496,-1.82663 2.55405,-2.09385 0.8125,-2.09375 -1.1,7e-5 -2.86988,0.66125 -3.9375,1.46875 -2.4734,1.87079 -3.5625,1.86164 -3.5625,-0.0312 0,-1.08181 -0.2667,-1.54496 -0.625,-1.5625 z m 16.21875,0.0312 c -1.03362,0.0676 -2.04106,0.28827 -3,0.65625 -1.80328,0.69198 -2.05117,1.3208 -1.15625,1.65625 -0.44847,0.74906 0.47022,0.71735 3.65625,0.125 0.0987,-0.012 0.17962,-0.0173 0.28125,-0.0312 2.75729,-0.37793 4.62641,-0.17437 5.0625,0.53125 0.44677,0.72289 -0.3968,1.13795 -2.375,1.21875 -1.68246,0.0688 -3.5125,0.2375 -4.0625,0.375 -0.55,0.1375 -1.45,0.3063 -2,0.375 -0.55,0.0688 -1,1.25 -1,2.625 0,2.38889 0.26667,2.5 6,2.5 5.24806,0 6,-0.22844 6,-1.90625 0,-1.05502 0.25587,-2.57594 0.5625,-3.375 0.4135,-1.07757 -0.04,-2.06756 -1,-2.875 0.10821,-0.56877 -0.34858,-0.85117 -1.78125,-1.0625 -0.009,-0.004 -0.0223,0.004 -0.0312,0 -1.46742,-0.60513 -3.31338,-0.93305 -5.15625,-0.8125 z m -142.65625,0.0312 c -0.033,0 -0.0616,0.0277 -0.0937,0.0312 -3.86391,0.0848 -5.84375,0.95147 -5.84375,2.59375 0,1.61105 1.59249,1.84339 2.5,0.375 0.33992,-0.55 1.91492,-1 3.5,-1 1.58508,0 3.16008,0.45 3.5,1 0.34907,0.56481 -0.46297,1 -1.875,1 -1.375,0 -2.78508,0.45 -3.125,1 -0.36058,0.58342 0.6528,1 2.4375,1 1.68246,0 3.0625,0.46048 3.0625,1 0,1.63285 -5.14506,2.40831 -7.25,1.09375 -2.04056,-1.27435 -3.36149,-0.87742 -2.375,0.71875 0.31779,0.51421 2.94397,0.8776 5.84375,0.8125 5.2112,-0.11701 5.27921,-0.16062 5.59375,-3.4375 0.0363,-0.37828 0.0276,-0.72094 0.0312,-1.0625 0.0816,-0.35117 0.15625,-0.73557 0.15625,-1.125 0,-1.03508 -0.3375,-2.08881 -0.75,-2.34375 -0.0516,-0.0319 -0.10754,-0.0387 -0.15625,-0.0312 -0.0426,0.007 -0.0855,0.0283 -0.125,0.0625 -0.85874,-1.1341 -2.32569,-1.6875 -4.5,-1.6875 -0.15333,0 -0.28958,0.029 -0.4375,0.0312 -0.0317,-0.003 -0.0632,-0.0312 -0.0937,-0.0312 z m 9.25,0 0,3.71875 c 0,2.04416 -0.48875,3.89208 -1.09375,4.09375 -0.605,0.20167 -1.09375,0.77709 -1.09375,1.28125 0,0.50417 0.68899,0.90625 1.53125,0.90625 1.65838,0 2.70227,-1.92536 2.875,-5.34375 0.0865,-1.71128 0.71917,-2.15625 3.09375,-2.15625 2.74482,0 3.02853,0.31897 3.3125,3.75 0.45876,5.54304 2.1875,4.55493 2.1875,-1.25 l 0,-2.90625 0,-2.09375 -5.40625,0 z m 29.3125,0 c -1.56197,0 -2.12994,5.24862 -0.90625,8.4375 0.85742,2.2344 2.40625,1.94675 2.40625,-0.4375 0,-1.1 0.39917,-2 0.875,-2 0.47583,0 2.00783,0.9 3.40625,2 3.98097,3.13143 5.62728,2.26702 1.84375,-0.96875 l -3.40625,-2.875 3.40625,-2.0625 c 3.33909,-2.03566 3.34348,-2.08975 0.75,-2.09375 -1.44515,-0.002 -3.19031,0.675 -3.875,1.5 -0.68469,0.825 -1.64235,1.5 -2.125,1.5 -0.48266,0 -0.875,-0.675 -0.875,-1.5 0,-0.825 -0.675,-1.5 -1.5,-1.5 z m 19,0 c -0.28314,0 -0.52112,0.0207 -0.78125,0.0312 -0.0623,0.003 -0.12653,-0.003 -0.1875,0 -0.1685,10e-4 -0.33136,0.0279 -0.5,0.0312 -2.61118,0.0516 -5.1649,0.34473 -5.53125,0.9375 -0.35052,0.56716 0.48614,1 1.9375,1 0.57971,0 1.0264,0.0332 1.375,0.125 0.14394,0.0749 0.25383,0.14468 0.4375,0.21875 0.0276,0.0111 0.0646,0.0209 0.0937,0.0312 0.57323,0.45474 0.65625,1.44573 0.65625,3.625 0,4.16241 1.88918,5.6952 2.15625,1.75 0.0838,-1.2375 0.1963,-2.925 0.25,-3.75 0.0537,-0.825 1.10625,-1.63675 2.34375,-1.8125 0.40332,-0.0573 0.76549,-0.15696 1.09375,-0.28125 0.60741,-0.13519 1.03238,-0.42811 1.125,-0.78125 0.0203,-0.0437 0.0244,-0.0815 0.0312,-0.125 0,-0.009 10e-4,-0.0221 0,-0.0312 8.3e-4,-0.0104 0,-0.0209 0,-0.0312 0,-0.20348 -0.30736,-0.36524 -0.78125,-0.5 -0.0752,-0.0214 -0.13418,-0.0428 -0.21875,-0.0625 -0.19946,-0.0555 -0.44032,-0.08 -0.6875,-0.125 -0.5058,-0.0922 -1.09772,-0.15107 -1.75,-0.1875 -0.34952,-0.0195 -0.68672,-0.0625 -1.0625,-0.0625 z m 27.78125,0 c -0.36069,-8e-4 -0.73586,0.011 -1.09375,0.0312 -0.36462,0.0206 -0.71391,0.0509 -1.0625,0.0937 -2.44009,0.002 -3.34005,0.43998 -3.9375,1.59375 -0.92305,1.78256 -0.83587,4.1267 0.21875,6.875 0.6051,1.57687 8.15874,1.98759 10.40625,0.5625 0.76393,-0.48439 1.13637,-2.05893 1.03125,-4.21875 0.0828,-1.30537 0.0435,-2.73506 -0.25,-3.5 -0.005,-0.0131 -0.0254,-0.0183 -0.0312,-0.0312 l -0.0625,-0.90625 -1.6875,-0.0937 c -0.98244,-0.25605 -2.23591,-0.40338 -3.53125,-0.40625 z m 9.65625,0 c -0.83117,0 -1.1426,1.40355 -0.78125,2.5 -0.0894,0.74793 -0.15625,1.57004 -0.15625,2.5 0,2.75 0.45,5 1,5 0.55,0 1,-0.84657 1,-1.90625 0,-2.06717 2.12712,-2.90244 5.75,-2.25 1.39348,0.25096 2.25,1.11479 2.25,2.28125 0,1.03588 0.45,1.875 1,1.875 0.55,0 1,-2.25 1,-5 0,-1.08421 -0.0816,-1.96426 -0.1875,-2.71875 0.097,-0.23094 0.1875,-0.48966 0.1875,-0.78125 0,-0.825 -0.45,-1.5 -1,-1.5 -0.0335,0 -0.0611,-0.005 -0.0937,0 -0.17455,-0.0244 -0.37845,0.10075 -0.5625,0.375 -0.0184,0.0239 -0.0453,0.0367 -0.0625,0.0625 -0.005,0.008 0.005,0.0227 0,0.0312 -0.0245,0.0383 -0.0408,0.083 -0.0625,0.125 -0.0498,0.0946 -0.0756,0.19443 -0.125,0.3125 -0.12291,0.29377 -0.25878,0.64933 -0.375,1.09375 -0.40061,1.53195 -1.37238,2 -4.125,2 -2.92695,0 -3.59375,-0.37103 -3.59375,-2 0,-0.9625 -0.35791,-1.7502 -0.8125,-1.9375 -0.0227,-0.009 -0.0392,-0.025 -0.0625,-0.0312 -0.0397,-0.0181 -0.0826,-0.0252 -0.125,-0.0312 -0.0203,-0.003 -0.0416,0 -0.0625,0 z m 15.0625,0 c -0.55,0 -1,0.675 -1,1.5 0,0.28685 0.0622,0.55273 0.15625,0.78125 -0.10084,0.74299 -0.15625,1.595 -0.15625,2.71875 0,6.44117 2.01205,6.65309 7.125,0.75 L 488.1875,554 c 0.22281,0.0692 0.39599,0.17726 0.53125,0.34375 l -0.3125,3.1875 c -0.31062,3.28704 -0.0646,4.25 1.09375,4.25 1.13063,0 1.5,-1.22556 1.5,-5 0,-0.87809 -0.003,-1.55732 -0.0312,-2.15625 0.007,-0.11737 0.0312,-0.22184 0.0312,-0.34375 0,-0.60397 -0.11887,-1.06721 -0.3125,-1.4375 -0.004,-0.008 0.005,-0.0229 0,-0.0312 -0.25504,-0.754 -0.7212,-0.94165 -1.59375,-0.96875 -0.11362,-0.004 -0.21623,-0.0325 -0.34375,-0.0312 -0.57971,0.005 -1.18388,0.25673 -1.84375,0.6875 -1.03858,0.678 -2.1897,1.84771 -3.40625,3.5625 l -3,4.21875 -0.3125,-4.25 c -0.0649,-0.8973 -0.16607,-1.61667 -0.28125,-2.21875 0.0413,-0.16404 0.0937,-0.34618 0.0937,-0.53125 0,-0.825 -0.45,-1.5 -1,-1.5 z m -83.5625,0.125 c -1.47337,0.0308 -2.23969,0.25809 -2.78125,0.875 -0.70095,0.30551 -0.85116,0.59747 -0.5,0.8125 -0.0715,0.13803 -0.1462,0.27827 -0.21875,0.4375 -0.73761,1.61883 -0.75003,3.14074 -0.0312,5.03125 0.16416,0.43177 0.33183,0.78621 0.5,1.09375 -0.002,0.008 0.002,0.0232 0,0.0312 -0.10142,0.3625 -0.10625,0.59375 0.0312,0.59375 0.0688,0 0.16787,-0.0547 0.28125,-0.15625 0.7419,0.9663 1.82871,1.16582 4.5,1.15625 2.35111,-0.008 4.95625,-0.46684 5.78125,-1 1.07384,-0.69397 0.008,-0.95775 -3.75,-0.96875 -2.8875,-0.008 -5.25,-0.48125 -5.25,-1.03125 0.11157,-0.20849 0.19535,-0.4044 0.28125,-0.59375 0.66511,-0.61195 2.62262,-0.74161 6.53125,-0.46875 3.10529,0.21678 3.30335,0.0557 3,-2.59375 -0.006,-0.0484 -0.0257,-0.0783 -0.0312,-0.125 0.13886,-0.84875 0.0984,-1.65159 -0.15625,-1.90625 -0.14311,-0.14311 -0.43412,-0.28479 -0.8125,-0.40625 -0.058,-0.0186 -0.0937,-0.0445 -0.15625,-0.0625 -0.75513,-0.37309 -2.04633,-0.48911 -4.40625,-0.625 -1.16819,-0.0673 -2.07582,-0.10917 -2.8125,-0.0937 z m 44.71875,0 c -0.61789,-0.0205 -1.29538,0.005 -2.03125,0.0312 l -5.125,0.15625 0,1.6875 0,4.15625 c 0,3.2276 0.44746,5.84375 1,5.84375 0.55,0 1,-0.45 1,-1 0,-0.55 1.9475,-1 4.3125,-1 4.9664,0 6.6875,-1.29874 6.6875,-5.0625 0,-3.31131 -1.51852,-4.66866 -5.84375,-4.8125 z m 11.5,1.96875 c 0.52024,-0.0155 1.19412,0.0193 2.09375,0.0937 3.25057,0.26904 3.75,0.64545 3.75,2.8125 0,2.16705 -0.49943,2.54346 -3.75,2.8125 -3.59854,0.29783 -3.75,0.18219 -3.75,-2.8125 0,-2.24602 0.0955,-2.8596 1.65625,-2.90625 z m -52.71875,0.0312 c 1.26712,0.16034 2.31617,0.47643 2.5625,0.875 0.37325,0.60393 -0.98614,1 -3.4375,1 -2.23246,0 -4.0625,-0.45 -4.0625,-1 0,-0.33393 0.59671,-0.59938 1.46875,-0.78125 0.62099,-6.8e-4 1.29806,-0.0149 2.0625,-0.0625 0.50334,-0.0313 0.94577,-0.0218 1.40625,-0.0312 z m 41.5,0 c 0.0958,-0.005 0.16125,0.004 0.25,0 0.70608,0.0754 1.36726,0.20706 1.9375,0.40625 0.33586,0.40626 0.375,1.12659 0.375,2.40625 0,2.9121 -0.1931,3.0625 -4.0625,3.0625 -3.8461,0 -4.04928,-0.14897 -3.75,-2.75 0.27471,-2.3875 0.80682,-2.79304 4.0625,-3.0625 0.44801,-0.0371 0.83996,-0.0431 1.1875,-0.0625 z M 313.1875,554 c -0.12004,0.0452 -0.1875,0.19574 -0.1875,0.4375 0,0.57595 1.0125,1.52817 2.25,2.125 2.94617,1.42088 42.75,1.62444 42.75,0.21875 0,-0.63537 -7.77917,-1 -21.3125,-1 -15.23333,0 -21.64178,-0.32928 -22.5,-1.1875 -0.46172,-0.46173 -0.79994,-0.66901 -1,-0.59375 z M 513,557.78125 c 0.0741,10e-4 0.14416,0 0.21875,0 2.09471,0.0265 3.78125,0.43568 3.78125,0.90625 0,0.97474 -4.99865,1.92754 -6.84375,1.3125 -2.61749,-0.87249 -0.88991,-2.21875 2.84375,-2.21875 z m -277.6875,16.125 -5.75,5.8125 c -3.9166,3.9579 -5.32484,6.00923 -4.40625,6.375 2.36022,0.93983 3.64581,0.72919 5.1875,-0.8125 1.64484,-1.64484 3.10973,-2.03537 2.21875,-0.59375 -0.4203,0.68008 5.63083,-0.50073 7.1875,-1.40625 0.13698,-0.0797 -0.80947,-2.24447 -2.09375,-4.78125 z m 410.5625,0.90625 c -0.91155,-0.0393 -4.8723,9.43623 -4.0625,9.71875 0.37743,0.13167 3.6125,0.8585 7.1875,1.625 11.74075,2.51725 12.17597,2.02888 4.375,-5.0625 -3.77851,-3.4348 -7.15762,-6.26645 -7.5,-6.28125 z m -422.34375,12.09375 c -0.63133,0.004 -1.31418,0.28292 -1.75,0.71875 -0.74207,0.74207 -0.35085,0.87247 1.3125,0.4375 1.3522,-0.35361 1.7802,-0.81285 1.03125,-1.0625 -0.18036,-0.0601 -0.38331,-0.0951 -0.59375,-0.0937 z"
         id="path3398"
         inkscape:connector-curvature="0"
         sodipodi:nodetypes="ccccccscsssssssssssscsssssccscscsssssccsscscscssscsssccccccccssssssssssscccccssccccssssscccsccssccccccsccccscscccccccssccscccscsscccscscscscsssccsccccssccccccccsccsssssccscssssssssssccssccscsscssssssscsccscccccsccccssscccccccccscsccssssccsccccsccscssssccscccccccccscsssscsccsccscscsccsscscccsssssssssssssscccsscccsccsssssssssscccssssscsssscccssccccccccsscscccccccccssccssssssccccscsssssccssssssccssccsssscsssssssssssscsssssscssccssscccccssscccccccccscssccscsssssscccscsscssccsscscccccsscssssccsssssssscssccssscssssssssssssscccscscscsscssccscscssssssscssssscscscssccscccccssscscscssscccccsssscsscsssssssssssscssscssccsscscssssccccccssssssssscsscscscscscssssssssccccsssssssccssssscccsscccsscsccccsssssssscssscccccsscssssssscsscccccssscsccssscsccccsscscccssccccssscccsccscsscccsccsccssccccsssssssssssscssscscsscssssccssssscccsscccsscsssccsscsssssssssccsscccsscccsccssccsscc" />
    </g>
    <g
       id="g3277"
       transform="matrix(2,0,0,2,-452.63469,-649.23078)">
      <path
         style="fill:#a8a4a1"
         d="m 329.07144,549.505 0,-82.5 119.5,0 119.5,0 0,82.5 0,82.5 -119.5,0 -119.5,0 0,-82.5 z"
         id="path3285"
         inkscape:connector-curvature="0" />
      <path
         style="fill:#6a7871"
         d="m 329.84442,593.94758 0.27299,-37.55743 3.53386,-1.27786 c 4.32826,-1.56511 7.86699,-7.58032 5.38356,-9.15107 -2.11018,-1.33469 -3.377,-1.1656 -2.201,0.29378 1.37788,1.70991 -0.13999,5.34653 -2.83316,6.78787 -1.72475,0.92306 -2.36376,0.88427 -3.04109,-0.18463 -1.20167,-1.89636 -1.10664,-2.49188 0.68329,-4.28181 1.42857,-1.42857 1.42857,-1.57143 0,-1.57143 -2.16507,0 -1.96827,-1.27108 0.42857,-2.76793 2.35991,-1.47378 2.57004,-4.08896 0.54567,-6.79094 -1.33777,-1.78555 -1.40743,-1.64057 -0.86916,1.80887 0.38506,2.46757 0.19845,3.75 -0.54567,3.75 -0.65265,0 -1.13084,-1.69146 -1.13084,-4 0,-2.2 0.47656,-4 1.05902,-4 0.58246,0 0.81807,-0.38986 0.52358,-0.86635 -0.66468,-1.07547 3.18951,-4.69487 4.06603,-3.81835 0.35,0.35 0.0581,1.33312 -0.64863,2.1847 -1.69949,2.04776 -0.40038,3.23113 1.94156,1.76857 2.41469,-1.508 4.27356,0.5125 6.45363,7.01482 1.39729,4.16758 1.42431,5.21284 0.20991,8.1193 -0.76661,1.83476 -2.45387,4.10553 -3.74947,5.04615 -2.06163,1.49678 -2.11041,1.66823 -0.3908,1.37377 1.08066,-0.18505 3.03326,-1.90834 4.33912,-3.82953 2.94039,-4.32595 2.66862,-11.77068 -0.55765,-15.27571 -1.12256,-1.21955 -2.03096,-3.47362 -2.01866,-5.00904 0.0278,-3.4658 -0.76479,-4.33735 -2.57673,-2.83358 -0.76858,0.63787 -2.14621,0.87242 -3.06141,0.52122 -0.96292,-0.3695 -2.49094,0.10984 -3.62675,1.13774 -1.93296,1.7493 -1.96275,1.66767 -1.96275,-5.37872 0,-5.79523 0.2945,-7.15499 1.54966,-7.15499 0.85231,0 2.83984,-0.66718 4.41673,-1.48262 3.32803,-1.72099 5.16008,-7.18892 2.8905,-8.62699 -2.02107,-1.28061 -3.43437,-1.06787 -2.05689,0.30961 0.66,0.66 1.2,1.98448 1.2,2.9433 0,1.83807 -3.55676,4.8567 -5.72251,4.8567 -1.50583,0 -1.72804,-3.60351 -0.27749,-4.5 1.58252,-0.97805 1.16208,-2.77617 -0.5,-2.13837 -1.30098,0.49923 -1.50181,-1.97427 -1.51365,-18.64302 -0.008,-10.57023 -0.29109,-20.25438 -0.63016,-21.52033 -0.56536,-2.11079 -0.37759,-2.24428 2.26365,-1.60932 3.80028,0.91359 3.74312,0.80183 2.08058,4.06811 -0.79588,1.56361 -1.7455,3.96793 -2.11027,5.34293 -0.57821,2.17955 -0.45022,2.11546 0.99848,-0.5 5.29638,-9.56202 10.56283,-8.52565 14.94173,2.94033 1.26103,3.30195 2.07648,4.21374 3.4478,3.85513 0.98786,-0.25833 2.09847,0.0195 2.468,0.61742 0.39943,0.6463 -0.15032,1.08712 -1.35576,1.08712 -1.35189,0 -1.84388,0.47885 -1.47626,1.43686 0.30326,0.79027 1.18914,1.19212 1.96862,0.89301 0.77948,-0.29912 1.41724,-0.0457 1.41724,0.56314 0,0.60884 -0.49815,1.10699 -1.10699,1.10699 -0.60884,0 -0.86182,0.5625 -0.56217,1.25 0.29965,0.6875 2.37279,5.41974 4.60699,10.5161 4.40186,10.04095 4.4628,10.2339 3.232,10.2339 -0.4566,0 -3.90233,-6.52927 -7.65719,-14.50948 -3.75486,-7.98021 -6.98503,-14.35146 -7.17816,-14.15834 -0.72322,0.72323 13.13503,29.91076 14.43927,30.41124 2.84392,1.09132 3.43181,-1.42016 1.30727,-5.5846 -2.71705,-5.32586 -2.62516,-6.01864 0.41898,-3.15882 l 2.5,2.34863 0,-13.87726 0,-13.87727 -3.79216,3.70295 c -2.08569,2.03662 -4.11069,3.70295 -4.5,3.70295 -0.38931,0 -0.70784,-1.8 -0.70784,-4 0,-3.90108 -0.0861,-4 -3.48315,-4 -3.1757,0 -3.707,-0.44173 -6.01904,-5.00433 l -2.53589,-5.00433 111.76904,0.25433 111.76904,0.25433 0.2802,12.79284 0.28019,12.79284 -2.28019,-1.42099 c -3.56487,-2.22159 -8.7802,-2.91719 -8.7802,-1.17108 0,0.87238 -0.59356,1.21585 -1.5,0.86802 -1.80248,-0.69168 -1.89746,0.0291 -0.33379,2.53291 0.9527,1.52551 0.76961,2.37159 -1,4.62129 -2.92291,3.71587 -2.96357,11.45794 -0.0847,16.11614 1.14486,1.85241 2.71986,3.36803 3.5,3.36803 2.08768,0 1.73478,-1.35419 -1.02969,-3.95127 -3.60857,-3.39007 -4.0396,-7.04422 -1.5214,-12.89793 1.18496,-2.75451 3.07266,-5.82778 4.1949,-6.8295 1.9984,-1.78378 2.0254,-1.77305 1.31097,0.52062 -0.60281,1.9353 -0.40885,2.27544 1.1171,1.95901 1.26282,-0.26186 1.76386,-1.12298 1.58495,-2.724 -0.22189,-1.98562 -0.0321,-2.15061 1.25,-1.08657 1.83438,1.5224 1.89775,3.29981 0.2774,7.7808 -1.08526,3.00123 -1.0165,3.57235 0.56977,4.73226 1.73745,1.27045 1.73687,1.35713 -0.0158,2.35009 -1.73984,0.9857 -1.73193,1.09644 0.18023,2.52141 1.57975,1.17726 1.74304,1.75103 0.77713,2.73063 -0.94151,0.95484 -1.80434,0.97527 -3.75,0.0888 -2.68043,-1.22128 -3.30809,-4.01335 -1.3438,-5.97764 1.66823,-1.66823 0.18917,-2.7707 -1.65916,-1.23673 -0.8383,0.69572 -1.52417,2.54948 -1.52417,4.11945 0,3.47412 3.8257,6.35825 7.50185,5.65551 2.48127,-0.47432 2.49821,-0.42763 2.49821,6.88377 0,7.08351 -0.50348,8.36523 -2.55,6.49157 -0.5225,-0.47837 -2.6375,-1.12508 -4.7,-1.43713 -2.82399,-0.42727 -3.75,-0.22024 -3.75,0.83838 0,0.8387 -0.60506,1.17356 -1.5,0.83014 -1.76111,-0.6758 -1.98872,0.74965 -0.37704,2.36132 0.8306,0.83061 0.56832,1.90186 -1.00746,4.11485 -2.93281,4.11874 -3.76645,11.00272 -1.79426,14.81651 1.84663,3.571 4.44666,5.91112 5.45135,4.90643 0.39835,-0.39834 -0.0625,-1.29958 -1.02416,-2.00274 -0.96164,-0.70317 -1.74843,-1.79138 -1.74843,-2.41824 0,-0.62687 -0.45,-1.13976 -1,-1.13976 -2.08257,0 -0.96257,-8.48319 1.77336,-13.43191 2.78917,-5.04502 5.22664,-6.98105 5.22664,-4.15142 0,0.87083 0.72748,1.58333 1.61663,1.58333 1.1243,0 1.45735,-0.60908 1.09362,-2 -0.35359,-1.35215 -0.0307,-2 0.99687,-2 1.1886,0 1.37056,0.70839 0.83481,3.25 -1.12865,5.35431 -1.11121,10.03952 0.0388,10.43355 0.6706,0.22976 0.91875,-0.73351 0.65388,-2.53821 -0.23478,-1.59967 0.0664,-3.21334 0.66924,-3.58594 0.73363,-0.45339 1.09615,0.83036 1.09615,3.88158 0,3.57555 -0.35701,4.55902 -1.65499,4.55902 -1.53998,0 -1.53998,0.12708 0,1.82874 3.04153,3.36085 1.2853,5.70039 -3.06509,4.08315 -2.75533,-1.02428 -3.99934,-5.34011 -2.17342,-7.54022 1.15065,-1.38645 1.06464,-1.54863 -0.63833,-1.20365 -1.56303,0.31664 -1.94426,1.16857 -1.85204,4.13868 0.15406,4.96142 2.7721,7.8296 6.54072,7.16567 l 2.86723,-0.50514 -0.26204,37.76639 -0.26204,37.76638 -118.5,0.5 -118.5,0.5 0.27298,-37.55742 z m 12.01022,-76.50328 c 5.61379,-3.93206 6.60509,-12.28996 2.16927,-18.28972 -1.88258,-2.54632 -2.04989,-3.32727 -0.98717,-4.60777 1.06341,-1.28133 1.00549,-1.54181 -0.34285,-1.54181 -0.89235,0 -1.62245,-0.72315 -1.62245,-1.60699 0,-1.14402 -0.50417,-1.39507 -1.75,-0.8714 -0.9625,0.40457 -2.74876,0.95255 -3.96946,1.21772 -3.94744,0.85752 -4.80371,2.85551 -3.42806,7.99891 0.84806,3.1708 0.9056,4.90368 0.1867,5.62258 -1.30433,1.30433 -1.34194,2.63918 -0.0744,2.63918 0.53065,0 1.47498,-0.95325 2.09851,-2.11833 0.89431,-1.67103 0.76628,-2.93313 -0.60633,-5.97703 -1.44503,-3.20449 -1.51862,-4.12546 -0.43411,-5.43222 0.72102,-0.86877 2.4305,-1.43892 3.81678,-1.27298 3.75548,0.44954 8.4409,9.76757 7.83976,15.59114 -0.45334,4.39167 -2.93408,8.20942 -5.33442,8.20942 -0.73975,0 -1.34501,0.45 -1.34501,1 0,1.42045 1.21095,1.24097 3.7832,-0.5607 z m -3.7832,-20.9393 c 0,-0.825 -0.675,-1.5 -1.5,-1.5 -0.825,0 -1.5,0.675 -1.5,1.5 0,0.825 0.675,1.5 1.5,1.5 0.825,0 1.5,-0.675 1.5,-1.5 z m -1,-19.53732 c 0,-0.39479 0.62732,-1.23842 1.39405,-1.87475 1.07633,-0.89327 1.76008,-0.79094 3,0.44898 0.88327,0.88327 1.60595,2.0988 1.60595,2.70118 0,0.60239 0.24185,0.85339 0.53744,0.5578 1.21234,-1.21234 -1.93778,-5.79589 -3.98332,-5.79589 -1.62043,0 -2.888,1.54757 -5.33949,6.51893 -4.04276,8.19831 -4.18647,10.80993 -0.19651,3.5713 1.64003,-2.97537 2.98188,-5.73277 2.98188,-6.12755 z M 565.14173,504.255 c 0.0386,-0.4125 0.45702,-1.65 0.92971,-2.75 0.76156,-1.77225 0.86743,-1.68684 0.92971,0.75 0.0387,1.5125 -0.37971,2.75 -0.92971,2.75 -0.55,0 -0.96837,-0.3375 -0.92971,-0.75 z m -205.09035,-3.77417 c -0.69572,-0.83829 -1.04022,-1.74888 -0.76557,-2.02354 0.90557,-0.90557 3.78563,0.7337 3.78563,2.1547 0,1.83458 -1.44056,1.77202 -3.02006,-0.13116 z m 0.27006,-3.13811 c -0.6875,-0.27741 -1.25,-1.17488 -1.25,-1.99438 0,-2.07178 3.39344,-1.25441 3.81184,0.91814 0.33727,1.75133 -0.26341,2.00368 -2.56184,1.07624 z m -4.58333,-2.00439 c -1.05826,-1.05825 -0.77303,-7.33333 0.33333,-7.33333 0.55,0 1,1.8 1,4 0,4.08728 -0.16554,4.50113 -1.33333,3.33333 z m 3.33333,-3.72634 c 0,-1.76986 2.72065,-2.86801 3.59609,-1.45151 0.36308,0.58747 0.04,1.46092 -0.71798,1.94101 -1.98218,1.2555 -2.87811,1.10312 -2.87811,-0.4895 z m 1.50555,-5.61312 c 1.98963,-2.19853 3.08052,-1.96353 2.14937,0.463 -0.32568,0.84872 -1.35102,1.54313 -2.27852,1.54313 -1.53891,0 -1.52762,-0.17542 0.12915,-2.00613 z m -11.50555,-5.60086 c 0,-1.05452 0.5438,-1.39831 1.58179,-1 0.86998,0.33384 1.99498,0.60699 2.5,0.60699 0.50501,0 0.91821,0.45 0.91821,1 0,0.55 -1.125,1 -2.5,1 -1.62953,0 -2.5,-0.55953 -2.5,-1.60699 z"
         id="path3283"
         inkscape:connector-curvature="0" />
      <path
         style="fill:#45282c"
         d="m 330.75313,630.35336 c -2.34115,-2.34116 -0.12482,-2.93124 10.56831,-2.81374 6.1875,0.068 12.1125,0.20051 13.16667,0.2945 3.28584,0.29295 0.80337,1.48207 -3.66202,1.75413 -2.34006,0.14257 -4.25465,0.33497 -4.25465,0.42756 0,0.0926 -3.0375,0.31696 -6.75,0.49862 -4.66896,0.22845 -6.75472,-0.0304 -6.76531,-0.83958 -0.0107,-0.81673 -0.2577,-0.788 -0.81831,0.0952 -0.44164,0.69576 -1.10975,0.95826 -1.48469,0.58333 z M 527.57144,630.005 c -0.39059,-0.63199 -12.06594,-1 -31.72568,-1 -17.10921,0 -30.77019,-0.3375 -30.35773,-0.75 0.41246,-0.4125 15.89996,-0.81031 34.41667,-0.88403 18.51671,-0.0737 34.45424,-0.45936 35.41674,-0.85699 0.9625,-0.39763 1.75,-0.32619 1.75,0.15874 0,0.48493 6.525,0.78006 14.5,0.65583 10.74515,-0.16738 14.49949,0.0852 14.49801,0.97529 -10e-4,0.66064 -1.46359,1.40382 -3.25,1.65152 -4.44431,0.61622 -23.38336,0.56707 -28.04908,-0.0728 -2.09059,-0.28671 -4.02965,-0.15145 -4.30902,0.30058 -0.69389,1.12273 -2.14106,1.03353 -2.88991,-0.17814 z m -168.5,-1.38342 c 0,-0.8666 4.968,-1.25282 6.18535,-0.48086 0.838,0.5314 -0.045,0.83921 -2.43535,0.84897 -2.0625,0.008 -3.75,-0.15723 -3.75,-0.36811 z m 9.44198,-0.5227 c 0.30801,-0.49837 1.45956,-0.67088 2.55902,-0.38337 2.75155,0.71955 2.50402,1.28949 -0.56002,1.28949 -1.40746,0 -2.30701,-0.40775 -1.999,-0.90612 z m 14.80802,0.18987 c 1.5125,-0.22913 3.9875,-0.22913 5.5,0 1.5125,0.22912 0.275,0.41659 -2.75,0.41659 -3.025,0 -4.2625,-0.18747 -2.75,-0.41659 z m 9.75,0.33283 c 0,-0.21089 1.11138,-0.59588 2.46974,-0.85555 1.35835,-0.25966 2.2318,-0.0871 1.94098,0.38343 -0.51208,0.82856 -4.41072,1.24587 -4.41072,0.47212 z m 11.75,-0.27886 c 0.6875,-0.27741 1.8125,-0.27741 2.5,0 0.6875,0.27741 0.125,0.50439 -1.25,0.50439 -1.375,0 -1.9375,-0.22698 -1.25,-0.50439 z m 5,0 c 0.6875,-0.27741 1.8125,-0.27741 2.5,0 0.6875,0.27741 0.125,0.50439 -1.25,0.50439 -1.375,0 -1.9375,-0.22698 -1.25,-0.50439 z m 6,-0.0434 c 1.2375,-0.23836 3.2625,-0.23836 4.5,0 1.2375,0.23835 0.225,0.43337 -2.25,0.43337 -2.475,0 -3.4875,-0.19502 -2.25,-0.43337 z m 11.01166,-0.002 c 1.24391,-0.23919 3.04391,-0.23011 4,0.0202 0.95609,0.25029 -0.0617,0.446 -2.26166,0.4349 -2.2,-0.0111 -2.98225,-0.21589 -1.73834,-0.45508 z m 11.00625,-0.0175 c 1.79735,-0.22256 4.49735,-0.21797 6,0.0102 1.50265,0.22818 0.0321,0.41027 -3.26791,0.40466 -3.3,-0.006 -4.52944,-0.1923 -2.73209,-0.41486 z m 21.48209,0.0354 c 0.9625,-0.25152 2.5375,-0.25152 3.5,0 0.9625,0.25153 0.175,0.45733 -1.75,0.45733 -1.925,0 -2.7125,-0.2058 -1.75,-0.45733 z m -11.27143,-4.35071 c -0.59915,-1.11953 -0.82339,-2.87353 -0.4983,-3.89779 0.48841,-1.53885 1.28875,-1.76871 4.60825,-1.32347 l 4.01718,0.53882 -0.6964,-5.24975 -0.69641,-5.24974 3.39356,0.81875 c 3.77559,0.91091 5.41056,0.92197 15.09703,0.10208 5.86136,-0.49611 6.77498,-0.3421 7.27267,1.226 0.31306,0.98636 0.28585,2.53178 -0.0605,3.43426 -0.62798,1.63649 -1.13349,1.84616 -4.91569,2.03894 -1.41049,0.0719 -2.09389,0.91896 -2.31853,2.87379 -0.50663,4.40865 -3.90178,5.87726 -14.62523,6.3263 -8.73784,0.36589 -9.57446,0.23632 -10.57767,-1.63819 z m 14.52143,-5.95951 c 0.33992,-0.55 -0.30852,-1 -1.44098,-1 -1.13246,0 -2.05902,0.45 -2.05902,1 0,0.55 0.64844,1 1.44098,1 0.79254,0 1.7191,-0.45 2.05902,-1 z m 8.41667,-0.64364 c 0.22916,-0.196 -1.23334,-0.35636 -3.25,-0.35636 -2.01667,0 -3.66667,0.43875 -3.66667,0.975 0,0.86141 5.79185,0.34337 6.91667,-0.61864 z m -55.91667,4.70796 c 0,-3.08156 -1.4424,-4.06432 -5.96521,-4.06432 -2.11867,0 -2.90041,-0.54849 -3.20684,-2.25 -0.78757,-4.37325 0.10083,-5.78512 3.49733,-5.55803 1.74609,0.11674 3.39972,0.47113 3.67472,0.78752 0.275,0.31639 4.45574,0.33794 9.29054,0.0479 l 8.79054,-0.52737 -0.29054,4 -0.29054,4 5.25,-0.21713 c 4.82398,-0.1995 5.24876,-0.0372 5.23469,2 -0.0295,4.2684 -0.95494,4.57836 -13.7512,4.60568 l -12.23349,0.0261 0,-2.85034 z m -85,-3.58008 0,-5.63379 4.75,0.35899 c 2.6125,0.19745 5.26081,0.67571 5.88513,1.0628 0.62432,0.38709 2.60282,0.19217 4.39667,-0.43317 2.29039,-0.79843 3.7597,-0.82586 4.93462,-0.0921 1.70567,1.06521 8.60975,0.94431 14.02753,-0.24563 2.83356,-0.62236 3.00605,-0.48355 3.00605,2.4192 0,1.69371 0.40185,3.07946 0.89301,3.07946 1.73639,0 2.02884,2.86559 0.30011,2.94059 -0.93122,0.0404 -9.37353,0.21801 -18.76071,0.39468 -9.38717,0.17667 -17.59967,0.65007 -18.25,1.05199 -0.85644,0.52931 -1.18241,-0.82238 -1.18241,-4.90302 z m 234.71127,3.8937 c -0.34213,-0.34213 -8.66713,-0.54417 -18.5,-0.44896 l -17.87794,0.17309 0,-3.63915 c 0,-2.94917 0.46799,-3.81708 2.46832,-4.57761 1.78764,-0.67966 3.08888,-0.53183 4.71871,0.53607 1.23772,0.81099 2.51651,1.20842 2.84175,0.88317 1.07613,-1.07612 20.59881,-1.1768 21.25836,-0.10962 0.42133,0.68172 0.84807,0.665 1.29031,-0.0506 0.36343,-0.58804 1.65718,-0.8086 2.875,-0.49013 1.8061,0.47231 2.21422,1.2948 2.21422,4.4624 0,3.93812 -0.17332,4.37672 -1.28873,3.26131 z M 330.07144,577.56402 c 0,-21.15851 0.0386,-21.55902 2.07692,-21.55902 1.14231,0 3.39231,-1.31539 5,-2.92308 3.15408,-3.15408 3.84783,-2.8422 1.41236,0.63493 -1.52946,2.1836 -0.51542,4.04037 1.51967,2.78262 1.26835,-0.78388 5.1778,0.39434 4.57025,1.37737 -0.24741,0.40032 0.42106,1.27174 1.48548,1.93648 1.4456,0.9028 1.93532,0.91422 1.93532,0.0452 0,-0.66793 0.85444,-0.39021 2.00613,0.65206 1.10337,0.99854 1.77446,2.0472 1.4913,2.33035 -0.63141,0.63141 11.10661,8.15158 12.79276,8.1959 1.75268,0.0461 4.79389,2.55078 4.0276,3.31708 -0.35812,0.35811 -0.23862,0.68555 0.26554,0.72763 1.81047,0.15112 4.60544,0.77972 4.88407,1.09845 0.96552,1.10448 1.35619,4.53318 0.64542,5.66457 -0.68125,1.08441 -1.62917,0.9377 -4.97717,-0.77033 l -4.13565,-2.10985 0,5.43854 c 0,6.90871 -0.62073,8.51405 -3.04676,7.87963 -1.38063,-0.36104 -2.18709,0.20734 -2.87998,2.02979 -1.36445,3.58878 -3.66042,4.60345 -7.42555,3.28159 -1.73124,-0.6078 -3.66306,-1.43636 -4.29293,-1.84125 -0.63077,-0.40547 -1.38658,-0.10715 -1.68254,0.66409 -0.38778,1.01055 -2.3126,1.37756 -6.91626,1.31872 -3.50842,-0.0448 -6.91377,0.24903 -7.56746,0.65303 -0.90399,0.55869 -1.18852,-4.42667 -1.18852,-20.82447 z m 30.71758,1.70473 c -0.22985,-1.52006 -0.42406,-0.51375 -0.43157,2.23625 -0.007,2.75 0.18056,3.99369 0.41792,2.76375 0.23736,-1.22994 0.24351,-3.47994 0.0136,-5 z m -6.31222,-1.39725 c 0.36353,-2.27343 0.42105,-4.37343 0.1278,-4.66667 -0.86398,-0.86399 -1.22626,0.0516 -1.80042,4.55017 -0.69827,5.47102 0.79971,5.57536 1.67262,0.1165 z m -6.50504,-7.6165 c 0.0548,-1.2375 -0.35032,-2.25 -0.90032,-2.25 -0.55,0 -0.95514,2.1375 -0.90032,4.75 0.0812,3.87148 0.24776,4.28762 0.90032,2.25 0.44035,-1.375 0.8455,-3.5125 0.90032,-4.75 z m -13.90032,-1.41667 c 0,-2.84166 -0.16513,-4.97916 -0.36695,-4.75 -0.85122,0.96657 -1.31171,9.91667 -0.51021,9.91667 0.48244,0 0.87716,-2.325 0.87716,-5.16667 z m 6.68311,-4.02083 c -0.31922,-0.79773 -0.55618,-0.56078 -0.60416,0.60417 -0.0434,1.05416 0.19293,1.64479 0.52522,1.3125 0.33229,-0.33229 0.36782,-1.1948 0.079,-1.91667 z m 224.15348,33.69076 c -0.2732,-0.27321 -3.6107,-0.61071 -7.41666,-0.75 l -6.91993,-0.25326 0.26076,-4.18433 c 0.14341,-2.30139 -0.19409,-4.46545 -0.75,-4.80902 -0.55592,-0.34358 -1.01076,0.26507 -1.01076,1.35255 0,3.06595 -1.07224,5.1408 -2.65665,5.1408 -0.79347,0 -2.74191,0.67186 -4.32988,1.49303 -2.78095,1.43809 -2.96313,1.3864 -4.95034,-1.40437 -2.32433,-3.26423 -2.67504,-7.07675 -0.82149,-8.9303 0.93626,-0.93626 0.95458,-1.41905 0.0745,-1.96298 -0.64193,-0.39673 -1.35003,-2.51549 -1.57354,-4.70836 -0.23648,-2.32002 -0.47668,-0.77138 -0.5745,3.70396 -0.24553,11.23346 -4.12023,12.22156 -4.15279,1.05902 -0.0167,-5.71419 -0.92573,-6.4019 -4.83918,-3.66081 -1.24789,0.87406 -2.95458,1.32607 -3.79265,1.00447 -2.42061,-0.92887 -1.19056,-4.7633 2.11652,-6.59781 1.65,-0.91529 5.22236,-2.90225 7.93857,-4.41548 8.9021,-4.95942 20.56143,-12.75296 20.56143,-13.74405 0,-0.5341 0.89597,-0.68673 1.99105,-0.33916 3.02374,0.9597 3.97009,-0.14587 3.00508,-3.51065 -1.09514,-3.81852 -0.47486,-3.81296 1.50387,0.0135 1.1962,2.31319 2.23229,3 4.52568,3 l 2.97432,0 0,21.5 c 0,11.825 -0.15,21.5 -0.33333,21.5 -0.18334,0 -0.55687,-0.22353 -0.83008,-0.49674 z M 545.07144,581.005 c 0,-1.11111 -0.66667,-2 -1.5,-2 -1.08697,0 -1.5,-1.11767 -1.5,-4.05902 0,-2.35681 -0.4052,-3.80858 -0.96624,-3.46185 -1.40198,0.86648 -0.48694,9.61895 1.11151,10.63182 2.1164,1.34106 2.85473,1.05373 2.85473,-1.11095 z m 4.63894,-7.9919 c -0.0764,-3.29554 -0.21464,-5.99554 -0.30715,-6 -1.93806,-0.0933 -3.09434,1.49648 -2.41968,3.32698 0.43885,1.19071 0.69986,3.28992 0.58003,4.66492 -0.17119,1.96429 0.83971,3.84063 2.1468,3.98469 0.0764,0.008 0.0764,-2.68104 0,-5.97659 z m 7.81835,2.061 c 0.31644,-0.512 0.11799,-1.21356 -0.44098,-1.55902 -0.55897,-0.34546 -1.01631,-2.85156 -1.01631,-5.5691 0,-2.71754 -0.43345,-4.94098 -0.96323,-4.94098 -0.53021,0 -0.91343,2.92209 -0.85247,6.5 0.0783,4.59269 0.49031,6.5 1.40422,6.5 0.71139,0 1.55234,-0.41891 1.86877,-0.9309 z m 6.173,-2.3191 c -0.33164,-1.2375 -0.60913,-4.18906 -0.61664,-6.55902 -0.009,-2.72748 -0.39561,-4.07295 -1.05433,-3.66584 -0.57237,0.35375 -0.77195,1.48985 -0.44351,2.52467 0.32844,1.03483 0.1664,3.44161 -0.36009,5.34841 -1.01846,3.68853 -0.69545,4.60178 1.62758,4.60178 1.01566,0 1.26935,-0.67394 0.84699,-2.25 z m -202.63029,-26.67661 0,-7.92661 -5.75,-3.23513 c -3.1625,-1.77933 -7.775,-4.63377 -10.25,-6.34321 -4.94614,-3.4162 -9.33907,-4.61562 -8.45359,-2.3081 0.46754,1.2184 -0.44589,1.93398 -5.79641,4.54091 -0.4125,0.20098 -0.75,-2.59708 -0.75,-6.21792 0,-6.25545 0.11779,-6.58333 2.36514,-6.58333 1.30083,0 3.55083,-0.93266 5,-2.07258 1.44917,-1.13992 2.63486,-1.61648 2.63486,-1.05902 0,0.55746 -0.45,1.29168 -1,1.6316 -1.96846,1.21657 -0.98887,2.71402 1.38558,2.11807 2.2904,-0.57485 5.28307,1.37995 4.03038,2.63263 -0.61859,0.6186 3.29905,2.19489 6.52232,2.6243 0.51606,0.0688 2.40717,1.46663 4.20249,3.10639 2.01767,1.84286 3.51572,2.57443 3.92283,1.91571 0.40604,-0.65699 1.38303,-0.16853 2.54751,1.27365 2.35701,2.9191 6.80653,5.82925 8.91272,5.82925 0.87681,0 1.31609,0.45 0.97617,1 -0.33992,0.55 0.075,1 0.92193,1 1.88646,0 3.2368,4.74127 1.76852,6.20955 -0.75083,0.75083 -2.08539,0.45997 -4.54318,-0.99016 -1.91403,-1.1293 -3.74267,-1.79065 -4.06366,-1.46967 -0.32099,0.32099 -0.58361,2.49681 -0.58361,4.83516 0,5.20703 -0.77632,7.41512 -2.60699,7.41512 -1.07352,0 -1.39301,-1.81798 -1.39301,-7.92661 z m 169.65799,7.25127 c -0.36189,-0.3619 -0.65799,-3.28299 -0.65799,-6.49133 0,-6.43054 -0.63149,-6.90499 -4.94542,-3.71556 -4.01798,2.97062 -5.32419,1.63432 -4.1822,-4.27856 0.0702,-0.36344 2.18704,-1.65775 4.70411,-2.87624 2.51707,-1.21849 5.99236,-3.50864 7.72286,-5.0892 1.73051,-1.58058 3.52823,-2.87377 3.99494,-2.87377 0.46671,0 1.52357,-0.675 2.34857,-1.5 0.825,-0.825 2.30214,-1.5 3.28255,-1.5 0.9804,0 3.05439,-1.1787 4.60886,-2.61934 1.63986,-1.51978 4.46311,-2.83888 6.72543,-3.14232 3.23576,-0.434 3.81394,-0.84876 3.39839,-2.43781 -0.37541,-1.43557 -0.19093,-1.65771 0.73706,-0.88755 0.68079,0.56501 2.67038,1.13644 4.42132,1.26986 l 3.18353,0.24258 0,6.37062 c 0,4.7406 -0.31983,6.22154 -1.25,5.78794 -0.6875,-0.32048 -2.0375,-0.86047 -3,-1.19997 -0.9625,-0.3395 -1.75,-1.47336 -1.75,-2.51969 0,-2.62372 -3.94169,-1.59579 -10.5621,2.75444 -2.78416,1.82945 -6.60916,4.00616 -8.5,4.83714 -6.45917,2.83863 -6.9379,3.6171 -6.9379,11.2819 0,4.65049 -0.45264,7.39297 -1.34201,8.13108 -0.7381,0.61257 -1.6381,0.81767 -2,0.45578 z m -199.65799,-2.76564 c 0,-0.85746 0.45,-1.55902 1,-1.55902 0.55,0 1,0.42344 1,0.94098 0,0.51754 -0.45,1.2191 -1,1.55902 -0.55,0.33992 -1,-0.0835 -1,-0.94098 z m 232.45888,0.37445 c -0.36253,-0.58659 -0.41903,-1.30665 -0.12555,-1.60014 0.71632,-0.71631 2.66667,0.54583 2.66667,1.72569 0,1.27797 -1.72641,1.19267 -2.54112,-0.12555 z m -227.37993,-2.5168 c 0.048,-1.16495 0.28494,-1.4019 0.60416,-0.60417 0.28887,0.72187 0.25335,1.58438 -0.0789,1.91667 -0.33229,0.33229 -0.56864,-0.25834 -0.52522,-1.3125 z m 7.07894,-3.41667 c 0,-1.375 0.22698,-1.9375 0.50439,-1.25 0.27741,0.6875 0.27741,1.8125 0,2.5 -0.27741,0.6875 -0.50439,0.125 -0.50439,-1.25 z m 219.47828,0.49426 c -0.31537,-0.82185 -0.16408,-1.49426 0.3362,-1.49426 1.35555,0 2.19731,1.7771 1.14873,2.42516 -0.50134,0.30984 -1.16956,-0.10906 -1.48493,-0.9309 z m -231.63617,0.11273 c 0,-0.21616 0.675,-0.65203 1.5,-0.96862 0.825,-0.31658 1.5,-0.13972 1.5,0.39301 0,0.53274 -0.675,0.96862 -1.5,0.96862 -0.825,0 -1.5,-0.17686 -1.5,-0.39301 z m -0.98469,-5.85699 c 0.0116,-2.46622 0.24909,-2.88826 0.98469,-1.75 1.2702,1.96549 1.2702,5 0,5 -0.55,0 -0.99311,-1.4625 -0.98469,-3.25 z m 235.06364,1.66667 c 0.048,-1.16495 0.28494,-1.4019 0.60416,-0.60417 0.28887,0.72187 0.25335,1.58438 -0.0789,1.91667 -0.3323,0.33229 -0.56864,-0.25834 -0.52522,-1.3125 z m -224.38112,-2.02188 c -1.39232,-1.86141 -2.20577,-2.19332 -3.57693,-1.45949 -1.33121,0.71244 -2.20743,0.44452 -3.5059,-1.07198 -2.15849,-2.52093 -1.72754,-5.23961 0.89648,-5.65559 1.53012,-0.24257 1.66678,-0.0956 0.5928,0.63759 -0.76764,0.52406 -1.11926,1.67325 -0.78138,2.55376 0.69313,1.80628 2.25014,2.10077 3.1771,0.60092 1.17311,-1.89814 2.60701,-0.98814 4.10961,2.60809 1.82898,4.37737 1.50334,5.01549 -0.91178,1.7867 z m 212.51544,2.10521 c 0.93879,-2.77003 4.25066,-8.5 4.91293,-8.5 0.41567,0 1.03388,0.45 1.3738,1 0.99963,1.61744 3.32437,1.14623 3.70014,-0.75 0.22942,-1.15773 0.59086,-1.36221 1.06796,-0.60416 0.39665,0.6302 -0.12483,2.19061 -1.15884,3.46756 -1.681,2.07595 -2.06635,2.1671 -3.64002,0.86107 -1.56172,-1.29611 -1.88442,-1.25454 -2.86461,0.36906 -1.59255,2.63791 -3.78908,5.32998 -3.39136,4.15647 z m -2.21327,-6.42857 c 0,-3.18333 1.63792,-4.17856 2.62851,-1.59713 0.31116,0.81087 -0.15296,2.19301 -1.03138,3.07143 -1.46284,1.46284 -1.59713,1.33887 -1.59713,-1.4743 z m -208.92611,-0.4824 c -0.88728,-1.0691 -0.88986,-1.58473 -0.0106,-2.12812 1.07572,-0.66483 2.88621,1.06364 2.92144,2.78909 0.0252,1.23246 -1.65627,0.85064 -2.9108,-0.66097 z m 15.46969,-19.83028 c -0.84897,-1.21207 -1.54358,-2.55854 -1.54358,-2.99216 0,-2.57725 -15.27967,-33.28905 -16.5,-33.16464 -0.55,0.0561 -1.86122,1.57387 -2.91381,3.37287 -1.53349,2.62091 -1.68254,3.64126 -0.75,5.13448 1.54758,2.47808 1.46998,3.8907 -0.21375,3.8907 -0.75765,0 -1.93775,0.675 -2.62244,1.5 -0.68469,0.825 -1.63979,1.5 -2.12244,1.5 -1.14445,0 -1.145,-4.73168 -6e-4,-5.16667 0.48232,-0.18333 2.54123,-3.65192 4.57534,-7.70798 2.80911,-5.60141 3.98084,-7.09921 4.87305,-6.22912 0.64606,0.63005 5.03954,9.57365 9.76329,19.87466 7.51451,16.38676 8.85895,18.69932 10.75,18.4909 2.6911,-0.2966 2.78724,0.86625 0.20494,2.47892 -1.66532,1.04001 -2.1861,0.8939 -3.5,-0.98196 z m 205.06273,-2.34231 c -0.37373,-0.97391 -0.15024,-1.43108 0.58051,-1.1875 1.49484,0.49828 2.31789,2.77106 1.0035,2.77106 -0.53699,0 -1.24979,-0.7126 -1.58401,-1.58356 z M 336.57144,511.005 c 0.33992,-0.55 0.81648,-1 1.05902,-1 0.24254,0 0.44098,0.45 0.44098,1 0,0.55 -0.47656,1 -1.05902,1 -0.58246,0 -0.7809,-0.45 -0.44098,-1 z m 222.5,0.11803 c 0,-0.55 0.45,-1.27811 1,-1.61803 0.55,-0.33992 1,-0.16803 1,0.38197 0,0.55 -0.45,1.27811 -1,1.61803 -0.55,0.33992 -1,0.16803 -1,-0.38197 z M 350.94231,492.11849 c -7.74464,-16.70558 -8.89848,-18.64599 -11.2569,-18.93058 -2.37166,-0.28618 -2.96822,0.39332 -6.12087,6.97179 l -3.4931,7.28888 0.0997,-5.97179 c 0.0628,-3.76149 0.34305,-5.10586 0.75721,-3.63221 0.60324,2.14637 0.84168,1.96056 2.88733,-2.25 1.87633,-3.86207 2.68282,-4.58958 5.0878,-4.58958 1.5719,0 3.55917,0.7875 4.41615,1.75 2.05327,2.3061 16.89206,35.37487 16.53138,36.84078 -0.15375,0.62491 -4.16266,-7.23987 -8.90868,-17.47729 z m 10.38874,14.78503 c -1.13263,-3.02048 -1.10256,-3.17004 0.34608,-1.7214 0.87257,0.87257 1.43074,2.36111 1.2404,3.30788 -0.23826,1.18507 -0.73256,0.69076 -1.58648,-1.58648 z m -31.25961,1.71806 c 0,-0.21089 1.11138,-0.59588 2.46974,-0.85555 1.35835,-0.25966 2.2318,-0.0871 1.94098,0.38343 -0.51208,0.82856 -4.41072,1.24587 -4.41072,0.47212 z m 10.65409,-7.7097 c -3.71143,-6.797 -3.91248,-6.98302 -5.75,-5.32009 -1.64332,1.48719 -1.90409,1.51118 -1.90409,0.17519 0,-1.83902 2.3764,-2.93851 4.54913,-2.10475 1.66036,0.63714 7.7665,11.91249 7.25679,13.4001 -0.16826,0.49105 -2.03658,-2.27665 -4.15183,-6.15045 z m -10.4084,-0.25512 c -0.0861,-4.31522 0.0279,-4.66462 0.70206,-2.15176 0.44266,1.65 1.11137,3.72943 1.48601,4.62096 0.41051,0.97685 0.13153,1.83187 -0.70206,2.15175 -1.06005,0.40678 -1.40725,-0.6729 -1.48601,-4.62095 z m 222.75431,3.90509 c 0,-0.32813 1.17122,-2.45193 2.60271,-4.71955 1.84066,-2.91579 2.83588,-3.74568 3.39907,-2.83441 1.07829,1.74469 3.99449,0.49386 4.01353,-1.72151 0.013,-1.51589 0.15979,-1.55783 0.98469,-0.28138 1.56658,2.42411 1.16656,3.60308 -1.65936,4.89065 -1.94839,0.88775 -2.8446,0.91196 -3.35225,0.0906 -0.44241,-0.71584 -1.65002,0.0164 -3.34064,2.02556 -1.45626,1.73067 -2.64775,2.8782 -2.64775,2.55007 z m -219,-4.44986 c 0,-1.01369 3.04579,-2.39454 3.74326,-1.69706 0.25136,0.25135 0.16039,0.93695 -0.20214,1.52354 -0.79781,1.29088 -3.54112,1.42531 -3.54112,0.17352 z m 26.5,-0.10699 c -0.33992,-0.55 -0.14148,-1 0.44098,-1 0.58246,0 1.05902,0.45 1.05902,1 0,0.55 -0.19844,1 -0.44098,1 -0.24254,0 -0.7191,-0.45 -1.05902,-1 z m 190.67578,-2.10435 c 0.17832,-1.86761 0.77422,-3.30692 1.32422,-3.19847 1.72067,0.33928 1.71997,3.22571 -0.001,4.94688 -1.52966,1.52965 -1.6241,1.40484 -1.32302,-1.74841 z m -207.64456,-0.18878 c -0.42806,-0.98622 -0.4977,-2.07372 -0.15476,-2.41667 1.01549,-1.01549 1.83409,0.41095 1.3667,2.38153 -0.41435,1.74694 -0.46826,1.74851 -1.21194,0.0351 z m 15.46878,-1.70687 c 0,-0.55 0.675,-1 1.5,-1 0.825,0 1.5,0.45 1.5,1 0,0.55 -0.675,1 -1.5,1 -0.825,0 -1.5,-0.45 -1.5,-1 z m -3.06749,-1.25 c -0.72118,-2.67148 -0.67531,-6.75 0.0759,-6.75 0.54537,0 0.99158,1.575 0.99158,3.5 0,1.925 -0.225,3.5 -0.5,3.5 -0.275,0 -0.53037,-0.1125 -0.56749,-0.25 z m 208.75847,-2.5 c -0.44496,-0.6875 -1.68246,-1.25 -2.75,-1.25 -1.42678,0 -1.94098,-0.69319 -1.94098,-2.61663 0,-2.25385 -0.31195,-2.51979 -2.25,-1.91811 -1.2375,0.38419 -2.925,0.82161 -3.75,0.97206 -0.825,0.15044 -2.74078,0.61319 -4.25729,1.02834 -2.87127,0.78602 -5.88226,-0.60521 -9.80957,-4.53252 -2.38812,-2.38812 -2.70547,-8.93314 -0.43314,-8.93314 0.825,0 1.5,-0.675 1.5,-1.5 0,-1.32306 -11.4864,-1.5 -97.37756,-1.5 -85.33787,0 -97.53147,-0.18546 -98.62244,-1.5 -1.1053,-1.3318 11.21543,-1.5 109.87756,-1.5 l 111.12244,0 0,7.91667 c 0,5.39615 -0.39797,8.07815 -1.25,8.42387 -0.97848,0.39703 -0.96109,0.71021 0.0801,1.44184 0.74334,0.52234 1.18447,2.21015 1,3.82613 -0.21776,1.90754 -0.60538,2.46612 -1.1391,1.64149 z m -205.69098,-1.25 c 0,-0.55 0.675,-1 1.5,-1 0.825,0 1.5,0.45 1.5,1 0,0.55 -0.675,1 -1.5,1 -0.825,0 -1.5,-0.45 -1.5,-1 z m -6.5,-3 c -0.33992,-0.55 -0.14148,-1 0.44098,-1 0.58246,0 1.05902,0.45 1.05902,1 0,0.55 -0.19844,1 -0.44098,1 -0.24254,0 -0.7191,-0.45 -1.05902,-1 z m 7.5,-1.5 c 0.68469,-0.825 1.69489,-1.5 2.24489,-1.5 0.55783,0 0.44954,0.66326 -0.24489,1.5 -0.68469,0.825 -1.69489,1.5 -2.24489,1.5 -0.55783,0 -0.44954,-0.66326 0.24489,-1.5 z m -9.1875,-6.18311 c 0.72187,-0.28888 1.58438,-0.25335 1.91667,0.079 0.33229,0.33229 -0.25834,0.56864 -1.3125,0.52522 -1.16495,-0.048 -1.4019,-0.28494 -0.60417,-0.60417 z m -20.46413,-8.78234 c 0.3584,-0.93397 0.65163,-1.88632 0.65163,-2.11634 0,-0.23001 0.675,-0.41821 1.5,-0.41821 2.19932,0 1.82839,1.75388 -0.65163,3.08115 -1.85771,0.99421 -2.06261,0.91955 -1.5,-0.5466 z"
         id="path3281"
         inkscape:connector-curvature="0" />
      <path
         style="fill:#2f311d"
         d="m 416.08617,623.61973 c -0.5581,-0.5581 -1.01473,-2.01941 -1.01473,-3.24734 0,-2.38788 -2.66232,-3.81793 -5.25537,-2.82289 -1.99447,0.76535 -4.6903,-3.03624 -4.00674,-5.6502 0.41111,-1.57209 1.1555,-1.8844 3.63947,-1.52692 1.71745,0.24717 3.12264,0.53031 3.12264,0.62921 0,0.69645 15.36006,0.53862 16.75,-0.17211 1.44104,-0.73686 1.75,-0.44876 1.75,1.63186 0,1.44371 -0.85725,3.06207 -2,3.77573 -1.1,0.68696 -2,1.6211 -2,2.07586 0,0.45477 0.9,0.5412 2,0.19207 1.19199,-0.37832 2,-0.1797 2,0.49163 0,0.61952 0.3375,0.91935 0.75,0.66628 1.7642,-1.08234 8.19931,-1.54895 8.76387,-0.63546 1.00554,1.627 -0.4727,4.82971 -2.53068,5.48288 -1.05297,0.33421 -3.47252,0.17745 -5.37677,-0.34833 -1.90424,-0.52579 -6.18807,-0.63458 -9.51961,-0.24176 -3.74363,0.44141 -6.44495,0.32662 -7.07208,-0.30051 z m 32.54008,0.60674 c -0.30515,-0.30514 -0.55481,-1.83838 -0.55481,-3.40719 0,-2.91706 0.7832,-3.07008 6.65223,-1.29966 0.63373,0.19117 1.42212,0.0777 1.75198,-0.25216 0.80412,-0.80412 15.65941,-0.96854 16.14754,-0.17872 0.8228,1.33132 -2.34394,4.17487 -5.12467,4.60165 -4.87304,0.74791 -18.27962,1.12873 -18.87227,0.53608 z m -106.24864,-2.42952 c -1.45155,-0.38942 -4.52992,-0.44889 -6.84082,-0.13215 -4.92842,0.67552 -5.60155,-0.0456 -4.77825,-5.11902 l 0.61205,-3.77163 4.49954,0.61674 c 2.47474,0.3392 5.10743,1.12124 5.85042,1.73786 0.84107,0.69803 1.35089,0.73882 1.35089,0.10808 0,-0.62851 4.31625,-0.98824 11.37087,-0.94768 l 11.37086,0.0654 1.5072,3.32524 c 0.82895,1.82888 1.22456,3.35624 0.87913,3.39414 -0.34543,0.0379 -1.97806,0.27921 -3.62806,0.53625 -5.17742,0.80657 -19.43637,0.92658 -22.19383,0.1868 z M 529.3653,620.755 c -0.0217,-0.6875 -0.15,-1.7 -0.28509,-2.25 -1.05162,-4.28161 2.6016,-6.45663 6.5259,-3.88533 1.54873,1.01477 2.49239,1.15057 2.94183,0.42335 0.36393,-0.58885 1.15468,-0.76596 1.75722,-0.39357 0.98988,0.61177 9.36145,0.55223 15.76628,-0.11215 1.375,-0.14263 3.02244,0.15111 3.66097,0.65275 0.70483,0.55372 1.39279,0.53698 1.751,-0.0426 0.32451,-0.52507 1.48957,-0.71944 2.58903,-0.43193 1.51029,0.39495 1.999,1.36433 1.999,3.96514 0,2.32195 -0.37102,3.21308 -1.13991,2.73788 -1.09138,-0.67451 -6.2532,-0.66129 -17.61009,0.0451 -2.8875,0.17961 -5.25,-0.0751 -5.25,-0.56604 0,-0.49093 -0.675,-0.8926 -1.5,-0.8926 -0.825,0 -1.5,0.45 -1.5,1 0,1.51726 -9.65819,1.26849 -9.70614,-0.25 z m -73.08761,-6.00148 c -0.6174,-0.74393 -0.86671,-2.33092 -0.55402,-3.52666 0.47462,-1.81493 0.89484,-1.99944 2.5438,-1.11695 1.08639,0.58142 2.23282,0.79958 2.54761,0.48479 0.31479,-0.31479 1.17625,-0.0711 1.91435,0.54142 0.99347,0.8245 1.73293,0.78934 2.84718,-0.13541 0.95913,-0.79601 3.31715,-1.07507 6.5,-0.76924 2.74716,0.26397 4.99483,0.096 4.99483,-0.37326 0,-1.33265 2.72997,-1.00054 3.26161,0.39679 0.26157,0.6875 0.12636,2.18912 -0.30047,3.33693 -0.7147,1.92197 -1.63988,2.10382 -11.70419,2.30056 -8.1737,0.15977 -11.21109,-0.1273 -12.0507,-1.13897 z M 332.74285,597.25319 c -2.02845,-0.28413 -2.66492,-0.82272 -2.25,-1.90398 0.31822,-0.82928 0.57859,-5.71566 0.57859,-10.85861 0,-8.47257 0.18785,-9.41044 2,-9.9856 1.1,-0.34913 2,-1.23732 2,-1.97377 0,-0.84666 0.73537,-1.14669 2,-0.81598 1.1,0.28766 2,1.14553 2,1.90638 0,0.76085 0.45,1.38337 1,1.38337 0.55,0 1,-0.6605 1,-1.46778 0,-1.10105 0.56083,-1.26031 2.24466,-0.63742 1.23457,0.4567 2.24707,1.64096 2.25,2.63169 0.003,0.99074 0.56784,1.99007 1.25534,2.22076 0.6875,0.23068 1.25,-0.30892 1.25,-1.1991 0,-1.33593 0.3678,-1.42168 2.10656,-0.49112 1.68066,0.89946 1.98471,1.7366 1.5039,4.14067 -0.49391,2.46955 -0.31793,2.90402 0.97523,2.40779 0.86784,-0.33302 1.76608,-0.60549 1.9961,-0.60549 0.23001,0 0.41821,-0.67881 0.41821,-1.50847 0,-1.25815 0.33189,-1.30121 2,-0.25946 1.1,0.68696 2,2.16565 2,3.28597 0,1.12032 0.73482,3.08605 1.63293,4.36828 0.90249,1.28848 1.22765,2.61814 0.7269,2.97251 -0.49831,0.35264 -1.69351,1.87867 -2.65598,3.39117 -1.75229,2.75367 -5.93715,3.79957 -7.17686,1.79367 -0.32507,-0.52598 -1.20611,-0.7203 -1.95786,-0.43182 -0.75176,0.28847 -1.68055,0.0169 -2.06398,-0.60352 -0.49356,-0.79859 -1.03416,-0.70776 -1.85115,0.31103 -1.22991,1.5337 -8.3021,2.58442 -12.98259,1.92883 z m 13.0117,-7.43569 c -0.31922,-0.79773 -0.55618,-0.56078 -0.60416,0.60417 -0.0434,1.05416 0.19293,1.64479 0.52522,1.3125 0.33229,-0.3323 0.36782,-1.1948 0.079,-1.91667 z m 205.41826,6.80965 c -0.63715,-0.76773 -0.83704,-2.69378 -0.47002,-4.52891 0.51089,-2.55445 0.17366,-3.62625 -1.68615,-5.35892 -2.15428,-2.00702 -2.26476,-2.02169 -1.50639,-0.20009 2.46854,5.92947 1.99461,6.9215 -4.37269,9.15305 -4.01707,1.40786 -4.56899,1.17474 -6.62312,-2.79751 -1.36536,-2.64031 -1.37386,-3.32199 -0.074,-5.92768 0.83469,-1.67318 1.07208,-3.18947 0.54988,-3.5122 -1.44294,-0.89181 -1.07386,-3.44989 0.49779,-3.44989 0.77916,0 1.56666,0.41673 1.75,0.92606 0.18333,0.50934 1.50961,1.21775 2.94728,1.57426 2.07689,0.51503 2.72084,0.23944 3.13422,-1.34134 0.295,-1.12806 1.54467,-2.13447 2.88605,-2.32426 1.92109,-0.2718 2.31167,-0.85164 2.07793,-3.08472 -0.22839,-2.18193 0.12663,-2.75 1.71862,-2.75 1.28874,0 1.81828,0.4904 1.48037,1.37096 -0.65717,1.71257 2.5557,3.0622 3.95608,1.66182 0.56803,-0.56803 2.74278,-1.03278 4.83278,-1.03278 l 3.8,0 0,11.3673 0,11.3673 -4.05784,-0.34403 c -2.23182,-0.18922 -4.47252,-0.60032 -4.97934,-0.91355 -0.50682,-0.31323 -1.78353,-0.10815 -2.83715,0.45572 -1.40176,0.7502 -2.21307,0.66688 -3.0243,-0.31059 z M 531.07144,590.005 c 0,-0.55 0.45,-1 1,-1 0.55,0 1,0.45 1,1 0,0.55 -0.45,1 -1,1 -0.55,0 -1,-0.45 -1,-1 z m -10,-10.42668 c 0,-0.92763 0.855,-1.57332 2.08333,-1.57332 2.43705,0 2.09257,2.33677 -0.4162,2.82332 -0.98676,0.19138 -1.66713,-0.31876 -1.66713,-1.25 z m 22,-1.37332 c 0,-1.05167 2.17195,-3.2 3.23518,-3.2 0.45935,0 0.35352,0.9 -0.23518,2 -1.05696,1.97494 -3,2.75216 -3,1.2 z m -13.45729,-1.1309 c -0.31644,-0.512 -0.11799,-1.21356 0.44098,-1.55902 0.55897,-0.34546 1.01631,0.0734 1.01631,0.9309 0,1.75653 -0.60006,2.01516 -1.45729,0.62812 z m -174.61659,-5.65812 c -0.71527,-0.86185 -3.46626,-2.66447 -6.11331,-4.00583 -2.64704,-1.34137 -4.81281,-2.89709 -4.81281,-3.45718 0,-1.14997 3.64255,0.55173 5.80079,2.70997 0.73814,0.73813 1.87242,1.35207 2.52064,1.3643 1.94792,0.0367 6.04621,3.63251 4.92791,4.32366 -0.5625,0.34764 -1.60795,-0.0731 -2.32322,-0.93492 z m 201.74055,0.92235 c -1.26014,-1.26013 -0.66215,-2.10104 1.83333,-2.57808 2.79973,-0.5352 3.55238,1.62694 0.91821,2.63776 -1.95858,0.75158 -1.93988,0.75199 -2.75154,-0.0597 z m -18.66667,-1.09278 c 0,-0.4177 1.0125,-1.38145 2.25,-2.14166 2.24201,-1.37729 2.24323,-1.37459 0.34501,0.75946 -2.03808,2.29128 -2.59501,2.58792 -2.59501,1.3822 z m 7,-4.86668 c 0,-0.62658 7.93307,-5.37387 8.98013,-5.37387 0.56093,0 1.01987,0.45 1.01987,1 0,0.55 -0.85186,1 -1.89301,1 -1.04116,0 -2.12919,0.61547 -2.41786,1.36772 -0.44636,1.16319 -5.68913,3.01195 -5.68913,2.00615 z m 13.5,-6.37387 c -0.37325,-0.60393 0.98962,-1 3.44098,-1 2.23246,0 4.05902,0.45 4.05902,1 0,0.55 -1.54844,1 -3.44098,1 -1.89254,0 -3.7191,-0.45 -4.05902,-1 z m -222.5,-5 c 0,-0.55 0.47656,-1 1.05902,-1 0.58246,0 0.7809,0.45 0.44098,1 -0.33992,0.55 -0.81648,1 -1.05902,1 -0.24254,0 -0.44098,-0.45 -0.44098,-1 z m 25.66667,-2.66667 c -0.36667,-0.36666 -0.66667,-1.54676 -0.66667,-2.62244 0,-1.62509 0.25363,-1.74529 1.5,-0.71089 0.825,0.68469 1.5,1.86479 1.5,2.62244 0,1.45708 -1.21652,1.82771 -2.33333,0.71089 z M 531.07144,551.005 c 0,-0.55 0.45,-1 1,-1 0.55,0 1,0.45 1,1 0,0.55 -0.45,1 -1,1 -0.55,0 -1,-0.45 -1,-1 z m -10,-8.87756 c 0,-1.16734 0.42344,-2.12244 0.94098,-2.12244 1.73246,0 2.053,1.7601 0.54801,3.00914 -1.23911,1.02837 -1.48899,0.87956 -1.48899,-0.8867 z m -150.39917,-0.42505 c -1.59626,-1.16722 -1.62068,-1.43602 -0.23493,-2.58609 1.90245,-1.5789 3.6341,-0.65082 3.6341,1.94772 0,2.26908 -0.93014,2.44377 -3.39917,0.63837 z m -36.00106,-4.43095 c -1.25052,-1.25053 -0.52297,-2.05912 1.40023,-1.55619 1.11819,0.29241 2,0.0307 2,-0.59362 0,-0.61415 0.45,-1.11663 1,-1.11663 0.55,0 1,0.37777 1,0.83948 0,1.11262 -4.6326,3.19459 -5.40023,2.42696 z m 200.42772,-3.00012 c 1.35988,-0.95352 3.82251,-2.44906 5.47251,-3.32343 1.65,-0.87436 4.69129,-2.61589 6.75843,-3.87007 2.50274,-1.51846 3.57713,-1.80787 3.21579,-0.86623 -0.29845,0.77774 -4.10659,3.29943 -8.46253,5.60374 -8.28313,4.38183 -11.18713,5.40301 -6.9842,2.45599 z M 342.57144,534.005 c -0.33992,-0.55 -0.14148,-1 0.44098,-1 0.58246,0 1.05902,0.45 1.05902,1 0,0.55 -0.19844,1 -0.44098,1 -0.24254,0 -0.7191,-0.45 -1.05902,-1 z m 12,-1.52451 -3,-2.51459 3.75,2.11833 c 2.0625,1.16508 3.75,2.29887 3.75,2.51955 0,1.00822 -1.74792,0.18348 -4.5,-2.12329 z m -22.5,1.14695 c 0,-0.20765 0.7875,-0.99515 1.75,-1.75 1.58606,-1.24387 1.62143,-1.2085 0.37756,0.37756 -1.30637,1.66575 -2.12756,2.19548 -2.12756,1.37244 z m 15.45888,-4.68897 c -1.17263,-1.89736 0.53762,-2.36554 2.27921,-0.62395 1.55895,1.55894 1.56169,1.69048 0.0352,1.69048 -0.9104,0 -1.95189,-0.47994 -2.31442,-1.06653 z m -8.45888,-5.93347 c 0,-0.55 0.45,-1 1,-1 0.55,0 1,0.45 1,1 0,0.55 -0.45,1 -1,1 -0.55,0 -1,-0.45 -1,-1 z m 215,0.10699 c 0,-1.10212 2.48202,-2.10699 5.20423,-2.10699 1.70054,0 1.83317,0.25001 0.79577,1.5 -1.33794,1.61212 -6,2.08376 -6,0.60699 z m 9,-1.10699 c -1.21296,-0.78387 -1.06944,-0.97231 0.75,-0.98469 1.2375,-0.008 2.25,0.43469 2.25,0.98469 0,1.25292 -1.06124,1.25292 -3,0 z m -204.39711,-6.83352 c -0.31922,-0.51651 0.34024,-1.17985 1.46546,-1.4741 1.24579,-0.32579 1.90132,-0.10139 1.67625,0.57381 -0.50142,1.50426 -2.42734,2.05616 -3.14171,0.90029 z m -3.14401,-6.23301 c -0.36253,-0.58659 -0.44468,-1.281 -0.18255,-1.54313 0.26212,-0.26213 0.74306,0.21781 1.06875,1.06653 0.67618,1.76211 0.0999,2.07206 -0.8862,0.4766 z m 6.10541,-2.64034 c -0.54268,-1.4252 -0.42782,-1.54006 0.5598,-0.5598 0.68342,0.67834 0.99067,1.48524 0.68278,1.79313 -0.30789,0.30789 -0.86705,-0.24711 -1.24258,-1.23333 z m 191.43571,-2.23411 c 0,-0.51754 0.44485,-1.21592 0.98855,-1.55194 0.56686,-0.35034 0.7345,0.0511 0.39301,0.94098 -0.66479,1.73242 -1.38156,2.04939 -1.38156,0.61096 z m 6.8125,-4.74213 c 0.72187,-0.28888 1.58437,-0.25335 1.91667,0.079 0.33229,0.33229 -0.25834,0.56864 -1.3125,0.52522 -1.16495,-0.048 -1.4019,-0.28494 -0.60417,-0.60417 z m -206.24821,-2.02376 c -0.54268,-1.4252 -0.42782,-1.54006 0.5598,-0.5598 0.68342,0.67834 0.99067,1.48524 0.68278,1.79313 -0.30789,0.30789 -0.86705,-0.24711 -1.24258,-1.23333 z m -10.02159,-0.22403 c -0.31643,-0.512 -0.11798,-1.21356 0.44099,-1.55902 0.55897,-0.34546 1.01631,0.0734 1.01631,0.9309 0,1.75653 -0.60006,2.01516 -1.4573,0.62812 z m 209.02159,-0.77597 c -0.54268,-1.4252 -0.42782,-1.54006 0.5598,-0.5598 0.68342,0.67834 0.99067,1.48524 0.68278,1.79313 -0.30789,0.30789 -0.86705,-0.24711 -1.24258,-1.23333 z m 11.10238,1.0402 c -0.36667,-0.36666 -0.66667,-1.13166 -0.66667,-1.7 0,-0.6266 0.46577,-0.56756 1.18333,0.15 0.65084,0.65084 0.95084,1.41584 0.66667,1.7 -0.28417,0.28417 -0.81667,0.21667 -1.18333,-0.15 z m -230.66667,-1.27431 c 0,-0.51754 0.44485,-1.21592 0.98855,-1.55194 0.56686,-0.35034 0.7345,0.0511 0.39301,0.94098 -0.66479,1.73242 -1.38156,2.04939 -1.38156,0.61096 z m 12.56429,-8.76589 c -0.54268,-1.4252 -0.42782,-1.54006 0.5598,-0.5598 0.68342,0.67834 0.99067,1.48524 0.68278,1.79313 -0.30789,0.30789 -0.86705,-0.24711 -1.24258,-1.23333 z m 13.93571,-0.29313 c 0.33992,-0.55 1.06803,-1 1.61803,-1 0.55,0 0.72189,0.45 0.38197,1 -0.33992,0.55 -1.06803,1 -1.61803,1 -0.55,0 -0.72189,-0.45 -0.38197,-1 z m 184.66389,-0.68938 c -4.20039,-2.0697 -6.40225,-5.37358 -5.98655,-8.98278 l 0.32266,-2.80142 2.71482,2.93863 c 1.49315,1.61625 2.99315,2.66031 3.33334,2.32013 0.34018,-0.34018 -0.31899,-1.55601 -1.46483,-2.70185 -1.18518,-1.18518 -2.08333,-3.37666 -2.08333,-5.08333 l 0,-3 12.5,0 12.5,0 0,7.48095 c 0,7.34322 -0.0506,7.49242 -2.75,8.10441 -1.5125,0.3429 -5.28996,1.25147 -8.39434,2.01905 -6.9102,1.70858 -6.61138,1.71679 -10.69177,-0.29379 z m -204.59751,-9.26364 c -1.42835,-0.51854 -1.60157,-0.9072 -0.66287,-1.48735 0.69891,-0.43195 1.76404,-0.29208 2.36696,0.31084 1.47541,1.47541 0.66344,2.036 -1.70409,1.17651 z"
         id="path3279"
         inkscape:connector-curvature="0" />
    </g>
  </g>
</svg>
